<svg xmlns="http://www.w3.org/2000/svg" width="550" height="150" viewBox="0 0 550 150">
  <g id="Group_86536" data-name="Group 86536" transform="translate(-36 -2368.482)">
    <g id="btn_2" transform="translate(-864 1408.482)">
      <rect id="Rectangle_5717" data-name="Rectangle 5717" width="550" height="150" transform="translate(900 960)" fill="#FF00FF"/>
      <path id="Path_114723" data-name="Path 114723" d="M10.248-22.568H2.464v2.044h7.784Zm.812,3.7H1.12V-16.8h9.94Zm-.728,3.808H2.352v2.016h7.98ZM2.352-9.3h7.98V-11.34H2.352Zm5.8,3.836v4.032H4.508V-5.46Zm2.212-2.1H2.324V1.848H4.508V.672H10.36Zm4.312-8.316H17.78v2.436H14.672Zm0-4.4H17.78v2.38H14.672Zm8.568,2.38H20.048v-2.38H23.24Zm0,4.452H20.048v-2.436H23.24ZM26.432-7V-9.324H20.16V-11.34h5.488V-22.4h-13.3v11.06H17.64v2.016H11.4V-7H16.52A16.9,16.9,0,0,1,10.388-.952a10.661,10.661,0,0,1,1.736,1.988A19.171,19.171,0,0,0,17.64-4.816v7h2.52V-5.068A23.313,23.313,0,0,0,25.4.868a9.813,9.813,0,0,1,1.764-1.96A19.8,19.8,0,0,1,21.364-7Zm24.556-7.9H45.052v-1.736h5.936Zm0,3.472H45.052V-13.16h5.936Zm0,3.528H45.052V-9.66h5.936ZM42.7-18.48V-6.048H53.424V-18.48H48.44c.252-.56.5-1.2.756-1.82h5.236v-1.932H41.72V-20.3h5.068c-.168.616-.336,1.232-.532,1.82ZM48.86-4.816a23.058,23.058,0,0,1,4.172,3.752L54.908-2.24A22.1,22.1,0,0,0,50.68-5.8ZM45-5.684a13.08,13.08,0,0,1-4.452,3.192A13.046,13.046,0,0,1,42.252-.924a17.28,17.28,0,0,0,4.9-4.088Zm-7-13.1H33.18v-1.764H38Zm0,3.5H33.18V-17.08H38ZM40.4-22.372h-9.52v8.9H40.4ZM36.988-5.04h4.4V-7h-4.4V-9.632h4.9V-11.62H29.4v1.988h5.348v6.944A7.314,7.314,0,0,1,32.956-5.18c.112-1.036.168-2.072.2-3.136H31.024C30.94-4.928,30.548-1.4,28.924.56a7.177,7.177,0,0,1,1.568,1.764,10.735,10.735,0,0,0,2.072-4.76c2.38,3.444,6.188,4.06,11.872,4.06H54.18A7.132,7.132,0,0,1,55.048-.56C53.144-.5,45.976-.5,44.436-.5a22.194,22.194,0,0,1-7.448-.868Z" transform="translate(1044 1047)" fill="#fff"/>
      <path id="Path_114577" data-name="Path 114577" d="M148.037,19.418l-1.616-2.692,15.894-6.6-15.894-6.6L148.037.841l22.384,9.288Z" transform="translate(1249.578 1025.159)" fill="#fff"/>
      <g id="open-book" transform="translate(939.998 1004.22)">
        <g id="Group_85074" data-name="Group 85074" transform="translate(0.002 -4.22)">
          <g id="Group_85073" data-name="Group 85073" transform="translate(0 0)">
            <path id="Path_106085" data-name="Path 106085" d="M290.257,202.63a1.168,1.168,0,0,0,1.57.51,100,100,0,0,1,10.323-4.593,1.167,1.167,0,0,0-.7-2.226,100.072,100.072,0,0,0-10.677,4.74A1.167,1.167,0,0,0,290.257,202.63Z" transform="translate(-250.464 -169.433)" fill="#fff"/>
            <path id="Path_106086" data-name="Path 106086" d="M291.3,100.868a1.165,1.165,0,0,0,.529-.127,100,100,0,0,1,10.323-4.593,1.167,1.167,0,0,0-.7-2.226,100.059,100.059,0,0,0-10.677,4.74,1.166,1.166,0,0,0,.531,2.206Z" transform="translate(-250.464 -81.034)" fill="#fff"/>
            <path id="Path_106087" data-name="Path 106087" d="M68.835,17.5a1.166,1.166,0,0,0-1.167,1.167v45.5a3.5,3.5,0,0,1-3.5,3.5h-28V64.983A34.381,34.381,0,0,1,46.669,63,60.177,60.177,0,0,1,63.8,65.274a1.167,1.167,0,0,0,1.534-1.107V12.834a1.165,1.165,0,0,0-.914-1.139s-.915-.2-2.478-.491a1.167,1.167,0,0,0-.422,2.295c.6.11,1.1.206,1.481.284V62.616a65.887,65.887,0,0,0-16.333-1.949A36.652,36.652,0,0,0,35.047,62.9,27.331,27.331,0,0,0,24.5,60.667a78.618,78.618,0,0,0-17.5,2V13.737a76.793,76.793,0,0,1,17.5-2.07,25.3,25.3,0,0,1,9.333,1.923V59.5a1.166,1.166,0,0,0,1.768,1c.116-.069,11.675-6.973,21.934-10.393a1.167,1.167,0,0,0,.8-1.107V1.167A1.168,1.168,0,0,0,56.758.074,124.106,124.106,0,0,0,37.884,9.511,1.167,1.167,0,1,0,39.12,11.49,124.7,124.7,0,0,1,56,2.873V48.165a130.743,130.743,0,0,0-19.833,9.309V12.834a1.168,1.168,0,0,0-.645-1.044A27.015,27.015,0,0,0,24.5,9.334,75.72,75.72,0,0,0,5.514,11.713a1.166,1.166,0,0,0-.846,1.121V64.167a1.166,1.166,0,0,0,1.167,1.167,1.15,1.15,0,0,0,.32-.046A74.942,74.942,0,0,1,24.5,63a25.239,25.239,0,0,1,9.333,1.924v2.743h-28a3.5,3.5,0,0,1-3.5-3.5v-45.5a1.167,1.167,0,0,0-2.333,0v45.5A5.84,5.84,0,0,0,5.835,70H64.169A5.84,5.84,0,0,0,70,64.167v-45.5A1.167,1.167,0,0,0,68.835,17.5Z" transform="translate(-0.002 0)" fill="#fff"/>
            <path id="Path_106088" data-name="Path 106088" d="M290.257,151.43a1.168,1.168,0,0,0,1.57.51,99.992,99.992,0,0,1,10.323-4.593,1.167,1.167,0,0,0-.7-2.226,100.058,100.058,0,0,0-10.677,4.74A1.167,1.167,0,0,0,290.257,151.43Z" transform="translate(-250.464 -125.233)" fill="#fff"/>
            <path id="Path_106089" data-name="Path 106089" d="M290.257,253.83a1.168,1.168,0,0,0,1.57.51,100.01,100.01,0,0,1,10.323-4.593,1.167,1.167,0,0,0-.7-2.226,100.077,100.077,0,0,0-10.677,4.74A1.167,1.167,0,0,0,290.257,253.83Z" transform="translate(-250.464 -213.633)" fill="#fff"/>
            <path id="Path_106090" data-name="Path 106090" d="M101.933,154.29c-7.2-1.691-15.391.463-15.735.555a1.167,1.167,0,0,0,.3,2.294,1.188,1.188,0,0,0,.3-.04c.078-.022,7.96-2.1,14.6-.538a1.166,1.166,0,1,0,.532-2.271Z" transform="translate(-73.667 -132.638)" fill="#fff"/>
            <path id="Path_106091" data-name="Path 106091" d="M101.933,205.493c-7.2-1.689-15.391.463-15.735.555a1.167,1.167,0,0,0,.3,2.294,1.185,1.185,0,0,0,.3-.04c.078-.022,7.96-2.1,14.6-.538a1.166,1.166,0,1,0,.532-2.271Z" transform="translate(-73.667 -176.842)" fill="#fff"/>
            <path id="Path_106092" data-name="Path 106092" d="M290.257,305.03a1.168,1.168,0,0,0,1.57.51,99.99,99.99,0,0,1,10.323-4.593,1.167,1.167,0,0,0-.7-2.226,100.063,100.063,0,0,0-10.677,4.74A1.167,1.167,0,0,0,290.257,305.03Z" transform="translate(-250.464 -257.833)" fill="#fff"/>
            <path id="Path_106093" data-name="Path 106093" d="M101.933,256.692c-7.2-1.689-15.391.462-15.735.555a1.167,1.167,0,0,0,.3,2.295,1.183,1.183,0,0,0,.3-.041c.078-.022,7.96-2.1,14.6-.538a1.166,1.166,0,1,0,.532-2.271Z" transform="translate(-73.667 -221.04)" fill="#fff"/>
            <path id="Path_106094" data-name="Path 106094" d="M101.933,359.09c-7.2-1.691-15.391.463-15.735.555a1.167,1.167,0,0,0,.3,2.295,1.18,1.18,0,0,0,.3-.041c.078-.022,7.96-2.1,14.6-.538a1.166,1.166,0,1,0,.532-2.271Z" transform="translate(-73.667 -309.439)" fill="#fff"/>
            <path id="Path_106095" data-name="Path 106095" d="M101.933,307.889c-7.2-1.691-15.391.462-15.735.555a1.167,1.167,0,0,0,.3,2.295,1.186,1.186,0,0,0,.3-.041c.078-.022,7.96-2.1,14.6-.538a1.166,1.166,0,1,0,.532-2.271Z" transform="translate(-73.667 -265.237)" fill="#fff"/>
          </g>
        </g>
      </g>
    </g>
  </g>
</svg>
