<svg xmlns="http://www.w3.org/2000/svg" width="290" height="87" viewBox="0 0 290 87">
  <g id="Group_86536" data-name="Group 86536" transform="translate(-36 -2368.844)">
    <g id="btn_2" transform="translate(-864 1408.844)">
      <rect id="Rectangle_5717" data-name="Rectangle 5717" width="290" height="87" transform="translate(900 960)" fill="#FF00FF"/>
      <path id="Path_114724" data-name="Path 114724" d="M6.222-13.7H1.5v1.241H6.222Zm.493,2.244H.68V-10.2H6.715ZM6.273-9.146H1.428v1.224H6.273Zm-4.845,3.5H6.273V-6.885H1.428ZM4.947-3.315V-.867H2.737V-3.315ZM6.29-4.59H1.411V1.122H2.737V.408H6.29ZM8.908-9.639H10.8V-8.16H8.908Zm0-2.669H10.8v1.445H8.908Zm5.2,1.445H12.172v-1.445H14.11Zm0,2.7H12.172V-9.639H14.11Zm1.938,3.91V-5.661H12.24V-6.885h3.332V-13.6H7.5v6.715H10.71v1.224H6.919V-4.25H10.03A10.263,10.263,0,0,1,6.307-.578,6.473,6.473,0,0,1,7.361.629,11.64,11.64,0,0,0,10.71-2.924v4.25h1.53v-4.4a14.154,14.154,0,0,0,3.179,3.6A5.958,5.958,0,0,1,16.49-.663,12.022,12.022,0,0,1,12.971-4.25ZM30.957-9.044h-3.6V-10.1h3.6Zm0,2.108h-3.6V-7.99h3.6Zm0,2.142h-3.6V-5.865h3.6ZM25.925-11.22v7.548h6.511V-11.22H29.41c.153-.34.306-.731.459-1.105h3.179V-13.5H25.33v1.173h3.077c-.1.374-.2.748-.323,1.105Zm3.74,8.3A14,14,0,0,1,32.2-.646l1.139-.714A13.415,13.415,0,0,0,30.77-3.519Zm-2.346-.527a7.941,7.941,0,0,1-2.7,1.938,7.921,7.921,0,0,1,1.037.952,10.492,10.492,0,0,0,2.975-2.482Zm-4.25-7.956H20.145v-1.071h2.924Zm0,2.125H20.145V-10.37h2.924Zm1.462-4.3h-5.78v5.406h5.78ZM22.457-3.06h2.669V-4.25H22.457v-1.6h2.975V-7.055H17.85v1.207H21.1v4.216a4.441,4.441,0,0,1-1.088-1.513c.068-.629.1-1.258.119-1.9H18.836c-.051,2.057-.289,4.2-1.275,5.389a4.358,4.358,0,0,1,.952,1.071,6.518,6.518,0,0,0,1.258-2.89C21.216.612,23.528.986,26.979.986H32.9A4.33,4.33,0,0,1,33.422-.34c-1.156.034-5.508.034-6.443.034a13.475,13.475,0,0,1-4.522-.527Z" transform="translate(979 1011.002)" fill="#fff"/>
      <path id="Path_114577" data-name="Path 114577" d="M147.364,11.677l-.943-1.571,9.271-3.848-9.271-3.848.943-1.57,13.057,5.418Z" transform="translate(1014.578 997.16)" fill="#fff"/>
      <g id="open-book" transform="translate(924.998 988.221)">
        <g id="Group_85074" data-name="Group 85074" transform="translate(0.002 -4.22)">
          <g id="Group_85073" data-name="Group 85073" transform="translate(0 0)">
            <path id="Path_106085" data-name="Path 106085" d="M290.2,199.843a.657.657,0,0,0,.883.287,56.206,56.206,0,0,1,5.8-2.582.656.656,0,0,0-.4-1.251,56.248,56.248,0,0,0-6,2.664A.656.656,0,0,0,290.2,199.843Z" transform="translate(-267.835 -181.184)" fill="#fff"/>
            <path id="Path_106086" data-name="Path 106086" d="M290.787,97.8a.655.655,0,0,0,.3-.071,56.208,56.208,0,0,1,5.8-2.582.656.656,0,0,0-.4-1.251,56.242,56.242,0,0,0-6,2.664.656.656,0,0,0,.3,1.24Z" transform="translate(-267.835 -86.654)" fill="#fff"/>
            <path id="Path_106087" data-name="Path 106087" d="M38.692,9.837a.656.656,0,0,0-.656.656V36.067a1.97,1.97,0,0,1-1.967,1.967H20.331V36.525a19.325,19.325,0,0,1,5.9-1.114,33.824,33.824,0,0,1,9.63,1.278.656.656,0,0,0,.862-.622V7.214a.655.655,0,0,0-.513-.64S35.7,6.459,34.818,6.3a.656.656,0,0,0-.237,1.29c.335.062.616.116.832.159V35.2a37.034,37.034,0,0,0-9.181-1.1A20.6,20.6,0,0,0,19.7,35.356,15.362,15.362,0,0,0,13.773,34.1a44.19,44.19,0,0,0-9.836,1.123V7.721a43.164,43.164,0,0,1,9.836-1.163,14.218,14.218,0,0,1,5.246,1.081V33.444a.656.656,0,0,0,.993.562,75.077,75.077,0,0,1,12.329-5.842.656.656,0,0,0,.449-.622V.656A.657.657,0,0,0,31.9.042a69.758,69.758,0,0,0-10.609,5.3.656.656,0,1,0,.7,1.112,70.089,70.089,0,0,1,9.489-4.843V27.073A73.488,73.488,0,0,0,20.33,32.3V7.214a.656.656,0,0,0-.363-.587,15.185,15.185,0,0,0-6.195-1.38A42.56,42.56,0,0,0,3.1,6.583a.655.655,0,0,0-.475.63V36.067a.656.656,0,0,0,.656.656.646.646,0,0,0,.18-.026,42.124,42.124,0,0,1,10.312-1.286,14.186,14.186,0,0,1,5.246,1.081v1.542H3.281a1.97,1.97,0,0,1-1.967-1.967V10.492a.656.656,0,0,0-1.311,0V36.067a3.283,3.283,0,0,0,3.279,3.279H36.069a3.283,3.283,0,0,0,3.279-3.279V10.492A.656.656,0,0,0,38.692,9.837Z" transform="translate(-0.002 0)" fill="#fff"/>
            <path id="Path_106088" data-name="Path 106088" d="M290.2,148.643a.657.657,0,0,0,.883.287,56.2,56.2,0,0,1,5.8-2.582.656.656,0,0,0-.4-1.251,56.241,56.241,0,0,0-6,2.664A.656.656,0,0,0,290.2,148.643Z" transform="translate(-267.835 -133.918)" fill="#fff"/>
            <path id="Path_106089" data-name="Path 106089" d="M290.2,251.043a.657.657,0,0,0,.883.287,56.212,56.212,0,0,1,5.8-2.582.656.656,0,0,0-.4-1.251,56.25,56.25,0,0,0-6,2.664A.656.656,0,0,0,290.2,251.043Z" transform="translate(-267.835 -228.449)" fill="#fff"/>
            <path id="Path_106090" data-name="Path 106090" d="M94.664,154.007a20.812,20.812,0,0,0-8.844.312.656.656,0,0,0,.169,1.289.668.668,0,0,0,.171-.022,19.763,19.763,0,0,1,8.206-.3.656.656,0,1,0,.3-1.277Z" transform="translate(-78.776 -141.837)" fill="#fff"/>
            <path id="Path_106091" data-name="Path 106091" d="M94.664,205.211a20.824,20.824,0,0,0-8.844.312.656.656,0,0,0,.169,1.289.666.666,0,0,0,.171-.022,19.763,19.763,0,0,1,8.206-.3.656.656,0,1,0,.3-1.277Z" transform="translate(-78.776 -189.106)" fill="#fff"/>
            <path id="Path_106092" data-name="Path 106092" d="M290.2,302.243a.657.657,0,0,0,.883.287,56.2,56.2,0,0,1,5.8-2.582.656.656,0,0,0-.4-1.251,56.242,56.242,0,0,0-6,2.664A.656.656,0,0,0,290.2,302.243Z" transform="translate(-267.835 -275.715)" fill="#fff"/>
            <path id="Path_106093" data-name="Path 106093" d="M94.664,256.41a20.812,20.812,0,0,0-8.844.312.656.656,0,0,0,.169,1.29.665.665,0,0,0,.171-.023,19.763,19.763,0,0,1,8.206-.3.656.656,0,1,0,.3-1.277Z" transform="translate(-78.776 -236.37)" fill="#fff"/>
            <path id="Path_106094" data-name="Path 106094" d="M94.664,358.807a20.812,20.812,0,0,0-8.844.312.656.656,0,0,0,.169,1.29.665.665,0,0,0,.171-.023,19.762,19.762,0,0,1,8.206-.3.656.656,0,1,0,.3-1.277Z" transform="translate(-78.776 -330.899)" fill="#fff"/>
            <path id="Path_106095" data-name="Path 106095" d="M94.664,307.606a20.8,20.8,0,0,0-8.844.312.656.656,0,0,0,.169,1.29.666.666,0,0,0,.171-.023,19.763,19.763,0,0,1,8.206-.3.656.656,0,1,0,.3-1.277Z" transform="translate(-78.776 -283.632)" fill="#fff"/>
          </g>
        </g>
      </g>
    </g>
  </g>
</svg>
