<svg xmlns="http://www.w3.org/2000/svg" viewBox="0 0 201.56 75.78"><defs><style>.cls-1{fill:#7d00ff;stroke-miterlimit:10;stroke-width:1.56px;}.cls-1,.cls-2{stroke:#fff;}.cls-2{fill:none;stroke-linecap:round;stroke-linejoin:round;}.cls-3{fill:#000;}</style></defs><g id="Layer_2" data-name="Layer 2"><g id="pc_fv"><rect class="cls-1" x="0.78" y="25.09" width="200" height="49.91"/><path class="cls-2" d="M140.86,56.44V51.17h11.69V48.5H140.86V43.64H154V41H136.72v3.7c-1.24-1.92-3.79-4.2-9.26-4.2-6.42,0-10.76,3.55-10.89,9.33l-4-8.83H107.8l-2.54,5.58c-.16-3.19-3-5.58-7.77-5.58h-14L77.6,48.75,71.75,41H63.54L58.16,55.08,52.77,41H47.22V59.11h4.11V44.84l5.39,14.27h2.87L65,44.84V59.11h4.14V43.71L75.56,52v7.09h4.12V52l6.41-8.27V59.11H90.2V52.67h7.29a9.2,9.2,0,0,0,5.71-1.57l-3.63,8h4.28l1.54-3.64H115l1.52,3.64h4.3L120,57.44a12.27,12.27,0,0,0,7.48,2.18,9.25,9.25,0,0,0,7.21-2.83l.19,2.32h19.42V56.44ZM97.05,50H90.2V43.64h6.85c1.11,0,4,.35,4,3.2S98.1,50,97.05,50Zm9.39,3,3.73-8.77L113.9,53Zm21.77-3.34v2.56h5.5c-1,3.4-3.6,4.48-6.44,4.48a6.75,6.75,0,0,1-4.34-1.4c-.69-.58-2.12-1.77-2.12-5.48s2.15-6.42,6.57-6.42c1.66,0,4.86.35,6,3.48h3.32v2.78Z"/><path class="cls-3" d="M31.82,9V5.8a10.65,10.65,0,0,1-1.53.9A5.71,5.71,0,0,0,29,5.49a14,14,0,0,0,2.65-1.58,7.9,7.9,0,0,0-1.56-1L31.3,1.82a11.18,11.18,0,0,1,1.59,1,4.55,4.55,0,0,0,1-1.15H30.55V.36h5.38l.64.56a11.36,11.36,0,0,1-1.81,2.46h4A9.06,9.06,0,0,1,36.56.53L38.22,0a7.08,7.08,0,0,0,.92,1.38A10.76,10.76,0,0,0,40.38.14l1.37.73c.15.08.19.12.19.17s-.24.16-.42.16a17.41,17.41,0,0,1-1.33,1.24l.48.43A13.73,13.73,0,0,0,42.29,1.3l1.25.7c.17.09.25.16.25.24s-.15.16-.45.16a10.57,10.57,0,0,1-1.53,1.33A11.29,11.29,0,0,0,44.24,5.1,5.63,5.63,0,0,0,43,6.4a16.64,16.64,0,0,1-1.7-.94V9H40l.29,0c.08,0,.22.13.22.2s-.28.18-.4.19c-.18.38-.38.71-.5.93h4.08v1.34H29.49V10.39h4.27a10.7,10.7,0,0,0-.6-1.13L34.08,9ZM34,4.15c-.33.27-.78.67-1.57,1.25h8.84A19,19,0,0,1,39.39,4v.8H34ZM33.7,6.63V7.77h5.77V6.63ZM35.12,9a6.78,6.78,0,0,1,.62,1.22c-.21,0-.43.06-.73.13h2.51A8.17,8.17,0,0,0,38.21,9Z"/><path class="cls-3" d="M49.85,4.69H48.52v.94h1.72V7H48.52V9.24a7.08,7.08,0,0,0,.73-1.87l1.6.26c.06,0,.17,0,.17.14s-.22.17-.42.19a11.44,11.44,0,0,1-.71,1.58,8.7,8.7,0,0,0-1.37-.22V10c1.22-.19,1.55-.25,1.9-.33A4,4,0,0,0,50.24,11c-2.16.44-4,.68-5.1.83-.13.31-.14.34-.3.34s-.17-.12-.19-.19l-.32-1.52c.42,0,1-.06,2.45-.26V7H44.56V5.63h2.22V4.69H45.4V4.11l-.14.1a4.86,4.86,0,0,0-1.39-1.08A7,7,0,0,0,47,.1l1.82.33c.11,0,.19,0,.19.13s0,.15-.22.21a9.93,9.93,0,0,0,2.23,2,5,5,0,0,0-1.12.92ZM45.92,7.53a9.9,9.9,0,0,1,.81,2,8.21,8.21,0,0,0-1.51.43,11.38,11.38,0,0,0-.8-2ZM49.3,3.41a7.64,7.64,0,0,1-1.56-1.55,13.39,13.39,0,0,1-1.46,1.55ZM50.49,9a21.65,21.65,0,0,0,3.27-.93V5.76H50.58V4.42h5.11V3.68H51.55V2.39h4.14V1.7H50.88V.32h6.69v4.1h1.12V5.76H55.48V7.08a3.13,3.13,0,0,0,.29.38,5.62,5.62,0,0,0,1.09-1.54l1.64.63c.08,0,.19.07.19.18s-.25.19-.41.19a15.87,15.87,0,0,1-1.35,1.69A11.11,11.11,0,0,0,59,10a4.88,4.88,0,0,0-1.1,1.36,14.15,14.15,0,0,1-2.44-2.07V10.8c0,1.25-.94,1.25-2.7,1.25A4.37,4.37,0,0,0,52,10.52c.34,0,1,.09,1.25.09.47,0,.48-.25.48-.43V9.41a19,19,0,0,1-2.26.94c0,.22,0,.41-.28.41a.23.23,0,0,1-.2-.15Zm1.74-3.08A11.9,11.9,0,0,1,53.39,7.6,6.51,6.51,0,0,0,52,8.37a9.05,9.05,0,0,0-1.16-1.71Z"/><path class="cls-3" d="M60,3.55A22.9,22.9,0,0,1,62.3,5c-.13.12-.8.74-1.14,1.12a16.9,16.9,0,0,0-2.34-1.59Zm-1,7.68a15.27,15.27,0,0,0,2.62-4.4,4,4,0,0,0,1.56.76A36.34,36.34,0,0,1,61,11.74c.06.1.1.14.1.19a.19.19,0,0,1-.21.2.4.4,0,0,1-.23-.07ZM60.74,0a18.27,18.27,0,0,1,2.18,1.51c-.31.26-.87.7-1.31,1.05A15.55,15.55,0,0,0,59.47,1ZM71.89,2.73a11.07,11.07,0,0,1-2.22,1.74,14.08,14.08,0,0,0,4.2.82l-.39.59a2.8,2.8,0,0,0-.35.75l-.81-.14s-.06.07-.31.14V12H70.12V9.69h-4a5.29,5.29,0,0,1-2,2.39,4.94,4.94,0,0,0-1.58-.85,4.19,4.19,0,0,0,2.06-4.18V6.42a10.49,10.49,0,0,1-1.14.21,4.54,4.54,0,0,0-1-1.33,13.29,13.29,0,0,0,4.15-.89,9.7,9.7,0,0,1-1.94-1.68H63.09V1.44h4.06V0l1.91.05c.1,0,.36,0,.36.17s-.17.21-.29.27v.92h4.39V2.73Zm-5.48,5c0,.33,0,.49,0,.66h3.75V7.76ZM70.12,6a14.63,14.63,0,0,1-2-.72,13.1,13.1,0,0,1-1.54.58c.14,0,.19.07.19.13s-.16.16-.36.25v.3h3.69ZM66.77,2.73a7.6,7.6,0,0,0,1.33,1,10.55,10.55,0,0,0,1.43-1Z"/><path class="cls-3" d="M87,3.8c.11,0,.22.06.22.18s-.22.17-.34.17a10.61,10.61,0,0,1-.7,2.55,12.38,12.38,0,0,1,2.4,1.39,17.08,17.08,0,0,0-1.28,1.58A11,11,0,0,0,85.4,8.41a10,10,0,0,1-3.53,3.47,6,6,0,0,0-1.71-1.18,7.88,7.88,0,0,0,3.47-3.12,16.08,16.08,0,0,0-3.18-.91c-1.67,2.86-2.34,4-3.83,4a2.19,2.19,0,0,1-2.31-2.07C74.31,7,76,5,79.25,5.1c.2-.42,1.08-2.27,1.27-2.63A34.31,34.31,0,0,1,76.93,3l-.45-1.85a17.54,17.54,0,0,0,5.7-.79l1.36,1a17.41,17.41,0,0,0-2.32,3.83A18.92,18.92,0,0,1,84.34,6a8.78,8.78,0,0,0,.45-2.85ZM76.12,8.62a.41.41,0,0,0,.39.47c.5,0,1.62-1.84,1.87-2.37A2.13,2.13,0,0,0,76.12,8.62Z"/><path class="cls-3" d="M96.19,10c3.68-.58,4.63-2.87,4.63-4.23s-1.17-3.28-4-3.4c-.53,4.85-2.78,8.34-4.38,8.34a4.08,4.08,0,0,1-3.31-4c0-2.77,3-5.95,7.45-5.95,3.33,0,6.3,1.87,6.3,5a5.3,5.3,0,0,1-1.84,3.94,8.92,8.92,0,0,1-3.5,1.84A8.76,8.76,0,0,0,96.19,10Zm-5-3.38c0,1.11.7,2,1.19,2s.88-.88,1.13-1.4a10.54,10.54,0,0,0,1.17-4.51A4.67,4.67,0,0,0,91.14,6.6Z"/><path class="cls-3" d="M118.08,2V3.54h-6.93A9.59,9.59,0,0,1,111,4.93h5c0,6.54-1.31,7.1-4.41,7.08a2.87,2.87,0,0,0-.94-1.73,12.21,12.21,0,0,0,1.55.16c.73,0,1.87,0,1.87-4h-3.48A9.26,9.26,0,0,1,105,12a3.59,3.59,0,0,0-1.61-1.19c5.65-1.63,5.74-6,5.77-7.28h-5.36V2h6.08V.08l2.07.1c.1,0,.32,0,.32.17s-.18.18-.32.23V2Z"/><path class="cls-3" d="M122.53,1.07q.18,0,.18.18c0,.14-.23.18-.43.21a15.77,15.77,0,0,0-.89,5.16,7.9,7.9,0,0,0,.11,1.53c.14-.21.71-1.13.84-1.31a4.83,4.83,0,0,0,1,1.1,5.76,5.76,0,0,0-1.3,3.38l-1.77.29a15.23,15.23,0,0,1-.82-5.14,21,21,0,0,1,.91-6ZM130,.78c.17,0,.21.09.21.17s-.21.17-.37.18a12.36,12.36,0,0,0-.16,1.7,16.73,16.73,0,0,0,2.45-.5V4c-1.26.26-2,.37-2.49.43a22.36,22.36,0,0,0,.23,3.27A10.32,10.32,0,0,1,133,9.1c-.23.34-.81,1.34-.92,1.55a6.45,6.45,0,0,0-2-1.12c0,1.78-2.4,1.9-3.08,1.9-2.26,0-3.06-1.16-3.06-2,0-1.3,1.53-2,3.21-2,.28,0,.47,0,.66,0,0-.51-.16-1.61-.17-2.76-1,.07-1.75.1-2.22.1s-.75,0-1.08,0V3c.49,0,1,.09,1.94.09.64,0,1.06,0,1.34,0,0-.12,0-2.28,0-2.57Zm-3.06,8c-1,0-1.26.36-1.26.65s.45.62,1.09.62c.11,0,1.31,0,1.31-.82,0-.09,0-.18,0-.28A3,3,0,0,0,126.94,8.74Z"/><path class="cls-3" d="M137.56,6.94c-.23.17-1.62,1.17-1.62,1.82a.65.65,0,0,0,.39.59,11.29,11.29,0,0,0,3.32.37,23.37,23.37,0,0,0,5.95-.65,9.51,9.51,0,0,0,.43,1.84,38.43,38.43,0,0,1-6.41.52c-3.51,0-5.85-.55-5.85-2.47,0-.59.24-1.5,2.34-3ZM145,2.27A19.93,19.93,0,0,0,140,5l-1.2-1.13c.12-.06,1.32-.83,1.65-1.09-.83,0-2,.1-3.37.1-1.15,0-1.64,0-2-.06L134.93,1a36.74,36.74,0,0,0,4.44.23A29.85,29.85,0,0,0,143.91.9Z"/><path class="cls-3" d="M153.79.47c.2,0,.31.09.31.19s-.19.17-.36.18l-.51,1.33a29.77,29.77,0,0,0,5.33-1,4,4,0,0,0,.4,1.64,31.74,31.74,0,0,1-6.42,1.11c-.08.19-.36.82-1,2.19a10.41,10.41,0,0,1,4.37-1c4,0,4.24,2.39,4.24,3,0,3.6-6.18,3.8-8.08,3.8a15.67,15.67,0,0,1-1.64-.07,6,6,0,0,0-.5-1.65c.5,0,1.33.12,2.36.12,2,0,5.66-.3,5.66-2.25,0-1.07-.94-1.5-2.17-1.5a9,9,0,0,0-5.66,2.28L148.22,8a15.48,15.48,0,0,0,2.21-4,32,32,0,0,1-3.24-.07l0-1.8a23.23,23.23,0,0,0,3.86.24,13.43,13.43,0,0,0,.6-2.35Z"/><path class="cls-3" d="M165,2.91c.11,0,.27.08.27.2s-.22.18-.33.18A11.11,11.11,0,0,0,163.83,6a8.75,8.75,0,0,1,4.82-1.49c2.61,0,3.95,1.52,3.95,3.11,0,2.54-3,4.08-8,4.08l-1.17,0a4.35,4.35,0,0,0-.61-1.85A13.53,13.53,0,0,0,165,10c1,0,5.42-.12,5.42-2.36,0-.68-.47-1.56-2.06-1.56a7.89,7.89,0,0,0-5.2,2.32l-1.9-.57a27.51,27.51,0,0,1,1.58-5.48ZM164.35,0a18.25,18.25,0,0,1,5.36,1.49,14.94,14.94,0,0,0-1.18,1.62,16.11,16.11,0,0,0-4.88-1.63Z"/></g></g></svg>