<svg xmlns="http://www.w3.org/2000/svg" viewBox="0 0 201.55 75.54"><defs><style>.cls-1{fill:red;stroke-miterlimit:10;stroke-width:1.55px;}.cls-1,.cls-2{stroke:#fff;}.cls-2{fill:none;stroke-linecap:round;stroke-linejoin:round;}.cls-3{fill:#000;}</style></defs><g id="Layer_2" data-name="Layer 2"><g id="pc_fv"><rect class="cls-1" x="0.77" y="25.22" width="200" height="49.54"/><path class="cls-2" d="M62.6,51.12H74.28V48.45H62.6V43.59H75.77V40.92H58.46v1.69c-1.08-1-2.9-1.69-5.92-1.69H40.7v2.17a8.61,8.61,0,0,0-6.28-2.17H23V59.06h4.11V52.61h7.29c3.11,0,5.09-.86,6.28-2.06v8.51h4.11v-7.2h6.74c.94,0,3.89.06,3.89,2.9v1.75A4.33,4.33,0,0,0,56,59.06H76.08V56.39H62.6ZM34,49.94H27.13V43.59H34c1.11,0,4,.35,4,3.2S35,49.94,34,49.94Zm18.12-.75H44.81v-5.6H52.1c1.88,0,3.56.83,3.56,2.74S54,49.19,52.1,49.19Zm3.48,1.31a7.67,7.67,0,0,0,2.88-1.43v2.65A4.67,4.67,0,0,0,55.58,50.5Z"/><rect class="cls-2" x="79.09" y="51" width="8.01" height="2.88"/><path class="cls-2" d="M173.78,40.92,167.9,48.7,162,40.92h-4.75l.55.7a11.33,11.33,0,0,0-4.28-.7H122.32V54.16l-11.9-13.24H90.33V59.06h20.09V45.82l11.9,13.24h4.11V43.59H132V59.06h4.12V43.59h5.63V59.06h4.12v-7.2h6.74c.94,0,3.89.06,3.89,2.9v1.75a4.33,4.33,0,0,0,.58,2.55h4.5v-.32c-.47-.28-1-.55-1-2.67V54.34a3.83,3.83,0,0,0-.94-2.46,4.5,4.5,0,0,0-3-1.38c1.13-.35,4.31-1.25,4.31-4.7,0-.07,0-.15,0-.22L165.85,52v7.09H170V52l8.56-11ZM94.48,56.39V51.12h11.68V48.45H94.48V43.59h11.79v12.8Zm58.64-7.2h-7.29v-5.6h7.29c1.88,0,3.56.83,3.56,2.74S155.05,49.19,153.12,49.19Z"/><path class="cls-3" d="M30.69,6.25H33V7.57H30.94A11.17,11.17,0,0,0,33,9.19a3,3,0,0,0-1.25,1,6.36,6.36,0,0,1-1.08-1.12V12H28.93V9.1a8.85,8.85,0,0,1-1.71,2.11,5.62,5.62,0,0,0-1.56-.8A10.16,10.16,0,0,0,28.4,7.57H26.22V6.25h2.71v-1H26.05V4h1.76a7.08,7.08,0,0,0-.5-1.21l.81-.23H26.47V1.34H29V.06l1.88.12c.29,0,.35.07.35.16s-.14.15-.35.24v.76h2.25V2.59h-1c.37.06.51.09.51.2s-.11.16-.39.23a7.4,7.4,0,0,1-.54,1h1.7V5.3H31.18c0,.16-.35.22-.49.26ZM28.92,2.59a5.17,5.17,0,0,1,.49,1.23L28.54,4h1.51a4.72,4.72,0,0,0,.75-1.44ZM33.81,1l1,.09A17.22,17.22,0,0,0,39.18.22l1.06,1.16a.27.27,0,0,1,.08.17c0,.11-.1.18-.24.18a.92.92,0,0,1-.39-.13,19.19,19.19,0,0,1-4,.66V4h4.46V5.49h-1.4V12H36.88V5.49h-1.2a9.39,9.39,0,0,1-2.27,6.56,6.3,6.3,0,0,0-1.8-.66,7.28,7.28,0,0,0,2.2-5.9Z"/><path class="cls-3" d="M47.23,2.34V3.71h-2c0,.27,0,.37,0,1.28h2.07V6.41h-2a6.25,6.25,0,0,0,2.36,2.5,7.23,7.23,0,0,0-1.22,1.17,7.76,7.76,0,0,1-1.73-1.9A7.67,7.67,0,0,1,42.07,12a5.54,5.54,0,0,0-1.56-.95A6.52,6.52,0,0,0,43.3,6.41H40.9V5h2.46c0-.21,0-1.08,0-1.28h-2.3V2.34h2.3V.13l1.85.13c.11,0,.39,0,.39.17s-.25.22-.43.26V2.34Zm2.09,5.29L50.53,8c.13,0,.29.09.29.2s-.21.2-.44.21A6.94,6.94,0,0,1,46.78,12,6.62,6.62,0,0,0,45.36,11a5,5,0,0,0,3.4-3.33H47.68V.45h6.88V7.63H52.7v2.58c0,.26,0,.28.45.28s.71,0,.77-1.35a5.87,5.87,0,0,0,1.53.53c-.16,2.16-1.17,2.16-1.78,2.16H52.09c-.85,0-1.17-.4-1.17-.94V7.63Zm.12-5.15h3.32V1.69H49.44Zm3.32,1H49.44v.86h3.32Zm0,1.9H49.44v.87h3.32Z"/><path class="cls-3" d="M64,9h5.66v1.67H56.14V9h5.6V3.33H57.62V1.6H68.16V3.33H64Z"/><path class="cls-3" d="M72.25.58a18.13,18.13,0,0,1,4.09,2.24A12.18,12.18,0,0,0,75,4.33a16.17,16.17,0,0,0-4.1-2.21ZM71.14,9.72a18.77,18.77,0,0,0,11.72-7,8.11,8.11,0,0,0,1.35,1.52c-1,1.3-3.94,5-11.3,7.19,0,.13,0,.28-.27.28s-.2-.1-.28-.22Z"/><path class="cls-3" d="M89.18,3.73A24.08,24.08,0,0,1,94.8,6.88c-.6.53-.82.75-1.49,1.41a22.31,22.31,0,0,0-4.93-2.91v6.35H86.17V.32l2.21.11c.16,0,.3,0,.3.14s-.21.18-.3.2v3.9Z"/><path class="cls-3" d="M98.33.62c.19,0,.32,0,.32.13s-.19.2-.32.25V7.29H96.15V.55Zm7.24-.23c.23,0,.31,0,.31.12s-.2.22-.31.26V5c0,4.34-3,5.91-6,7a3.44,3.44,0,0,0-1.37-1.42c5.1-1.39,5.21-4.11,5.21-5.54V.3Z"/><path class="cls-3" d="M121.12,5.16V7H107.66V5.16Z"/><path class="cls-3" d="M125.82,1.07c.12,0,.19.09.19.18s-.24.18-.44.21a15.77,15.77,0,0,0-.89,5.16,8.81,8.81,0,0,0,.11,1.53l.84-1.31a5.11,5.11,0,0,0,1,1.1,5.68,5.68,0,0,0-1.29,3.38l-1.78.29a15.33,15.33,0,0,1-.81-5.14,20.9,20.9,0,0,1,.9-6Zm7.47-.29c.17,0,.22.09.22.17s-.22.17-.38.18a13.16,13.16,0,0,0-.15,1.7,17.05,17.05,0,0,0,2.45-.5V4c-1.27.26-2.05.37-2.5.43a22.36,22.36,0,0,0,.23,3.27,10.4,10.4,0,0,1,3.11,1.4c-.24.34-.81,1.34-.92,1.55a6.68,6.68,0,0,0-2-1.12c0,1.78-2.4,1.9-3.09,1.9-2.26,0-3.06-1.16-3.06-2,0-1.3,1.53-2,3.22-2,.28,0,.46,0,.65,0-.05-.51-.16-1.61-.17-2.76-.95.07-1.75.1-2.22.1s-.74,0-1.07,0V3c.48,0,1,.09,1.93.09.64,0,1.06,0,1.34,0,0-.12,0-2.28,0-2.58Zm-3.06,8c-1,0-1.26.36-1.26.65s.45.62,1.09.62c.11,0,1.31,0,1.31-.82a1.41,1.41,0,0,0,0-.28A3,3,0,0,0,130.23,8.74Z"/><path class="cls-3" d="M140.86,6.94c-.24.17-1.62,1.17-1.62,1.82a.64.64,0,0,0,.38.59,11.35,11.35,0,0,0,3.33.37,23.26,23.26,0,0,0,5.94-.65,9.51,9.51,0,0,0,.43,1.84,38.4,38.4,0,0,1-6.4.52c-3.51,0-5.85-.55-5.85-2.47,0-.59.23-1.5,2.34-3Zm7.42-4.67a19.93,19.93,0,0,0-5,2.68l-1.2-1.13c.12-.06,1.32-.83,1.65-1.09-.82,0-2,.1-3.37.1-1.15,0-1.63,0-2-.06L138.22,1a36.8,36.8,0,0,0,4.45.23A29.72,29.72,0,0,0,147.2.9Z"/><path class="cls-3" d="M157.08.47c.2,0,.31.09.31.19s-.18.17-.36.18c-.07.21-.43,1.15-.51,1.33a29.61,29.61,0,0,0,5.33-1,4.13,4.13,0,0,0,.41,1.64,31.81,31.81,0,0,1-6.43,1.11c-.07.19-.36.82-1,2.19a10.41,10.41,0,0,1,4.37-1c4,0,4.24,2.39,4.24,3,0,3.6-6.17,3.8-8.08,3.8a15.45,15.45,0,0,1-1.63-.07,6.41,6.41,0,0,0-.5-1.65c.5,0,1.32.12,2.35.12,2,0,5.66-.3,5.66-2.25,0-1.07-.93-1.5-2.16-1.5a9,9,0,0,0-5.67,2.28L151.51,8a15.51,15.51,0,0,0,2.22-4,32.18,32.18,0,0,1-3.25-.07V2.11a23.1,23.1,0,0,0,3.85.24A13.91,13.91,0,0,0,154.93,0Z"/><path class="cls-3" d="M168.27,2.91c.11,0,.26.08.26.2s-.22.18-.33.18A10.72,10.72,0,0,0,167.13,6,8.75,8.75,0,0,1,172,4.52c2.6,0,3.94,1.52,3.94,3.11,0,2.54-3,4.08-8,4.08l-1.17,0a4.33,4.33,0,0,0-.6-1.85,13.31,13.31,0,0,0,2.15.16c1,0,5.41-.12,5.41-2.36,0-.68-.47-1.56-2.06-1.56a7.83,7.83,0,0,0-5.19,2.32l-1.9-.57a26.86,26.86,0,0,1,1.57-5.48ZM167.64,0A18.3,18.3,0,0,1,173,1.53a13.78,13.78,0,0,0-1.19,1.62,15.94,15.94,0,0,0-4.88-1.63Z"/></g></g></svg>