<?xml version="1.0" encoding="UTF-8"?><svg xmlns="http://www.w3.org/2000/svg" viewBox="0 0 409.03 77"><defs><style>.d{fill:#fff;}</style></defs><g id="a"/><g id="b"><g id="c"><g><path class="d" d="M15.77,1.37V14.64h-3.02v-5.96H4.04v5.96H1V1.37h3.04V6.73H12.75V1.37h3.02m0-1h-3.02c-.55,0-1,.45-1,1V5.73H5.04V1.37c0-.55-.45-1-1-1H1C.45,.37,0,.82,0,1.37V14.64c0,.55,.45,1,1,1h3.04c.55,0,1-.45,1-1v-4.96h6.72v4.96c0,.55,.45,1,1,1h3.02c.55,0,1-.45,1-1V1.37c0-.55-.45-1-1-1h0Z"/><path class="d" d="M27.7,1.37l6.05,13.27h-3.16l-1.11-2.66h-7.02l-1.13,2.66h-3.14L24.23,1.37h3.48m-4.47,8.79h5.46l-2.73-6.42-2.73,6.42M27.7,.37h-3.48c-.39,0-.75,.23-.91,.59l-6.03,13.27c-.14,.31-.11,.67,.07,.96s.5,.46,.84,.46h3.14c.4,0,.76-.24,.92-.61l.87-2.05h5.69l.86,2.05c.16,.37,.52,.61,.92,.61h3.16c.34,0,.66-.17,.84-.46s.21-.65,.07-.96L28.61,.96c-.16-.36-.52-.58-.91-.58h0Zm-2.96,8.79l1.22-2.86,1.22,2.86h-2.44Z"/><path class="d" d="M51.4,1.37h0m0,0l-7.32,5.15,7.83,8.12h-3.76l-6.33-6.4-2.55,1.88v4.51h-3.03V1.37h3.03V7.23L47.51,1.37h3.88m0-1h-3.89c-.21,0-.41,.06-.58,.18l-6.68,4.74V1.37c0-.55-.45-1-1-1h-3.03c-.55,0-1,.45-1,1V14.64c0,.55,.45,1,1,1h3.03c.55,0,1-.45,1-1v-4.01l1.45-1.07,5.72,5.78c.19,.19,.44,.3,.71,.3h3.76c.4,0,.76-.24,.92-.61,.16-.37,.08-.8-.2-1.09l-7.02-7.28,6.34-4.46c.27-.18,.45-.49,.45-.84,0-.55-.45-1-1-1h0Zm0,2h0Z"/><path class="d" d="M69.16,1.37V9.55c0,3.83-3.09,5.46-7.3,5.46-4.47,0-7.46-1.63-7.46-5.58V1.37h3.03V9.78c0,1.93,1.64,3.09,4.29,3.09,2.49,0,4.43-.94,4.43-3.11V1.37h3.01m0-1h-3.01c-.55,0-1,.45-1,1V9.76c0,1.84-2.15,2.11-3.43,2.11-.99,0-3.29-.2-3.29-2.09V1.37c0-.55-.45-1-1-1h-3.03c-.55,0-1,.45-1,1V9.43c0,2.46,1.1,6.58,8.46,6.58,5.2,0,8.3-2.41,8.3-6.46V1.37c0-.55-.45-1-1-1h0Z"/><path class="d" d="M87.32,1.37V14.64h-3.01v-5.96h-8.72v5.96h-3.03V1.37h3.03V6.73h8.72V1.37h3.01m0-1h-3.01c-.55,0-1,.45-1,1V5.73h-6.72V1.37c0-.55-.45-1-1-1h-3.03c-.55,0-1,.45-1,1V14.64c0,.55,.45,1,1,1h3.03c.55,0,1-.45,1-1v-4.96h6.72v4.96c0,.55,.45,1,1,1h3.01c.55,0,1-.45,1-1V1.37c0-.55-.45-1-1-1h0Z"/><path class="d" d="M98.1,1c4.87,0,7.95,3.03,7.95,7.01s-3.26,7.01-7.95,7.01-7.95-2.88-7.95-7.01,3.1-7.01,7.95-7.01m0,11.87c2.02,0,4.86-1.01,4.86-4.86s-2.65-4.86-4.86-4.86-4.84,1.11-4.84,4.86,2.61,4.86,4.84,4.86m0-12.87c-5.27,0-8.95,3.29-8.95,8.01s3.68,8.01,8.95,8.01,8.95-3.29,8.95-8.01S103.37,0,98.1,0h0Zm0,11.87c-1.15,0-3.84-.38-3.84-3.86s2.68-3.86,3.84-3.86,3.86,.38,3.86,3.86-2.7,3.86-3.86,3.86h0Z"/><path class="d" d="M115.24,1.37c1.96,0,7.79,.41,7.79,6.71,0,2.64-1.15,4.77-3.24,5.7-1.66,.76-4.01,.86-4.55,.86h-6.27V1.37h6.27m-3.26,11.32h3.44c2.04,0,4.51-1.06,4.51-4.68,0-3.23-1.98-4.68-4.51-4.68h-3.44V12.69M115.24,.37h-6.27c-.55,0-1,.45-1,1V14.64c0,.55,.45,1,1,1h6.27c.12,0,2.92-.01,4.97-.95,2.39-1.08,3.82-3.55,3.82-6.61,0-4.82-3.29-7.71-8.79-7.71h0Zm-2.26,3.95h2.44c1.31,0,3.51,.48,3.51,3.68s-2.2,3.68-3.51,3.68h-2.44V4.32h0Z"/><path class="d" d="M133.32,1c4.87,0,7.95,3.03,7.95,7.01s-3.26,7.01-7.95,7.01-7.95-2.88-7.95-7.01,3.09-7.01,7.95-7.01m0,11.87c2.02,0,4.85-1.01,4.85-4.86s-2.65-4.86-4.85-4.86-4.84,1.11-4.84,4.86,2.61,4.86,4.84,4.86m0-12.87c-5.27,0-8.95,3.29-8.95,8.01s3.68,8.01,8.95,8.01,8.95-3.29,8.95-8.01-3.68-8.01-8.95-8.01h0Zm0,11.87c-1.15,0-3.84-.38-3.84-3.86s2.68-3.86,3.84-3.86,3.85,.38,3.85,3.86-2.7,3.86-3.85,3.86h0Z"/><path class="d" d="M15.77,31.87v13.27h-3.02v-5.96H4.04v5.96H1v-13.27h3.04v5.35H12.75v-5.35h3.02m0-1h-3.02c-.55,0-1,.45-1,1v4.35H5.04v-4.35c0-.55-.45-1-1-1H1c-.55,0-1,.45-1,1v13.27c0,.55,.45,1,1,1h3.04c.55,0,1-.45,1-1v-4.96h6.72v4.96c0,.55,.45,1,1,1h3.02c.55,0,1-.45,1-1v-13.27c0-.55-.45-1-1-1h0Z"/><path class="d" d="M27.7,31.87l6.05,13.27h-3.16l-1.11-2.66h-7.02l-1.13,2.66h-3.14l6.03-13.27h3.48m-4.47,8.79h5.46l-2.73-6.42-2.73,6.42m4.47-9.79h-3.48c-.39,0-.75,.23-.91,.59l-6.03,13.27c-.14,.31-.11,.67,.07,.96s.5,.46,.84,.46h3.14c.4,0,.76-.24,.92-.61l.87-2.05h5.69l.86,2.05c.16,.37,.52,.61,.92,.61h3.16c.34,0,.66-.17,.84-.46s.21-.65,.07-.96l-6.05-13.27c-.16-.36-.52-.58-.91-.58h0Zm-2.96,8.79l1.22-2.86,1.22,2.86h-2.44Z"/><path class="d" d="M51.4,31.87h0m0,0l-7.32,5.15,7.83,8.12h-3.76l-6.33-6.4-2.55,1.88v4.51h-3.03v-13.27h3.03v5.86l8.26-5.86h3.88m0-1h-3.89c-.21,0-.41,.06-.58,.18l-6.68,4.74v-3.92c0-.55-.45-1-1-1h-3.03c-.55,0-1,.45-1,1v13.27c0,.55,.45,1,1,1h3.03c.55,0,1-.45,1-1v-4.01l1.45-1.07,5.72,5.78c.19,.19,.44,.3,.71,.3h3.76c.4,0,.76-.24,.92-.61,.16-.37,.08-.8-.2-1.09l-7.02-7.28,6.34-4.46c.27-.18,.45-.49,.45-.84,0-.55-.45-1-1-1h0Zm0,2h0Z"/><path class="d" d="M69.16,31.87v8.18c0,3.83-3.09,5.46-7.3,5.46-4.47,0-7.46-1.63-7.46-5.58v-8.06h3.03v8.41c0,1.93,1.64,3.09,4.29,3.09,2.49,0,4.43-.94,4.43-3.11v-8.38h3.01m0-1h-3.01c-.55,0-1,.45-1,1v8.38c0,1.84-2.15,2.11-3.43,2.11-.99,0-3.29-.2-3.29-2.09v-8.41c0-.55-.45-1-1-1h-3.03c-.55,0-1,.45-1,1v8.06c0,2.46,1.1,6.58,8.46,6.58,5.2,0,8.3-2.41,8.3-6.46v-8.18c0-.55-.45-1-1-1h0Z"/><path class="d" d="M87.32,31.87v13.27h-3.01v-5.96h-8.72v5.96h-3.03v-13.27h3.03v5.35h8.72v-5.35h3.01m0-1h-3.01c-.55,0-1,.45-1,1v4.35h-6.72v-4.35c0-.55-.45-1-1-1h-3.03c-.55,0-1,.45-1,1v13.27c0,.55,.45,1,1,1h3.03c.55,0,1-.45,1-1v-4.96h6.72v4.96c0,.55,.45,1,1,1h3.01c.55,0,1-.45,1-1v-13.27c0-.55-.45-1-1-1h0Z"/><path class="d" d="M98.1,31.49c4.87,0,7.95,3.03,7.95,7.01s-3.26,7.01-7.95,7.01-7.95-2.88-7.95-7.01,3.1-7.01,7.95-7.01m0,11.87c2.02,0,4.86-1.01,4.86-4.86s-2.65-4.86-4.86-4.86-4.84,1.11-4.84,4.86,2.61,4.86,4.84,4.86m0-12.87c-5.27,0-8.95,3.29-8.95,8.01s3.68,8.01,8.95,8.01,8.95-3.29,8.95-8.01-3.68-8.01-8.95-8.01h0Zm0,11.87c-1.15,0-3.84-.38-3.84-3.86s2.68-3.86,3.84-3.86,3.86,.38,3.86,3.86-2.7,3.86-3.86,3.86h0Z"/><path class="d" d="M115.24,31.87c1.96,0,7.79,.41,7.79,6.71,0,2.64-1.15,4.77-3.24,5.7-1.66,.76-4.01,.86-4.55,.86h-6.27v-13.27h6.27m-3.26,11.32h3.44c2.04,0,4.51-1.06,4.51-4.68,0-3.23-1.98-4.68-4.51-4.68h-3.44v9.36m3.26-12.32h-6.27c-.55,0-1,.45-1,1v13.27c0,.55,.45,1,1,1h6.27c.12,0,2.92-.01,4.97-.95,2.39-1.08,3.82-3.55,3.82-6.61,0-4.82-3.29-7.71-8.79-7.71h0Zm-2.26,3.95h2.44c1.31,0,3.51,.48,3.51,3.68s-2.2,3.68-3.51,3.68h-2.44v-7.36h0Z"/><path class="d" d="M133.32,31.49c4.87,0,7.95,3.03,7.95,7.01s-3.26,7.01-7.95,7.01-7.95-2.88-7.95-7.01,3.09-7.01,7.95-7.01m0,11.87c2.02,0,4.85-1.01,4.85-4.86s-2.65-4.86-4.85-4.86-4.84,1.11-4.84,4.86,2.61,4.86,4.84,4.86m0-12.87c-5.27,0-8.95,3.29-8.95,8.01s3.68,8.01,8.95,8.01,8.95-3.29,8.95-8.01-3.68-8.01-8.95-8.01h0Zm0,11.87c-1.15,0-3.84-.38-3.84-3.86s2.68-3.86,3.84-3.86,3.85,.38,3.85,3.86-2.7,3.86-3.85,3.86h0Z"/><path class="d" d="M157.78,31.87c1.96,0,7.79,.41,7.79,6.71,0,2.64-1.15,4.77-3.24,5.7-1.66,.76-4.01,.86-4.55,.86h-6.27v-13.27h6.27m-3.26,11.32h3.44c2.04,0,4.51-1.06,4.51-4.68,0-3.23-1.98-4.68-4.51-4.68h-3.44v9.36m3.26-12.32h-6.27c-.55,0-1,.45-1,1v13.27c0,.55,.45,1,1,1h6.27c.12,0,2.92-.01,4.97-.95,2.39-1.08,3.82-3.55,3.82-6.61,0-4.82-3.29-7.71-8.79-7.71h0Zm-2.26,3.95h2.44c1.31,0,3.51,.48,3.51,3.68s-2.2,3.68-3.51,3.68h-2.44v-7.36h0Z"/><path class="d" d="M183.09,31.87h0m0,0l-6.27,8.08v5.19h-3.01v-5.19l-6.27-8.08h3.48l4.29,5.69,4.31-5.69h3.48m0-1h-3.48c-.31,0-.61,.15-.8,.4l-3.51,4.63-3.49-4.63c-.19-.25-.48-.4-.8-.4h-3.48c-.38,0-.73,.22-.9,.56-.17,.34-.13,.75,.11,1.05l6.06,7.81v4.84c0,.55,.45,1,1,1h3.01c.55,0,1-.45,1-1v-4.84l6.03-7.78c.15-.17,.24-.4,.24-.65,0-.55-.45-1-1-1h0Zm0,2h0Z"/><path class="d" d="M209.03,31.87v13.27h-3.04v-10.44l-3.94,10.44h-2.1l-3.94-10.44v10.44h-3.02v-13.27h4.07l3.94,10.32,3.95-10.32h4.09m0-1h-4.09c-.41,0-.79,.26-.93,.64l-3.01,7.88-3.01-7.88c-.15-.39-.52-.64-.93-.64h-4.07c-.55,0-1,.45-1,1v13.27c0,.55,.45,1,1,1h3.02c.55,0,1-.45,1-1v-4.96l2.01,5.32c.15,.39,.52,.65,.94,.65h2.1c.42,0,.79-.26,.94-.65l2.01-5.32v4.96c0,.55,.45,1,1,1h3.04c.55,0,1-.45,1-1v-13.27c0-.55-.45-1-1-1h0Z"/><path class="d" d="M225.35,31.87v1.95h-9.65v3.56h8.56v1.95h-8.56v3.86h9.87v1.95h-12.91v-13.27h12.69m0-1h-12.69c-.55,0-1,.45-1,1v13.27c0,.55,.45,1,1,1h12.91c.55,0,1-.45,1-1v-1.95c0-.55-.45-1-1-1h-8.87v-1.86h7.56c.55,0,1-.45,1-1v-1.95c0-.55-.45-1-1-1h-7.56v-1.56h8.65c.55,0,1-.45,1-1v-1.95c0-.55-.45-1-1-1h0Z"/><path class="d" d="M234.8,31.87c1.96,0,7.79,.41,7.79,6.71,0,2.64-1.15,4.77-3.24,5.7-1.66,.76-4.01,.86-4.55,.86h-6.27v-13.27h6.27m-3.26,11.32h3.44c2.04,0,4.51-1.06,4.51-4.68,0-3.23-1.98-4.68-4.51-4.68h-3.44v9.36m3.26-12.32h-6.27c-.55,0-1,.45-1,1v13.27c0,.55,.45,1,1,1h6.27c.12,0,2.92-.01,4.97-.95,2.39-1.08,3.82-3.55,3.82-6.61,0-4.82-3.29-7.71-8.79-7.71h0Zm-2.26,3.95h2.44c1.31,0,3.51,.48,3.51,3.68s-2.2,3.68-3.51,3.68h-2.44v-7.36h0Z"/><path class="d" d="M248.78,31.87v13.27h-3.01v-13.27h3.01m0-1h-3.01c-.55,0-1,.45-1,1v13.27c0,.55,.45,1,1,1h3.01c.55,0,1-.45,1-1v-13.27c0-.55-.45-1-1-1h0Z"/><path class="d" d="M261.01,31.87l6.05,13.27h-3.16l-1.11-2.66h-7.02l-1.13,2.66h-3.14l6.03-13.27h3.48m-4.47,8.79h5.46l-2.73-6.42-2.73,6.42m4.47-9.79h-3.48c-.39,0-.75,.23-.91,.59l-6.03,13.27c-.14,.31-.11,.67,.07,.96s.5,.46,.84,.46h3.14c.4,0,.76-.24,.92-.61l.87-2.05h5.69l.86,2.05c.16,.37,.52,.61,.92,.61h3.16c.34,0,.66-.17,.84-.46s.21-.65,.07-.96l-6.05-13.27c-.16-.36-.52-.58-.91-.58h0Zm-2.96,8.79l1.22-2.86,1.22,2.86h-2.44Z"/><path class="d" d="M285.28,31.87c3.6,0,5.71,1.85,5.71,4.29,0,1.94-1.34,4.26-5.71,4.26h-5.34v4.72h-3.01v-13.27h8.35m-5.34,6.6h5.02c.77,0,2.93-.2,2.93-2.31s-2.12-2.34-2.93-2.34h-5.02v4.65m5.34-7.6h-8.35c-.55,0-1,.45-1,1v13.27c0,.55,.45,1,1,1h3.01c.55,0,1-.45,1-1v-3.72h4.34c4.95,0,6.71-2.83,6.71-5.26,0-3.16-2.7-5.29-6.71-5.29h0Zm-4.34,3.95h4.02c.72,0,1.93,.17,1.93,1.34,0,1.08-1.05,1.31-1.93,1.31h-4.02v-2.65h0Z"/><path class="d" d="M302.44,31.87l6.05,13.27h-3.16l-1.11-2.66h-7.02l-1.13,2.66h-3.14l6.03-13.27h3.48m-4.47,8.79h5.46l-2.73-6.42-2.73,6.42m4.47-9.79h-3.48c-.39,0-.75,.23-.91,.59l-6.03,13.27c-.14,.31-.11,.67,.07,.96s.5,.46,.84,.46h3.14c.4,0,.76-.24,.92-.61l.87-2.05h5.69l.86,2.05c.16,.37,.52,.61,.92,.61h3.16c.34,0,.66-.17,.84-.46s.21-.65,.07-.96l-6.05-13.27c-.16-.36-.52-.58-.91-.58h0Zm-2.96,8.79l1.22-2.86,1.22,2.86h-2.44Z"/><path class="d" d="M319.72,31.87c4.49,0,5.38,2.2,5.38,3.57,0,2.53-2.33,3.18-3.16,3.44,.91,.15,1.56,.29,2.23,1.01,.59,.64,.69,1.47,.69,1.81v1.26c0,1.55,.36,1.75,.71,1.95v.24h-3.3c-.27-.5-.43-.81-.43-1.87v-1.28c0-2.07-2.16-2.12-2.85-2.12h-4.94v5.27h-3.01v-13.27h8.68m-5.67,6.05h5.34c1.41,0,2.61-.76,2.61-2.09s-1.23-2-2.61-2h-5.34v4.09m5.67-7.05h-8.68c-.55,0-1,.45-1,1v13.27c0,.55,.45,1,1,1h3.01c.55,0,1-.45,1-1v-4.27h3.94c1.85,0,1.85,.76,1.85,1.12v1.28c0,1.22,.21,1.7,.54,2.34,.17,.33,.51,.53,.88,.53h3.3c.55,0,1-.45,1-1v-.24c0-.35-.19-.68-.49-.86-.04-.03-.08-.04-.11-.07h0s-.11-.21-.11-1.02v-1.26c0-.34-.07-1.51-.95-2.48-.15-.17-.31-.31-.46-.43,1.1-.82,1.66-1.94,1.66-3.34,0-.76-.31-4.57-6.38-4.57h0Zm-4.67,3.95h4.34c.48,0,1.61,.1,1.61,1s-1.01,1.09-1.61,1.09h-4.34v-2.09h0Z"/><path class="d" d="M341.43,31.87v1.95h-5.64v11.32h-3.01v-11.32h-5.62v-1.95h14.28m0-1h-14.28c-.55,0-1,.45-1,1v1.95c0,.55,.45,1,1,1h4.62v10.32c0,.55,.45,1,1,1h3.01c.55,0,1-.45,1-1v-10.32h4.64c.55,0,1-.45,1-1v-1.95c0-.55-.45-1-1-1h0Z"/><path class="d" d="M358.71,31.87v13.27h-3.01l-8.72-9.69v9.69h-3.03v-13.27h3.03l8.72,9.68v-9.68h3.01m0-1h-3.01c-.55,0-1,.45-1,1v7.08l-6.98-7.74c-.19-.21-.46-.33-.74-.33h-3.03c-.55,0-1,.45-1,1v13.27c0,.55,.45,1,1,1h3.03c.55,0,1-.45,1-1v-7.08l6.98,7.75c.19,.21,.46,.33,.74,.33h3.01c.55,0,1-.45,1-1v-13.27c0-.55-.45-1-1-1h0Z"/><path class="d" d="M374.93,31.87v1.95h-9.65v3.56h8.56v1.95h-8.56v3.86h9.87v1.95h-12.91v-13.27h12.69m0-1h-12.69c-.55,0-1,.45-1,1v13.27c0,.55,.45,1,1,1h12.91c.55,0,1-.45,1-1v-1.95c0-.55-.45-1-1-1h-8.87v-1.86h7.56c.55,0,1-.45,1-1v-1.95c0-.55-.45-1-1-1h-7.56v-1.56h8.65c.55,0,1-.45,1-1v-1.95c0-.55-.45-1-1-1h0Z"/><path class="d" d="M386.79,31.87c4.49,0,5.38,2.2,5.38,3.57,0,2.53-2.33,3.18-3.16,3.44,.91,.15,1.56,.29,2.23,1.01,.59,.64,.69,1.47,.69,1.81v1.26c0,1.55,.36,1.75,.71,1.95v.24h-3.3c-.27-.5-.43-.81-.43-1.87v-1.28c0-2.07-2.16-2.12-2.85-2.12h-4.94v5.27h-3.01v-13.27h8.68m-5.67,6.05h5.34c1.41,0,2.61-.76,2.61-2.09s-1.23-2-2.61-2h-5.34v4.09m5.67-7.05h-8.68c-.55,0-1,.45-1,1v13.27c0,.55,.45,1,1,1h3.01c.55,0,1-.45,1-1v-4.27h3.94c1.85,0,1.85,.76,1.85,1.12v1.28c0,1.22,.21,1.7,.54,2.34,.17,.33,.51,.53,.88,.53h3.3c.55,0,1-.45,1-1v-.24c0-.35-.19-.68-.49-.86-.04-.03-.08-.04-.11-.07h0s-.11-.21-.11-1.02v-1.26c0-.34-.07-1.51-.95-2.48-.15-.17-.31-.31-.46-.43,1.1-.82,1.66-1.94,1.66-3.34,0-.76-.31-4.57-6.38-4.57h0Zm-4.67,3.95h4.34c.48,0,1.61,.1,1.61,1s-1.01,1.09-1.61,1.09h-4.34v-2.09h0Z"/><path class="d" d="M401.23,31.49c3.74,0,5.86,1.06,6.43,4.14h-3.11c-.04-.42-.18-.79-.55-1.25-.38-.48-1.11-.76-2.55-.76-.71,0-3.22,0-3.22,1.48,0,1.16,.95,1.43,5.08,2.58,2.41,.68,4.71,1.32,4.71,3.67,0,1.43-1.17,4.14-6.35,4.14-3.08,0-6.8-.91-7.02-4.42h3.16c.08,1.48,1.25,2.27,3.78,2.27,.69,0,1.8-.08,2.53-.48,.44-.26,.81-.76,.81-1.25,0-1.05-1.07-1.36-3.66-2.02-3.72-.94-6.15-1.69-6.15-4.21,0-1.43,1.03-3.91,6.11-3.91m0-1c-6.77,0-7.11,4.09-7.11,4.91,0,3.43,3.51,4.32,6.9,5.18,1.09,.28,2.73,.69,2.91,.99,0,0,0,.02,0,.06,0,.07-.13,.27-.31,.38-.38,.21-1.17,.35-2.03,.35-2.71,0-2.76-.93-2.78-1.33-.03-.53-.47-.95-1-.95h-3.16c-.28,0-.54,.11-.73,.32-.19,.2-.29,.47-.27,.75,.21,3.35,3.21,5.35,8.02,5.35,5.8,0,7.35-3.23,7.35-5.14,0-3.1-3-3.95-5.4-4.63-2.18-.6-4.2-1.16-4.38-1.49,0,0-.01-.03-.01-.13,0,0,.13-.48,2.22-.48,.94,0,1.57,.14,1.77,.38,.24,.31,.31,.5,.33,.72,.05,.51,.48,.9,1,.9h3.11c.3,0,.58-.13,.77-.36,.19-.23,.27-.53,.21-.82-.82-4.45-4.62-4.96-7.42-4.96h0Z"/><path class="d" d="M9.76,62.36c4.49,0,5.38,2.2,5.38,3.57,0,2.53-2.33,3.18-3.16,3.44,.91,.15,1.56,.29,2.23,1.01,.58,.64,.69,1.47,.69,1.81v1.26c0,1.55,.36,1.75,.71,1.95v.24h-3.3c-.26-.5-.42-.81-.42-1.87v-1.28c0-2.07-2.17-2.12-2.85-2.12H4.1v5.27H1.08v-13.27H9.76m-5.67,6.05h5.34c1.42,0,2.61-.76,2.61-2.09s-1.24-2-2.61-2H4.1v4.09m5.67-7.05H1.08c-.55,0-1,.45-1,1v13.27c0,.55,.45,1,1,1h3.01c.55,0,1-.45,1-1v-4.27h3.94c1.85,0,1.85,.76,1.85,1.12v1.28c0,1.21,.2,1.69,.53,2.32,.17,.33,.52,.55,.89,.55h3.3c.55,0,1-.45,1-1v-.24c0-.35-.19-.68-.49-.86-.04-.03-.08-.04-.11-.07h0s-.11-.21-.11-1.02v-1.26c0-.34-.07-1.51-.95-2.48-.15-.17-.31-.31-.47-.44,1.1-.82,1.66-1.94,1.66-3.34,0-.76-.31-4.57-6.38-4.57h0Zm-4.67,3.95h4.34c.48,0,1.61,.1,1.61,1s-1.01,1.09-1.61,1.09H5.1v-2.09h0Z"/><path class="d" d="M30.88,62.36v1.95h-9.65v3.56h8.56v1.95h-8.56v3.86h9.87v1.95h-12.91v-13.27h12.69m0-1h-12.69c-.55,0-1,.45-1,1v13.27c0,.55,.45,1,1,1h12.91c.55,0,1-.45,1-1v-1.95c0-.55-.45-1-1-1h-8.87v-1.86h7.56c.55,0,1-.45,1-1v-1.95c0-.55-.45-1-1-1h-7.56v-1.56h8.65c.55,0,1-.45,1-1v-1.95c0-.55-.45-1-1-1h0Z"/><path class="d" d="M41.24,61.99c2.41,0,5.97,.72,6.78,4.95h-3c-.1-1.18-.87-2.81-3.78-2.81-1.33,0-2.63,.31-3.48,1.31-.95,1.15-1.17,2.55-1.17,3.6,0,1.55,.5,3.25,1.84,4.14,.99,.66,2.25,.67,2.73,.67,2.65,0,3.66-1.19,3.91-3.04h3.05c-.26,1.21-1.11,5.19-6.82,5.19-6.11,0-7.81-3.91-7.81-6.96,0-3.65,2.27-7.06,7.75-7.06m6.88,8.83h0m-6.88-9.83c-4.04,0-8.75,2.11-8.75,8.06,0,3.85,2.31,7.96,8.81,7.96,2.95,0,6.69-1.03,7.78-5.9,.03-.09,.04-.19,.04-.28,0-.55-.45-1-1-1h-3.06c-.5,0-.93,.37-.99,.87-.17,1.3-.73,2.17-2.91,2.17-.35,0-1.42,0-2.18-.5-.87-.58-1.39-1.82-1.39-3.31,0-.83,.16-2.03,.94-2.97,.54-.63,1.43-.95,2.71-.95,1.72,0,2.68,.65,2.79,1.89,.04,.52,.48,.92,1,.92h3c.3,0,.58-.13,.77-.36s.27-.53,.21-.83c-.71-3.71-3.47-5.76-7.76-5.76h0Z"/><path class="d" d="M59.8,62.36c4.49,0,5.38,2.2,5.38,3.57,0,2.53-2.33,3.18-3.16,3.44,.91,.15,1.56,.29,2.23,1.01,.58,.64,.69,1.47,.69,1.81v1.26c0,1.55,.36,1.75,.71,1.95v.24h-3.3c-.26-.5-.42-.81-.42-1.87v-1.28c0-2.07-2.17-2.12-2.85-2.12h-4.94v5.27h-3.01v-13.27h8.68m-5.67,6.05h5.34c1.42,0,2.61-.76,2.61-2.09s-1.24-2-2.61-2h-5.34v4.09m5.67-7.05h-8.68c-.55,0-1,.45-1,1v13.27c0,.55,.45,1,1,1h3.01c.55,0,1-.45,1-1v-4.27h3.94c1.85,0,1.85,.76,1.85,1.12v1.28c0,1.21,.2,1.69,.53,2.32,.17,.33,.52,.55,.89,.55h3.3c.55,0,1-.45,1-1v-.24c0-.35-.19-.68-.49-.86-.04-.03-.08-.04-.11-.07h0s-.11-.21-.11-1.02v-1.26c0-.34-.07-1.51-.95-2.48-.15-.17-.31-.31-.47-.43,1.1-.82,1.66-1.94,1.66-3.34,0-.76-.31-4.57-6.38-4.57h0Zm-4.67,3.95h4.34c.48,0,1.61,.1,1.61,1s-1.01,1.09-1.61,1.09h-4.34v-2.09h0Z"/><path class="d" d="M82.86,62.36v8.18c0,3.83-3.09,5.46-7.3,5.46-4.47,0-7.46-1.63-7.46-5.58v-8.06h3.03v8.41c0,1.93,1.64,3.09,4.29,3.09,2.49,0,4.43-.94,4.43-3.11v-8.38h3.01m0-1h-3.01c-.55,0-1,.45-1,1v8.38c0,1.84-2.15,2.11-3.43,2.11-.99,0-3.29-.2-3.29-2.09v-8.41c0-.55-.45-1-1-1h-3.03c-.55,0-1,.45-1,1v8.06c0,2.46,1.1,6.58,8.46,6.58,5.2,0,8.3-2.41,8.3-6.46v-8.18c0-.55-.45-1-1-1h0Z"/><path class="d" d="M89.53,62.36v13.27h-3.01v-13.27h3.01m0-1h-3.01c-.55,0-1,.45-1,1v13.27c0,.55,.45,1,1,1h3.01c.55,0,1-.45,1-1v-13.27c0-.55-.45-1-1-1h0Z"/><path class="d" d="M106.63,62.36v1.95h-5.64v11.32h-3.01v-11.32h-5.62v-1.95h14.28m0-1h-14.28c-.55,0-1,.45-1,1v1.95c0,.55,.45,1,1,1h4.62v10.32c0,.55,.45,1,1,1h3.01c.55,0,1-.45,1-1v-10.32h4.64c.55,0,1-.45,1-1v-1.95c0-.55-.45-1-1-1h0Z"/></g></g></g></svg>