<svg xmlns="http://www.w3.org/2000/svg" width="151.092" height="24" viewBox="0 0 151.092 24">
  <path id="Path_115256" data-name="Path 115256" d="M-79.388-18.077c.372-.077.465-.129.588-.258a16.04,16.04,0,0,1,1.394,1.574,25.552,25.552,0,0,1,2.323-1.832,21.933,21.933,0,0,0-2.911-2.839c.557-.026,3.1-.258,3.5-.31a13.891,13.891,0,0,1,1.115,1.935,18.853,18.853,0,0,1,3.066-1.523,30.014,30.014,0,0,0-4.552-5.781l-2.849,1.265a19.2,19.2,0,0,1,1.455,1.677c-2.2.129-2.446.155-3.716.206.4-.594,2.137-3.587,2.539-4.258.465-.077.929-.155.929-.439,0-.232-.341-.335-.557-.387l-3.5-1.006a26.135,26.135,0,0,1-2.88,6.245c-.4,0-2.385.077-2.849.1l.805,2.839c.031.155.124.49.465.49a.88.88,0,0,0,.712-.516c.867-.052,5.2-.439,6.163-.542l-2.168,1.677c.31.284.619.516,1.084,1.006a1.06,1.06,0,0,0-.279-.052l-3.375-.232v1.471a1.411,1.411,0,0,0-.619-.232l-2.385-.49a12.326,12.326,0,0,1-.681,2.142,23.325,23.325,0,0,1-.65-3.587l-2.818.568a30.039,30.039,0,0,0,1.084,5.006c.434-.129.557-.155,1.734-.49a10.185,10.185,0,0,1-1.208,2.09,10,10,0,0,1,2.787,1.161,19.36,19.36,0,0,0,2.261-5.7.741.741,0,0,0,.5-.181v4.7c0,2.374,1.734,2.374,4.769,2.374,2.725,0,3.592-.284,4.583-3.794A4.859,4.859,0,0,1-76.6-15.161c-.279,1.523-.4,2.271-1.827,2.271-.743,0-.96-.181-.96-.723ZM-90.32-31.032A21.074,21.074,0,0,1-92.3-27.7c-.279-.181-.4-.284-.96-.645a41.788,41.788,0,0,0,2.477-3.923c.434,0,.9-.1.9-.361s-.341-.361-.557-.439L-93.293-34a34.274,34.274,0,0,1-2.292,4.155c-.836-.49-.929-.542-1.332-.748l-1.858,2.606a31.557,31.557,0,0,1,4.521,2.89c-1.177,1.652-1.3,1.806-1.8,2.4-1.177.026-1.61.026-2.57,0l.4,2.606c.062.335.124.7.434.7.372,0,.526-.335.712-.671.681-.052,1.889-.129,3.128-.258v10.271h3.5V-20.658c.217-.026.867-.1,1.053-.155.062.31.093.49.186,1.006.867-.31,1.951-.645,2.818-.877a22.085,22.085,0,0,0-1.734-4.955l-2.477.877c.217.619.31.877.619,1.832-.248.026-2.044.129-2.508.155,1.022-1.316,2.973-3.794,4.769-6.606.372-.026.805-.129.805-.387,0-.206-.341-.31-.588-.387Zm-7,12.155a19.952,19.952,0,0,1-1.641,6.245,17.345,17.345,0,0,1,2.787.7,25.8,25.8,0,0,0,1.548-5.858c.31-.1.65-.206.65-.413,0-.232-.279-.284-.619-.335Zm14.059-14.761a22.643,22.643,0,0,1-4.428,6.194A14.363,14.363,0,0,1-84.9-25.974a39.068,39.068,0,0,0,4.521-5.858c.465-.026.929-.077.929-.361,0-.232-.341-.335-.5-.387Zm5.729,1.29A24.019,24.019,0,0,0-72.668-26.7a8.2,8.2,0,0,1,2.911-1.652,24.42,24.42,0,0,1-4.924-5.419Zm2.292,14.968a20.7,20.7,0,0,1,2.632,5.239,17.732,17.732,0,0,1,2.942-1.29,21.407,21.407,0,0,0-2.694-5.161Zm28.924-7.587a40.312,40.312,0,0,0,5.729,2.916,8.574,8.574,0,0,1,2.508-2.813c-4.862-1.523-10.963-5.239-12.945-7.948.341-.155.65-.31.65-.49,0-.284-.434-.31-.619-.31l-4.552-.284c-1.053,1.523-4.552,6.581-12.945,9.471a10.89,10.89,0,0,1,2.725,2.735,34.478,34.478,0,0,0,5.419-2.968v1.548h14.028ZM-58.578-25.9a34.7,34.7,0,0,0,5.11-4.568A25.373,25.373,0,0,0-47.863-25.9Zm10.87,14.5v1.239h3.84v-10.89H-62.852v10.89h3.809v-1.239Zm-11.334-2.839v-4h11.334v4Zm39.979-10.632a17.082,17.082,0,0,0,.991-2.529c.31,0,.588-.052.588-.232,0-.129-.186-.284-.526-.387l-2.292-.671h3V-31.11h-3v-1.858c.31-.129.557-.258.557-.465s-.341-.31-.836-.335l-2.973-.1v2.761h-2.694v-2.116H-36.5v2.632h1.146v14.632c-.836.155-1.053.181-1.517.232l.557,2.581c.062.284.124.542.5.542.31,0,.4-.258.5-.465.341-.077,3.159-.8,4.614-1.239V-10.1h2.88V-22.465h11.551A31.945,31.945,0,0,0-15.1-16.116a23.6,23.6,0,0,1-2.849,2.606v-8.026H-26.31V-11.29h2.942V-13.1h4.862a19.786,19.786,0,0,1-1.858,1.135,6.241,6.241,0,0,1,2.539,1.935,27.665,27.665,0,0,0,3.9-3.2c1.146,2.323,2.013,3.123,3.19,3.123,1.8,0,2.694-2.555,3.375-4.955a5.309,5.309,0,0,1-2.415-1.626c-.062.206-.341,1.239-.434,1.471-.186.594-.31.9-.619.9s-.5-.31-.929-1.342a29.309,29.309,0,0,0,3.128-4.542c.372.026.836.026.836-.284,0-.206-.155-.258-.557-.439l-2.818-1.213a20.15,20.15,0,0,1-1.61,2.994,23.066,23.066,0,0,1-.5-3.329h5.234v-2.4h-5.419c0-.49-.062-1.755-.062-3.613,0-2.632.124-4.026.186-4.7.217-.026.526-.1.526-.361,0-.232-.341-.284-.526-.284l-3.128-.155c-.062.955-.155,2.3-.155,4.413,0,.955.031,2.271.124,4.7Zm-11.644-2.942h-1.8v-2.787h1.8Zm0,5.394h-1.8v-2.865h1.8Zm5.7-2.452a13.388,13.388,0,0,1,2.261-.465,16.369,16.369,0,0,0-1.146-3.277l-2.725.723a19.5,19.5,0,0,1,1.053,3.019h-2.261v-5.729h1.3v1.91h6.008a18.15,18.15,0,0,1-1.455,3.819Zm-5.7,7.974c-.9.206-1.363.284-1.8.387v-3.3h1.8Zm7.339-1.368v-1.161h2.632v1.161Zm2.632,1.729v1.265h-2.632v-1.265ZM-12.9-30.645a34.022,34.022,0,0,1,1.517,4.155c.65-.181,2.323-.619,3.128-.774A15.694,15.694,0,0,0-9.99-31.471Zm14.4,1.29v-3.381c.341-.129.681-.232.681-.49,0-.206-.217-.284-.526-.31l-3.716-.232v4.413H-5.406v2.813h3.345v4.335c-.805.181-2.632.594-4.026.8l.743,3.174a.446.446,0,0,0,.4.361c.434,0,.5-.49.5-.7a23.306,23.306,0,0,0,2.385-.594v4.49c0,1.11,0,1.523-.991,1.523-.588,0-1.734-.1-2.323-.181a8.451,8.451,0,0,1,1.146,3.2C1.5-9.845,1.5-11.858,1.5-13.226v-7.019c.31-.1,1.548-.49,2.632-.955a21.3,21.3,0,0,1,.279-2.865A26.781,26.781,0,0,1,1.5-23.11v-3.432H4.441v-.981a25.334,25.334,0,0,1,2.323,4.361,24.129,24.129,0,0,1,3.221-1.213,25.766,25.766,0,0,0-2.415-4.439l-3.128.981v-1.523Zm9.724,19.2h3.561v-5.858a19.88,19.88,0,0,0,6.225,4.981,7.122,7.122,0,0,1,2.725-2.245c-4.645-2.168-6.937-4.335-7.99-5.574h6.813v-2.761H14.785V-22.7c.526-.181.712-.232.712-.465,0-.284-.372-.335-.712-.361l-3.561-.206v2.116H4.286v2.761h5.853a25.171,25.171,0,0,1-8.454,5.729,10.333,10.333,0,0,1,2.973,2.142,22.332,22.332,0,0,0,6.565-5.084Zm8.145-23.716c-2.787.8-7.123,1.961-15.608,2.09a8.716,8.716,0,0,1,1.115,2.71A74.622,74.622,0,0,0,20.73-31.084a3.752,3.752,0,0,0,.867.258c.248,0,.341-.129.341-.284a.753.753,0,0,0-.279-.465ZM9.861-28.477a22.509,22.509,0,0,1,1.765,4.284,20.766,20.766,0,0,1,3.252-.723,17.781,17.781,0,0,0-1.672-4.413Zm8.609-1.471a26.555,26.555,0,0,1-3.1,5.935,14.415,14.415,0,0,1,3.19,1.213,31.867,31.867,0,0,0,3.128-5.213c.743-.129.929-.181.929-.49,0-.155-.062-.258-.4-.361Zm23.6,11.226H48.23v4c0,1.006-.186,1.394-1.517,1.394a16.158,16.158,0,0,1-2.446-.206,8.775,8.775,0,0,1,1.425,3.355c3.654.155,6.441-.077,6.441-3.3V-32.839H28.039v10.219c0,3.974-.65,8.49-3.345,11.329A11.189,11.189,0,0,1,28.844-10a17.206,17.206,0,0,0,3.066-8.723h6.317v7.458h3.84Zm0-5.729H48.23v2.813H42.067Zm-3.84,2.813h-6.1c.031-.439.062-1.006.062-1.471v-1.342h6.039Zm3.84-8.413H48.23v2.813H42.067Zm-3.84,2.813H32.188v-2.813h6.039Z" transform="translate(98.96 34)" fill="#fe1c1c"/>
</svg>
