<?xml version="1.0" encoding="UTF-8"?><svg id="Layer_2" xmlns="http://www.w3.org/2000/svg" viewBox="0 0 362.24 61.08"><defs><style>.cls-1{fill:none;stroke:#ff7500;stroke-linecap:round;stroke-linejoin:round;stroke-width:3px;}</style></defs><g id="pc_menu-open"><g><path class="cls-1" d="M265.19,37.8c0,9.01-8.04,12.92-18.35,12.92-10.97,0-17.76-4.82-17.76-12.85V3.04h-12.57v6.69c-2.96-3.65-8.72-6.69-19.43-6.69h-35.94V15.38c-5.38-11.66-17.42-13.88-25.97-13.88-20.23,0-29.88,11.2-31.74,24.36h-33.42V11.13h39.96V3.04H57.46v7.47c-2.76-3.99-8.55-7.47-20.02-7.47H1.5V58.05H13.98v-21.85h20.44c2.85,0,11.81,.21,11.81,8.8v5.31c0,4.4,.67,5.65,1.76,7.75h62.91v-6.94c5,4.99,12.8,8.48,24.53,8.48,15.83,0,22.62-7.39,25.72-13.79v12.25h12.48v-21.85h20.44c2.85,0,11.81,.21,11.81,8.8v5.31c0,4.4,.67,5.65,1.76,7.75h13.65v-.98c-1.42-.84-2.93-1.68-2.93-8.1v-2.84c4.1,9.39,14.75,13.45,29.07,13.45,17.42,0,30.24-6.77,30.24-22.62V3.04h-12.48V37.8ZM36.1,28.1H13.98V11.13h22.12c5.7,0,10.81,2.51,10.81,8.31s-4.94,8.66-10.81,8.66Zm21.36,10.5c-.4-.8-.92-1.6-1.59-2.34-2.76-3-5.45-3.56-9.21-4.19,2.38-.73,7.74-2.26,10.81-6.62v13.15Zm12.57-4.64h33.23c.52,5.48,2.43,11.29,6.56,15.99h-39.79v-15.99Zm91.12,4.12h-10.14c-1.01,7.68-5.19,12.64-16.17,12.64-2.01,0-7.2-.07-11.31-2.79-5.53-3.7-7.62-10.75-7.62-17.17,0-4.4,.92-10.19,4.86-14.94,3.52-4.12,8.88-5.45,14.41-5.45,12.06,0,15.25,6.77,15.67,11.66h10.3v16.06Zm34.6-9.98h-22.12V11.13h22.12c5.7,0,10.81,2.51,10.81,8.31s-4.94,8.66-10.81,8.66Zm19.77,8.17c-2.76-3-5.45-3.56-9.21-4.19,2.24-.68,7.1-2.08,10.22-5.85v10.25c0,.39,.01,.77,.03,1.14-.3-.46-.64-.92-1.03-1.35Z"/><rect class="cls-1" x="283.52" y="3.04" width="12.48" height="55.01"/><polygon class="cls-1" points="301.59 3.04 301.59 11.13 324.88 11.13 324.88 58.05 337.36 58.05 337.36 11.13 360.74 11.13 360.74 3.04 301.59 3.04"/></g></g></svg>