<svg viewBox="0 0 99.12 8.91" xmlns="http://www.w3.org/2000/svg"><g fill="#231815"><path d="m7.41.18a1.13 1.13 0 1 1 0 2.25 1.21 1.21 0 0 1 -.41-.06.52.52 0 0 1 0 .11 9.77 9.77 0 0 1 -1.48 3.69 7.5 7.5 0 0 1 -3.94 2.66l-.68-.74a6.58 6.58 0 0 0 3.9-2.4 7.48 7.48 0 0 0 1.31-3.26h-5.11c-.4 0-.74 0-1 0v-.86a7.72 7.72 0 0 0 1 .07h5.34a1.12 1.12 0 0 1 1.07-1.46zm0 1.82a.67.67 0 1 0 -.66-.66.67.67 0 0 0 .66.66z"/><path d="m16.81 4a6.89 6.89 0 0 1 -1.46 2.84 7.24 7.24 0 0 1 -3.57 2.08l-.62-.7a6.74 6.74 0 0 0 3.51-1.83 5.11 5.11 0 0 0 1.19-2.21h-5.3-1v-.84a9.45 9.45 0 0 0 1 .06h5.26a1.33 1.33 0 0 0 .55-.08l.57.36a1.75 1.75 0 0 0 -.13.32zm-5.43-2.91h3.92a6.23 6.23 0 0 0 .91-.09v.83c-.24 0-.58 0-.92 0h-3.91c-.31 0-.63 0-.9 0v-.83a6.25 6.25 0 0 0 .9.09z"/><path d="m22.88 3a12.07 12.07 0 0 0 2.72-2.34l.67.62a16.36 16.36 0 0 1 -2.7 2.23v4.21a7.35 7.35 0 0 0 .06 1.07h-1a9 9 0 0 0 .06-1.07v-3.72a19.38 19.38 0 0 1 -3.8 1.63l-.4-.78a16.53 16.53 0 0 0 4.39-1.85z"/><path d="m29.19 1.77.89.19c-.06.22-.14.51-.18.72a21.93 21.93 0 0 1 -.9 3.13 14.12 14.12 0 0 1 -1.47 2.74l-.85-.35a13.13 13.13 0 0 0 1.54-2.72 15.24 15.24 0 0 0 .97-3.71zm2.49.17.81-.27a32.33 32.33 0 0 1 1.51 3.16c.41 1 .94 2.52 1.2 3.41l-.89.3a30 30 0 0 0 -1.18-3.44 25.57 25.57 0 0 0 -1.45-3.16zm2.82.13-.5.24a11.43 11.43 0 0 0 -.85-1.39l.53-.22a11.54 11.54 0 0 1 .82 1.37zm1.12-.41-.54.24a9.53 9.53 0 0 0 -.83-1.38l.53-.22a11.63 11.63 0 0 1 .84 1.36z"/><path d="m39.22 4.41-.46.7a21.92 21.92 0 0 0 -2.18-1.37l.42-.68c.61.32 1.78 1.03 2.22 1.35zm1.16 2.38a10.2 10.2 0 0 0 3.79-3.66l.48.82a11.65 11.65 0 0 1 -3.84 3.58 12.8 12.8 0 0 1 -3.32 1.24l-.49-.77a10.62 10.62 0 0 0 3.38-1.21zm.32-4.57-.47.68c-.48-.36-1.56-1.08-2.15-1.42l.45-.67c.59.33 1.74 1.09 2.17 1.41z"/><path d="m47.66 4.21h5.48 1.08v1c-.2 0-.62 0-1.07 0h-5.49c-.55 0-1.08 0-1.39 0v-1c.3-.03.83 0 1.39 0z"/><path d="m55.94 7.55-.69-.45a10.68 10.68 0 0 0 1.91-2.62l.7.34a14.1 14.1 0 0 1 -1.92 2.73zm4.06-6.05v1h2.64a7.67 7.67 0 0 0 .82 0v.8c-.27 0-.57 0-.81 0h-2.65v4.82c0 .52-.26.79-.86.79-.42 0-1 0-1.42-.07l-.07-.84a7.31 7.31 0 0 0 1.15.13c.27 0 .39-.13.39-.38v-4.47h-2.78c-.3 0-.58 0-.85 0v-.81a7.48 7.48 0 0 0 .85 0h2.78v-1a3.63 3.63 0 0 0 -.07-.71h.94a4.74 4.74 0 0 0 -.06.74zm3.77 5.6-.77.41a16.61 16.61 0 0 0 -1.67-2.66l.67-.36a21.45 21.45 0 0 1 1.77 2.61zm-1-7.1a1.1 1.1 0 0 1 1.1 1.1 1.1 1.1 0 0 1 -2.19 0 1.1 1.1 0 0 1 1.14-1.1zm0 1.74a.64.64 0 1 0 -.63-.64.63.63 0 0 0 .68.64z"/><path d="m67 1.7v3.3.76h-.91a6.55 6.55 0 0 0 0-.77v-3.29c0-.18 0-.53 0-.72h.91zm4.65.07v1.62c0 2.4-.33 3.19-1 4.05a5.41 5.41 0 0 1 -2.38 1.45l-.64-.68a4.66 4.66 0 0 0 2.38-1.33c.71-.83.83-1.64.83-3.53v-1.58a7.17 7.17 0 0 0 0-.87h.94c-.16.25-.17.53-.17.87z"/><path d="m76.64 4.41-.46.7a21.92 21.92 0 0 0 -2.18-1.37l.44-.68c.56.32 1.76 1.03 2.2 1.35zm1.15 2.38a10.2 10.2 0 0 0 3.79-3.66l.48.82a11.65 11.65 0 0 1 -3.84 3.58 12.74 12.74 0 0 1 -3.31 1.24l-.46-.77a10.48 10.48 0 0 0 3.34-1.21zm.32-4.57-.47.68c-.47-.36-1.55-1.08-2.14-1.42l.5-.67c.54.33 1.68 1.09 2.11 1.41z"/><path d="m85.07 4.21h5.48 1.08v1c-.2 0-.62 0-1.07 0h-5.49c-.55 0-1.08 0-1.39 0v-1c.32-.03.83 0 1.39 0z"/></g><path d="m95.85.99 2.66 3.94-2.66 3.55" fill="none" stroke="#231815" stroke-miterlimit="10"/></svg>