<svg xmlns="http://www.w3.org/2000/svg" viewBox="0 0 145.35 23.42"><defs><style>.cls-1{fill:#0000FF;}</style></defs><g id="Layer_2" data-name="Layer 2"><g id="フッター"><path class="cls-1" d="M46.68.17c.3,0,.75.13.75.36a.9.9,0,0,1-.3.45,30.52,30.52,0,0,0,12.5,6.7,9.31,9.31,0,0,0-2.29,2.56A36.61,36.61,0,0,1,44.6,2.89a32.83,32.83,0,0,1-12,7.63,7.71,7.71,0,0,0-2.47-2.44C35,6.5,39.87,3.69,42.67,0ZM58.19,19.9v2.74H31.44V19.9h4.49V11.17l3.73.17c.27,0,.67.13.67.38s-.4.4-.67.48v7.7H43.4V6.1l3.7.15c.3,0,.6.13.6.33s-.33.37-.63.5V11.9h7.11v3H47.07v5Z"/><path class="cls-1" d="M75.35,23.37H71.89v-4.9a36.15,36.15,0,0,1-9,4.77,8.25,8.25,0,0,0-2.68-2.11,31.36,31.36,0,0,0,9.37-4.49H60V14.28H71.89v-1H63.45V11.09h8.44v-1H61.47V7.78h6.38c-.15-.3-.54-1-.84-1.48l1.5-.3H60V3.64h4.43a14.31,14.31,0,0,0-1.48-1.93L65.83.25a26,26,0,0,1,2,2.84,10.5,10.5,0,0,0-1.47.55h2.65V.35L72.4.5c.3,0,.63.05.63.3s-.24.33-.63.43V3.64h2.17V.38L77.94.5c.15,0,.67,0,.67.3s-.46.4-.67.48V3.64h3A10.86,10.86,0,0,0,79,3.09,13.58,13.58,0,0,0,80.77.38L84.3,1.46a.36.36,0,0,1,.27.3c0,.32-.45.3-.9.27-.21.25-1.09,1.38-1.27,1.61h4.82V6H81.38a.28.28,0,0,1,.09.17c0,.28-.82.33-1.18.36-.36.7-.54,1-.69,1.25h5.84v2.31H75.35v1h8.23v2.16H75.35v1h11.9v2.36H77.67A29,29,0,0,0,87.1,21a6.71,6.71,0,0,0-2.5,2.23,29.73,29.73,0,0,1-9.25-4.84ZM70.56,6c.21.3.45.73,1,1.78h4.12c.18-.3.55-.88,1-1.78Z"/><path class="cls-1" d="M92,5.09c.33.06.75.11.75.36s-.42.37-.6.4A24,24,0,0,1,90.59,12a10.66,10.66,0,0,0-3-1.11,20.14,20.14,0,0,0,1.56-6.12Zm5.3-1.3a25.9,25.9,0,0,1,3.1,2.81,6.64,6.64,0,0,0-2,1.51h6.9V7h-4.79V5.17h4.79V4.07H99V2h6.3V.23l3.7.22c.21,0,.61,0,.61.3a.32.32,0,0,1-.24.33l-.37.15V2h6.78V4.07H109v1.1h5.31V7H109V8.11h7.47v2.06H98.06V8.26c-.45-.55-1.32-1.43-1.63-1.76V23.29h-3.7V.35l3.85.2c.31,0,.64.13.64.33s-.33.37-.79.53V4.32Zm6.26,15.49v4H99.84v-12h15v9.16c0,2.08-.57,2.76-5.3,2.91a6.15,6.15,0,0,0-1.42-2.66c.45,0,1.21.1,1.9.1,1.14,0,1.17-.23,1.17-.86v-.62Zm7.71-4.85V13.2h-7.71v1.23Zm0,3V16.24h-7.71v1.23Z"/><path class="cls-1" d="M127,9.14l2.26.45c.21.05.48.1.48.3s-.45.3-.72.33a13.34,13.34,0,0,1-.93,1.78h2.62v2.51H126v1.68h4.49V18.7H126v4.59h-3.37V18.7h-4.58V16.19h4.58V14.51h-4.91V12h2.65a13.39,13.39,0,0,0-1.12-2.29l2.32-.57h-4.49V6.65h5.55V5h-4V2.63h4V.35L126,.5c.24,0,.6,0,.6.3s-.33.4-.63.53v1.3h4.22V5H126V6.65h5.06V9.14Zm-4.57,0a15.86,15.86,0,0,1,1.23,2.56l-1.27.3h2.5a13.77,13.77,0,0,0,1.27-2.86Zm20.09,14.28a24.62,24.62,0,0,1-2.87-2.36,13.58,13.58,0,0,1-2.28,2.21,7.71,7.71,0,0,0-2.05-1.36v1.38h-3.53V.93h12c0,.9,0,6.07-.12,6.57-.45,1.84-3.76,2-5.42,2a6.45,6.45,0,0,0-1.36-3,8.26,8.26,0,0,0,1.69.18c1.54,0,1.63-.3,1.66-.81,0-.35,0-1.5,0-2.26h-4.91v6.58h7.5l1.68,1.46a23.27,23.27,0,0,1-3,6.9,17.6,17.6,0,0,0,3.8,2.94A14.7,14.7,0,0,0,142.55,23.42Zm-7.2-10.59v1.65l2.56-1.25a12.15,12.15,0,0,0,1.44,3,13.13,13.13,0,0,0,1.3-3.36Zm0,1.73v6.5a15.83,15.83,0,0,0,2.26-2.29A14.14,14.14,0,0,1,135.35,14.56Z"/><path class="cls-1" d="M1.23,20.24,0,18.18l12.16-5L0,8.1,1.23,6l17.13,7.1Z"/></g></g></svg>