<svg xmlns="http://www.w3.org/2000/svg" width="58.962" height="24" viewBox="0 0 58.962 24">
  <g id="Group_86707" data-name="Group 86707" transform="translate(-1628.313 -2999.524)">
    <path id="Path_115234" data-name="Path 115234" d="M1644.548,3010.653h3.373v-1.218a1.6,1.6,0,0,1-1.054-.622,2.3,2.3,0,0,1-.361-1.3v-4.144h5.331v-1.141h-5.421v-2.124h8.644v5.8h-1.175a7.455,7.455,0,0,0,2.561,1.062,3.049,3.049,0,0,1-3.374,2.54h-1.446c0,.284-.361.336-.6.361v.778h4.578v2.15h-4.578v1.529h5.271v2.1h-5.6a31.505,31.505,0,0,0,4.7,2.333,5.312,5.312,0,0,0-2.019,1.735c1.747-.052,2.681-.13,3.886-.208a5.882,5.882,0,0,0-1.085,2.747H1641.3c-4.85,0-6.265-1.3-7.561-2.435-1.144.906-2.56,1.787-2.921,2.02.03.336.03.726-.392.726-.241,0-.482-.285-.572-.467l-1.536-2.72a20.021,20.021,0,0,0,3.765-1.892v-5.856h-3.223v-2.8h6.717v8.136a3.173,3.173,0,0,0,2.2,2.332c1.114.363,1.445.493,11.385.493,2.139,0,3.253-.052,3.886-.052a30.894,30.894,0,0,1-5.572-3.109l1.265-.985h-5.061l1.6,1.011c.09.051.3.181.3.336,0,.181-.271.285-.452.285a2.381,2.381,0,0,1-.632-.13,25.8,25.8,0,0,1-5.061,2.435,6.188,6.188,0,0,0-2.349-2.046,17.387,17.387,0,0,0,4.97-1.892h-5.271v-2.1h4.457V3012.8h-3.825v-2.15h3.825v-1.139h-2.108c-.723,0-2.259,0-2.259-1.892v-4.249h5.271v-1.141h-5.331v-2.124h8.253v5.8h-1.235a6.889,6.889,0,0,0,2.47,1.036,4.377,4.377,0,0,1-1.506,2.306c.15.052.271.129.271.26,0,.206-.362.31-.512.336Zm-13.193-10.727a27.375,27.375,0,0,1,4.518,4.12c-1.657,1.218-1.837,1.348-2.711,2.1a31.6,31.6,0,0,0-4.337-4.326Zm11.205,7.436c.542,0,.9-.207,1.145-1.45h-1.567v-.493h-2.229v1.3c0,.647.362.647.874.647Zm5.361,5.441h-3.373v1.529h3.373Zm4.579-5.441c.934,0,1.145-.906,1.3-1.45h-1.958v-.493h-2.169v1.321c0,.518,0,.622.813.622Z" transform="translate(0 0)" fill="#fe1c1c"/>
    <path id="Path_115235" data-name="Path 115235" d="M1682.227,3001.648c.3.129.481.233.481.465,0,.311-.542.337-.873.311a35.389,35.389,0,0,1-3.314,3.832h6.958v2.641h-9.939a33.2,33.2,0,0,1-3.133,2.148,36.093,36.093,0,0,0,7.741-1.838l2.108,2.2a.623.623,0,0,1,.211.414c0,.156-.24.233-.391.233a2.131,2.131,0,0,1-.9-.259,62.127,62.127,0,0,1-12.681,2.1c-.03.1-.241.673-.3.8h14.157c-1.024,4.765-2.621,6.964-3.313,7.535-.934.724-2.079,1.294-5.422,1.294-.543,0-.9-.026-1.3-.052a9.24,9.24,0,0,0-1.355-3,15.945,15.945,0,0,0,3.223.285c1.868,0,2.861,0,3.916-3.391h-10.964c-.542,1.242-.9,1.968-1.235,2.615a20.026,20.026,0,0,0-3.525-.7c.513-.984,1.055-2.046,2.019-4.325-2.41.934-3.584,1.295-4.368,1.553a18.347,18.347,0,0,0-2.651-2.381,37.773,37.773,0,0,0,8.314-2.564c.181-.568.241-.776.361-1.268l1.265.518a30.78,30.78,0,0,0,3.344-1.916h-12.831v-2.641h10.361v-1.838h-7.048v-2.434h7.169v-2.46l3.825.233c.18,0,.6.026.6.284s-.391.415-.693.518v1.424h4.217v2.071a22.317,22.317,0,0,0,2.832-3.832Zm-10.182,2.77v1.838h2.049c.813-.751.964-.906,1.867-1.838Z" transform="translate(1.796 0)" fill="#fe1c1c"/>
  </g>
</svg>
