<svg xmlns="http://www.w3.org/2000/svg" width="305.472" height="66" viewBox="0 0 305.472 66">
  <path id="Path_115245" data-name="Path 115245" d="M1402.655,1153.166l-20.108,26.593-20.013-26.593H1346.3l1.859,2.4a38.757,38.757,0,0,0-14.613-2.4H1226.751v45.241l-40.688-45.241h-68.641v62h68.641v-45.243l40.688,45.243h14.068v-52.874h18.89v52.874h14.068v-52.874h19.266v52.874h14.068V1190.54h23.035c3.21,0,13.31.234,13.31,9.913v5.981c0,4.956.757,6.373,1.984,8.732h15.387v-1.1c-1.606-.944-3.3-1.89-3.3-9.129v-5.9a13.116,13.116,0,0,0-3.21-8.421c-3.117-3.382-6.136-4.011-10.384-4.719,3.87-1.181,14.725-4.25,14.725-16.051,0-.249-.019-.512-.031-.774l16.938,21.86v24.234h14.068v-24.234l29.266-37.766Zm-271.072,52.873v-18.019h39.935v-9.127h-39.935v-16.6H1171.9v43.747Zm200.448-24.628H1307.11v-19.119h24.921c6.421,0,12.181,2.833,12.181,9.364C1344.212,1177.871,1338.64,1181.411,1332.031,1181.411Z" transform="translate(-1115.422 -1151.166)" fill="none" stroke="#fe1c1c" stroke-linecap="round" stroke-linejoin="round" stroke-width="4"/>
</svg>
