<svg xmlns="http://www.w3.org/2000/svg" viewBox="0 0 42.84 9.14"><defs><style>.cls-1{fill:#231815;}.cls-2,.cls-3{fill:none;}.cls-3{stroke:#231815;}</style></defs><g id="Layer_2" data-name="Layer 2"><g id="フッター"><path class="cls-1" d="M2,3.32v5.8H1.24V3.32H0V2.64H1.24V0H2V2.64H3.12v.68ZM9.18,6.71H7.64V8.36c0,.38-.07.56-.37.66a5.09,5.09,0,0,1-1.43.1,2,2,0,0,0-.22-.61H6.76c.14,0,.17,0,.17-.16V6.71H2.71V6.09H6.93V5.4H3.45V2.35H5.67V1.74H3v-.6H5.67V0h.7V1.14H8.1A9.56,9.56,0,0,0,6.88.42L7.24,0A7.92,7.92,0,0,1,8.67.83l-.25.31h.7v.6H6.37v.61H8.7V5.4H7.64v.69H9.18ZM4.24,6.8a6.11,6.11,0,0,1,1.3,1.29L5,8.51A6.81,6.81,0,0,0,3.73,7.17ZM4.13,3.62H5.67V2.88H4.13Zm0,1.26H5.67V4.13H4.13Zm2.24-2v.74H8V2.88ZM8,4.13H6.37v.75H8Z"/><path class="cls-1" d="M12.75,2.66h1.83V3.3h-1l.48.13c-.18.46-.38.94-.55,1.29h1v.65H12.75V6.45h1.58v.63H12.75v2h-.7v-2H10.41V6.45h1.64V5.37H10.31V4.72h1a5.53,5.53,0,0,0-.42-1.29l.49-.13H10.17V2.66h1.88v-1H10.53V1h1.52V0h.7V1h1.46v.64H12.75Zm.15,2a11.38,11.38,0,0,0,.49-1.31h-2a4.85,4.85,0,0,1,.46,1.32l-.35.1h1.73ZM19,4A9.21,9.21,0,0,1,17.8,7.26a5,5,0,0,0,1.58,1.27,3.6,3.6,0,0,0-.51.59,5.32,5.32,0,0,1-1.48-1.26,5.81,5.81,0,0,1-1.34,1.28,2.64,2.64,0,0,0-.47-.48v.47h-.67V.46h3.87V2.38c0,.37-.07.57-.39.68a5.91,5.91,0,0,1-1.56.11,2.14,2.14,0,0,0-.23-.64,12.84,12.84,0,0,0,1.29,0c.16,0,.2,0,.2-.16V1.14H15.58V3.83h2.84l.13,0ZM15.58,8.62A5.48,5.48,0,0,0,17,7.28a9.89,9.89,0,0,1-1.29-2.83h-.09Zm.72-4.17a8.82,8.82,0,0,0,1.05,2.21,8.25,8.25,0,0,0,.86-2.21Z"/><path class="cls-1" d="M29.24,8.2v.66H20.57V8.2h3.94V7H21.44V6.35h3.07v-1H22.15V3.06h5.52v2.3H25.24v1h3.24V7H25.24V8.2ZM21.33,3.78h-.68V1.6h1.72A8.31,8.31,0,0,0,21.56.38l.65-.26a6.18,6.18,0,0,1,.92,1.31l-.37.17h1.75V0h.73V1.6h1.84l-.43-.17A10.65,10.65,0,0,0,27.56.08l.76.27a11.41,11.41,0,0,1-1,1.25h1.86V3.78h-.72V2.26H21.33Zm1.52,1h4.09V3.65H22.85Z"/><g id="Component_36_1" data-name="Component 36 1"><g id="Group_30" data-name="Group 30"><g id="Rectangle_101" data-name="Rectangle 101"><rect class="cls-2" x="32.84" y="0.43" width="8" height="6"/><rect class="cls-3" x="33.34" y="0.93" width="7" height="5"/></g><g id="Group_29" data-name="Group 29"><g id="Union_59" data-name="Union 59"><path class="cls-1" d="M42.34,7.93h0v-5h0Z"/><path class="cls-1" d="M42.84,8.43h-8v-1h7v-5h1Z"/></g></g></g></g></g></g></svg>