<svg xmlns="http://www.w3.org/2000/svg" viewBox="0 0 161.12 41.05"><defs><style>.cls-1{fill:#7d00ff;stroke-miterlimit:10;stroke-width:1.12px;}.cls-1,.cls-2{stroke:#fff;}.cls-2{fill:none;stroke-linecap:round;stroke-linejoin:round;}</style></defs><g id="Layer_2" data-name="Layer 2"><g id="pc_menu-open"><rect class="cls-1" x="0.56" y="0.56" width="160" height="39.93"/><path class="cls-2" d="M113.71,25.82V21.46h9.66V19.25h-9.66v-4h10.9V13H110.28v3.06c-1-1.59-3.13-3.48-7.65-3.48-5.31,0-8.91,2.94-9,7.72L90.29,13H86.36l-2.09,4.62C84.13,15,81.79,13,77.84,13H66.25l-4.86,6.44L56.55,13H49.76L45.3,24.69,40.85,13H36.26V28h3.4V16.22L44.12,28h2.37L51,16.22V28h3.42V15.29l5.33,6.87V28h3.4V22.16l5.3-6.84V28h3.41V22.69h6a7.6,7.6,0,0,0,4.72-1.29l-3,6.62h3.54l1.28-3H92.3l1.26,3h3.56l-.63-1.38a10.09,10.09,0,0,0,6.18,1.8,7.63,7.63,0,0,0,6-2.34L108.8,28h16.06v-2.2ZM77.47,20.49H71.81V15.23h5.66c.92,0,3.32.29,3.32,2.65S78.34,20.49,77.47,20.49ZM85.24,23l3.09-7.25L91.41,23Zm18-2.76v2.11h4.54c-.8,2.82-3,3.72-5.32,3.72a5.54,5.54,0,0,1-3.59-1.17c-.57-.47-1.76-1.46-1.76-4.53S98.9,15,102.56,15c1.37,0,4,.29,5,2.88h2.74v2.3Z"/></g></g></svg>