<svg xmlns="http://www.w3.org/2000/svg" viewBox="0 0 409.87 60.98"><defs><style>.cls-1{fill:none;stroke:#0000FF;stroke-linecap:round;stroke-linejoin:round;stroke-width:2.91px;}</style></defs><g id="Layer_2" data-name="Layer 2"><g id="フッター"><path class="cls-1" d="M239.68,20.78C239.68,10.66,231,3,216,3H166.26l-16.35,42.8L133.56,3H116.71V15.34c-5.34-8.4-15.3-13.88-28.58-13.88S64.87,7,59.53,15.42c-5.37-11.69-17.4-14-26-14C10.85,1.46,1.46,15.55,1.46,30.7c0,12.64,7,28.83,32.36,28.83,16,0,22.69-7.51,25.74-13.94C65,54.16,75.24,59.53,88.13,59.53s23.13-5.35,28.58-13.92V58H129.2V14.71L145.55,58h8.72l16.35-43.29V58H193.9V38.45H216C234.15,38.45,239.68,28.81,239.68,20.78ZM49.41,38c-1,7.66-5.2,12.62-16.18,12.62-2,0-7.21-.07-11.32-2.79-5.53-3.69-7.63-10.74-7.63-17.17,0-4.39.92-10.19,4.87-14.94,3.51-4.12,8.88-5.44,14.42-5.44,12.07,0,15.25,6.77,15.67,11.66h7.33a28.94,28.94,0,0,0-1.39,8.51A29.35,29.35,0,0,0,56.25,38ZM88.13,50.66c-9.22,0-20-5-20-20.17,0-15.57,11.16-20.17,20-20.17,9.14,0,20.12,4.81,20.12,20.17C108.25,46.48,96.52,50.66,88.13,50.66ZM214.7,30.35H193.9V11.08h20.8c3.35,0,12.15,1.05,12.15,9.7S217.88,30.35,214.7,30.35Z"/><path class="cls-1" d="M394,3l-17.86,23.6L358.36,3H337.92V43.13L301.78,3H289.2V44L270.52,3H256.1l-25,55h13l4.7-11H277.9l4.61,11h19.27V17.85L337.92,58h12.49V11.33l19.52,25.16V58h12.5V36.49L408.42,3ZM252,39.43l11.32-26.61,11.32,26.61Z"/></g></g></svg>