<svg xmlns="http://www.w3.org/2000/svg" viewBox="0 0 300.7 61.92"><defs><style>.cls-1{fill:none;stroke:#ff0;stroke-linecap:round;stroke-linejoin:round;stroke-width:3px;}</style></defs><g id="Layer_2" data-name="Layer 2"><g id="pc_menu-open"><path class="cls-1" d="M279.39,27.56c-17.33-4.82-21.33-5.95-21.33-10.84,0-6.23,10.54-6.23,13.52-6.23,6,0,9.09,1.21,10.7,3.19a9.33,9.33,0,0,1,2.3,5.24h13.09c-2.38-13-11.31-17.42-27-17.42C249.31,1.5,245,11.91,245,17.93c0,10.62,10.19,13.74,25.83,17.7,10.88,2.76,15.38,4.11,15.38,8.5a6.56,6.56,0,0,1-3.4,5.24c-3.06,1.7-7.73,2.05-10.62,2.05-10.62,0-15.55-3.32-15.89-9.56H243a18.23,18.23,0,0,0,.66,3.92l-20.29-21L254.15,3.06H237.84L203.16,27.7V3.06H190.42v5c-3.34-2.88-8.92-5-18-5H135.94V15.15C130.48,6.85,120.39,1.5,107.13,1.5c-12,0-21.46,4.43-27.2,11.48l2.81-9.92H69.49L59,47.39l-10-44.33H35.32l-10,44.33L14.76,3.06H1.5l15.81,55.8h15L42.12,16.3,51.9,58.86h15l7-24.61c1.63,15.57,14.86,26.17,33.22,26.17,12.91,0,23.22-5.19,28.81-13.64V58.86h12.67V36.69h20.73c2.89,0,12,.22,12,8.93V51c0,4.46.68,5.73,1.79,7.86h20v-19L213.87,32l26.6,26.91h15.81l-1.43-1.48c5.36,2.24,11.79,3,17.66,3C294.27,60.42,299.2,49,299.2,43,299.2,33.08,289.51,30.39,279.39,27.56ZM107.13,51.42c-9.34,0-20.31-5-20.31-20.46,0-15.79,11.31-20.47,20.31-20.47,9.27,0,20.4,4.89,20.4,20.47C127.53,47.17,115.63,51.42,107.13,51.42ZM171,28.48H148.61V11.27H171c5.78,0,11,2.55,11,8.43C182,25.29,177,28.48,171,28.48Zm10.71,4a23.8,23.8,0,0,0,8.67-4.23v7.79C187.85,33.63,185.26,33.1,181.75,32.52Z"/></g></g></svg>