<svg xmlns="http://www.w3.org/2000/svg" viewBox="0 0 196.29 24.15"><defs><style>.cls-1{fill:#7d00ff;}</style></defs><g id="Layer_2" data-name="Layer 2"><g id="pc_menu-open"><path class="cls-1" d="M47.75,4.87a5.35,5.35,0,0,0,2.08-.38L52,6.08c-.52.72-2.11,3.68-3.11,5.54a26.86,26.86,0,0,1-14.42,12.5,14.3,14.3,0,0,0-3.23-2.46C42,18,44.86,11.25,46.27,8H37.9a38,38,0,0,1-7.08,6.67,14.54,14.54,0,0,0-3.13-2.3c3.19-2.19,7.8-6,10.09-11.3l3.7,1.48c.15.05.43.15.43.38s-.55.32-.73.32c-.36.61-.6,1-1,1.66ZM46.57.28a24.75,24.75,0,0,1,2.87,2.36,14.84,14.84,0,0,0-2.2,1.25,19,19,0,0,0-2.77-2.31ZM51.27,0a28.15,28.15,0,0,1,2.89,2.59c-.15.07-1.47.82-2.22,1.23a15.12,15.12,0,0,0-2.66-2.59Z"/><path class="cls-1" d="M64.64,2.81c.3,0,.7,0,.7.33s-.3.4-.55.48V9.76c0,6.38-3.4,9.24-7.5,11.9a12.56,12.56,0,0,0-3.4-2.33c5.72-3,6.54-5.88,6.54-9.34V2.64Zm7.47-.22c.33,0,.58,0,.58.27s-.31.35-.58.48V16.49a29.49,29.49,0,0,0,8.62-7,9,9,0,0,0,2,3.11,42.32,42.32,0,0,1-8.62,7c-2.5,1.51-2.77,1.69-3.55,2.24l-2.77-1.51c.06-.68.12-1.3.12-2v-16Z"/><path class="cls-1" d="M109.88,10.64v3.57h-26V10.64Z"/><path class="cls-1" d="M132.14,4.09a12,12,0,0,0,2.08-.17l3,2.08a13.56,13.56,0,0,0-1.75,2.94c-3.37,6.42-6.26,10.19-15.93,14.4a15.55,15.55,0,0,0-3.13-2.61c4.15-1.58,11.56-4.39,15.3-13.5h-19V4.09Zm8.13-1.73a2.85,2.85,0,0,1-5.6,0,2.85,2.85,0,0,1,5.6,0Zm-4.19,0a1.42,1.42,0,0,0,2.78,0,1.41,1.41,0,0,0-2.78,0Z"/><path class="cls-1" d="M161.44,11.47h-15.3V9.26A34.65,34.65,0,0,1,142.23,11a12.22,12.22,0,0,0-2.81-2.51c4.25-1.13,10.46-4.77,12.54-8l4.36.52c.27,0,.45.18.45.33s-.33.3-.69.38c1.75,2.13,7.71,5.34,12.23,6.45a9,9,0,0,0-2.5,2.63A36.87,36.87,0,0,1,161.44,9ZM141.5,20.21c1-.05,4.25-.23,4.64-.23a27.88,27.88,0,0,0,2.5-4.27H141.5V12.93h24.85v2.78h-7.08a38.36,38.36,0,0,1,6.9,6.23,15.19,15.19,0,0,0-2.92,2.21,25.23,25.23,0,0,0-2.2-2.64c-1.84.23-6.14.68-8.07.86-1.51.15-8.25.72-9.61.85-.18.37-.33.65-.69.65-.18,0-.33-.15-.42-.58ZM160.84,8.69a32.86,32.86,0,0,1-7.14-4.82,41.94,41.94,0,0,1-6.53,4.82Zm-2.65,7h-4.67a.33.33,0,0,1,.09.18c0,.28-.63.35-.87.38a39,39,0,0,1-2.26,3.43c3.79-.27,4.22-.3,8-.62A22.86,22.86,0,0,0,156,17.25Z"/><path class="cls-1" d="M176.86,23.77h-3.73V16.54c-1.24.93-2.23,1.56-3,2A7.24,7.24,0,0,0,167.77,16c3.22-1.58,7.28-4.82,8.58-7.3H169V5.8h4.16V1l3.7.1c.42,0,.57.23.57.36s-.15.25-.54.42v4H180l1.66,1.3a23.65,23.65,0,0,1-3.31,4.75A22.75,22.75,0,0,0,182.92,15a10,10,0,0,0-2.35,2.33,20.9,20.9,0,0,1-3.71-2.71Zm4.25-12.45v-3h5.3V.9l4.07.15c.24,0,.45.11.45.28s-.21.3-.63.4V8.28h5.33v3H190.3v8.74h6v2.88H179.21V20.06h7.2V11.32Z"/><path class="cls-1" d="M1.23,20.74,0,18.69l12.16-5.05L0,8.6,1.23,6.54l17.13,7.1Z"/></g></g></svg>