<svg xmlns="http://www.w3.org/2000/svg" viewBox="0 0 91.6 9.17"><defs><style>.cls-1{fill:#231815;}.cls-2,.cls-3{fill:none;}.cls-3{stroke:#231815;}</style></defs><g id="Layer_2" data-name="Layer 2"><g id="フッター"><path class="cls-1" d="M2,3.35V9.14H1.24V3.35H0V2.67H1.24V0H2V2.67H3.12v.68ZM9.18,6.74H7.64V8.38c0,.39-.07.57-.37.66a4.64,4.64,0,0,1-1.43.11,1.94,1.94,0,0,0-.22-.61H6.76c.14,0,.17,0,.17-.16V6.74H2.71V6.12H6.93V5.43H3.45v-3H5.67V1.77H3v-.6H5.67V0h.7V1.17H8.1A9.56,9.56,0,0,0,6.88.45L7.24,0A7.92,7.92,0,0,1,8.67.86l-.25.31h.7v.6H6.37v.61H8.7V5.43H7.64v.69H9.18Zm-4.94.09a5.89,5.89,0,0,1,1.3,1.29L5,8.54A6.54,6.54,0,0,0,3.73,7.2ZM4.13,3.65H5.67V2.91H4.13Zm0,1.26H5.67V4.16H4.13Zm2.24-2v.74H8V2.91ZM8,4.16H6.37v.75H8Z"/><path class="cls-1" d="M12.75,2.69h1.83v.64h-1l.48.13c-.18.46-.38.94-.55,1.29h1V5.4H12.75V6.48h1.58v.63H12.75v2h-.7v-2H10.41V6.48h1.64V5.4H10.31V4.75h1a5.53,5.53,0,0,0-.42-1.29l.49-.13H10.17V2.69h1.88v-1H10.53V1.06h1.52v-1h.7v1h1.46V1.7H12.75Zm.15,1.95a11.38,11.38,0,0,0,.49-1.31h-2a4.85,4.85,0,0,1,.46,1.32l-.35.1h1.73ZM19,4A9.21,9.21,0,0,1,17.8,7.29a4.84,4.84,0,0,0,1.58,1.26,3.68,3.68,0,0,0-.51.6,5.36,5.36,0,0,1-1.48-1.27,5.85,5.85,0,0,1-1.34,1.29,2.64,2.64,0,0,0-.47-.48v.47h-.67V.49h3.87V2.41c0,.37-.07.57-.39.68a5.91,5.91,0,0,1-1.56.11,2.14,2.14,0,0,0-.23-.64,12.84,12.84,0,0,0,1.29,0c.16,0,.2,0,.2-.16V1.17H15.58V3.86h2.84l.13,0ZM15.58,8.64A5.32,5.32,0,0,0,17,7.3a9.71,9.71,0,0,1-1.29-2.82h-.09Zm.72-4.16a8.82,8.82,0,0,0,1.05,2.21,8.25,8.25,0,0,0,.86-2.21Z"/><path class="cls-1" d="M29.24,8.22v.66H20.57V8.22h3.94V7H21.44V6.38h3.07v-1H22.15V3.09h5.52v2.3H25.24v1h3.24V7H25.24V8.22ZM21.33,3.81h-.68V1.63h1.72A8.31,8.31,0,0,0,21.56.41l.65-.26a6.18,6.18,0,0,1,.92,1.31l-.37.17h1.75V0h.73V1.63h1.84l-.43-.17A10.65,10.65,0,0,0,27.56.11l.76.27a11.41,11.41,0,0,1-1,1.25h1.86V3.81h-.72V2.29H21.33Zm1.52,1h4.09V3.68H22.85Z"/><path class="cls-1" d="M34.08,1.66c-.08.14-.16.28-.23.42h2.7A1.91,1.91,0,0,0,37.2,2l.66.4a3.14,3.14,0,0,0-.23.53,9.78,9.78,0,0,1-1.77,3.45,8.93,8.93,0,0,1-4,2.71l-.73-.65a8,8,0,0,0,4-2.51A8.12,8.12,0,0,0,36.74,2.8H33.38a9.65,9.65,0,0,1-2.54,2.46l-.69-.51a8.38,8.38,0,0,0,3.14-3.38,3.71,3.71,0,0,0,.31-.8l.91.31C34.36,1.14,34.17,1.48,34.08,1.66ZM38,1.77,37.48,2A11.31,11.31,0,0,0,36.67.63L37.2.4A14.17,14.17,0,0,1,38,1.77Zm1.12-.41-.54.24A10.39,10.39,0,0,0,37.77.23L38.3,0A14.31,14.31,0,0,1,39.14,1.36Z"/><path class="cls-1" d="M41.46,1.57h5.37c.22,0,.58,0,.88,0,0,.25,0,.53,0,.78V7.26c0,.32,0,1.1,0,1.2h-.86c0-.07,0-.31,0-.58H41.4c0,.26,0,.5,0,.58h-.86c0-.12,0-.86,0-1.21V2.33c0-.23,0-.54,0-.78ZM41.4,7.11h5.47V2.36H41.4Z"/><path class="cls-1" d="M51.16,4.12h5.48c.5,0,.86,0,1.08,0v1c-.2,0-.62,0-1.07,0H51.16c-.55,0-1.08,0-1.39,0v-1C50.07,4.09,50.6,4.12,51.16,4.12Z"/><path class="cls-1" d="M61,1.68l.89.19c-.06.22-.14.51-.18.72a21.93,21.93,0,0,1-.91,3.13,14.12,14.12,0,0,1-1.47,2.74l-.85-.35A13.13,13.13,0,0,0,60,5.39,15.24,15.24,0,0,0,61,1.68Zm2.49.17.81-.27a32.33,32.33,0,0,1,1.46,3.16c.41,1,.94,2.52,1.2,3.41l-.89.3A30,30,0,0,0,64.94,5,25.57,25.57,0,0,0,63.49,1.85ZM66.31,2l-.54.24A11.43,11.43,0,0,0,65,.83l.53-.22A11.54,11.54,0,0,1,66.31,2Zm1.12-.41-.54.24A9.53,9.53,0,0,0,66.06.43l.53-.22A11.63,11.63,0,0,1,67.43,1.57Z"/><path class="cls-1" d="M70.16,5.68a17.85,17.85,0,0,0,.3-4,3.68,3.68,0,0,0-.07-.73h.92c0,.12,0,.42,0,.72A21.88,21.88,0,0,1,71,5.9a5.56,5.56,0,0,1-1.78,2.74l-.75-.51A4.68,4.68,0,0,0,70.16,5.68Zm2.91,1.94v-6A4.75,4.75,0,0,0,73,.9h.92a6.19,6.19,0,0,0,0,.74V7.41A7.68,7.68,0,0,0,76.81,5l.47.68a9.8,9.8,0,0,1-3.41,2.76,2.14,2.14,0,0,0-.34.23L73,8.19A2.4,2.4,0,0,0,73.07,7.62Z"/><g id="Component_36_1" data-name="Component 36 1"><g id="Group_30" data-name="Group 30"><g id="Rectangle_101" data-name="Rectangle 101"><rect class="cls-2" x="81.6" y="0.46" width="8" height="6"/><rect class="cls-3" x="82.1" y="0.96" width="7" height="5"/></g><g id="Group_29" data-name="Group 29"><g id="Union_59" data-name="Union 59"><path class="cls-1" d="M91.1,8h0V3h0Z"/><path class="cls-1" d="M91.6,8.46h-8v-1h7v-5h1Z"/></g></g></g></g></g></g></svg>