<svg xmlns="http://www.w3.org/2000/svg" viewBox="0 0 148.92 9.29"><defs><style>.cls-1{fill:#231815;}.cls-2,.cls-3{fill:none;}.cls-3{stroke:#231815;}</style></defs><g id="Layer_2" data-name="Layer 2"><g id="フッター"><path class="cls-1" d="M2,3.47v5.8H1.24V3.47H0V2.79H1.24V.16H2V2.79H3.12v.68ZM9.18,6.86H7.64V8.51c0,.38-.07.56-.37.66a4.64,4.64,0,0,1-1.43.11,2,2,0,0,0-.22-.62H6.76c.14,0,.17,0,.17-.16V6.86H2.71V6.24H6.93V5.55H3.45v-3H5.67V1.89H3v-.6H5.67V.15h.7V1.29H8.1A9.56,9.56,0,0,0,6.88.57L7.24.16A7.92,7.92,0,0,1,8.67,1l-.25.31h.7v.6H6.37V2.5H8.7V5.55H7.64v.69H9.18ZM4.24,7a6.11,6.11,0,0,1,1.3,1.29L5,8.66A6.81,6.81,0,0,0,3.73,7.32ZM4.13,3.77H5.67V3H4.13ZM4.13,5H5.67V4.28H4.13ZM6.37,3v.74H8V3ZM8,4.28H6.37V5H8Z"/><path class="cls-1" d="M12.75,2.81h1.83v.64h-1l.48.13c-.18.46-.38.94-.55,1.29h1v.65H12.75V6.6h1.58v.63H12.75v2h-.7v-2H10.41V6.6h1.64V5.52H10.31V4.87h1a5.53,5.53,0,0,0-.42-1.29l.49-.13H10.17V2.81h1.88v-1H10.53V1.18h1.52v-1h.7v1h1.46v.64H12.75Zm.15,1.95a11.38,11.38,0,0,0,.49-1.31h-2a4.85,4.85,0,0,1,.46,1.32l-.35.1h1.73ZM19,4.12A9.21,9.21,0,0,1,17.8,7.41a5,5,0,0,0,1.58,1.27,3.3,3.3,0,0,0-.51.6A5.53,5.53,0,0,1,17.39,8a5.61,5.61,0,0,1-1.34,1.28,3,3,0,0,0-.47-.48v.48h-.67V.61h3.87V2.53c0,.37-.07.57-.39.68a5.91,5.91,0,0,1-1.56.11,2.14,2.14,0,0,0-.23-.64,12.84,12.84,0,0,0,1.29,0c.16,0,.2,0,.2-.16V1.29H15.58V4h2.84l.13,0ZM15.58,8.77A5.48,5.48,0,0,0,17,7.43,9.89,9.89,0,0,1,15.67,4.6h-.09ZM16.3,4.6a8.82,8.82,0,0,0,1.05,2.21,8.25,8.25,0,0,0,.86-2.21Z"/><path class="cls-1" d="M29.24,8.35V9H20.57V8.35h3.94V7.15H21.44V6.5h3.07v-1H22.15V3.21h5.52v2.3H25.24v1h3.24v.65H25.24v1.2ZM21.33,3.93h-.68V1.75h1.72A8.31,8.31,0,0,0,21.56.53l.65-.26a6.18,6.18,0,0,1,.92,1.31l-.37.17h1.75V.16h.73V1.75h1.84l-.43-.17A10.65,10.65,0,0,0,27.56.23l.76.27a11.41,11.41,0,0,1-1,1.25h1.86V3.93h-.72V2.41H21.33Zm1.52,1h4.09V3.8H22.85Z"/><path class="cls-1" d="M31.43,1.17h2c2.59,0,3.94,1.32,3.94,3.64s-1.35,3.71-3.89,3.71H31.43Zm2,6.58c2,0,3.05-1,3.05-2.94s-1-2.87-3.05-2.87H32.33V7.75Z"/><path class="cls-1" d="M42,5.66,39.4,1.17h1l1.15,2.07c.29.55.55,1.06.86,1.61h0c.32-.55.61-1.07.89-1.61l1.13-2.07h1L42.87,5.66V8.52H42Z"/><path class="cls-1" d="M53.3,2a13.93,13.93,0,0,1-1.5,3,25,25,0,0,1,2.47,2.29l-.63.69a22.3,22.3,0,0,0-2.36-2.3,12.74,12.74,0,0,1-3.92,3.23l-.69-.63a11.1,11.1,0,0,0,4-3.14,31.29,31.29,0,0,0-2.82-2l.52-.63c.86.55,2,1.37,2.81,2a11.19,11.19,0,0,0,1.36-2.73,5.74,5.74,0,0,0,.2-.74l.92.32A5.4,5.4,0,0,0,53.3,2Z"/><path class="cls-1" d="M56.07,3.77h6.55a5.36,5.36,0,0,0,.78,0v.83l-.78,0H59.9a6.13,6.13,0,0,1-.59,2.74,4.93,4.93,0,0,1-2,1.82l-.74-.55A4.14,4.14,0,0,0,58.49,7a4.79,4.79,0,0,0,.58-2.48h-3c-.3,0-.59,0-.86,0V3.72A7.66,7.66,0,0,0,56.07,3.77Zm1.23-2.5h3.46a7.26,7.26,0,0,0,.93-.06V2c-.29,0-.64,0-.93,0H57.31c-.33,0-.66,0-.92,0V1.21A8.69,8.69,0,0,0,57.3,1.27Zm5.73.5L62.49,2A11.43,11.43,0,0,0,61.68.62L62.21.4A11.54,11.54,0,0,1,63,1.77Zm1.12-.41-.54.24A9.53,9.53,0,0,0,62.78.22L63.31,0A13.15,13.15,0,0,1,64.15,1.36Z"/><path class="cls-1" d="M68.26,4.43a9.88,9.88,0,0,0,2.38-2l.62.6A12.39,12.39,0,0,1,69,4.86V8.42a5.07,5.07,0,0,0,0,.87h-.92c0-.15,0-.56,0-.87V5.36a18.64,18.64,0,0,1-3.12,1.32l-.38-.74A13.41,13.41,0,0,0,68.26,4.43Z"/><path class="cls-1" d="M80.77,2.12a9.58,9.58,0,0,1-2.48,2.76l-.66-.53a6.66,6.66,0,0,0,2.18-2.24H74.12A11.17,11.17,0,0,0,73,2.17V1.26a8.49,8.49,0,0,0,1.14.09h5.73a4.94,4.94,0,0,0,.7-.06l.49.47C81,1.86,80.84,2,80.77,2.12Zm-6.5,6.77-.74-.6a3.44,3.44,0,0,0,.9-.45c1.55-1,1.77-2.37,1.77-4a6,6,0,0,0,0-.72h.9C77.06,5.79,76.82,7.62,74.27,8.89Z"/><path class="cls-1" d="M83.7,1.8l.89.19c-.06.22-.14.51-.18.72a21.93,21.93,0,0,1-.91,3.13A14.5,14.5,0,0,1,82,8.59l-.85-.36a13.13,13.13,0,0,0,1.54-2.72A15.24,15.24,0,0,0,83.7,1.8ZM86.18,2,87,1.7a32.33,32.33,0,0,1,1.46,3.16c.41,1,.94,2.52,1.2,3.42l-.89.29a30,30,0,0,0-1.13-3.44A25.57,25.57,0,0,0,86.18,2ZM89,.42a1.13,1.13,0,0,1,0,2.25A1.13,1.13,0,0,1,89,.42Zm0,1.79a.67.67,0,1,0-.66-.66A.67.67,0,0,0,89,2.21Z"/><path class="cls-1" d="M92.21,4.24h5.47c.5,0,.86,0,1.08,0v1c-.2,0-.62,0-1.07,0H92.21c-.55,0-1.08,0-1.39,0v-1C91.12,4.21,91.65,4.24,92.21,4.24Z"/><path class="cls-1" d="M101.83,1.82a6.31,6.31,0,0,0-.08-1h1c0,.31-.07.74-.07,1V3.45a32,32,0,0,1,4.27,1.65l-.34.85a26.22,26.22,0,0,0-3.93-1.61c0,1.5,0,3,0,3.3s0,.85.06,1.18h-1a8.81,8.81,0,0,0,.07-1.18Z"/><path class="cls-1" d="M112.19.78h1a9.27,9.27,0,0,0-.06,1V3.12h2.66c.33,0,.71,0,.87,0v.85c-.16,0-.57,0-.88,0h-2.65a5.26,5.26,0,0,1-2.77,5l-.78-.58a4.46,4.46,0,0,0,2.71-4.42h-2.93c-.37,0-.73,0-.94,0V3.07c.21,0,.57.05.92.05h3V1.77A5.58,5.58,0,0,0,112.19.78Z"/><path class="cls-1" d="M119.55,4.24H125c.5,0,.86,0,1.08,0v1c-.2,0-.62,0-1.07,0h-5.49c-.55,0-1.08,0-1.39,0v-1C118.46,4.21,119,4.24,119.55,4.24Z"/><path class="cls-1" d="M132.93,2.44a12.51,12.51,0,0,1-1.68,2.94,28.68,28.68,0,0,1,2.92,3l-.7.61a23.13,23.13,0,0,0-2.75-3,12.71,12.71,0,0,1-3.9,2.93l-.64-.67a11.44,11.44,0,0,0,4.12-3A8.84,8.84,0,0,0,132,2.49h-3.9c-.35,0-.9,0-1,0v-.9c.14,0,.71.06,1,.06h3.86a2.74,2.74,0,0,0,.75-.08l.51.39A3.27,3.27,0,0,0,132.93,2.44Zm.82-.69-.53.24a12.94,12.94,0,0,0-.8-1.38L133,.38A11.91,11.91,0,0,1,133.75,1.75Zm1.17-.36-.54.24a11.54,11.54,0,0,0-.82-1.37l.52-.23C134.34.4,134.72,1,134.92,1.39Z"/><g id="Component_36_1" data-name="Component 36 1"><g id="Group_30" data-name="Group 30"><g id="Rectangle_101" data-name="Rectangle 101"><rect class="cls-2" x="138.92" y="0.58" width="8" height="6"/><rect class="cls-3" x="139.42" y="1.08" width="7" height="5"/></g><g id="Group_29" data-name="Group 29"><g id="Union_59" data-name="Union 59"><path class="cls-1" d="M148.42,8.08h0v-5h0Z"/><path class="cls-1" d="M148.92,8.58h-8v-1h7v-5h1Z"/></g></g></g></g></g></g></svg>