<svg xmlns="http://www.w3.org/2000/svg" viewBox="0 0 173.88 61.92"><defs><style>.cls-1{fill:none;stroke:#7D00FF;stroke-linecap:round;stroke-linejoin:round;stroke-width:3px;}</style></defs><g id="Layer_2" data-name="Layer 2"><g id="pc_menu-open"><path class="cls-1" d="M148.42,3.06H113.33v12.1C107.86,6.85,97.78,1.5,84.52,1.5c-9.46,0-17.31,2.74-23,7.34V3.06H1.5v8.21H25.12V58.86H37.78V11.27H58.84A27.94,27.94,0,0,0,51.12,31c0,17.35,13.77,29.46,33.4,29.46,12.9,0,23.22-5.19,28.81-13.64V58.86H126V39h22.43c18.35,0,24-9.77,24-17.91C172.38,10.85,163.54,3.06,148.42,3.06ZM84.52,51.42c-9.35,0-20.31-5-20.31-20.46,0-15.79,11.3-20.47,20.31-20.47,9.26,0,20.39,4.89,20.39,20.47C104.91,47.18,93,51.42,84.52,51.42Zm62.54-20.6H126V11.27h21.07c3.4,0,12.32,1.06,12.32,9.85S150.29,30.82,147.06,30.82Z"/></g></g></svg>