<svg xmlns="http://www.w3.org/2000/svg" viewBox="0 0 264.58 27.93"><defs><style>.cls-1{fill:#231815;}</style></defs><g id="Layer_2" data-name="Layer 2"><g id="message"><path class="cls-1" d="M6.21,10.59V27.87H3.48V10.59H0V8H3.48V.36H6.21V8H9.48v2.55ZM27.66,20.76H23.19V25.2c0,1.29-.24,1.95-1.23,2.31a13.83,13.83,0,0,1-4.41.39,7,7,0,0,0-.78-2.31c1.44,0,2.82,0,3.21,0s.51-.12.51-.45V20.76H13.11a20.44,20.44,0,0,1,3.78,3.78l-2,1.5a20.16,20.16,0,0,0-3.69-4l1.77-1.32H8.28V18.51H20.49V16.74H10.41V7.44h6.42V5.88H8.94V3.66h7.89V.33H19.5V3.66h4.44a30.16,30.16,0,0,0-3.18-1.83L22,.33a25.5,25.5,0,0,1,4.17,2.34l-.81,1h2V5.88H19.5V7.44h6.75v9.3H23.19v1.77h4.47ZM12.93,11.19h3.9V9.33h-3.9Zm0,3.63h3.9V12.93h-3.9ZM19.5,9.33v1.86h4.14V9.33Zm4.14,3.6H19.5v1.89h4.14Z"/><path class="cls-1" d="M38.08,8.19h5.25v2.37H40.54l1.29.33c-.51,1.26-1,2.58-1.53,3.54H43v2.4H38.08v2.82h4.5V22h-4.5v5.79H35.47V22H30.76V19.65h4.71V16.83h-5v-2.4H33.1A13.46,13.46,0,0,0,32,10.89l1.23-.33H30V8.19h5.49V5.58H31.06V3.24h4.41V.42h2.61V3.24h4.14V5.58H38.08Zm.06,6a36.46,36.46,0,0,0,1.26-3.6H34.21a14.28,14.28,0,0,1,1.17,3.6l-1,.27h4.77Zm18.63-1.83a29.3,29.3,0,0,1-3.39,9.78,14.51,14.51,0,0,0,4.47,3.57A11.07,11.07,0,0,0,56,27.9a16.45,16.45,0,0,1-4.14-3.54,17.19,17.19,0,0,1-3.66,3.57,8.56,8.56,0,0,0-1.53-1.62V27.9H44.14V1.68H56.08V7.35c0,1.29-.27,2-1.32,2.4a15.07,15.07,0,0,1-4.77.39,8.79,8.79,0,0,0-.84-2.4c1.71.06,3.3.06,3.75,0s.57-.12.57-.45V4.14H46.66v7.68h8l.45-.12ZM46.66,25.8a15.07,15.07,0,0,0,3.57-3.6,31,31,0,0,1-3.57-8.1ZM49,14.1a25.84,25.84,0,0,0,2.67,5.76A24.13,24.13,0,0,0,53.8,14.1Z"/><path class="cls-1" d="M86.89,24.66v2.43H60.83V24.66H72.34v-3H63.46V19.2h8.88V16.68H65.59V9.45H82.15v7.23h-7V19.2h9.45v2.43H75.16v3ZM63.5,11.7H60.94V5H65.8a20.75,20.75,0,0,0-2.19-3.36l2.49-1a17.93,17.93,0,0,1,2.58,3.84L67.58,5h4.76V.33h2.82V5h5.13l-1.41-.51a28,28,0,0,0,2.58-4l2.91.93A31.08,31.08,0,0,1,81.52,5h5.25V11.7H84.1V7.41H63.5Zm4.67,2.79H79.39V11.64H68.17Z"/><path class="cls-1" d="M101.41,5.55c-.16.27-.27.51-.45.78h7.22a7.91,7.91,0,0,0,2.25-.3l2.47,1.5a9,9,0,0,0-.84,1.83,29.69,29.69,0,0,1-5.28,10.2,27.33,27.33,0,0,1-12,8.31L92,25.35a23.93,23.93,0,0,0,12-7.47A22.43,22.43,0,0,0,108.58,9H99.19a31.08,31.08,0,0,1-7.59,7.32L89,14.4a25.66,25.66,0,0,0,9.42-9.93,14.06,14.06,0,0,0,1.11-2.7L103,2.91C102.37,3.81,101.74,5,101.41,5.55ZM113,5.4l-2,.84a37.33,37.33,0,0,0-2.37-4.14l1.91-.81A41.44,41.44,0,0,1,113,5.4Zm3.45-1.32L114.51,5A30,30,0,0,0,112.06.81L114,0A35.34,35.34,0,0,1,116.46,4.08Z"/><path class="cls-1" d="M123.09,4.71h16.29c.69,0,1.77,0,2.76,0-.06.81-.06,1.74-.06,2.58V22c0,1.05.06,3.63.06,3.87h-3.27c0-.15,0-.84.06-1.68H123.39c0,.81,0,1.53,0,1.68h-3.27c0-.27.09-2.67.09-3.87V7.26c0-.78,0-1.83-.06-2.61C121.38,4.71,122.34,4.71,123.09,4.71Zm.27,16.47h15.57V7.71H123.36Z"/><path class="cls-1" d="M152.19,12.33h16.32c1.44,0,2.61-.12,3.36-.18v3.72c-.66,0-2-.15-3.36-.15H152.19c-1.65,0-3.45.06-4.47.15V12.15C148.71,12.21,150.57,12.33,152.19,12.33Z"/><path class="cls-1" d="M181.07,5.13l3.39.69c-.21.75-.48,1.89-.63,2.55a64,64,0,0,1-2.64,9.24A43.52,43.52,0,0,1,176.78,26l-3.27-1.38a38.46,38.46,0,0,0,4.65-8.22A45.28,45.28,0,0,0,181.07,5.13Zm7.53.66,3.09-1c1.23,2.25,3.21,6.6,4.41,9.63s2.73,7.56,3.54,10.38l-3.42,1.11A102.34,102.34,0,0,0,193,15.45,80,80,0,0,0,188.6,5.79Zm8.91.24-1.95.84a36.08,36.08,0,0,0-2.4-4.14l2-.81A37.64,37.64,0,0,1,197.51,6ZM201,4.71l-2,.87a33.45,33.45,0,0,0-2.46-4.14L198.5.63C199.28,1.77,200.42,3.63,201,4.71Z"/><path class="cls-1" d="M208.31,17.31c.87-2.67.87-8.52.87-12a9.35,9.35,0,0,0-.24-2.43h3.48a22.45,22.45,0,0,0-.15,2.4c0,3.42-.12,9.81-.93,12.81a16.85,16.85,0,0,1-5.34,8.4l-2.88-1.92A13.89,13.89,0,0,0,208.31,17.31ZM217.16,23V5.22a22,22,0,0,0-.18-2.4h3.48a18.07,18.07,0,0,0-.15,2.4V21.81a21.1,21.1,0,0,0,8.16-6.9l1.83,2.58a31.57,31.57,0,0,1-10.23,8.28,9.33,9.33,0,0,0-1.14.75l-2-1.65A8.65,8.65,0,0,0,217.16,23Z"/><path class="cls-1" d="M243.87,25.75c-.26-.11-.55-.14-.82-.24a3.72,3.72,0,0,1-2.4-3.32c0-.38,0-.76,0-1.14V7.37a3.71,3.71,0,0,1,2.53-3.61,3.85,3.85,0,0,1,1.26-.19h7.9c.52,0,.75.23.75.76V5.78a.65.65,0,0,1-.74.74h-7.81c-.67,0-.93.26-.93.93v14.4c0,.65.27.93.92.93h14.42c.65,0,.92-.27.92-.93V14.5c0-.58.23-.8.81-.8h1.45a.63.63,0,0,1,.69.67c0,2.62,0,5.24,0,7.86a3.65,3.65,0,0,1-3.15,3.47s-.09,0-.12.05Z"/><path class="cls-1" d="M264.58,9.33a.79.79,0,0,1-.84.47c-.47,0-.94,0-1.4,0a.64.64,0,0,1-.71-.71V6.9a.53.53,0,0,0-.23.18l-8.33,8.33c-.43.43-.73.43-1.17,0s-.64-.63-1-1a.67.67,0,0,1,0-1.1L259.32,5a1.92,1.92,0,0,1,.21-.16.3.3,0,0,0-.25-.06h-2a.63.63,0,0,1-.7-.69V2.5a.64.64,0,0,1,.7-.7h6.59a.73.73,0,0,1,.7.47Z"/></g></g></svg>