<svg xmlns="http://www.w3.org/2000/svg" viewBox="0 0 103.06 23.32"><defs><style>.cls-1{fill:#7D00FF;}</style></defs><g id="Layer_2" data-name="Layer 2"><g id="pc_menu-open"><path class="cls-1" d="M39.75,7.86a46.47,46.47,0,0,1,10.88,6.07c-1.18,1-1.6,1.46-2.89,2.74A42.85,42.85,0,0,0,38.22,11V23.29H33.94v-22l4.28.2c.3,0,.57.05.57.28s-.39.35-.57.37V9.66Z"/><path class="cls-1" d="M55.08,7.2A32.22,32.22,0,0,1,57.91,12a17.44,17.44,0,0,0-3.25,1.31,32.55,32.55,0,0,0-2.89-4.92Zm17.47.15c.3.08.54.13.54.33S72.7,8,72.52,8c-2.32,7.86-6.26,12-14.61,14.89a9.58,9.58,0,0,0-2.41-2.41c6.27-2,11.84-5,13.38-14.11ZM61.38,6A18.47,18.47,0,0,1,64,10.87c-.64.2-2.17.63-3.26,1.1A28.21,28.21,0,0,0,58,7.13Z"/><path class="cls-1" d="M94.93,4.07A11,11,0,0,0,97,3.89L100,6a13.86,13.86,0,0,0-1.75,2.94C94.9,15.34,92,19.1,82.34,23.32a15.28,15.28,0,0,0-3.13-2.61c4.15-1.58,11.56-4.39,15.3-13.51h-19V4.07Zm8.13-1.74a2.85,2.85,0,0,1-5.6,0,2.85,2.85,0,0,1,5.6,0Zm-4.18,0a1.41,1.41,0,0,0,2.77,0,1.4,1.4,0,0,0-2.77,0Z"/><path class="cls-1" d="M1.23,20.72,0,18.66l12.16-5L0,8.57,1.23,6.52l17.13,7.1Z"/></g></g></svg>