<svg xmlns="http://www.w3.org/2000/svg" viewBox="0 0 293.95 60.98"><defs><style>.cls-1{fill:none;stroke:#7d00ff;stroke-linecap:round;stroke-linejoin:round;stroke-width:2.91px;}</style></defs><g id="Layer_2" data-name="Layer 2"><g id="フッター"><path class="cls-1" d="M268.85,3H223.92V37.74c0,9-8,12.92-18.36,12.92-11,0-17.77-4.81-17.77-12.84V3H175.21V14.44c-5.47-7.91-15.25-13-28.07-13-12,0-21.29,4.51-26.94,11.6C118.29,8.11,112.72,3,98.78,3h-36V14.52C59.14,8.63,51.51,1.46,34.57,1.46c-19.78,0-33.11,11.09-33.11,29.1,0,16.62,11.81,29,33.28,29,8.3,0,15.34-1.88,21.88-8.57l.59,7H75.3V36.15H95.76c2.85,0,11.82.21,11.82,8.79v5.31c0,4.39.67,5.66,1.77,7.75H123V57c-1.43-.85-2.93-1.69-2.93-8.11V47.81c5.75,7.28,15.31,11.72,27.06,11.72,13.61,0,24.17-5.92,29.37-15.28C180,54.88,191,59.53,206.15,59.53c13.18,0,23.71-3.89,28.07-12.63V58h12.49V38.45h22.14c18.11,0,23.64-9.64,23.64-17.67C292.49,10.66,283.77,3,268.85,3Zm-232,26.33v7.75H53.52C50.59,47.39,42.62,50.66,34,50.66c-3.77,0-9-.76-13.16-4.25-2.1-1.75-6.46-5.37-6.46-16.62,0-10.89,6.55-19.47,20-19.47,5,0,14.76,1,18.28,10.53H62.81v8.46Zm60.6-1.26H75.3v-17H97.44c5.7,0,10.81,2.52,10.81,8.32C108.25,24.91,103.31,28.05,97.44,28.05ZM108,32a28.78,28.78,0,0,0,6.3-2.62c0,.37-.11.71-.11,1.08a29.93,29.93,0,0,0,.36,3.58A17.63,17.63,0,0,0,108,32Zm39.14,18.63c-9.22,0-20-5-20-20.17,0-15.57,11.16-20.17,20-20.17,9.14,0,20.12,4.81,20.12,20.17C167.26,46.48,155.53,50.66,147.14,50.66ZM267.5,30.35H246.71V11.08H267.5c3.36,0,12.16,1.05,12.16,9.7S270.69,30.35,267.5,30.35Z"/></g></g></svg>