<svg xmlns="http://www.w3.org/2000/svg" viewBox="0 0 300.06 80.16"><defs><style>.cls-1{fill:#231815;}</style></defs><g id="Layer_2" data-name="Layer 2"><g id="message"><path class="cls-1" d="M279.34,78.53c-.26-.11-.55-.13-.82-.23a3.72,3.72,0,0,1-2.4-3.32c0-.38,0-.76,0-1.14,0-4.56,0-9.12,0-13.68a3.69,3.69,0,0,1,2.52-3.61,3.85,3.85,0,0,1,1.26-.19h7.9c.52,0,.75.23.75.76v1.45a.65.65,0,0,1-.74.74H280c-.67,0-.93.27-.93.94v14.4c0,.65.27.93.92.93h14.43c.64,0,.91-.27.91-.93V67.29c0-.58.23-.81.81-.81h1.45a.62.62,0,0,1,.7.67c0,2.62,0,5.24,0,7.86a3.65,3.65,0,0,1-3.14,3.47c-.05,0-.1,0-.12,0Z"/><path class="cls-1" d="M300.06,62.12a.8.8,0,0,1-.85.47c-.47,0-.93,0-1.4,0a.63.63,0,0,1-.71-.7v-2.2a.58.58,0,0,0-.22.18l-8.34,8.33c-.43.44-.73.43-1.16,0l-1-1a.66.66,0,0,1,0-1.1l8.37-8.36a1.92,1.92,0,0,1,.21-.16.29.29,0,0,0-.25-.06h-2a.63.63,0,0,1-.7-.69V55.29a.64.64,0,0,1,.7-.7h6.59a.75.75,0,0,1,.71.47Z"/><path class="cls-1" d="M6.21,10.26V27.54H3.48V10.26H0V7.71H3.48V0H6.21V7.71H9.48v2.55ZM27.66,20.43H23.19v4.44c0,1.29-.24,1.95-1.23,2.31a13.83,13.83,0,0,1-4.41.39,7,7,0,0,0-.78-2.31c1.44,0,2.82,0,3.21,0s.51-.12.51-.45V20.43H13.11a20.44,20.44,0,0,1,3.78,3.78l-2,1.5a20.16,20.16,0,0,0-3.69-4l1.77-1.32H8.28V18.18H20.49V16.41H10.41V7.11h6.42V5.55H8.94V3.33h7.89V0H19.5V3.33h4.44A30.16,30.16,0,0,0,20.76,1.5L22,0a25.5,25.5,0,0,1,4.17,2.34l-.81,1h2V5.55H19.5V7.11h6.75v9.3H23.19v1.77h4.47ZM12.93,10.86h3.9V9h-3.9Zm0,3.63h3.9V12.6h-3.9ZM19.5,9v1.86h4.14V9Zm4.14,3.6H19.5v1.89h4.14Z"/><path class="cls-1" d="M38.08,7.86h5.25v2.37H40.54l1.29.33c-.51,1.26-1,2.58-1.53,3.54H43v2.4H38.08v2.82h4.5v2.37h-4.5v5.79H35.47V21.69H30.76V19.32h4.71V16.5h-5V14.1H33.1A13.46,13.46,0,0,0,32,10.56l1.23-.33H30V7.86h5.49V5.25H31.06V2.91h4.41V.09h2.61V2.91h4.14V5.25H38.08Zm.06,6a36.46,36.46,0,0,0,1.26-3.6H34.21a14.28,14.28,0,0,1,1.17,3.6l-1,.27h4.77ZM56.77,12a29.3,29.3,0,0,1-3.39,9.78,14.51,14.51,0,0,0,4.47,3.57A11.07,11.07,0,0,0,56,27.57,16.45,16.45,0,0,1,51.85,24a17.19,17.19,0,0,1-3.66,3.57A8.56,8.56,0,0,0,46.66,26v1.59H44.14V1.35H56.08V7c0,1.29-.27,2-1.32,2.4A15.07,15.07,0,0,1,50,9.81a8.79,8.79,0,0,0-.84-2.4c1.71.06,3.3.06,3.75,0s.57-.12.57-.45V3.81H46.66v7.68h8l.45-.12ZM46.66,25.47a15.07,15.07,0,0,0,3.57-3.6,31,31,0,0,1-3.57-8.1ZM49,13.77a25.84,25.84,0,0,0,2.67,5.76,24.13,24.13,0,0,0,2.13-5.76Z"/><path class="cls-1" d="M86.89,24.33v2.43H60.82V24.33H72.34v-3H63.46V18.87h8.88V16.35H65.59V9.12H82.15v7.23h-7v2.52h9.45V21.3H75.16v3Zm-23.4-13H61V4.65H65.8a21.36,21.36,0,0,0-2.18-3.36L66.1.3a17.57,17.57,0,0,1,2.58,3.84l-1.11.51h4.77V0h2.82V4.65h5.13l-1.41-.51a28,28,0,0,0,2.58-4l2.91.93a31.08,31.08,0,0,1-2.85,3.54h5.25v6.72H84.1V7.08H63.49Zm4.68,2.79H79.39V11.31H68.17Z"/><path class="cls-1" d="M92.79,3.06h6.3c7.68,0,12,3.75,12,11S106.77,25.2,99.3,25.2H92.79Zm6.12,19.26c5.49,0,8.61-2.7,8.61-8.31s-3.12-8.13-8.61-8.13h-2.7V22.32Z"/><path class="cls-1" d="M123.6,16.77,116,3.06h3.72l3.15,5.85c.84,1.65,1.59,3.18,2.49,4.86h.12c.9-1.68,1.74-3.24,2.52-4.86l3.15-5.85h3.63l-7.65,13.71V25.2H123.6Z"/><path class="cls-1" d="M22.41,58.2a43,43,0,0,1-4.32,8.52,73.48,73.48,0,0,1,7.32,6.78L23,76.14a66.93,66.93,0,0,0-6.9-6.78A37.45,37.45,0,0,1,4.62,78.87L2,76.5a32.6,32.6,0,0,0,11.67-9.18,85.19,85.19,0,0,0-8.28-5.91l2-2.4c2.52,1.59,5.85,3.9,8.25,5.73A33.19,33.19,0,0,0,19.35,57,21.12,21.12,0,0,0,20,54.54l3.48,1.23A22.13,22.13,0,0,0,22.41,58.2Z"/><path class="cls-1" d="M30,63.21H49.62a19.14,19.14,0,0,0,2.52-.15v3.09c-.72,0-1.74-.06-2.52-.06H41.88a18.41,18.41,0,0,1-1.86,8,14.67,14.67,0,0,1-6,5.61l-2.76-2a12.49,12.49,0,0,0,5.55-4.47,13.87,13.87,0,0,0,1.8-7.08H30c-.9,0-1.89,0-2.73.09V63.06A26.29,26.29,0,0,0,30,63.21Zm3.72-7.56H43.83a25.16,25.16,0,0,0,3-.18v3.09c-1-.06-2-.12-3-.12H33.72c-1,0-2.13.06-2.94.12V55.47A22.62,22.62,0,0,0,33.69,55.65ZM50.91,57.3l-2,.84A35.81,35.81,0,0,0,46.56,54l1.92-.81A43.47,43.47,0,0,1,50.91,57.3ZM54.36,56l-2,.87A30.11,30.11,0,0,0,50,52.71l1.92-.81A38.23,38.23,0,0,1,54.36,56Z"/><path class="cls-1" d="M66.12,65.19A32.24,32.24,0,0,0,73.41,59l2.34,2.28A41.94,41.94,0,0,1,69,66.75V77.28a19.12,19.12,0,0,0,.15,2.88H65.67c.06-.51.12-1.92.12-2.88V68.64a61.28,61.28,0,0,1-9,3.78L55.32,69.6A41.41,41.41,0,0,0,66.12,65.19Z"/><path class="cls-1" d="M104,58.68A29.71,29.71,0,0,1,96.64,67l-2.49-2a18.37,18.37,0,0,0,6.12-6.21H83.83c-1.2,0-2.25.09-3.54.18V55.59a26.88,26.88,0,0,0,3.54.27H100.6a15.44,15.44,0,0,0,2.49-.21L105,57.42C104.71,57.75,104.23,58.32,104,58.68ZM84.53,79.05,81.77,76.8a11.34,11.34,0,0,0,2.87-1.47c4.29-2.76,5-6.54,5-11.52a14.27,14.27,0,0,0-.17-2.4h3.41C92.86,69.24,92.41,75,84.53,79.05Z"/><path class="cls-1" d="M111.83,57.3l3.39.69c-.21.75-.48,1.89-.63,2.55A64,64,0,0,1,112,69.78a43.52,43.52,0,0,1-4.41,8.37l-3.27-1.38a38.46,38.46,0,0,0,4.65-8.22A45.28,45.28,0,0,0,111.83,57.3Zm7.53.66,3.09-1c1.23,2.25,3.21,6.6,4.41,9.63s2.73,7.56,3.54,10.38L127,78.06a102.34,102.34,0,0,0-3.27-10.44A80,80,0,0,0,119.36,58Zm8.94-5a3.47,3.47,0,1,1-3.45,3.48A3.48,3.48,0,0,1,128.3,53Zm0,5.34a1.9,1.9,0,0,0,1.89-1.86,1.92,1.92,0,0,0-1.89-1.89,1.9,1.9,0,0,0-1.86,1.89A1.87,1.87,0,0,0,128.3,58.35Z"/><path class="cls-1" d="M137.7,64.5H154c1.44,0,2.61-.12,3.36-.18V68c-.66,0-2-.15-3.36-.15H137.7c-1.65,0-3.45.06-4.47.15V64.32C134.22,64.38,136.08,64.5,137.7,64.5Z"/><path class="cls-1" d="M165.78,57.6a21.72,21.72,0,0,0-.27-3.36h3.69c-.09,1-.21,2.31-.21,3.36v4.68a101.69,101.69,0,0,1,12.69,4.8l-1.35,3.27A78.55,78.55,0,0,0,169,65.67v9.27a35.15,35.15,0,0,0,.24,3.84h-3.69a31.41,31.41,0,0,0,.24-3.84Z"/><path class="cls-1" d="M196.52,54.24h3.78a27.56,27.56,0,0,0-.21,3.24v3.69h7.44a22,22,0,0,0,2.88-.15v3.24c-.54-.06-1.86-.09-2.91-.09h-7.41c-.12,6.33-2.19,11.22-8.43,14.91l-2.94-2.19c5.76-2.67,8-7,8.13-12.72h-8.31a29.35,29.35,0,0,0-3.09.12V61a26.51,26.51,0,0,0,3,.18h8.37V57.48A15.59,15.59,0,0,0,196.52,54.24Z"/><path class="cls-1" d="M219,64.5h16.32c1.44,0,2.61-.12,3.36-.18V68c-.66,0-2-.15-3.36-.15H219c-1.65,0-3.45.06-4.47.15V64.32C215.48,64.38,217.34,64.5,219,64.5Z"/><path class="cls-1" d="M262.56,57.15l-1.71.75.3.24a9,9,0,0,0-.87,1.56,41.84,41.84,0,0,1-4.92,8.55A79.74,79.74,0,0,1,263.94,77l-2.64,2.31a69.2,69.2,0,0,0-8-8.73,39.29,39.29,0,0,1-11.55,8.61l-2.43-2.55a33.65,33.65,0,0,0,12.33-8.76A24.68,24.68,0,0,0,256.47,60h-11c-1.17,0-2.79.15-3.27.18V56.79c.6.09,2.34.18,3.27.18h11.13a9.1,9.1,0,0,0,2.61-.3l1.17.9a34.47,34.47,0,0,0-2.16-3.72l2-.81A41.66,41.66,0,0,1,262.56,57.15Zm3.63-1.08-1.95.87a33.27,33.27,0,0,0-2.43-4.14l1.92-.81A39.83,39.83,0,0,1,266.19,56.07Z"/></g></g></svg>