<svg xmlns="http://www.w3.org/2000/svg" viewBox="0 0 219.77 60.99"><defs><style>.cls-1{fill:none;stroke:blue;stroke-linecap:round;stroke-linejoin:round;stroke-width:2.91px;}</style></defs><g id="Layer_2" data-name="Layer 2"><g id="フッター"><path class="cls-1" d="M198.78,27.15c-17.11-4.75-21-5.87-21-10.69,0-6.14,10.39-6.14,13.33-6.14,6,0,9,1.19,10.56,3.14a9.3,9.3,0,0,1,2.27,5.16h12.9C214.46,5.85,205.65,1.46,190.14,1.46c-16.26,0-22.46,6.11-24.46,11.63C163.69,7.4,157.53,3,146.47,3H110.92V15C105.54,6.81,95.64,1.46,82.52,1.46c-12.46,0-22.11,4.83-27.66,12.4V3H42.37V40.13c0,3.56-1.85,10.54-14.42,10.54-13.84,0-14-8.31-14-11.24V35.94H1.46v4.4c0,14.87,13.83,19.2,27.24,19.2,17.74,0,23.4-8.11,25.24-14,5.46,8.59,15.68,14,28.58,14s22.9-5.23,28.4-13.63V58H148c9.19,0,15.23-3.09,18.43-7.38,5.45,6.84,16.21,8.92,25.58,8.92,21.46,0,26.32-11.25,26.32-17.18C218.31,32.59,208.76,29.93,198.78,27.15ZM82.52,50.67c-9.22,0-20-5-20-20.18,0-15.56,11.15-20.17,20-20.17,9.14,0,20.12,4.81,20.12,20.17C102.64,46.49,90.9,50.67,82.52,50.67Zm40.89-39.59h20.3c2.18,0,10.06.43,10.06,7.27,0,2.44-1.26,7.67-10.06,7.67h-20.3ZM144.13,49.9H123.41V33.49H144c5.53,0,12.33,1.54,12.33,8S149.5,49.9,144.13,49.9Zm58-1.25c-3,1.67-7.63,2-10.48,2-10.48,0-15.34-3.28-15.68-9.42h-6.9c-.65-9.4-9.46-11.77-12.37-12.57,2.13-.75,6.79-2.43,8.86-6.83C168,29,177.2,31.78,190.31,35.11c10.73,2.71,15.18,4,15.18,8.38A6.49,6.49,0,0,1,202.13,48.65Z"/></g></g></svg>