<svg xmlns="http://www.w3.org/2000/svg" viewBox="0 0 120.92 27.6"><defs><style>.cls-1{fill:#231815;}</style></defs><g id="Layer_2" data-name="Layer 2"><g id="message"><path class="cls-1" d="M6.21,10.26V27.54H3.48V10.26H0V7.71H3.48V0H6.21V7.71H9.48v2.55ZM27.66,20.43H23.19v4.44c0,1.29-.24,1.95-1.23,2.31a13.83,13.83,0,0,1-4.41.39,7,7,0,0,0-.78-2.31c1.44,0,2.82,0,3.21,0s.51-.12.51-.45V20.43H13.11a20.44,20.44,0,0,1,3.78,3.78l-2,1.5a20.16,20.16,0,0,0-3.69-4l1.77-1.32H8.28V18.18H20.49V16.41H10.41V7.11h6.42V5.55H8.94V3.33h7.89V0H19.5V3.33h4.44A30.16,30.16,0,0,0,20.76,1.5L22,0a25.5,25.5,0,0,1,4.17,2.34l-.81,1h2V5.55H19.5V7.11h6.75v9.3H23.19v1.77h4.47ZM12.93,10.86h3.9V9h-3.9Zm0,3.63h3.9V12.6h-3.9ZM19.5,9v1.86h4.14V9Zm4.14,3.6H19.5v1.89h4.14Z"/><path class="cls-1" d="M38.08,7.86h5.25v2.37H40.54l1.29.33c-.51,1.26-1,2.58-1.53,3.54H43v2.4H38.08v2.82h4.5v2.37h-4.5v5.79H35.47V21.69H30.76V19.32h4.71V16.5h-5V14.1H33.1A13.46,13.46,0,0,0,32,10.56l1.23-.33H30V7.86h5.49V5.25H31.06V2.91h4.41V.09h2.61V2.91h4.14V5.25H38.08Zm.06,6a36.46,36.46,0,0,0,1.26-3.6H34.21a14.28,14.28,0,0,1,1.17,3.6l-1,.27h4.77ZM56.77,12a29.3,29.3,0,0,1-3.39,9.78,14.51,14.51,0,0,0,4.47,3.57A11.07,11.07,0,0,0,56,27.57,16.45,16.45,0,0,1,51.85,24a17.19,17.19,0,0,1-3.66,3.57A8.56,8.56,0,0,0,46.66,26v1.59H44.14V1.35H56.08V7c0,1.29-.27,2-1.32,2.4A15.07,15.07,0,0,1,50,9.81a8.79,8.79,0,0,0-.84-2.4c1.71.06,3.3.06,3.75,0s.57-.12.57-.45V3.81H46.66v7.68h8l.45-.12ZM46.66,25.47a15.07,15.07,0,0,0,3.57-3.6,31,31,0,0,1-3.57-8.1ZM49,13.77a25.84,25.84,0,0,0,2.67,5.76,24.13,24.13,0,0,0,2.13-5.76Z"/><path class="cls-1" d="M86.89,24.33v2.43H60.82V24.33H72.34v-3H63.46V18.87h8.88V16.35H65.59V9.12H82.15v7.23h-7v2.52h9.45V21.3H75.16v3Zm-23.4-13H61V4.65H65.8a21.36,21.36,0,0,0-2.18-3.36L66.1.3a17.57,17.57,0,0,1,2.58,3.84l-1.11.51h4.77V0h2.82V4.65h5.13l-1.41-.51a28,28,0,0,0,2.58-4l2.91.93a31.08,31.08,0,0,1-2.85,3.54h5.25v6.72H84.1V7.08H63.49Zm4.68,2.79H79.39V11.31H68.17Z"/><path class="cls-1" d="M100.2,26.85c-.26-.11-.54-.14-.81-.23A3.74,3.74,0,0,1,97,23.3c0-.39,0-.77,0-1.15V8.47A3.7,3.7,0,0,1,99.5,4.86a3.87,3.87,0,0,1,1.27-.19h7.9c.52,0,.75.24.75.76V6.88a.66.66,0,0,1-.75.75h-7.8c-.67,0-.94.26-.94.93V23c0,.66.28.93.92.93h14.43c.65,0,.92-.27.92-.92V15.6c0-.58.22-.8.8-.8s1,0,1.45,0a.63.63,0,0,1,.7.67c0,2.62,0,5.24,0,7.86A3.66,3.66,0,0,1,116,26.8s-.1,0-.12.05Z"/><path class="cls-1" d="M120.92,10.43a.79.79,0,0,1-.85.47c-.46,0-.93,0-1.4,0a.64.64,0,0,1-.71-.71V8a.58.58,0,0,0-.22.18q-4.17,4.15-8.33,8.33c-.44.43-.74.43-1.17,0l-1-1a.68.68,0,0,1,0-1.11l8.36-8.36a1.59,1.59,0,0,1,.21-.15.27.27,0,0,0-.25-.07h-2a.64.64,0,0,1-.71-.69V3.6a.65.65,0,0,1,.7-.7c2.2,0,4.4,0,6.6,0a.74.74,0,0,1,.7.47Z"/></g></g></svg>