<svg xmlns="http://www.w3.org/2000/svg" viewBox="0 0 99.03 8.91"><defs><style>.cls-1{fill:#231815;}.cls-2{fill:none;stroke:#231815;stroke-miterlimit:10;}</style></defs><g id="Layer_2" data-name="Layer 2"><g id="フッター"><path class="cls-1" d="M7.41.18a1.13,1.13,0,1,1,0,2.25A1.21,1.21,0,0,1,7,2.37a.52.52,0,0,1,0,.11A9.77,9.77,0,0,1,5.52,6.17,7.5,7.5,0,0,1,1.58,8.83L.9,8.09a6.58,6.58,0,0,0,3.9-2.4A7.48,7.48,0,0,0,6.11,2.43H1c-.4,0-.74,0-1,0V1.57a7.72,7.72,0,0,0,1,.07H6.34A1.12,1.12,0,0,1,7.41.18ZM7.41,2a.67.67,0,1,0-.66-.66A.67.67,0,0,0,7.41,2Z"/><path class="cls-1" d="M16.81,4a6.89,6.89,0,0,1-1.46,2.84,7.24,7.24,0,0,1-3.57,2.08l-.62-.7a6.74,6.74,0,0,0,3.51-1.83,5.11,5.11,0,0,0,1.19-2.21h-5.3l-1,0V3.34a9.45,9.45,0,0,0,1,.06h5.26a1.33,1.33,0,0,0,.55-.08l.57.36A1.75,1.75,0,0,0,16.81,4ZM11.38,1.09H15.3A6.23,6.23,0,0,0,16.21,1v.83c-.24,0-.58,0-.92,0H11.38c-.31,0-.63,0-.9,0V1A6.25,6.25,0,0,0,11.38,1.09Z"/><path class="cls-1" d="M22.88,3A12.07,12.07,0,0,0,25.6.66l.67.62a16.36,16.36,0,0,1-2.7,2.23V7.72a7.35,7.35,0,0,0,.06,1.07h-1a9,9,0,0,0,.06-1.07V4a19.38,19.38,0,0,1-3.8,1.63l-.4-.78A16.53,16.53,0,0,0,22.88,3Z"/><path class="cls-1" d="M29.19,1.77l.89.19c-.06.22-.14.51-.18.72A21.93,21.93,0,0,1,29,5.81a14.12,14.12,0,0,1-1.47,2.74l-.85-.35a13.13,13.13,0,0,0,1.54-2.72A15.24,15.24,0,0,0,29.19,1.77Zm2.49.17.81-.27A32.33,32.33,0,0,1,34,4.83c.41,1,.94,2.52,1.2,3.41l-.89.3A30,30,0,0,0,33.13,5.1,25.57,25.57,0,0,0,31.68,1.94Zm2.82.13L34,2.31A11.43,11.43,0,0,0,33.15.92L33.68.7A11.54,11.54,0,0,1,34.5,2.07Zm1.12-.41-.54.24A9.53,9.53,0,0,0,34.25.52L34.78.3A11.63,11.63,0,0,1,35.62,1.66Z"/><path class="cls-1" d="M39.22,4.41l-.46.7a21.92,21.92,0,0,0-2.18-1.37L37,3.06C37.61,3.38,38.78,4.09,39.22,4.41Zm1.16,2.38a10.2,10.2,0,0,0,3.79-3.66l.48.82a11.65,11.65,0,0,1-3.84,3.58,12.8,12.8,0,0,1-3.32,1.24L37,8A10.62,10.62,0,0,0,40.38,6.79Zm.32-4.57-.47.68c-.48-.36-1.56-1.08-2.15-1.42l.45-.67C39.12,1.14,40.27,1.9,40.7,2.22Z"/><path class="cls-1" d="M47.66,4.21h5.48c.5,0,.86,0,1.08,0v1c-.2,0-.62,0-1.07,0H47.66c-.55,0-1.08,0-1.39,0v-1C46.57,4.18,47.1,4.21,47.66,4.21Z"/><path class="cls-1" d="M55.94,7.55l-.69-.45a10.68,10.68,0,0,0,1.91-2.62l.7.34A14.1,14.1,0,0,1,55.94,7.55ZM60,1.5v1h2.64a7.67,7.67,0,0,0,.82,0V3.3c-.27,0-.57,0-.81,0H60V8.12c0,.52-.26.79-.86.79-.42,0-1,0-1.42-.07L57.65,8a7.31,7.31,0,0,0,1.15.13c.27,0,.39-.13.39-.38V3.28H56.41c-.3,0-.58,0-.85,0V2.47a7.48,7.48,0,0,0,.85,0h2.78v-1a3.63,3.63,0,0,0-.07-.71h.94A4.74,4.74,0,0,0,60,1.5Zm3.77,5.6L63,7.51a16.61,16.61,0,0,0-1.67-2.66L62,4.49A21.45,21.45,0,0,1,63.77,7.1Zm-1-7.1a1.1,1.1,0,0,1,1.1,1.1,1.1,1.1,0,0,1-2.19,0A1.1,1.1,0,0,1,62.82,0Zm0,1.74a.64.64,0,1,0-.63-.64A.63.63,0,0,0,62.82,1.74Z"/><path class="cls-1" d="M67,1.7V5c0,.25,0,.58,0,.76h-.91a6.55,6.55,0,0,0,0-.77V1.7c0-.18,0-.53,0-.72H67C67,1.17,67,1.46,67,1.7Zm4.65.07V3.39c0,2.4-.33,3.19-1,4.05a5.41,5.41,0,0,1-2.38,1.45l-.64-.68a4.66,4.66,0,0,0,2.38-1.33c.71-.83.83-1.64.83-3.53V1.77a7.17,7.17,0,0,0,0-.87h.94C71.62,1.15,71.61,1.43,71.61,1.77Z"/><path class="cls-1" d="M76.64,4.41l-.46.7A21.92,21.92,0,0,0,74,3.74l.44-.68C75,3.38,76.2,4.09,76.64,4.41Zm1.15,2.38a10.2,10.2,0,0,0,3.79-3.66l.48.82a11.65,11.65,0,0,1-3.84,3.58,12.74,12.74,0,0,1-3.31,1.24L74.45,8A10.48,10.48,0,0,0,77.79,6.79Zm.32-4.57-.47.68c-.47-.36-1.55-1.08-2.14-1.42L76,.81C76.54,1.14,77.68,1.9,78.11,2.22Z"/><path class="cls-1" d="M85.07,4.21h5.48c.5,0,.86,0,1.08,0v1c-.2,0-.62,0-1.07,0H85.07c-.55,0-1.08,0-1.39,0v-1C84,4.18,84.51,4.21,85.07,4.21Z"/><polyline class="cls-2" points="95.77 0.99 98.42 4.93 95.77 8.48"/></g></g></svg>