<svg xmlns="http://www.w3.org/2000/svg" viewBox="0 0 251.52 24.98"><defs><style>.cls-1{fill:#231815;}</style></defs><g id="Layer_2" data-name="Layer 2"><g id="message"><path class="cls-1" d="M20.75.5a3.15,3.15,0,1,1,0,6.3,3.47,3.47,0,0,1-1.07-.16,1.25,1.25,0,0,1-.05.3c-.59,2.94-2,7.45-4.17,10.34a21.19,21.19,0,0,1-11,7.47l-1.9-2.1c5.43-1.34,8.6-3.72,10.92-6.72A21,21,0,0,0,17.11,6.8H2.8c-1.12,0-2.07.06-2.8.09V4.4a22,22,0,0,0,2.8.19H16.86c.25,0,.56,0,.89,0a3.25,3.25,0,0,1-.14-.89A3.16,3.16,0,0,1,20.75.5Zm0,5A1.87,1.87,0,1,0,18.9,3.67,1.87,1.87,0,0,0,20.75,5.52Z"/><path class="cls-1" d="M46.55,11.12a19.38,19.38,0,0,1-4.09,8,20.26,20.26,0,0,1-10,5.85l-1.73-2a18.71,18.71,0,0,0,9.86-5.12,14.43,14.43,0,0,0,3.33-6.19H29c-.67,0-1.74,0-2.75.08V9.35A27.2,27.2,0,0,0,29,9.52H43.77a3.91,3.91,0,0,0,1.55-.22l1.59,1A4.57,4.57,0,0,0,46.55,11.12ZM31.32,3.05h11a17.87,17.87,0,0,0,2.55-.14V5.24c-.68-.06-1.63-.09-2.58-.09h-11c-.87,0-1.77,0-2.53.09V2.91A17.93,17.93,0,0,0,31.32,3.05Z"/><path class="cls-1" d="M63,8.43a33.44,33.44,0,0,0,7.64-6.58L72.5,3.58a45.65,45.65,0,0,1-7.56,6.25V21.64a21.39,21.39,0,0,0,.17,3H62.36a24.57,24.57,0,0,0,.17-3V11.28a55.49,55.49,0,0,1-10.67,4.57l-1.11-2.19A46.13,46.13,0,0,0,63,8.43Z"/><path class="cls-1" d="M80,5l2.49.53c-.17.61-.39,1.43-.51,2a61.72,61.72,0,0,1-2.54,8.77A40.92,40.92,0,0,1,75.27,24l-2.38-1a36.67,36.67,0,0,0,4.31-7.62A42.67,42.67,0,0,0,80,5Zm7,.47,2.27-.75a89.24,89.24,0,0,1,4.08,8.84c1.15,2.78,2.64,7.06,3.36,9.58l-2.49.81A85.68,85.68,0,0,0,91,14.28,72.07,72.07,0,0,0,86.92,5.43Zm7.89.37-1.51.67A31,31,0,0,0,91,2.58L92.52,2A32.17,32.17,0,0,1,94.81,5.8ZM98,4.65l-1.51.67a26.2,26.2,0,0,0-2.33-3.86L95.6.84A32.94,32.94,0,0,1,98,4.65Z"/><path class="cls-1" d="M107.5,12.35l-1.29,2a62.44,62.44,0,0,0-6.11-3.84l1.23-1.9C103,9.46,106.26,11.45,107.5,12.35ZM110.74,19A28.47,28.47,0,0,0,121.35,8.76l1.35,2.3a32.63,32.63,0,0,1-10.75,10,35.06,35.06,0,0,1-9.3,3.48l-1.29-2.27A29.49,29.49,0,0,0,110.74,19Zm.9-12.79-1.32,1.9c-1.34-1-4.37-3-6-4l1.26-1.87C107.21,3.19,110.43,5.32,111.64,6.22Z"/><path class="cls-1" d="M130.63,11.79H146c1.4,0,2.41-.09,3-.14v2.74c-.56,0-1.73-.14-3-.14H130.63c-1.55,0-3,.06-3.9.14V11.65C127.57,11.7,129.06,11.79,130.63,11.79Z"/><path class="cls-1" d="M153.26,21.17l-1.93-1.29a29.86,29.86,0,0,0,5.35-7.34l2,1A41,41,0,0,1,153.26,21.17Zm11.37-17V7.06H172a22.52,22.52,0,0,0,2.3-.14V9.24c-.76-.06-1.6-.06-2.27-.06h-7.42V22.74c0,1.48-.73,2.24-2.41,2.24-1.17,0-2.85-.09-4-.2l-.2-2.24a20.39,20.39,0,0,0,3.22.34c.76,0,1.09-.34,1.09-1.07V9.18h-7.78c-.84,0-1.62,0-2.38.09V6.92a21.79,21.79,0,0,0,2.38.14h7.78V4.17a10.42,10.42,0,0,0-.19-2h2.63A13.89,13.89,0,0,0,164.63,4.2Zm10.56,15.68L173.12,21a47,47,0,0,0-4.68-7.45l1.9-1A59,59,0,0,1,175.19,19.88ZM172.53,0a3.09,3.09,0,0,1,3.08,3.08,3.07,3.07,0,0,1-6.13,0A3.08,3.08,0,0,1,172.53,0Zm0,4.87a1.79,1.79,0,0,0,1.82-1.79,1.81,1.81,0,0,0-1.82-1.79,1.78,1.78,0,0,0-1.77,1.79A1.77,1.77,0,0,0,172.53,4.87Z"/><path class="cls-1" d="M183.55,4.76v9.35a21.23,21.23,0,0,0,.12,2.13h-2.58a17.59,17.59,0,0,0,.14-2.16V4.76c0-.5-.06-1.48-.11-2h2.55A20.16,20.16,0,0,0,183.55,4.76Zm13,.2V9.49c0,6.72-.92,8.93-2.94,11.34A14.92,14.92,0,0,1,187,24.92L185.15,23a12.84,12.84,0,0,0,6.69-3.73c2-2.32,2.33-4.59,2.33-9.88V5A20.9,20.9,0,0,0,194,2.52h2.63C196.6,3.22,196.57,4,196.57,5Z"/><path class="cls-1" d="M210,12.35l-1.29,2a61.09,61.09,0,0,0-6.1-3.84l1.23-1.9C205.51,9.46,208.79,11.45,210,12.35ZM213.27,19A28.54,28.54,0,0,0,223.88,8.76l1.35,2.3a32.57,32.57,0,0,1-10.76,10,34.88,34.88,0,0,1-9.29,3.48l-1.29-2.27A29.57,29.57,0,0,0,213.27,19Zm.9-12.79-1.32,1.9c-1.34-1-4.37-3-6-4l1.26-1.87C209.74,3.19,213,5.32,214.17,6.22Z"/><path class="cls-1" d="M233.15,11.79H248.5c1.4,0,2.41-.09,3-.14v2.74c-.56,0-1.73-.14-3-.14H233.15c-1.54,0-3,.06-3.89.14V11.65C230.1,11.7,231.58,11.79,233.15,11.79Z"/></g></g></svg>