<svg xmlns="http://www.w3.org/2000/svg" viewBox="0 0 161.28 41.28"><defs><style>.cls-1{fill:red;stroke-miterlimit:10;stroke-width:1.28px;}.cls-1,.cls-2{stroke:#fff;}.cls-2{fill:none;stroke-linecap:round;stroke-linejoin:round;}</style></defs><g id="Layer_2" data-name="Layer 2"><g id="pc_menu-open"><rect class="cls-1" x="0.64" y="0.64" width="160" height="40"/><path class="cls-2" d="M49.07,21.57h9.66v-2.2H49.07v-4H60V13.14H45.64v1.4c-.89-.8-2.4-1.4-4.89-1.4H31v1.79a7.15,7.15,0,0,0-5.19-1.79H16.33v15h3.4V22.81h6c2.57,0,4.21-.71,5.19-1.71v7h3.4v-6h5.58c.77,0,3.22.06,3.22,2.4V26a3.57,3.57,0,0,0,.48,2.11H60.21V25.93H49.07Zm-23.68-1H19.73V15.35h5.66c.92,0,3.32.28,3.32,2.64S26.26,20.6,25.39,20.6Zm15-.62h-6V15.35h6c1.56,0,2.95.68,2.95,2.26S42,20,40.38,20Zm2.88,1.08a6.32,6.32,0,0,0,2.38-1.18v2.19A3.83,3.83,0,0,0,43.26,21.06Z"/><rect class="cls-2" x="62.71" y="21.48" width="6.62" height="2.38"/><path class="cls-2" d="M141,13.14l-4.87,6.44-4.84-6.44h-3.93l.45.58a9.47,9.47,0,0,0-3.54-.58H98.46v11L88.62,13.14H72v15H88.62V17.2l9.84,10.94h3.41V15.35h4.57V28.14h3.4V15.35h4.66V28.14h3.41v-6h5.57c.78,0,3.22.06,3.22,2.4V26a3.64,3.64,0,0,0,.48,2.11h3.73v-.26c-.39-.23-.8-.46-.8-2.21V24.24a3.21,3.21,0,0,0-.78-2,3.71,3.71,0,0,0-2.51-1.14c.93-.29,3.56-1,3.56-3.88a1.21,1.21,0,0,0,0-.19l4.1,5.29v5.86h3.41V22.28L145,13.14ZM75.43,25.93V21.57H85.1v-2.2H75.43v-4h9.76V25.93ZM123.94,20h-6V15.35h6c1.55,0,3,.68,3,2.26S125.54,20,123.94,20Z"/></g></g></svg>