<?xml version="1.0" encoding="UTF-8"?><svg xmlns="http://www.w3.org/2000/svg" viewBox="0 0 145.95 23.64"><defs><style>.d{fill:blue;}</style></defs><g id="a"/><g id="b"><g id="c"><g><g><path class="d" d="M39.12,23.19h-3.73v-7.23c-1.24,.93-2.23,1.56-2.98,2.03-.75-1.46-1.87-2.21-2.38-2.59,3.22-1.58,7.29-4.82,8.58-7.3h-7.38v-2.89h4.16V.38l3.7,.1c.42,0,.57,.23,.57,.35,0,.15-.15,.25-.54,.43v3.97h3.1l1.66,1.3c-1.72,2.86-2.05,3.34-3.31,4.74,1.63,1.53,3.71,2.66,4.61,3.16-.75,.53-1.87,1.56-2.35,2.33-1.78-1.05-2.62-1.76-3.71-2.71v9.14Zm4.25-12.45v-3.04h5.3V.33l4.07,.15c.24,0,.45,.1,.45,.28,0,.25-.21,.3-.63,.4V7.71h5.33v3.04h-5.33v8.73h5.99v2.89h-17.08v-2.89h7.2V10.74h-5.3Z"/><path class="d" d="M76.92,18.42h-7.32l1.93,1.3c.15,.1,.36,.28,.36,.43,0,.18-.21,.3-.48,.3-.18,0-.33-.03-.63-.13-1.39,.7-4.52,2.26-8.4,3.11-.69-.83-1.87-1.66-2.92-2.21,3.73-.5,6.72-1.91,8.46-2.81h-5.12V7.25h21.66v11.17h-5.57c3.67,1.86,5.78,2.18,8.37,2.61-.33,.23-1.75,1.21-2.5,2.36-2.08-.5-5.99-1.51-9.37-3.56l1.54-1.41ZM83.37,.9V6.33h-19.52V.9h19.52Zm-2.77,9.49v-1.18h-13.92v1.18h13.92Zm-13.92,1.78v1.18h13.92v-1.18h-13.92Zm0,2.96v1.2h13.92v-1.2h-13.92Zm.87-12.12v1.33h12.02v-1.33h-12.02Z"/><path class="d" d="M92.52,14.26c.18,.03,.54,.15,.54,.35,0,.33-.42,.4-.78,.48-.42,3.51-.48,3.92-1.17,6.25-.84-.23-2.14-.53-3.25-.63,1.12-2.79,1.24-3.92,1.36-6.88l3.31,.43Zm7.2-10.44c.33,.15,.54,.3,.54,.45,0,.33-.3,.3-1.08,.3-1.24,2.03-3.98,5.35-4.28,5.67,1.54-.13,2.08-.2,2.5-.25-.24-.75-.39-1.08-.57-1.48l2.89-.75c.6,1.38,.84,2.16,1.05,2.79,3.04-1.76,4.04-4.54,4.22-6.93h-4.43V1.1h14.94c0,9.54-.63,11.37-6.48,11.29-.12-.95-.51-1.83-1.12-2.91,.45,.05,.87,.08,1.6,.08,1.24,0,1.84-.15,2.11-1.46,.42-2.13,.42-3.69,.42-4.49h-3.71c-.33,4.39-2.35,7.18-5.48,9.14-.3-.35-1.02-1.25-1.96-1.76,.24,.8,.36,1.41,.45,2.01-.36,.08-1.99,.38-3.1,.8-.09-.7-.12-1-.24-1.56-.27,.02-.57,.08-1.51,.18v10.84h-3.31V12.78c-.84,.08-2.59,.23-3.52,.3-.09,.18-.21,.33-.3,.45-.06,.1-.12,.2-.3,.2-.27,0-.39-.35-.42-.55l-.48-2.61c1.14-.03,1.99-.05,3.1-.1,.21-.23,.51-.55,1.29-1.48-.6-.5-2.95-2.21-4.34-3.01l1.72-2.06c.54,.28,.75,.4,1.14,.63,1.11-1.66,1.93-2.96,2.53-4.49l2.77,1.21c.27,.12,.42,.23,.42,.38,0,.35-.63,.33-.96,.3-.78,1.38-1.99,3.31-2.56,4.12,.27,.18,.45,.33,.93,.7,1.69-2.41,2.26-3.67,2.59-4.32l2.92,1.38Zm.57,10.27c.12,3.14,.57,4.77,.81,5.55-.57,.08-2.71,.45-3.07,.53-.54-2.43-.69-3.84-.69-5.9l2.95-.18Zm4.91,8.11v.95h-3.34V12.98h13.67v10.17h-3.34v-.95h-6.99Zm6.99-2.54v-4.14h-6.99v4.14h6.99Z"/><path class="d" d="M133.09,.25c.45,.02,.78,.1,.78,.35,0,.12-.18,.28-.33,.4,1.14,1.25,5.03,5.45,12.41,7.76-1.14,1.1-1.81,2.43-1.96,2.74-2.41-.95-8.04-3.14-12.92-8.66-3.46,3.99-7.77,6.85-12.02,8.74-.36-.7-.93-1.46-2.68-2.54,2.71-1.05,9.07-3.54,12.44-9.04l4.28,.25Zm-5.09,9.16c.54,.03,.78,.15,.78,.35,0,.23-.27,.35-.6,.5,0,3.19-.09,5.5-.96,7.48-.66,1.56-2.65,4.32-6.14,5.9-.75-.98-1.42-1.48-2.8-2.26,4.67-1.66,5.6-4.54,5.81-5.5,.36-1.61,.33-3.92,.3-6.65l3.61,.18Zm9.97,.03c.45,.03,.75,.1,.75,.3,0,.15-.18,.3-.45,.43v13.1h-3.74V9.24l3.43,.2Z"/></g><path class="d" d="M1.23,20.16l-1.23-2.06,12.16-5.04L0,8.02l1.23-2.06,17.12,7.1L1.23,20.16Z"/></g></g></g></svg>