<?xml version="1.0" encoding="UTF-8"?><svg id="Layer_2" xmlns="http://www.w3.org/2000/svg" viewBox="0 0 453.12 23.8"><defs><style>.cls-1{fill:#ff7500;}</style></defs><g id="pc_menu-open"><g><g><path class="cls-1" d="M51.32,18.78v2.91H31.29c.33-4.27,2.71-5.6,10.15-9.71,4.43-2.46,5.06-3.14,5.06-4.64,0-2.11-2.47-2.79-4.67-2.79-4.52,0-5.36,2.26-5.51,4.54h-4.64c.12-1.73,.57-7.73,10.15-7.73,6.14,0,9.28,2.69,9.28,5.95,0,2.81-1.87,4.42-6.27,6.73-4.58,2.41-5.81,3.21-7.35,4.74h13.83Z"/><path class="cls-1" d="M72.89,11.8c0,3.54-1.11,10.44-10,10.44s-10-6.88-10-10.44,1.02-10.44,10-10.44,10,6.9,10,10.44Zm-15.36,0c0,1.08,0,7.28,5.36,7.28s5.33-6.2,5.33-7.28,0-7.28-5.33-7.28-5.36,6.1-5.36,7.28Z"/><path class="cls-1" d="M94.33,18.78v2.91h-20.03c.33-4.27,2.71-5.6,10.15-9.71,4.43-2.46,5.06-3.14,5.06-4.64,0-2.11-2.47-2.79-4.67-2.79-4.52,0-5.36,2.26-5.51,4.54h-4.64c.12-1.73,.57-7.73,10.15-7.73,6.14,0,9.28,2.69,9.28,5.95,0,2.81-1.87,4.42-6.27,6.73-4.58,2.41-5.81,3.21-7.35,4.74h13.83Z"/><path class="cls-1" d="M112.1,14.33h3.89v2.91h-3.89v4.44h-4.52v-4.44h-11.84v-2.91L107.58,1.91h4.52V14.33Zm-4.52,0V6.1l-7.86,8.23h7.86Z"/><path class="cls-1" d="M134.66,9.34h6.27v2.76h-6.27v3.54h10.03v2.76h-10.03v5.2h-3.89v-5.2h-13.61v-2.76h4.94v-6.3h8.67v-3.19h-6.99c-.57,.75-2.14,2.79-4.07,4.34-1.14-.73-2.2-1.3-3.37-1.63,4.07-3.09,5.96-6.68,6.72-8.48l3.67,1c.36,.1,.42,.15,.42,.33,0,.33-.39,.33-.84,.35-.21,.4-.36,.7-.66,1.25h17.86v2.84h-8.86v3.19Zm-3.89,2.76h-4.76v3.54h4.76v-3.54Z"/><path class="cls-1" d="M172.64,6.4v2.41h-5.39v3.59h-11.72v-3.59h-3.83v1.23c0,3.46-.36,9.69-3.37,13.38-1.02-.6-2.29-1.03-3.34-1.23,1.11-1.48,1.96-2.91,2.53-5.47,.33-1.56,.63-4.92,.63-6.58V2.33h9.97V.58l4.07,.18c.3,.02,.6,.15,.6,.35,0,.18-.18,.3-.57,.43v.8h11.39v2.51h-5.66c-.12,.2-.24,.28-.69,.33v1.23h5.39Zm-16.51,9.39h-3.28v-2.41h16.45l1.6,1.25c-1.66,2.23-4.82,4.19-5.72,4.74,.93,.3,4.22,1.36,8.25,1.41-.99,1.13-1.69,2.48-1.87,2.84-4.88-.73-6.93-1.33-9.85-2.46-1.02,.45-4.31,1.88-8.01,2.38-.24-.73-.96-1.76-2.17-2.54,1.11-.12,3.46-.43,6.69-1.53-2.17-1.21-3.1-2.06-3.86-2.79l1.78-.9Zm-.6-9.39v-1.56h-3.83v1.56h3.83Zm2.26,9.39c.72,.55,1.87,1.36,3.8,2.23,.54-.28,2.44-1.23,3.49-2.23h-7.29Zm5.84-9.39v-1.56h-3.83c-.09,.3-.48,.33-.72,.33v1.23h4.55Zm-4.55,2.41v1.51h4.55v-1.51h-4.55Z"/><path class="cls-1" d="M183.9,12.5h4.49v2.54h-4.01c.36,.38,2.38,2.26,4.01,3.14-1.27,.68-1.63,.95-2.41,1.96-.9-.73-1.36-1.25-2.08-2.16v5.52h-3.4v-5.5c-.81,1.33-1.75,2.66-3.31,4.07-.84-.63-1.57-1-3.01-1.53,2.53-1.78,4.16-3.74,5.3-5.5h-4.22v-2.54h5.24v-1.83h-5.57v-2.46h3.4c-.48-1.43-.75-1.93-.96-2.33l1.57-.45h-3.19V3.01h4.85V.55l3.64,.23c.54,.03,.66,.13,.66,.3,0,.15-.27,.3-.66,.48v1.46h4.34v2.41h-1.84c.72,.13,.99,.18,.99,.4,0,.25-.21,.3-.75,.43-.33,.78-.78,1.53-1.05,1.96h3.28v2.46h-4.37c-.06,.3-.66,.43-.93,.5v1.33Zm-3.43-7.08c.66,1.31,.84,1.91,.96,2.38l-1.69,.4h2.92c.9-1.15,1.36-2.48,1.45-2.79h-3.64Zm9.46-3.11l1.99,.18c1.99,0,6.05-.83,8.37-1.63l2.05,2.23c.06,.08,.15,.18,.15,.33,0,.23-.18,.35-.45,.35-.21,0-.39-.08-.75-.25-2.53,.68-4.73,1.08-7.74,1.28v3.41h8.61v2.81h-2.71v12.48h-3.58V11.02h-2.32c0,1.86,0,8.11-4.4,12.68-.72-.4-1.84-.93-3.46-1.28,3.86-3.49,4.25-7.76,4.25-11.4V2.31Z"/><path class="cls-1" d="M229.8,3.26v2.69h-5.96l.96,.4c.33,.15,.42,.23,.42,.38,0,.33-.51,.3-.84,.3-.06,.08-.51,.68-.75,1,2.29,2.21,5.27,3.59,6.6,4.19-1.17,.83-1.66,1.25-2.41,2.26-2.44-1.18-4.22-2.38-6.05-4.14-.93,1-2.26,2.08-3.43,2.91l.9,.08c.57,.05,.75,.15,.75,.33,0,.25-.3,.33-.72,.45v1.18h11.84v2.69h-11.84v5.67h-3.89v-5.67h-11.81v-2.69h11.81v-2.28l1.05,.1c-.36-.38-.87-.83-1.63-1.28-.18,.28-.24,.38-.39,.68-.51-.2-1.27-.5-3.22-1.91-.48,.5-2.74,2.81-4.49,3.99-.72-.55-2.11-1.41-3.04-1.81,.78-.43,3.86-2.23,6.84-6.83h-5.57V3.26h10.45V.53l3.89,.15c.3,0,.75,.13,.75,.33,0,.23-.21,.33-.75,.58v1.68h10.54Zm-16.99,2.69l1.36,.63c.18,.08,.39,.23,.39,.38,0,.33-.48,.35-.87,.35-.27,.35-.36,.48-.72,.98,1.72,1.08,2.62,1.41,3.49,1.68-1.02,.98-1.17,1.15-1.48,1.58,.99-.5,3.86-1.88,6.05-5.6h-8.22Z"/><path class="cls-1" d="M241.99,4.87v1.48l3.04-.95c.72,1.05,1.9,3.09,2.35,4.32-1.93,.65-2.17,.73-3.13,1.18-.75-1.71-1.33-2.86-2.26-4.24v.95h-2.86v3.34c1.45-.43,1.9-.55,2.83-.93-.18,1.03-.24,2.01-.27,2.79-1.05,.45-2.26,.83-2.56,.93v6.83c0,1.33,0,3.29-5.57,3.01-.09-1.03-.6-2.23-1.11-3.11,.57,.08,1.69,.17,2.26,.17,.96,0,.96-.4,.96-1.48v-4.37c-1.21,.35-1.69,.45-2.32,.58,0,.2-.06,.68-.48,.68-.09,0-.33-.08-.39-.35l-.72-3.09c1.36-.2,3.13-.6,3.92-.78V7.61h-3.25v-2.74h3.25V.58l3.61,.23c.3,.03,.51,.1,.51,.3,0,.25-.33,.35-.66,.48v3.29h2.86Zm6.6,12.93c-1.63,1.86-4.28,3.99-6.39,4.95-.72-.78-.93-.9-2.89-2.08,1.42-.63,5.15-2.26,8.22-5.57h-5.69v-2.69h6.75v-2.06l3.46,.2c.33,.03,.69,.08,.69,.35,0,.23-.18,.28-.69,.45v1.05h7.56v2.69h-6.63c1.02,1.21,3.25,3.31,7.77,5.42-1.42,.63-2.29,1.71-2.65,2.18-1.05-.55-3.77-2.03-6.05-4.84v5.7h-3.46v-5.75Zm10.15-15.09c.15,.15,.27,.3,.27,.45s-.09,.28-.33,.28c-.18,0-.48-.13-.84-.25-6.08,1.36-11.27,1.96-15.42,1.96-.27-1.26-.75-2.06-1.08-2.64,8.25-.13,12.47-1.25,15.18-2.03l2.23,2.23Zm-8.22,2.18c.69,1.28,1.27,2.74,1.63,4.29-1.08,.15-1.51,.25-3.16,.7-.54-1.71-.96-2.76-1.72-4.17l3.25-.83Zm8.77,.45c.33,.1,.39,.2,.39,.35,0,.3-.18,.35-.9,.48-.72,1.51-2.32,4.29-3.04,5.07-1.33-.63-1.57-.75-3.1-1.18,.99-1.46,2.23-3.54,3.01-5.77l3.65,1.05Z"/><path class="cls-1" d="M277.23,22.47h-3.74v-7.25h-6.14c-.3,2.36-.72,5.45-2.98,8.48-1.45-.9-3.55-1.21-4.04-1.25,2.62-2.76,3.25-7.15,3.25-11.02V1.48h23.43V20.31c0,3.14-2.71,3.36-6.27,3.21-.18-1.15-.78-2.38-1.39-3.26,.48,.08,1.39,.2,2.38,.2,1.29,0,1.48-.38,1.48-1.36v-3.89h-5.99v7.25Zm-3.74-12.83h-5.87v1.31c0,.45-.03,1-.06,1.43h5.93v-2.74Zm0-5.45h-5.87v2.74h5.87v-2.74Zm3.74,2.74h5.99v-2.74h-5.99v2.74Zm0,5.45h5.99v-2.74h-5.99v2.74Z"/><path class="cls-1" d="M292.62,5.7V2.51h15.3c.48,0,1.6-.05,2.08-.2l2.05,1.83c-.6,.65-.93,1.23-1.14,1.61-1.27,2.46-1.96,3.79-3.89,6.4,2.29,1.43,7.02,4.84,9.4,7.25-1.05,.95-2.74,2.51-3.1,2.86-1.63-1.88-4.13-4.62-8.55-7.48-2.08,2.18-6.96,6.02-12.05,7.83-.93-1.36-1.45-1.93-2.86-2.94,1.81-.53,6.2-1.88,10.66-5.87,3.25-2.89,4.4-5.25,5.69-8.11h-13.58Z"/><path class="cls-1" d="M325.93,9.61c-.12,.15-2.62,3.41-5.18,5.55-.99-.75-2.02-1.41-3.52-2.11,5.15-4.14,7.8-8.63,9.37-12.7l4.16,1.33c.21,.08,.48,.18,.48,.38,0,.25-.6,.33-.9,.38-.66,1.36-1.36,2.61-2.11,3.89h15.51v3.29h-7.53c-.24,4.84-2.02,10.24-9.7,14.18-1.2-1.13-2.8-2.06-3.31-2.33,4.13-1.93,8.37-4.72,8.73-11.85h-5.99Z"/><path class="cls-1" d="M348.34,6.25c2.35,.75,6.15,2.61,7.32,3.41-1.08,.95-2.17,2.36-2.53,2.86-2.83-1.98-6.14-3.11-7.11-3.44l2.32-2.84Zm-.57,13.65c9.7-2.76,17.38-8.31,21.54-13.6,.33,.5,.96,1.48,2.65,2.86-4.55,5.67-13.55,11.32-21.05,13.63-.06,.25-.15,.6-.51,.6-.21,0-.3-.13-.45-.35l-2.17-3.14Zm3.61-19.25c3.22,1,5.33,1.83,7.77,3.06-.6,.55-1.96,2.18-2.44,2.79-2.32-1.38-4.94-2.44-7.56-3.24l2.23-2.61Zm13.71,1.25c.93,.55,2.59,1.71,3.4,2.41-.54,.43-1.42,1.16-1.96,1.61-.33-.28-1.81-1.56-3.37-2.54l1.93-1.48Zm2.83-1.91c.96,.58,2.56,1.76,3.25,2.41-.3,.18-.69,.4-1.84,1.41-1.08-.93-2.11-1.73-3.28-2.46l1.87-1.36Z"/><path class="cls-1" d="M394.15,18.68v2.79h-20.84v-2.79h11.08l1.66-7.88h-9.22v-2.91h13.77l-2.35,10.79h5.9Z"/><path class="cls-1" d="M422.73,10.39v3.56h-25.99v-3.56h25.99Z"/><path class="cls-1" d="M435.02,2.56c.3,.03,.69,.03,.69,.33,0,.28-.3,.4-.54,.48v6.15c0,6.38-3.4,9.24-7.5,11.9-.48-.48-1.08-1.08-3.4-2.33,5.72-3.04,6.54-5.87,6.54-9.34V2.38l4.22,.18Zm7.47-.23c.33,.03,.57,.03,.57,.28s-.3,.35-.57,.48v13.15c3.58-1.88,6.6-4.59,8.61-7,.63,1.46,1.05,2.08,2.02,3.11-1.99,2.26-5.78,5.37-8.61,7.05-2.5,1.51-2.77,1.68-3.55,2.23l-2.77-1.51c.06-.68,.12-1.3,.12-1.98V2.16l4.19,.18Z"/></g><path class="cls-1" d="M1.23,20.49l-1.23-2.06,12.16-5.04L0,8.35l1.23-2.06,17.12,7.1L1.23,20.49Z"/></g></g></svg>