<svg xmlns="http://www.w3.org/2000/svg" viewBox="0 0 143.95 23.64"><defs><style>.cls-1{fill:#ff0;}</style></defs><g id="Layer_2" data-name="Layer 2"><g id="pc_menu-open"><path class="cls-1" d="M56.67,14V16H54.74v4.17H51v-.86H44.77v1.71c0,1.71-1.08,2.21-4.67,2.21-.66,0-1.05,0-1.47-.05a7.9,7.9,0,0,0-1.21-2.74,22.25,22.25,0,0,0,2.62.2c.51,0,1-.05,1-.72v-.63H31.28V17.09h9.79V16H29.17V14h11.9V13H31.28V10.94h9.79v-.87h-7.8V5h7.8V4.09H29.2V1.83H41.07V.28L45,.43c.15,0,.45.07.45.32s-.36.35-.69.45v.63H56.58V4.09H44.77V5h7.74v5.1H44.77v.87h10v3ZM41.07,8V7H36.73V8ZM44.77,7V8h4.34V7ZM51,14V13H44.77v1Zm0,3.11V16H44.77v1.05Z"/><path class="cls-1" d="M75.49,7.15A22.3,22.3,0,0,1,67,23.54a6,6,0,0,0-3-1.8A17.44,17.44,0,0,0,70,15.56a24.16,24.16,0,0,0-2.26-1.48,15,15,0,0,1-1,1.26,8.91,8.91,0,0,0-2.86-1.66,15.6,15.6,0,0,0,4.06-9.41H65.88V1.73a1.34,1.34,0,0,1-.54,0,25.28,25.28,0,0,1-1.59,3.36c.48.13.87.25.87.45s-.39.4-.9.55v17.2H60.07V10.64A13.72,13.72,0,0,1,58.84,12a9.06,9.06,0,0,0-2.2-2.71A22.1,22.1,0,0,0,62.12,0l3.43.91c.3.07.63.2.57.58H76.67V3.76l3,.11c.24,0,.72,0,.72.27s-.42.33-.87.43v13.7H76.12v-14H71.46a27.24,27.24,0,0,1-.64,2.88ZM69.8,10c-.3.73-.45,1.08-.72,1.64a18.12,18.12,0,0,1,2.17,1.05A21.81,21.81,0,0,0,71.94,10ZM84.65.48c.48,0,1,.07,1,.37s-.42.35-.9.38V19.7c0,2.69-.87,3.64-6.09,3.62a4.1,4.1,0,0,0-1.47-3.27c1.08.13,2.56.21,2.95.21,1.27,0,1.27-.43,1.27-1.36V.25Z"/><path class="cls-1" d="M90.52,14.26c.18,0,.54.15.54.35s-.42.4-.78.47a26.82,26.82,0,0,1-1.18,6.25,21.38,21.38,0,0,0-3.25-.62,16.36,16.36,0,0,0,1.36-6.88Zm7.2-10.44c.33.15.54.3.54.45,0,.32-.3.3-1.08.3a58.93,58.93,0,0,1-4.28,5.67c1.54-.12,2.08-.2,2.5-.25a11.7,11.7,0,0,0-.57-1.48l2.89-.75a28.18,28.18,0,0,1,1,2.78A8.37,8.37,0,0,0,103,3.61H98.56V1.1H113.5c0,9.54-.63,11.37-6.47,11.3a8.11,8.11,0,0,0-1.12-2.91,13.64,13.64,0,0,0,1.6.07c1.23,0,1.83-.15,2.11-1.45a22,22,0,0,0,.42-4.5h-3.71a11,11,0,0,1-5.48,9.14,7.35,7.35,0,0,0-2-1.76,12.75,12.75,0,0,1,.45,2,23.65,23.65,0,0,0-3.1.8A15.53,15.53,0,0,0,96,12.25c-.27,0-.57.07-1.5.17V23.27H91.18V12.78l-3.52.3a4.39,4.39,0,0,1-.3.45.32.32,0,0,1-.3.2c-.28,0-.4-.35-.43-.55l-.48-2.61c1.15,0,2-.05,3.11-.1.21-.23.51-.56,1.29-1.48a44.89,44.89,0,0,0-4.34-3l1.72-2c.54.27.75.4,1.14.62A22.48,22.48,0,0,0,91.6.05l2.78,1.2c.27.13.42.23.42.38,0,.35-.64.33-1,.3-.78,1.38-2,3.32-2.56,4.12.27.17.45.33.94.7A29.34,29.34,0,0,0,94.8,2.43Zm.57,10.26a20.73,20.73,0,0,0,.81,5.55c-.57.07-2.71.45-3.07.53a23.92,23.92,0,0,1-.69-5.9Zm4.91,8.11v.95H99.86V13h13.67V23.14h-3.34v-.95Zm7-2.54V15.51h-7v4.14Z"/><path class="cls-1" d="M131.09.25c.45,0,.78.1.78.35s-.18.28-.33.4A27.42,27.42,0,0,0,144,8.76a10.22,10.22,0,0,0-2,2.74,32.29,32.29,0,0,1-12.92-8.66,34.25,34.25,0,0,1-12,8.73A6.38,6.38,0,0,0,114.37,9c2.71-1.06,9.07-3.54,12.44-9ZM126,9.41c.54,0,.78.15.78.35s-.27.36-.6.51c0,3.18-.09,5.49-1,7.48a12.51,12.51,0,0,1-6.15,5.89,7.87,7.87,0,0,0-2.8-2.25c4.67-1.66,5.6-4.55,5.81-5.5a33.13,33.13,0,0,0,.3-6.65Zm10,0c.45,0,.75.1.75.3s-.18.3-.45.43v13.1h-3.74v-14Z"/><path class="cls-1" d="M1.23,20.16,0,18.11l12.16-5L0,8,1.23,6l17.13,7.1Z"/></g></g></svg>