<svg xmlns="http://www.w3.org/2000/svg" viewBox="0 0 382.2 60.99"><defs><style>.cls-1{fill:none;stroke:lime;stroke-linecap:round;stroke-linejoin:round;stroke-width:2.91px;}</style></defs><g id="Layer_2" data-name="Layer 2"><g id="フッター"><path class="cls-1" d="M234.9,3,218,40.29c-1.32-8-10.07-10.56-19.27-13.14-17.1-4.74-21-5.87-21-10.68,0-6.15,10.39-6.15,13.33-6.15,6,0,9,1.2,10.56,3.15a9.18,9.18,0,0,1,2.27,5.16h12.91C214.37,5.85,205.57,1.46,190.05,1.46c-16.23,0-22.44,6.09-24.45,11.61C161.86,4.6,153.65,1.46,140.69,1.46c-11.83,0-18.25,3.26-21.7,7.16V3H51L34.66,45.79,18.31,3H1.46V58H14V14.72L30.3,58H39L55.37,14.72V58h64.54V53.56c5.87,4.52,14.75,6,22.62,6,13.38,0,20.3-4.37,23.63-9.09,5.39,7,16.29,9.09,25.74,9.09s15.7-2.28,19.71-5.28L209.91,58h13l4.69-11h29.1l4.61,11h13.08L249.32,3ZM152.68,48.65c-3,1.68-7.64,2-10.48,2-10.49,0-15.35-3.27-15.68-9.41H113.44a16.46,16.46,0,0,0,3,8.65H79v-16h35.47v-8.1H79V11.1h38.2a13.73,13.73,0,0,0-1.82,6.56c0,10.47,10.06,13.54,25.48,17.45,10.74,2.73,15.18,4,15.18,8.38A6.48,6.48,0,0,1,152.68,48.65Zm49.37,0c-3,1.68-7.63,2-10.48,2-10.49,0-15.35-3.27-15.68-9.41h-7.17c-.75-8.82-9.83-11.43-19.4-14.11-17.1-4.74-21-5.87-21-10.68,0-6.15,10.4-6.15,13.33-6.15,5.95,0,9,1.2,10.56,3.15a9.09,9.09,0,0,1,2.26,5.16h10.43c.66,9.64,10.46,12.7,25.36,16.48,10.74,2.73,15.18,4,15.18,8.38A6.48,6.48,0,0,1,202.05,48.65Zm28.74-9.21,11.32-26.6,11.32,26.6Z"/><path class="cls-1" d="M339.83,49.91v-16H375.3v-8.1H339.83V11.1h40V3H327.26V14.92c-3.57-6-11.17-13.46-28.49-13.46-19.79,0-33.12,11.1-33.12,29.11,0,16.61,11.82,29,33.28,29,8.3,0,15.35-1.88,21.89-8.58l.58,7h59.35V49.91ZM301,29.31v7.75h16.68c-2.93,10.34-10.89,13.61-19.53,13.61-3.77,0-9-.76-13.16-4.25-2.1-1.75-6.46-5.38-6.46-16.62,0-10.88,6.54-19.48,19.95-19.48,5,0,14.76,1,18.28,10.54h10.47v8.45Z"/></g></g></svg>