<svg xmlns="http://www.w3.org/2000/svg" viewBox="0 0 286.96 111.68"><defs><style>.cls-1{fill:red;}</style></defs><g id="Layer_2" data-name="Layer 2"><g id="フッター"><path class="cls-1" d="M11.65,3.51c.42.1.54.17.54.33s-.09.31-.6.41C9.79,11.84,6.92,16.4,3.64,19.48A17.21,17.21,0,0,0,0,18c5.24-4.86,6.8-10,7.72-15.28Zm7.11-1.35A38.11,38.11,0,0,1,27.39,17c-1.14.47-3.5,1.64-3.84,1.83A30.6,30.6,0,0,0,15.63,4.08Z"/><path class="cls-1" d="M47.06,3.63a5,5,0,0,0,2-.36l2,1.5c-.49.69-2,3.49-2.93,5.24A25.43,25.43,0,0,1,34.51,21.83a13.58,13.58,0,0,0-3-2.33C41.62,16,44.33,9.66,45.67,6.55H37.75a36.08,36.08,0,0,1-6.69,6.31,14,14,0,0,0-3-2.18C31.12,8.61,35.47,5,37.64,0l3.5,1.4c.14.05.4.14.4.36s-.51.3-.68.3c-.34.57-.57.93-1,1.57Z"/><path class="cls-1" d="M55.26,4.65v-3H69.73a9.3,9.3,0,0,0,2-.19l1.94,1.73A7.48,7.48,0,0,0,72.55,4.7a36.32,36.32,0,0,1-3.68,6.05,61.16,61.16,0,0,1,8.89,6.86c-1,.9-2.59,2.37-2.94,2.7a35.51,35.51,0,0,0-8.08-7.07,33.28,33.28,0,0,1-11.39,7.4,9.16,9.16,0,0,0-2.71-2.77,25.28,25.28,0,0,0,10.08-5.56A19.41,19.41,0,0,0,68.1,4.65Z"/><path class="cls-1" d="M97.77,3.63a5,5,0,0,0,2-.36l2.05,1.5c-.49.69-2,3.49-2.94,5.24A25.36,25.36,0,0,1,85.21,21.83a13.16,13.16,0,0,0-3-2.33C92.33,16,95,9.66,96.38,6.55H88.46a36.4,36.4,0,0,1-6.69,6.31,14,14,0,0,0-3-2.18C81.83,8.61,86.18,5,88.35,0l3.5,1.4c.14.05.4.14.4.36s-.52.3-.69.3c-.34.57-.57.93-1,1.57Z"/><path class="cls-1" d="M6.27,47.45l.07,0a1.15,1.15,0,0,1-.16-.6V43.4l1.46.09c.07,0,.2,0,.2.1s-.08.12-.29.21v1.08a17.23,17.23,0,0,0,2.33-1l1,.78s.07.07.07.11,0,.13-.18.13a1,1,0,0,1-.25-.06,24.39,24.39,0,0,1-3,1.1v.42c0,.39.26.42.54.42H9.42c.38,0,.53-.3.7-.89a3.6,3.6,0,0,0,1.15.44c-.35,1.49-1,1.49-1.67,1.49H7.35a1.83,1.83,0,0,1-.88-.21c0,.07-.19.1-.26.1s-.2.39-.28.51H9.84v3.94H8.36V51.8H3.49v.35H2V48.21H4.42a4.94,4.94,0,0,0,.41-.86c-.57.1-3.09.48-3.6.56,0,.12-.08.21-.19.21s-.12,0-.17-.2L.55,46.87a12.45,12.45,0,0,0,1.33-.12V43.42l1.53.08c.12,0,.18.08.18.13s-.07.11-.26.18v.86h2.5v1H3.33v.93c.25,0,1.15-.15,2.45-.39a3.89,3.89,0,0,0-.16,1l-.54.08Zm2.09,2.17v-.5H3.49v.5Zm0,1.31v-.54H3.49v.54Z"/><path class="cls-1" d="M16.51,43.5a5.33,5.33,0,0,0,.58,1.57,10.1,10.1,0,0,0,2.62-1.14c.42.44.75.75,1,1a17,17,0,0,1-3,1.24,11.18,11.18,0,0,0,2.63,2.71l-1,.73a7.25,7.25,0,0,0-3.21-.74c-.29,0-2.09,0-2.09,1,0,.8,1.24,1,2.64,1a7.63,7.63,0,0,0,2.73-.47,3.89,3.89,0,0,0,.32,1.28,12.44,12.44,0,0,1-3,.34c-2.8,0-4.32-.95-4.32-2.14s1.25-2,3.39-2a6.73,6.73,0,0,1,1.51.16,12.17,12.17,0,0,1-1.05-1.43,24.38,24.38,0,0,1-4.11.62l-.49-1.26a18.79,18.79,0,0,0,4-.45c-.29-.52-.62-1.2-.85-1.67Z"/><path class="cls-1" d="M27.17,44c.08,0,.17.06.17.15s-.15.1-.34.09c-.39.6-1.49,2.47-1.81,3.06A2.8,2.8,0,0,1,26.38,47c.73,0,1.55.26,1.55,1.21a3.32,3.32,0,0,1-.1.79,3.83,3.83,0,0,0-.16,1c0,.23,0,.58.56.58A4.85,4.85,0,0,0,30.83,49a7.16,7.16,0,0,0,1,1,6.25,6.25,0,0,1-4,2c-.9,0-1.71-.45-1.71-1.44,0-.29.2-1.6.2-1.87s-.12-.5-.55-.5a2,2,0,0,0-1.45.85,12.29,12.29,0,0,0-1.6,2.78l-1.6-.56a60.43,60.43,0,0,0,3.91-6.61c.1-.2.51-1.11.6-1.29Z"/><path class="cls-1" d="M37.45,50.69c2.68-.43,3.38-2.1,3.38-3.1s-.85-2.4-2.91-2.48c-.38,3.54-2,6.09-3.2,6.09a3,3,0,0,1-2.42-2.9c0-2,2.2-4.35,5.45-4.35,2.43,0,4.61,1.37,4.61,3.64A3.88,3.88,0,0,1,41,50.47a6.55,6.55,0,0,1-2.56,1.35A6.28,6.28,0,0,0,37.45,50.69Zm-3.7-2.48c0,.81.51,1.45.87,1.45s.65-.65.83-1a7.61,7.61,0,0,0,.85-3.3A3.42,3.42,0,0,0,33.75,48.21Z"/><path class="cls-1" d="M46.07,52.14H44.7V49.49a6.56,6.56,0,0,1-.91,1.44,6.19,6.19,0,0,0-1-.82,9.4,9.4,0,0,0,1.85-2.79H43v-1H44.7V43.47l1.38.06c.07,0,.2,0,.2.09s-.1.14-.21.18v2.52h1.4v1H46.11a13.53,13.53,0,0,0,1.43,1.84,4,4,0,0,0-1,.75,6.61,6.61,0,0,1-.51-.9Zm-1.93-8a8.15,8.15,0,0,1,.46,1.81,11.18,11.18,0,0,0-1.1.21A10.53,10.53,0,0,0,43,44.32Zm3.84.25c.09,0,.18.06.18.14s-.14.1-.24.1a13.7,13.7,0,0,1-.84,1.62,3.17,3.17,0,0,0-1-.36A8.5,8.5,0,0,0,46.82,44Zm5.43,6.51v1H47.17v-1h3.09a24.06,24.06,0,0,0,1.12-4.48l1.39.19c.12,0,.31,0,.31.13s-.12.17-.32.21c0,.14-.55,2.26-1.14,4Zm-.11-5.63v1H47.62v-1h2V43.49l1.53.08s.22,0,.22.1-.18.15-.29.19v1.39Zm-4,1.29c.06.32.37,1.71.41,2a10.83,10.83,0,0,1,.22,1.93,6,6,0,0,0-1.4.22,13.94,13.94,0,0,0-.65-3.95Z"/><path class="cls-1" d="M58.93,43.73c.15,0,.23.06.23.14S59,44,58.89,44s-.32.84-.37,1a21.33,21.33,0,0,0,3.9-.77,3,3,0,0,0,.29,1.2,23.67,23.67,0,0,1-4.69.82c-.06.13-.27.6-.76,1.6a7.7,7.7,0,0,1,3.2-.76c2.91,0,3.1,1.75,3.1,2.19C63.56,51.88,59,52,57.65,52a11.35,11.35,0,0,1-1.2-.05,4.34,4.34,0,0,0-.36-1.21c.36,0,1,.09,1.72.09,1.47,0,4.14-.22,4.14-1.65,0-.78-.69-1.09-1.59-1.09a6.58,6.58,0,0,0-4.13,1.66l-1.37-.58a11.32,11.32,0,0,0,1.62-2.91c-.7,0-1.67,0-2.37,0l0-1.32a16.84,16.84,0,0,0,2.82.18,11.24,11.24,0,0,0,.45-1.72Z"/><path class="cls-1" d="M69.21,43.88c.13,0,.22.06.22.13s-.06.15-.3.16c-.1.41-.21.89-.33,1.27,1.31-.07,2.74.21,2.74,2.61a5.2,5.2,0,0,1-.71,2.63,2.29,2.29,0,0,1-2.19,1.18,5,5,0,0,1-1-.11,4,4,0,0,0-.14-1.39,2.71,2.71,0,0,0,1,.2,1.08,1.08,0,0,0,1.19-.75A4.42,4.42,0,0,0,70.08,48c0-.4,0-1.37-1.09-1.37a5.1,5.1,0,0,0-.56,0,13.75,13.75,0,0,1-2.89,5.13,7.74,7.74,0,0,0-1.43-.62,10.61,10.61,0,0,0,2.74-4.27,14.78,14.78,0,0,0-2,.52l-.49-1.32c.46-.06,2.43-.41,2.84-.46a13.71,13.71,0,0,0,.35-2.16ZM72,45c.8.63,2.37,2.06,2.37,3.06,0,.76-1,1-1.74,1.24a8.56,8.56,0,0,0-.74-1.07c.62-.15.83-.19.83-.49,0-.49-1-1.53-1.79-2.22Zm.67-1.11a7.86,7.86,0,0,1,1,1,6.78,6.78,0,0,0-.73.46,8.3,8.3,0,0,0-1-1Zm1.1-.58a7.63,7.63,0,0,1,1,1c-.32.18-.38.22-.82.49A4.28,4.28,0,0,0,73,43.69Z"/><path class="cls-1" d="M77.28,44.41c.18.05.24.07.24.15s-.16.14-.24.15a7.14,7.14,0,0,0-.61,2.86c0,1.34.57,2.3,1,2.3s.95-1.06,1.22-1.59a4.33,4.33,0,0,0,1,.85c-.85,1.73-1.78,2.44-2.4,2.44s-2.33-1.24-2.33-4.1A14.22,14.22,0,0,1,75.7,44Zm5.66.13a8.57,8.57,0,0,1,2.28,4.82,12.72,12.72,0,0,0-1.58.59,7.66,7.66,0,0,0-2-4.75Z"/><path class="cls-1" d="M86.06,45a9,9,0,0,0,1.23.08c.29,0,.6,0,1.25-.06A15.93,15.93,0,0,0,89,43.4l1.53.4c.15,0,.21.08.21.15s-.16.11-.23.11-.24.68-.27.79a13.16,13.16,0,0,0,1.42-.34,7.06,7.06,0,0,0,0,1.21,18.29,18.29,0,0,1-1.92.35,20.12,20.12,0,0,1-2.59,4.57,10.36,10.36,0,0,0-1.43-.5,14,14,0,0,0,2.38-3.9c-.4,0-1.29,0-1.87,0Zm7.28,2.48a1.24,1.24,0,0,0-.47,1,4.61,4.61,0,0,0,.13,1,13.08,13.08,0,0,1,2.46,1.22,9.59,9.59,0,0,0-.89,1,10.26,10.26,0,0,0-1.53-.9C92.87,52,91.4,52,90.83,52c-1.59,0-2.55-.6-2.55-1.5,0-.61.51-1.44,2.19-1.44a6.8,6.8,0,0,1,1,.08,5.35,5.35,0,0,1-.08-.83,1.8,1.8,0,0,1,.8-1.4ZM90.56,50c-.37,0-.88.14-.88.48s.71.49,1,.49c.87,0,.94-.4,1-.74A2.79,2.79,0,0,0,90.56,50Zm2.19-4.91a9.25,9.25,0,0,1,3,1.23c-.23.26-.58.66-.86,1A9,9,0,0,0,92,46.18Z"/><path class="cls-1" d="M99.59,43.74l1.55-.17c.06,0,.23,0,.23.08s-.07.14-.17.2l.23,1.29,2.72-.28.16,1.18-2.68.29.23,1.26,3.91-.42.16,1.2-3.87.42.54,3.06-1.54.22L100.51,49l-4.11.44-.18-1.21,4.08-.43-.22-1.26-2.92.33L97,45.61l2.88-.29Z"/><path class="cls-1" d="M108.53,45.26l1.35-.14c.1,0,.24,0,.24.1s-.08.11-.16.17l.33,1.43,2.95-.49a1.25,1.25,0,0,0,.55-.24l.95.59c-.38.39-1.78,2.32-2.07,2.7-.42-.21-1.08-.44-1.27-.51.12-.12.37-.42.64-.74s.4-.5.49-.63l-2,.36.9,3.83-1.31.26-.93-3.84-2.4.44-.37-1.1L109,47Z"/><path class="cls-1" d="M117.47,43.84c.14,0,.23,0,.23.1s-.14.14-.23.18v4.6h-1.59V43.79Zm5.29-.17c.17,0,.23,0,.23.09s-.15.16-.23.19V47c0,3.17-2.22,4.32-4.42,5.09a2.49,2.49,0,0,0-1-1c3.73-1,3.81-3,3.81-4.05V43.6Z"/><path class="cls-1" d="M132.88,44.25a2.22,2.22,0,0,0,.63-.08l1.07.82a4.54,4.54,0,0,0-.41.48,18.93,18.93,0,0,1-3.21,3.1,4.89,4.89,0,0,0-1.12-.9,9.62,9.62,0,0,0,2.46-2.19h-7.85V44.25Zm-3,1.75c.08,0,.18,0,.18.09s-.13.18-.18.2a7.87,7.87,0,0,1-.58,2.79,6.21,6.21,0,0,1-2.92,2.81,8,8,0,0,0-1.34-.84c1.69-.8,3.4-1.88,3.19-5.14Z"/><path class="cls-1" d="M140.26,43.6c.08,0,.23,0,.23.16s-.12.14-.27.15l-.34.59a12.42,12.42,0,0,0,2.57-.48v1.22c-1.08.16-2.22.32-3.32.41-.14.21-.4.56-.6.84a2.82,2.82,0,0,1,1.09-.21,2,2,0,0,1,1.72.87c.81-.3,1.94-.73,2.41-.94l.57,1.29c-1,.26-1.87.5-2.69.78a9,9,0,0,1,.05.95c0,.42,0,.71,0,.94-.08,0-1,0-1.53,0a9.37,9.37,0,0,0,.05-1.31c-1.24.56-1.71,1-1.71,1.39s.59.58,1.93.58A15.38,15.38,0,0,0,144,50.4a4.43,4.43,0,0,0-.18,1.3,18.45,18.45,0,0,1-3.17.26C140,52,137,52,137,50.33c0-1.32,2.35-2.34,3.05-2.65a.9.9,0,0,0-.94-.51c-.89,0-1.73.56-2.81,2l-1.36-.66a19.85,19.85,0,0,0,2.51-2.8c-.56,0-.9,0-1.83,0V44.58c.27,0,.95.08,1.84.08.41,0,.58,0,.7,0a10.25,10.25,0,0,0,.65-1.29Z"/><path class="cls-1" d="M150.87,48.66c.1,0,.19,0,.19.11s-.12.12-.25.15v.2h4.5V50h-3.73a12.25,12.25,0,0,0,3.83,1.24,2.62,2.62,0,0,0-.88.92,10.3,10.3,0,0,1-3.72-1.68V52.2h-1.33V50.57a10.89,10.89,0,0,1-3.59,1.65,5.27,5.27,0,0,0-1-.9A10.33,10.33,0,0,0,148.65,50H145v-.92h4.5v-.36a4,4,0,0,0-.41-.24,3.45,3.45,0,0,0,.69-.42c-.68.22-3.54.64-3.89.68,0,.08-.06.21-.2.21s-.12-.05-.15-.16l-.26-1c1.06-.08,1.62-.14,1.89-.18v-.88h-1.67v-.88h.17a6.9,6.9,0,0,0-1.12-.39,7.82,7.82,0,0,0,1.75-2.16l1.22.24c.12,0,.19.07.19.14s-.22.13-.33.13-.1.17-.16.25h2.89v.62a6.14,6.14,0,0,0,.95-1.35l1.17.22c.1,0,.18.06.18.15s-.13.13-.32.15l-.13.21h3.25V45h-1.9a3.61,3.61,0,0,1,.18.53,6.14,6.14,0,0,0-1.31.19A2.79,2.79,0,0,0,152,45h-.66a7.11,7.11,0,0,1-.72.84H154v1.9c0,.15.07.19.29.19a.21.21,0,0,0,.21-.15,3.3,3.3,0,0,0,.1-.66,3.54,3.54,0,0,0,1,.43c-.16,1.07-.58,1.26-1.13,1.26h-.81c-.76,0-.83-.33-.84-.71a4.28,4.28,0,0,0-.79.44,4.35,4.35,0,0,0-.56-1,2.94,2.94,0,0,1-.76,1.14Zm-2.55-1.18,1.54-.23a3.48,3.48,0,0,0-.05.82c.35-.3.72-.62.65-2.15a8.27,8.27,0,0,0-1.12-.46,5.4,5.4,0,0,0,.48-.45h-1.26c.1.21.12.27.27.62a3.5,3.5,0,0,0-1.27.17,6.2,6.2,0,0,0-.27-.79h-.77a7.31,7.31,0,0,1-.84.87h4.14v.88h-1.5Zm3.3-.74c0,.13,0,.28-.08.5l.7-.31a6.66,6.66,0,0,1,.56.81v-1Z"/><path class="cls-1" d="M163.13,44.12c.07,0,.13.09.13.15s0,.1-.14.1h-.21c-.46.36-2.46,1.74-4.12,2.87-.49.34-.5.4-.5.45s.11.17.45.34a23,23,0,0,1,4.74,3.26,6.84,6.84,0,0,0-1.15,1.08,22.31,22.31,0,0,0-5-3.63c-1-.56-1.15-.62-1.15-1s0-.34,1-1a26.87,26.87,0,0,0,4.55-3.55Z"/><path class="cls-1" d="M169.59,43.79c.16,0,.22.07.22.14s0,.12-.23.14c-.05.17-.27.93-.32,1.08a9.4,9.4,0,0,0,2.1-.48l.18,1.26a17.86,17.86,0,0,1-2.68.47,19.88,19.88,0,0,1-3,5.66,9.89,9.89,0,0,0-1.46-.62,14.09,14.09,0,0,0,2.9-4.85c-.7.06-1.19.06-2.26.08l-.12-1.34c.28,0,.63,0,1.11,0,.22,0,.86,0,1.63,0a16.92,16.92,0,0,0,.3-1.85Zm.93,5.69a1,1,0,0,0-.39.7c0,.51,1.39.51,1.91.51a9.81,9.81,0,0,0,2.48-.32,2.75,2.75,0,0,0-.06.65,2.64,2.64,0,0,0,.07.66,16.56,16.56,0,0,1-2.38.18c-1.07,0-3.4-.08-3.4-1.5a2.27,2.27,0,0,1,.5-1.27ZM170,46.92a17.9,17.9,0,0,1,2.55-.17,9.73,9.73,0,0,1,1.69.11,9.34,9.34,0,0,0-.11,1.25,7.82,7.82,0,0,0-1.67-.15c-.91,0-2.08.12-2.46.16Z"/><path class="cls-1" d="M177.93,44.09a7.88,7.88,0,0,0,.34,1.71,6.57,6.57,0,0,1,2.33-.65,8.28,8.28,0,0,0,.19-1.67l1.65.32c.1,0,.22.06.22.15s-.18.12-.24.12l-.27,1.09c2.3.28,3.32,1.67,3.32,3.13,0,2.62-2.9,3.43-4.38,3.64a4,4,0,0,0-.84-1.07c2.84-.41,3.72-1.32,3.72-2.57,0-1.68-1.63-1.92-2.13-2a8.61,8.61,0,0,1-1.59,3l.56.58a8.19,8.19,0,0,0-1.24.93c-.16-.2-.19-.24-.37-.49a3.46,3.46,0,0,1-2.15.91,1.51,1.51,0,0,1-1.63-1.59,4.07,4.07,0,0,1,1.64-3.06,19,19,0,0,1-.7-2.11Zm-.34,3.67a2.75,2.75,0,0,0-.8,1.73.43.43,0,0,0,.44.5c.48,0,1.06-.55,1.22-.69A15.7,15.7,0,0,1,177.59,47.76Zm1.1-.86a11.9,11.9,0,0,0,.72,1.31,5.92,5.92,0,0,0,.91-1.9A5,5,0,0,0,178.69,46.9Z"/><path class="cls-1" d="M191.49,50.69c2.69-.43,3.38-2.1,3.38-3.1s-.85-2.4-2.91-2.48c-.38,3.54-2,6.09-3.2,6.09a3,3,0,0,1-2.41-2.9c0-2,2.2-4.35,5.44-4.35,2.43,0,4.61,1.37,4.61,3.64a3.88,3.88,0,0,1-1.35,2.88,6.55,6.55,0,0,1-2.56,1.35A6.28,6.28,0,0,0,191.49,50.69Zm-3.7-2.48c0,.81.52,1.45.87,1.45s.65-.65.83-1a7.85,7.85,0,0,0,.86-3.3A3.44,3.44,0,0,0,187.79,48.21Z"/><path class="cls-1" d="M10.2,65.75c.05,0,.09.08.09.12s-.1.11-.25.11l-.21,0a19.1,19.1,0,0,1-6,1.84v1.55c0,.88.17.92,2.12.92.37,0,2.62,0,4.48-.18a4.19,4.19,0,0,0-.21,1.29c-.31,0-.6,0-2.35,0-4.16,0-4.61,0-5.22-.54a1.48,1.48,0,0,1-.41-1.26V63.43l1.65.08c.11,0,.22,0,.22.11s-.12.14-.28.19v2.81a13.85,13.85,0,0,0,5.08-1.75Z"/><path class="cls-1" d="M12.22,63.58a13.43,13.43,0,0,1,3,1.64,8,8,0,0,0-1,1.1,11.87,11.87,0,0,0-3-1.61Zm-.81,6.69A13.77,13.77,0,0,0,20,65.11a6,6,0,0,0,1,1.11c-.74,1-2.88,3.64-8.26,5.26,0,.09,0,.2-.2.2s-.14-.07-.2-.16Z"/><path class="cls-1" d="M24.59,65.89a17.33,17.33,0,0,1,4.11,2.3c-.44.39-.6.55-1.09,1A16.36,16.36,0,0,0,24,67.09v4.64H22.39V63.39l1.62.08c.11,0,.21,0,.21.11s-.14.13-.21.14v2.85Z"/><path class="cls-1" d="M34.09,63.65c.12,0,.21.06.21.13s0,.15-.29.17c-.11.41-.22.88-.33,1.26,1.31-.07,2.73.21,2.73,2.62a5.3,5.3,0,0,1-.7,2.62,2.3,2.3,0,0,1-2.19,1.18,5.26,5.26,0,0,1-1-.11,3.79,3.79,0,0,0-.14-1.39,2.71,2.71,0,0,0,1,.2,1.09,1.09,0,0,0,1.2-.75A4.53,4.53,0,0,0,35,67.73c0-.4,0-1.37-1.09-1.37a5.31,5.31,0,0,0-.56,0,13.55,13.55,0,0,1-2.88,5.13A7.82,7.82,0,0,0,29,70.92a10.67,10.67,0,0,0,2.75-4.26,13.59,13.59,0,0,0-2,.51l-.49-1.32c.45-.06,2.42-.41,2.83-.46a13.94,13.94,0,0,0,.36-2.16Zm2.82,1.09c.8.62,2.38,2.05,2.38,3.06,0,.75-1,1-1.75,1.23A8.25,8.25,0,0,0,36.8,68c.63-.14.83-.19.83-.49,0-.49-.94-1.53-1.79-2.22Zm.68-1.12a8.73,8.73,0,0,1,1,1,6.78,6.78,0,0,0-.73.46,9.12,9.12,0,0,0-1-1ZM38.68,63a7,7,0,0,1,1,1l-.82.49a4.68,4.68,0,0,0-.94-1.05Z"/><path class="cls-1" d="M46.76,70.3c0,.21,0,.4.54.4h1c.29,0,.47,0,.72-1.16a3.43,3.43,0,0,0,1.26.53c-.34,1.51-.74,1.72-1.63,1.72H46.8c-.87,0-1.5-.22-1.5-1.14V68.72H43.89l.41.08c.07,0,.19,0,.19.15s-.15.13-.35.14a5,5,0,0,1-3.6,3,4.9,4.9,0,0,0-1-1c.56-.1,2.73-.49,3.23-2.36H41V63.44h7.63v5.28H46.76Zm.45-5.37v-.46H42.58v.46Zm-4.63.87v.49h4.63V65.8Zm0,1.35v.53h4.63v-.53Z"/><path class="cls-1" d="M50.44,65.21A13.41,13.41,0,0,0,51.9,65c3.19-.71,3.84-.86,5.15-.86,2.59,0,3.85,1.41,3.85,3.11,0,3.51-5.34,3.76-7,3.83a4.21,4.21,0,0,0-.51-1.3c4.57,0,5.89-1,5.89-2.46,0-.76-.35-2-2.47-2a17.32,17.32,0,0,0-5.76,1.5Z"/><path class="cls-1" d="M66.54,63.68c.11,0,.23.06.23.14s-.07.14-.31.16c-.19.76-.28,1.05-.34,1.24.82,0,2.69-.1,2.69,2.32A5.61,5.61,0,0,1,67.69,71a2.09,2.09,0,0,1-1.7.67,6.87,6.87,0,0,1-1.16-.12,2.19,2.19,0,0,0,0-.29,5.62,5.62,0,0,0-.14-1.1,2.4,2.4,0,0,0,1.06.21,1.05,1.05,0,0,0,.82-.28,4,4,0,0,0,.75-2.51c0-1.06-.65-1.15-1.11-1.15l-.49,0a13.88,13.88,0,0,1-3,5.12,7.79,7.79,0,0,0-1.44-.63,11.2,11.2,0,0,0,2.83-4.26,15.45,15.45,0,0,0-2,.52l-.54-1.3c.47-.08,2.54-.45,3-.51a11.2,11.2,0,0,0,.36-2.11Zm3.16.58a6.19,6.19,0,0,1,2.06,3.48c0,.47-.17.74-.81,1a4.31,4.31,0,0,1-1.14.29A5.4,5.4,0,0,0,69.23,68c.42-.07,1-.16,1-.52a4.43,4.43,0,0,0-1.67-2.54Z"/><path class="cls-1" d="M79.86,64.27c-.7.44-2.59,1.92-3,2.31a5.22,5.22,0,0,1,1.49-.21c1.69,0,3.22.83,3.22,2.46,0,2.08-2.41,3-4.27,3s-2.77-.7-2.77-1.6.89-1.42,2.08-1.42c.86,0,2.16.38,2.42,1.5a1.35,1.35,0,0,0,1-1.32c0-.55-.39-1.51-2-1.51-2,0-3.15,1-4.76,2.38l-1.16-1a37.07,37.07,0,0,0,5-4c-1,.18-2.72.31-3.45.36L73.33,64a22.06,22.06,0,0,0,5.74-.58Zm-3.35,5.52c-.43,0-.63.21-.63.43,0,.38.63.59,1.18.59a3.25,3.25,0,0,0,.69-.08A1.15,1.15,0,0,0,76.51,69.79Z"/><path class="cls-1" d="M87.35,69.14a9.07,9.07,0,0,1-1.5,1.23,2.57,2.57,0,0,0-.93-.56,6.82,6.82,0,0,0,1-.66c-1.43.51-2.72.86-2.9.92,0,.12,0,.25-.19.25s-.13-.13-.17-.22L82.3,69a9.25,9.25,0,0,0,1.39-.25V66.35H82.41v-1h1.28v-2l1.4.07c.14,0,.25,0,.25.11s0,.12-.25.17v1.69h1.18v1H85.09v2a9.19,9.19,0,0,0,1.25-.44,2.41,2.41,0,0,0-.12.94,6.73,6.73,0,0,0,.86-1H85.91v-.83H92.8v.83H88.35a1.83,1.83,0,0,1-.24.35h4.52a7.08,7.08,0,0,1-.59,3.2,2,2,0,0,1-1.57.49l-.42,0a2.89,2.89,0,0,0-.41-1A8.72,8.72,0,0,1,88.24,72a2.76,2.76,0,0,0-1-.55,7.53,7.53,0,0,0,2.52-2.35h-.47A10.16,10.16,0,0,1,88,70.51a7.07,7.07,0,0,1-2,1.24,2.82,2.82,0,0,0-.87-.66,6.77,6.77,0,0,0,2.76-2Zm4.54-2.41H86.76v-3.3h5.13Zm-1.26-2v-.44H88.1v.44Zm-2.53.71v.46h2.53v-.46Zm2.81,3.7a9,9,0,0,1-1.19,1.63c.14,0,.55.06.75.06s.46-.06.56-.36a4.31,4.31,0,0,0,.25-1.33Z"/><path class="cls-1" d="M98.3,65.31v3.24H95.36A7.11,7.11,0,0,1,94.44,72a4.26,4.26,0,0,0-1.39-.38,5.33,5.33,0,0,0,.94-3.4V65.31Zm.25-1.7v1H93.42v-1Zm-3.19,2.71v1.23H97V66.32Zm7.25,5.59h-1.37V67.13h-1a5.63,5.63,0,0,1-2.42,4.92,3.69,3.69,0,0,0-1.19-.69,4.84,4.84,0,0,0,1.71-1.65,4.12,4.12,0,0,0,.57-2.36V63.72l1,.06a9.57,9.57,0,0,0,2.87-.66l.91,1a.18.18,0,0,1,0,.11c0,.06,0,.11-.13.11a.77.77,0,0,1-.31-.09,16.88,16.88,0,0,1-3.07.58v1.24h3.52v1.07h-1.12Z"/><path class="cls-1" d="M110.45,63.09v1h-2.86v8h-1.16v-9Z"/><path class="cls-1" d="M115.26,64.7c.18,0,.22.06.22.13s0,.12-.24.16a11.62,11.62,0,0,1-3.18,6.1,7.16,7.16,0,0,0-1.46-.58,9.83,9.83,0,0,0,3.09-6.12Zm2.85-.54a15.28,15.28,0,0,1,3.46,5.94c-.46.19-1.4.65-1.54.73a12.17,12.17,0,0,0-3.17-5.9Z"/><path class="cls-1" d="M129.45,64.75a1.88,1.88,0,0,0,.78-.15l.83.6c-.2.28-.8,1.4-1.18,2.1A10.21,10.21,0,0,1,124.42,72a5.24,5.24,0,0,0-1.22-.94,8.6,8.6,0,0,0,5.69-5.19h-3.17A13.91,13.91,0,0,1,123,68.44a5.57,5.57,0,0,0-1.18-.87,10.68,10.68,0,0,0,3.82-4.28l1.4.56s.16.06.16.14-.21.13-.28.13c-.13.23-.22.37-.38.63Z"/><path class="cls-1" d="M132.73,65.15V64h5.8a3.44,3.44,0,0,0,.78-.08l.78.69a3.2,3.2,0,0,0-.44.61,14.7,14.7,0,0,1-1.47,2.43,24.48,24.48,0,0,1,3.56,2.74c-.4.37-1,1-1.17,1.09a14.55,14.55,0,0,0-3.24-2.84,13.15,13.15,0,0,1-4.56,3,3.68,3.68,0,0,0-1.08-1.11,10.11,10.11,0,0,0,4-2.23,7.93,7.93,0,0,0,2.16-3.07Z"/><path class="cls-1" d="M149.76,64.75a1.88,1.88,0,0,0,.78-.15l.82.6c-.19.28-.79,1.4-1.17,2.1A10.21,10.21,0,0,1,144.73,72a5.24,5.24,0,0,0-1.22-.94,8.6,8.6,0,0,0,5.69-5.19H146a13.91,13.91,0,0,1-2.68,2.53,5.57,5.57,0,0,0-1.18-.87A10.66,10.66,0,0,0,146,63.29l1.41.56c.05,0,.16.06.16.14s-.21.13-.28.13l-.39.63Z"/><path class="cls-1" d="M152,72.1v-1h2.86v-8H156v9Z"/><path class="cls-1" d="M162.13,70.43a1.57,1.57,0,1,1-1.55-1.3A1.44,1.44,0,0,1,162.13,70.43Zm-2.46,0a.85.85,0,0,0,.91.76.77.77,0,1,0,0-1.52A.85.85,0,0,0,159.67,70.43Z"/><path class="cls-1" d="M4.43,88c-.17.13-1.19.86-1.19,1.34a.45.45,0,0,0,.29.42A8.06,8.06,0,0,0,6,90a16.7,16.7,0,0,0,4.34-.48,6.8,6.8,0,0,0,.32,1.34,27.28,27.28,0,0,1-4.69.38c-2.56,0-4.27-.39-4.27-1.8,0-.43.17-1.09,1.71-2.19Zm5.42-3.41a14.28,14.28,0,0,0-3.64,2l-.88-.83a13.66,13.66,0,0,0,1.21-.8c-.61,0-1.45.08-2.46.08-.85,0-1.2,0-1.49,0L2.5,83.62a26.66,26.66,0,0,0,3.25.17,20.43,20.43,0,0,0,3.32-.21Z"/><path class="cls-1" d="M15.21,84.82l.68.46a2,2,0,0,0-.32.63,4.52,4.52,0,0,1,2.75-1.31A1.36,1.36,0,0,1,19.76,86a11.74,11.74,0,0,1-.26,2,9.09,9.09,0,0,0-.11,1.28c0,.09,0,.53.41.53.17,0,.7-.07,1.49-.88a6.72,6.72,0,0,0,.55,1.25,3.84,3.84,0,0,1-2.24,1,1.63,1.63,0,0,1-1.72-1.74c0-.47.32-2.56.32-3a.39.39,0,0,0-.45-.44c-.76,0-1.86,1-2.65,1.77a27.45,27.45,0,0,0,.18,3.85l-1.68.07c0-.4.05-.6.08-2.38-.2.24-1,1.3-1.21,1.51l-1.18-1a28.13,28.13,0,0,0,2.43-2.67v-.43A16.56,16.56,0,0,1,11.8,87l-.33-1.35a10.42,10.42,0,0,0,2.3-.32c0-.43,0-1.86,0-2.29l1.45.11c.2,0,.32,0,.32.14s-.13.13-.26.16c0,.4-.07.88-.11,1.37Z"/><path class="cls-1" d="M27.21,83.45c.12,0,.23.06.23.14s-.07.15-.31.17c-.19.75-.28,1-.34,1.23.82,0,2.69-.09,2.69,2.32a5.61,5.61,0,0,1-1.12,3.42,2.09,2.09,0,0,1-1.7.67,6.87,6.87,0,0,1-1.16-.12,2.19,2.19,0,0,0,0-.29,5.43,5.43,0,0,0-.14-1.09,2.55,2.55,0,0,0,1.06.21,1.05,1.05,0,0,0,.82-.29A4,4,0,0,0,28,87.31c0-1-.65-1.15-1.11-1.15l-.49,0a13.8,13.8,0,0,1-3,5.12A7.51,7.51,0,0,0,22,90.68a11.09,11.09,0,0,0,2.83-4.26,15.45,15.45,0,0,0-2,.52l-.54-1.3c.47-.08,2.55-.45,3-.51A11.2,11.2,0,0,0,25.59,83Zm3.16.58a6.19,6.19,0,0,1,2.06,3.48c0,.47-.17.74-.81,1a4.31,4.31,0,0,1-1.14.29,5.4,5.4,0,0,0-.58-1.08c.42-.07,1-.16,1-.52a4.46,4.46,0,0,0-1.67-2.54Z"/><path class="cls-1" d="M35.78,85.06c.08,0,.19.06.19.14s-.16.13-.24.13a7.88,7.88,0,0,0-.79,2,6.37,6.37,0,0,1,3.52-1.08c1.91,0,2.89,1.11,2.89,2.27,0,1.85-2.2,3-5.82,3l-.86,0a3.22,3.22,0,0,0-.45-1.35,10.09,10.09,0,0,0,1.58.12c.72,0,4-.09,4-1.72,0-.51-.34-1.14-1.5-1.14a5.78,5.78,0,0,0-3.8,1.69l-1.39-.42a20.62,20.62,0,0,1,1.15-4ZM35.32,83a13.37,13.37,0,0,1,3.92,1.09,10.58,10.58,0,0,0-.87,1.18A11.75,11.75,0,0,0,34.81,84Z"/><path class="cls-1" d="M47.35,90.23c2.69-.43,3.38-2.1,3.38-3.1s-.85-2.39-2.9-2.48c-.39,3.55-2,6.09-3.21,6.09a3,3,0,0,1-2.41-2.9c0-2,2.2-4.35,5.45-4.35,2.42,0,4.6,1.37,4.6,3.64A3.86,3.86,0,0,1,50.92,90a6.59,6.59,0,0,1-2.57,1.35A6.64,6.64,0,0,0,47.35,90.23Zm-3.69-2.47c0,.81.51,1.44.86,1.44s.65-.64.83-1a7.75,7.75,0,0,0,.86-3.3A3.41,3.41,0,0,0,43.66,87.76Z"/><path class="cls-1" d="M56.32,83.28l1.55-.17c.06,0,.23,0,.23.09s-.07.13-.17.19l.23,1.3,2.72-.29L61,85.58l-2.68.3.23,1.25,3.91-.42.16,1.2-3.86.42.53,3.06-1.54.23-.54-3.12L53.13,89,53,87.73,57,87.3l-.22-1.25-2.91.32-.18-1.22,2.88-.29Z"/><path class="cls-1" d="M65.26,84.8l1.35-.13c.1,0,.24,0,.24.09s-.08.12-.16.17L67,86.36l3-.48a1.21,1.21,0,0,0,.55-.25l1,.6c-.39.39-1.78,2.32-2.08,2.7a12.85,12.85,0,0,0-1.26-.52c.11-.12.36-.41.63-.74s.4-.49.49-.63l-2,.37.9,3.83-1.31.25-.92-3.84-2.41.44L63.17,87l2.52-.42Z"/><path class="cls-1" d="M74.2,83.38c.14,0,.23,0,.23.1s-.14.14-.23.18v4.6H72.61V83.33Zm5.29-.17c.17,0,.23,0,.23.09s-.15.16-.23.19v3.08c0,3.18-2.22,4.32-4.42,5.1a2.48,2.48,0,0,0-1-1c3.72-1,3.8-3,3.8-4V83.15Z"/><path class="cls-1" d="M89.61,83.79a2.34,2.34,0,0,0,.64-.08l1.07.83a3.26,3.26,0,0,0-.41.47,19.25,19.25,0,0,1-3.22,3.1,4.64,4.64,0,0,0-1.12-.89A9.89,9.89,0,0,0,89,85H81.18V83.79Zm-3,1.75c.08,0,.19,0,.19.1s-.14.17-.19.19a7.61,7.61,0,0,1-.58,2.79,6.22,6.22,0,0,1-2.92,2.82,8,8,0,0,0-1.34-.85c1.7-.8,3.41-1.87,3.19-5.13Z"/><path class="cls-1" d="M97,83.15c.08,0,.22,0,.22.15s-.12.14-.27.15c-.12.23-.2.36-.34.59a14,14,0,0,0,2.58-.47v1.21c-1.09.16-2.23.33-3.33.41-.14.21-.4.56-.59.85a2.67,2.67,0,0,1,1.08-.22,2,2,0,0,1,1.72.87c.81-.3,1.94-.73,2.42-.94l.57,1.29c-1,.26-1.87.5-2.69.78,0,.38,0,.71,0,1,0,.41,0,.7,0,.94-.08,0-1,0-1.53,0a8,8,0,0,0,.06-1.32c-1.25.56-1.71,1-1.71,1.39s.58.58,1.92.58a15.33,15.33,0,0,0,3.58-.43,4.49,4.49,0,0,0-.18,1.31,19.11,19.11,0,0,1-3.17.25c-.64,0-3.62,0-3.62-1.62,0-1.32,2.34-2.35,3-2.65a.9.9,0,0,0-.93-.52c-.89,0-1.74.56-2.82,2.05l-1.36-.67a19.6,19.6,0,0,0,2.51-2.79c-.56,0-.9,0-1.82,0V84.13c.26,0,.94.07,1.83.07.41,0,.58,0,.7,0a9,9,0,0,0,.65-1.29Z"/><path class="cls-1" d="M110.93,83.72c.11,0,.18.08.18.17s-.2.12-.33.11a12.66,12.66,0,0,1-1.25,1.41h2.63v1H108.4a11.88,11.88,0,0,1-1.19.79,13.81,13.81,0,0,0,2.93-.68l.8.81a.22.22,0,0,1,.08.15c0,.06-.09.09-.15.09a.78.78,0,0,1-.34-.1,23.62,23.62,0,0,1-4.8.77s-.09.25-.11.3H111a5.3,5.3,0,0,1-1.26,2.77,3,3,0,0,1-2,.47l-.49,0a3.41,3.41,0,0,0-.51-1.1,6.14,6.14,0,0,0,1.22.1c.7,0,1.08,0,1.48-1.24h-4.15c-.21.45-.34.72-.47,1a7.69,7.69,0,0,0-1.33-.26c.19-.36.4-.75.76-1.59-.91.35-1.35.48-1.65.57a7.39,7.39,0,0,0-1-.87,14.59,14.59,0,0,0,3.14-.94c.07-.21.09-.29.14-.47l.48.19a11.59,11.59,0,0,0,1.26-.7H101.7v-1h3.92v-.67H103v-.9h2.71v-.9l1.45.08c.07,0,.23,0,.23.11s-.15.15-.26.19v.52h1.59v.76a7.84,7.84,0,0,0,1.07-1.4Zm-3.85,1v.67h.77c.31-.28.37-.33.71-.67Z"/><path class="cls-1" d="M120.36,85.6a23.36,23.36,0,0,0-2.69,2.21.73.73,0,0,1,.27,0c.55,0,.92.34.92.67s-.18,1.11-.18,1.31c0,.52.28.58.92.58a9.14,9.14,0,0,0,2.54-.35,9.87,9.87,0,0,0,.06,1.31,19,19,0,0,1-2.74.23c-2.2,0-2.25-.8-2.25-1.22,0-.17.08-.85.08-1s0-.47-.34-.47-.47.18-1,.6-1.13,1-2.23,2.08l-1.22-.92a48.16,48.16,0,0,0,4.86-4.3,27.28,27.28,0,0,1-3.79.55l-.27-1.29a17.35,17.35,0,0,0,6.1-.85Zm-5.17-2.53a13.13,13.13,0,0,0,3.14.32h.72a4.74,4.74,0,0,0-.18,1.17l-.47,0a23.25,23.25,0,0,1-3.35-.26Z"/><path class="cls-1" d="M130.51,84c-.7.44-2.59,1.92-3,2.31a5.28,5.28,0,0,1,1.49-.21c1.69,0,3.23.83,3.23,2.46,0,2.08-2.42,3-4.28,3s-2.77-.69-2.77-1.6.89-1.42,2.08-1.42a2.39,2.39,0,0,1,2.43,1.5,1.35,1.35,0,0,0,1-1.32c0-.55-.39-1.51-2.05-1.51-2,0-3.15,1-4.75,2.38l-1.17-1a37.07,37.07,0,0,0,5-4c-1,.18-2.72.31-3.45.36L124,83.75a23,23,0,0,0,5.74-.58Zm-3.35,5.52c-.42,0-.63.21-.63.43,0,.38.63.59,1.19.59a3.23,3.23,0,0,0,.68-.08A1.16,1.16,0,0,0,127.16,89.56Z"/><path class="cls-1" d="M139.37,83.15c.18,0,.26,0,.26.1s-.07.12-.18.16a4.61,4.61,0,0,0-.06.76c3.34-.11,3.72-.13,3.86-.14a1.79,1.79,0,0,0,0,.47,4.63,4.63,0,0,0,0,.83c-2.17-.07-3.33,0-3.84,0,0,.16,0,.78,0,1.23a2.79,2.79,0,0,1,.58,1.73,4.23,4.23,0,0,1-2.74,3.65,6.72,6.72,0,0,0-1.38-.84c1.79-.6,2.15-1.33,2.28-1.63a1.76,1.76,0,0,1-1.09.33,1.61,1.61,0,0,1-1.64-1.8,1.85,1.85,0,0,1,2-1.94,2.24,2.24,0,0,1,.48,0c0-.39,0-.53,0-.74a44,44,0,0,0-4.67.46l-.12-1.36c.38,0,.81,0,4.75-.21a10.06,10.06,0,0,0-.16-1.25Zm-2.66,4.77c0,.79.52.88.71.88.46,0,.75-.45.75-1a.68.68,0,0,0-.7-.75A.78.78,0,0,0,136.71,87.92Z"/><path class="cls-1" d="M143.56,88a11.08,11.08,0,0,0,2.53-2.19c.95-1.09,1.23-1.4,1.9-1.4s1,.26,2.47,1.77a21.25,21.25,0,0,0,4.12,3.27,8.82,8.82,0,0,0-1.09,1.22,28.16,28.16,0,0,1-4-3.4A15.06,15.06,0,0,0,148.21,86a.38.38,0,0,0-.25-.09c-.15,0-.25,0-.6.44a21.34,21.34,0,0,1-2.51,2.7Zm8.58-3.81c.32.23.88.68,1.2,1-.19.12-.57.38-.77.53a14.09,14.09,0,0,0-1.16-1Zm1.07-.75a8.82,8.82,0,0,1,1.21,1,3.81,3.81,0,0,0-.74.54,9.09,9.09,0,0,0-1.2-1Z"/><path class="cls-1" d="M164.9,84.57c-2.85,0-5.38,1.94-5.38,3.68,0,1.11.93,1.84,3.35,2a6.53,6.53,0,0,0-.72,1.43c-1.73-.32-4.16-1.15-4.16-3.3,0-1.28.87-2.37,2.4-3.35-.73,0-4.1.36-5.2.6L155,84.09c.22,0,.43,0,.74,0a52.46,52.46,0,0,0,8.89-.91Z"/><path class="cls-1" d="M170.83,90.23c2.69-.43,3.38-2.1,3.38-3.1s-.85-2.39-2.9-2.48c-.39,3.55-2,6.09-3.2,6.09a3,3,0,0,1-2.42-2.9c0-2,2.2-4.35,5.45-4.35,2.43,0,4.6,1.37,4.6,3.64A3.86,3.86,0,0,1,174.4,90a6.59,6.59,0,0,1-2.57,1.35A6.24,6.24,0,0,0,170.83,90.23Zm-3.69-2.47c0,.81.51,1.44.86,1.44s.65-.64.84-1a7.83,7.83,0,0,0,.85-3.3A3.41,3.41,0,0,0,167.14,87.76Z"/><path class="cls-1" d="M186.71,88.46v1h-4.34v1.29c0,1-.84,1-2.69,1a3.92,3.92,0,0,0-.44-1.13l1.24,0c.49,0,.49-.06.49-.55v-.67H176.5v-1H181v-.69l.59.06c.38-.23.82-.53,1-.66h-4v-1h5.68l.41.67a17.28,17.28,0,0,1-2.27,1.58Zm-5.58-3.75a6.18,6.18,0,0,0-1.13-1.4l1.22-.47a7.53,7.53,0,0,1,1.14,1.39c-.13.06-1,.45-1.07.48H183A9.26,9.26,0,0,0,184.31,83l1.35.37c.07,0,.19.06.19.15s-.19.13-.39.15c-.4.52-.67.83-.82,1h2v2.41h-1.36v-1.5H178v1.5h-1.34V84.71h1.74a8.28,8.28,0,0,0-1-1.16l1.15-.5a6,6,0,0,1,1.12,1.32,7.41,7.41,0,0,0-.75.34Z"/><path class="cls-1" d="M191.94,84.8V83l1.42,0c.21,0,.28,0,.28.14a.13.13,0,0,1-.06.1l-.16.1V84.8h3.84v1.08h-3.84V87.5h2.79v1.06h-2.79v1.88h4.31v1H187.3v-1h4.64V88.56h-2.89V87.5h2.89V85.88H189.4a10.51,10.51,0,0,1-1.22,1.53,4.09,4.09,0,0,0-1.27-.58,8.36,8.36,0,0,0,2.29-3.69l1.35.33c.18,0,.24.11.24.18s-.16.13-.27.13a10.94,10.94,0,0,1-.5,1Z"/><path class="cls-1" d="M203.5,90.23c2.69-.43,3.38-2.1,3.38-3.1s-.85-2.39-2.9-2.48c-.39,3.55-2,6.09-3.2,6.09a3,3,0,0,1-2.42-2.9c0-2,2.2-4.35,5.45-4.35,2.43,0,4.6,1.37,4.6,3.64A3.86,3.86,0,0,1,207.07,90a6.59,6.59,0,0,1-2.57,1.35A6.64,6.64,0,0,0,203.5,90.23Zm-3.69-2.47c0,.81.51,1.44.86,1.44s.65-.64.83-1a7.75,7.75,0,0,0,.86-3.3A3.41,3.41,0,0,0,199.81,87.76Z"/><path class="cls-1" d="M214.62,87l.07,0a1.17,1.17,0,0,1-.16-.6V82.94L216,83c.07,0,.21,0,.21.11s-.08.11-.3.21v1.07a15.48,15.48,0,0,0,2.34-1l1,.78a.17.17,0,0,1,.06.12s0,.12-.17.12a1,1,0,0,1-.25-.06,26.51,26.51,0,0,1-3,1.11v.41c0,.39.27.42.55.42h1.32c.39,0,.54-.3.71-.89a3.6,3.6,0,0,0,1.15.45c-.35,1.48-1,1.48-1.67,1.48H215.7a1.81,1.81,0,0,1-.88-.21c0,.08-.19.1-.26.1-.07.15-.2.39-.28.52h3.91v3.93H216.7v-.35h-4.86v.35h-1.46V87.76h2.39a5.49,5.49,0,0,0,.41-.87c-.57.1-3.09.48-3.6.56-.05.13-.08.21-.2.21s-.11,0-.17-.2l-.31-1c.37,0,.58,0,1.33-.13V83l1.53.07c.12,0,.18.08.18.14s-.07.1-.26.18v.85h2.49v1h-2.49v.93c.25,0,1.15-.15,2.45-.39a4,4,0,0,0-.16,1l-.54.09Zm2.08,2.17v-.51h-4.86v.51Zm0,1.31v-.55h-4.86v.55Z"/><path class="cls-1" d="M224.86,83a5.33,5.33,0,0,0,.58,1.57,10.1,10.1,0,0,0,2.62-1.14c.42.45.75.75,1,1a18,18,0,0,1-3,1.25,11.33,11.33,0,0,0,2.64,2.7l-1,.74a7.11,7.11,0,0,0-3.21-.74c-.29,0-2.1,0-2.1,1,0,.8,1.25,1,2.65,1a7.53,7.53,0,0,0,2.72-.47,4.52,4.52,0,0,0,.32,1.29,12.35,12.35,0,0,1-3,.33c-2.81,0-4.32-1-4.32-2.14s1.25-2,3.38-2a6.77,6.77,0,0,1,1.52.16,10.45,10.45,0,0,1-1.05-1.43,23.37,23.37,0,0,1-4.11.62L220,85.46a19.63,19.63,0,0,0,4-.46c-.29-.51-.62-1.2-.85-1.66Z"/><path class="cls-1" d="M235.52,83.49c.08,0,.17.07.17.15s-.15.11-.34.1c-.39.6-1.5,2.46-1.81,3.06a2.77,2.77,0,0,1,1.19-.22c.73,0,1.55.27,1.55,1.22a3.92,3.92,0,0,1-.1.78,3.89,3.89,0,0,0-.16,1c0,.23,0,.58.56.58a4.88,4.88,0,0,0,2.6-1.65,8.18,8.18,0,0,0,1,1,6.22,6.22,0,0,1-4,2c-.9,0-1.71-.44-1.71-1.43,0-.3.2-1.61.2-1.88s-.12-.5-.55-.5a1.93,1.93,0,0,0-1.45.86,12.85,12.85,0,0,0-1.61,2.77l-1.59-.56a60.43,60.43,0,0,0,3.91-6.61c.1-.2.51-1.11.6-1.29Z"/><path class="cls-1" d="M243.22,83.68c.17.06.26.08.26.16s-.11.12-.29.13a10.45,10.45,0,0,0-.75,4,4.8,4.8,0,0,0,.1,1c0-.07.38-.72.56-1a2.71,2.71,0,0,0,.78.67A5.17,5.17,0,0,0,243.1,91l-1.37.32a8.44,8.44,0,0,1-.76-3.69,16.09,16.09,0,0,1,.72-4.47Zm3,4.44a2,2,0,0,0-.28.82c0,.47.52.57,1.75.57a14,14,0,0,0,2.88-.26,4.45,4.45,0,0,0-.14,1.32,25.83,25.83,0,0,1-2.65.14c-2.28,0-3.23-.43-3.23-1.37a2.86,2.86,0,0,1,.41-1.42ZM245,84.21c.32,0,.72.05,1.36.05a16.84,16.84,0,0,0,3.45-.3,9.34,9.34,0,0,0,.15,1.23,21.34,21.34,0,0,1-3.58.28c-.63,0-1,0-1.38,0Z"/><path class="cls-1" d="M261.17,84.38v6.08c0,1.26-1.08,1.28-2.13,1.3a2.37,2.37,0,0,0-.59-1.26l.84.06c.46,0,.47-.17.47-.52V85.47h-6.84v6.21h-1.4v-7.3h3.24a7.82,7.82,0,0,0,.62-1.46l1.5.16c.08,0,.21,0,.21.12s0,.1-.24.16-.4.88-.47,1Zm-2.6,1.86v3.64h-3.16v.6h-1.34V86.24Zm-3.16,1.05v1.58h1.83V87.29Z"/><path class="cls-1" d="M264.72,83.6c.13,0,.17,0,.17.11s-.19.15-.25.16a9,9,0,0,0-.6,3.4,5.77,5.77,0,0,0,.24,1.77,7.44,7.44,0,0,1,.64-1.3,7,7,0,0,0,1.06.58,7.1,7.1,0,0,0-1.22,2.82l-1.25.18a9.11,9.11,0,0,1-.95-4.26,12.9,12.9,0,0,1,.58-3.8Zm5.5-.35c.22,0,.3,0,.3.12s-.11.12-.18.13c0,.6,0,1.79,0,1.79a10.89,10.89,0,0,0,1.77-.44,9.23,9.23,0,0,0,0,1.24,10.81,10.81,0,0,1-1.79.39c0,1.77,0,3.78-2.21,5.21a4.24,4.24,0,0,0-1.25-.88c1.93-1.12,2-2.46,2-4.14a25.2,25.2,0,0,1-2.61.1l-.13-1.3c.37,0,.8.06,1.41.06s1,0,1.3,0c-.06-.74-.15-1.64-.27-2.35Z"/><path class="cls-1" d="M282.77,84.57c-2.85,0-5.38,1.94-5.38,3.68,0,1.11.93,1.84,3.35,2a6.53,6.53,0,0,0-.72,1.43c-1.73-.32-4.16-1.15-4.16-3.3,0-1.28.87-2.37,2.4-3.35-.73,0-4.1.36-5.2.6l-.22-1.53c.22,0,.44,0,.74,0a52.46,52.46,0,0,0,8.89-.91Z"/><path class="cls-1" d="M284.47,88.94A14.29,14.29,0,0,1,287,90.57l-1.11.92a9.31,9.31,0,0,0-2.31-1.71Z"/><path class="cls-1" d="M11.11,107.11c.07,0,.16.08.16.15s-.09.12-.33.16a8.48,8.48,0,0,1-1.39,1.85c.09.13.6.85.9.85s.49-.72.51-.85a3.54,3.54,0,0,0,1,.56c-.1.45-.53,1.7-1.35,1.7s-1.68-1.09-1.95-1.44a8.38,8.38,0,0,1-2.25,1.37,2.53,2.53,0,0,0-1.17-.77A8.58,8.58,0,0,0,8,109.07a8.72,8.72,0,0,1-.85-2.57h-2v1.18c.94-.2,1.35-.31,1.65-.39a5.32,5.32,0,0,0-.16,1.06c-.25.07-.68.21-1.49.4v1.46c0,.64-.08,1.37-2.3,1.32a1.94,1.94,0,0,0-.49-1.19,4.81,4.81,0,0,0,1,.1c.28,0,.41,0,.41-.4v-1c-.53.1-1.23.26-1.77.33,0,.1-.07.23-.24.23s-.13-.07-.16-.13l-.37-1.13c.73-.1,1.49-.23,2.54-.42V106.5H1.44v-1H3.86v-1c-.29.06-1.07.25-1.79.34a3.78,3.78,0,0,0-.69-1,14.26,14.26,0,0,0,4.47-1.13l.88.81a.19.19,0,0,1,.07.15c0,.07-.06.12-.17.12a.69.69,0,0,1-.3-.09,10.9,10.9,0,0,1-1.11.4v1.32H7.06c0-.78-.09-1.64-.1-2.75l1.36.06s.24,0,.24.12-.1.12-.24.18c0,.65,0,1.56.08,2.39h3.45v1H8.5a7.93,7.93,0,0,0,.44,1.63,5.45,5.45,0,0,0,.94-1.47ZM9.7,103a7,7,0,0,1,1.44,1.55c-.36.18-.73.37-1.07.58a9.56,9.56,0,0,0-1.38-1.54Z"/><path class="cls-1" d="M22.56,105.81a4.52,4.52,0,0,0-.45.34c-.84.76-2.11,2-3.12,3.06a7.76,7.76,0,0,1,1.07,1l-1,1a11.65,11.65,0,0,0-3.59-2.79l1-.86a9.44,9.44,0,0,1,1.32.77c.51-.47,1.56-1.52,2-1.95H16.62a12.81,12.81,0,0,1-3,2.59l-1.14-.89a10.49,10.49,0,0,0,4.59-5c.43.14,1.23.42,1.53.55.05,0,.11.07.11.12s-.11.13-.18.15-.19.07-.28.23-.45.76-.65,1.06h2.52a3.73,3.73,0,0,0,1.22-.12Z"/><path class="cls-1" d="M28.53,110c2.69-.43,3.39-2.1,3.39-3.1s-.86-2.39-2.91-2.48c-.39,3.55-2,6.09-3.2,6.09a3,3,0,0,1-2.42-2.89c0-2,2.2-4.36,5.45-4.36,2.43,0,4.61,1.37,4.61,3.64a3.86,3.86,0,0,1-1.35,2.88,6.42,6.42,0,0,1-2.56,1.35A6.3,6.3,0,0,0,28.53,110Zm-3.69-2.47c0,.81.51,1.44.87,1.44s.65-.64.83-1a7.64,7.64,0,0,0,.85-3.3A3.41,3.41,0,0,0,24.84,107.53Z"/><path class="cls-1" d="M36.36,103.16c.13,0,.22,0,.22.09s-.13.14-.22.18V108h-1.6V103.1Zm5.29-.17c.17,0,.22,0,.22.08s-.14.16-.22.19v3.08c0,3.18-2.23,4.33-4.43,5.1a2.48,2.48,0,0,0-1-1c3.73-1,3.81-3,3.81-4.05v-3.43Z"/><path class="cls-1" d="M51.76,103.57a2,2,0,0,0,.64-.09l1.07.83a4,4,0,0,0-.41.47,19.32,19.32,0,0,1-3.21,3.1,5.14,5.14,0,0,0-1.12-.89,9.83,9.83,0,0,0,2.46-2.2H43.34v-1.22Zm-3,1.74c.08,0,.18,0,.18.1s-.14.17-.18.19a7.82,7.82,0,0,1-.59,2.79,6.15,6.15,0,0,1-2.91,2.82,9.32,9.32,0,0,0-1.35-.85c1.7-.8,3.41-1.87,3.19-5.13Z"/><path class="cls-1" d="M57.67,103.51c.11,0,.26,0,.26.12s-.11.15-.2.18v2.33c0,2.42-1.29,3.5-2.84,4.51a4.78,4.78,0,0,0-1.29-.89c2.17-1.15,2.47-2.22,2.47-3.53v-2.79Zm2.83-.09c.12,0,.21,0,.21.11s-.11.13-.21.18v5A11.35,11.35,0,0,0,63.76,106a3.25,3.25,0,0,0,.76,1.18,16.27,16.27,0,0,1-3.26,2.67c-.95.57-1,.63-1.35.84l-1-.57c0-.25,0-.49,0-.75v-6Z"/><path class="cls-1" d="M65,104.35a9,9,0,0,0,1.23.08c.3,0,.61,0,1.26-.06a15.91,15.91,0,0,0,.43-1.65l1.53.4c.15,0,.2.07.2.14s-.16.12-.23.12l-.27.78a11.36,11.36,0,0,0,1.43-.34,6.26,6.26,0,0,0,0,1.22,16.79,16.79,0,0,1-1.91.34A20.3,20.3,0,0,1,66.11,110a10,10,0,0,0-1.44-.49,13.77,13.77,0,0,0,2.38-3.91c-.4,0-1.28,0-1.87.06Zm7.29,2.48a1.23,1.23,0,0,0-.47,1,5.33,5.33,0,0,0,.12,1A13.16,13.16,0,0,1,74.41,110a8.43,8.43,0,0,0-.89,1,9.84,9.84,0,0,0-1.53-.9c-.17,1.22-1.64,1.24-2.21,1.24-1.6,0-2.56-.6-2.56-1.5,0-.61.52-1.44,2.19-1.44a6.67,6.67,0,0,1,1,.08,5.25,5.25,0,0,1-.08-.83,1.78,1.78,0,0,1,.8-1.39Zm-2.79,2.52c-.36,0-.87.15-.87.49s.7.48,1,.48c.87,0,.93-.4,1-.74A2.85,2.85,0,0,0,69.5,109.35Zm2.19-4.9a8.78,8.78,0,0,1,3,1.23c-.23.25-.58.65-.87,1a8.59,8.59,0,0,0-2.89-1.22Z"/><path class="cls-1" d="M79.23,104.16c.06,0,.14.09.14.15s-.23.12-.33.11c-.46.61-1.32,1.63-1.87,2.2.44,0,.61,0,1-.07-.08-.27-.15-.47-.23-.67l.94-.23a13.19,13.19,0,0,1,.73,1.81,10.47,10.47,0,0,0-1.18.25c0-.15,0-.24,0-.36l-.38.06v4.1H76.72v-3.94l-1.09.11c-.11.18-.16.25-.26.25s-.14-.11-.16-.2l-.21-1c.53,0,.58,0,.78,0s.53-.58.65-.7a8,8,0,0,0-1.65-1l.74-.93c.21.12.27.15.37.22a10.41,10.41,0,0,0,1-1.61l1.16.45a.16.16,0,0,1,.11.12c0,.13-.27.12-.33.12a10.16,10.16,0,0,1-1.1,1.48l.39.28a10.49,10.49,0,0,0,1-1.34Zm-2.73,4c.08,0,.19.05.19.13s-.14.13-.25.16a9.41,9.41,0,0,1-.55,2.11,3.43,3.43,0,0,0-1.1-.26,7.34,7.34,0,0,0,.67-2.28Zm2.85-.29a8.24,8.24,0,0,0,.53,1.81,7.09,7.09,0,0,0-1.14.31,10.32,10.32,0,0,1-.55-1.91Zm3.83,2.37h2.47v1.05H79.22v-1.05h2.61V109H80v-1h1.85v-.92l1.36.08c.16,0,.21.07.21.14s-.11.13-.22.17V108h1.94v1H83.18ZM81.12,104H79.6V103h5l.63.55a8.42,8.42,0,0,1-1.83,2.11,9,9,0,0,0,2.41.85,3.09,3.09,0,0,0-.7,1,10.71,10.71,0,0,1-2.69-1.1,8.54,8.54,0,0,1-2.33,1,1.76,1.76,0,0,0-.79-1,7.78,7.78,0,0,0,2.1-.77,7.52,7.52,0,0,1-1.14-1.2Zm.17,0a6.65,6.65,0,0,0,1,1.05,4.44,4.44,0,0,0,1-1.05Z"/><path class="cls-1" d="M86.87,108.58c.09,0,.23,0,.23.09s-.12.1-.17.12a8.89,8.89,0,0,1-.15,1.86,7.51,7.51,0,0,0-.89-.09,7.64,7.64,0,0,0,.24-2Zm3.4-4.08v.41a5,5,0,0,0,2.54-2.17l1.14.18c.13,0,.21.07.21.13s-.11.12-.24.14a6,6,0,0,0,2.7,1.55,3,3,0,0,0-.78.94c-.22-.1-.36-.16-.55-.26v.52H94v.43h2.13v2.43H94.25a5.15,5.15,0,0,0,2.31,1.77,3.47,3.47,0,0,0-.81.9,5.93,5.93,0,0,1-2.23-1.84A5.69,5.69,0,0,1,91,111.56a3.23,3.23,0,0,0-.86-.87,3.73,3.73,0,0,0,2.49-1.89H90.8v-2.43h2v-.43H91.47v-.39c-.21.13-.35.2-.52.29a3.06,3.06,0,0,0-.68-.67v.12h-1v.55h1v.81h-1v.58h1.37c0,1-.1,2.89-.81,3.73-.33.4-.78.42-1.64.47a3.89,3.89,0,0,0-.47-1c.19,0,.53.06.7.06s.69,0,.92-1.14a2.19,2.19,0,0,0-.39.11,4.82,4.82,0,0,0-.27-1.06l.53-.13c.06.2.15.46.2.65a4.68,4.68,0,0,0,.06-.84h-2v.26H86.33v-5.27h4.4V104H89.24v.54Zm-2.55,4a13.42,13.42,0,0,1,.16,1.58c-.12,0-.55.12-.69.17a9.41,9.41,0,0,0-.08-1.68Zm.46-4V104h-.72v.54Zm0,1.34v-.55h-.72v.55Zm0,1.39v-.58h-.72v.58Zm.22,1.16a5.74,5.74,0,0,1,.3,1.2,2.1,2.1,0,0,0-.54.12,4.88,4.88,0,0,0-.26-1.23Zm4.39-.48a.41.41,0,0,0,0-.11v-.57H92v.68Zm1.87-2.86A7.58,7.58,0,0,1,93.28,104a7.51,7.51,0,0,1-1.12,1.06ZM94,107.23v.68h.91v-.68Z"/><path class="cls-1" d="M96.93,106.48c.41-.14,1-.43,2.17-1a11.64,11.64,0,0,0-1.29-1.72l1.61-.52.14,0c.09,0,.16.05.16.13s0,.1-.1.14.24.4.5.84l.32.56c.1,0,.81-.37,1.36-.56a11.24,11.24,0,0,0-1.06-1.06l1.26-.5a7.29,7.29,0,0,1,1.2,1.15,6,6,0,0,1,1.4-.17c2.11,0,2.76,1.16,2.76,2.1,0,2.29-3.27,2.37-4.22,2.38a5.1,5.1,0,0,0-.56-1.21c.68,0,3.3.1,3.3-1.21,0-.56-.51-.91-1.21-.91a3.89,3.89,0,0,0-.63,0,9.37,9.37,0,0,1,.66,1c-.74.25-.9.3-1.45.52a7.91,7.91,0,0,0-.69-1.14,16,16,0,0,0-1.52.59,23.48,23.48,0,0,1,2.13,4.81l-1.66.64a13.77,13.77,0,0,0-1.78-4.79c-.79.41-1.34.77-1.88,1.11Z"/><path class="cls-1" d="M110.26,108.8c.08,0,.15.09.15.15s-.19.12-.31.13a10,10,0,0,1-1.49,2.12,4.71,4.71,0,0,0-1.15-.62,5.85,5.85,0,0,0,1.5-2.23Zm6.9-1.3h-8.33V103h8.33Zm-4.85-2.67V104h-2v.87Zm0,1.78v-.89h-2v.89Zm-.31,1.6c.16,0,.28,0,.28.11s-.09.11-.28.2v1.38c0,.38,0,.51.63.51H114c.54,0,.74-.07,1-.94a3.56,3.56,0,0,0,1.22.47c-.36,1.46-1.2,1.46-1.71,1.46H112c-1.37,0-1.37-.73-1.37-1.06v-2.23Zm1.26-.66a13.48,13.48,0,0,1,1.72,1.33c-.53.38-.66.48-1,.74a6.59,6.59,0,0,0-1.63-1.34Zm2.5-2.72V104h-2.07v.87Zm-2.07.89v.89h2.07v-.89Zm3,2.52a9.63,9.63,0,0,1,1.79,1.71,6.48,6.48,0,0,0-1,.83,7.56,7.56,0,0,0-1.84-1.82Z"/><path class="cls-1" d="M121.14,103.73c.18,0,.24.06.24.15s-.16.13-.24.14a7.14,7.14,0,0,0-.61,2.86c0,1.34.57,2.3,1,2.3s.95-1.05,1.22-1.58a4.56,4.56,0,0,0,1,.84c-.84,1.73-1.78,2.44-2.39,2.44-.76,0-2.34-1.23-2.34-4.09a14.22,14.22,0,0,1,.53-3.44Zm5.66.12a8.57,8.57,0,0,1,2.28,4.82,15,15,0,0,0-1.58.59,7.63,7.63,0,0,0-2-4.74Z"/><path class="cls-1" d="M135,102.92c.08,0,.22,0,.22.15s-.12.14-.27.15c-.12.23-.2.36-.34.59a13.62,13.62,0,0,0,2.57-.47l0,1.21c-1.09.17-2.23.33-3.33.41-.14.21-.4.56-.59.85a2.64,2.64,0,0,1,1.08-.22,2,2,0,0,1,1.72.87c.81-.3,1.94-.73,2.42-.94l.57,1.3c-1,.25-1.87.49-2.69.78,0,.37,0,.7,0,1,0,.41,0,.7,0,.94-.08,0-1,0-1.53,0a7.88,7.88,0,0,0,.06-1.31c-1.25.56-1.71,1-1.71,1.38s.58.58,1.92.58a15.68,15.68,0,0,0,3.58-.42,4.38,4.38,0,0,0-.18,1.3,19.11,19.11,0,0,1-3.17.25c-.64,0-3.62,0-3.62-1.62,0-1.32,2.34-2.35,3-2.65a.9.9,0,0,0-.94-.52c-.88,0-1.73.56-2.81,2l-1.36-.67a19,19,0,0,0,2.51-2.79c-.56,0-.9,0-1.82,0V103.9c.26,0,.94.07,1.83.07h.7a10,10,0,0,0,.65-1.3Z"/><path class="cls-1" d="M147.53,106.68h-.83v.95H149v1.06H146.7v1.17c0,.34,0,.43.59.43h.7c.44,0,.72-.06.92-1.08a7.53,7.53,0,0,0,1.23.58c-.43,1.24-.66,1.54-2.07,1.54H146.7c-1.36,0-1.36-.7-1.36-1v-1.59h-1.18a4.2,4.2,0,0,1-3.48,2.81,7.27,7.27,0,0,0-.81-1,3.43,3.43,0,0,0,2.93-1.86h-2.08v-1.06H143a1,1,0,0,0,0-.18v-.77h-.72v-.43a9.45,9.45,0,0,1-2,1.15,3.84,3.84,0,0,0-1-.81,7.09,7.09,0,0,0,1.87-.9,12.83,12.83,0,0,0-1.11-.83l.86-.67h-.61v-1h4.07l.34.37a7.27,7.27,0,0,1-1.63,2h3.77a9.9,9.9,0,0,1-2.07-2.43l1.06-.43a6,6,0,0,0,.74.88,4.66,4.66,0,0,0,.82-.85l1,.55s.11.06.11.14-.27.12-.41.11a6,6,0,0,1-.84.82c.22.21.38.33.49.42a6.42,6.42,0,0,0,1-1.07l1,.6s.12.08.12.14-.16.11-.35.11a6.06,6.06,0,0,1-.92.83,8.6,8.6,0,0,0,1.6.77,4.59,4.59,0,0,0-.9,1,7.43,7.43,0,0,1-1.82-1.09ZM141,104.19a10.67,10.67,0,0,1,1.15.76,4.64,4.64,0,0,0,.66-.76Zm3.35,2.49v.95h1v-.95Z"/><path class="cls-1" d="M153.26,111.44h-1.39v-4.93a3.89,3.89,0,0,1-.82.77,3.52,3.52,0,0,0-1-.84,7.7,7.7,0,0,0,1.63-1.68,8.17,8.17,0,0,0,1.14-2l1.29.39c.11,0,.17.08.17.15s-.14.12-.33.14a8.14,8.14,0,0,1-.86,1.51c.3.11.38.15.38.23s-.16.14-.24.16Zm7.7-6.18h-7.07v-.91H161ZM155.8,111v.44h-1.45v-3.2h6.15v3.2H159V111Zm4.28-7.06h-5.33v-.89h5.33Zm0,2.62h-5.33v-.89h5.33Zm0,1.28h-5.33V107h5.33ZM159,110v-.81H155.8V110Z"/><path class="cls-1" d="M164,103.13c.18,0,.26,0,.26.13s-.16.14-.25.16a24.32,24.32,0,0,0-.33,4.27c0,1.64.18,2.27,1.24,2.27,1.94,0,3.66-1.93,4.13-2.76a7,7,0,0,0,1.15,1.06,6.83,6.83,0,0,1-5.43,3c-2.58,0-2.66-2-2.66-4,0-.6.12-3.24.12-3.78,0-.39,0-.46,0-.65Z"/><path class="cls-1" d="M180.67,104.34c-2.85,0-5.38,1.94-5.38,3.68,0,1.12.93,1.84,3.35,2a6.33,6.33,0,0,0-.72,1.44c-1.73-.33-4.16-1.15-4.16-3.31,0-1.28.87-2.37,2.4-3.35-.73,0-4.1.36-5.2.6l-.22-1.53c.22,0,.43,0,.74,0a53.22,53.22,0,0,0,8.89-.9Z"/><path class="cls-1" d="M183.73,103.73c.18,0,.24.06.24.15s-.16.13-.24.14a7.14,7.14,0,0,0-.61,2.86c0,1.34.57,2.3,1,2.3s1-1.05,1.22-1.58a4.56,4.56,0,0,0,1,.84c-.84,1.73-1.78,2.44-2.39,2.44-.76,0-2.34-1.23-2.34-4.09a14.22,14.22,0,0,1,.53-3.44Zm5.66.12a8.57,8.57,0,0,1,2.28,4.82,15,15,0,0,0-1.58.59,7.63,7.63,0,0,0-2-4.74Z"/><path class="cls-1" d="M197,102.79a6,6,0,0,0,.25,1.13,10.06,10.06,0,0,0,2.11-.74c.25.49.32.62.53,1a10.07,10.07,0,0,1-2.22.79c.18.36.25.5.32.61a10.84,10.84,0,0,0,2.53-1c.11.18.66.9.76,1a11.5,11.5,0,0,1-2.63,1.06,9.65,9.65,0,0,0,1.86,2l-.91.8a7.28,7.28,0,0,0-3.4-.86c-.51,0-1.68.14-1.68.8,0,.48.58.92,2.26.92a10.45,10.45,0,0,0,2.91-.38,3.38,3.38,0,0,0-.12.89,2.29,2.29,0,0,0,0,.33,12.57,12.57,0,0,1-2.85.3c-2.91,0-3.76-1.17-3.76-2,0-1.12,1.32-1.77,2.9-1.77a10.16,10.16,0,0,1,1.88.18,5.29,5.29,0,0,1-.6-.82,26.44,26.44,0,0,1-3.9.36c-.1,0-.41,0-.73,0l-.17-1.2c.25,0,.67,0,1.2,0a17,17,0,0,0,3-.26c-.05-.1-.28-.54-.33-.62a24.4,24.4,0,0,1-3,.25l-.32-1.14a16.05,16.05,0,0,0,2.79-.18c-.25-.56-.35-.84-.47-1.17Z"/><path class="cls-1" d="M207.23,103c.11,0,.23,0,.23.14s-.13.14-.21.16c0,.22,0,.38-.06.64h1.57c.65,0,1,0,1.7,0v1.21c-.54,0-1.47-.1-3.31-.07v1.24a19,19,0,0,0,3-.44v1.23a26.55,26.55,0,0,1-3,.3c0,.16,0,.88,0,1a12.09,12.09,0,0,1,3.79,1.29,12.79,12.79,0,0,0-1.06,1,8.73,8.73,0,0,0-2.65-1.26c0,.59.07,1.71-2.34,1.71-2,0-2.84-.81-2.84-1.51,0-1.18,2-1.46,2.92-1.46l.64,0s0-.68,0-.76c-1.34,0-3.28.06-3.28-.83,0-.32.21-.61.82-1.11l1.09.24c-.13.11-.32.29-.32.36,0,.25.42.25,1,.25h.66c0-.2,0-1.09,0-1.27-1.61,0-2.76.17-3.69.27v-1.28c.58,0,3.15-.13,3.68-.16a8.45,8.45,0,0,0-.06-1.22ZM205,109.23c-.37,0-1.36.06-1.36.51s.87.43,1,.43c.7,0,1.05-.23,1-.88A3,3,0,0,0,205,109.23Z"/><path class="cls-1" d="M217.51,102.92c.19,0,.27,0,.27.1s-.07.12-.19.16a5.18,5.18,0,0,0-.05.77c3.34-.12,3.71-.14,3.85-.15a2.38,2.38,0,0,0,0,.47,4.79,4.79,0,0,0,.05.84c-2.17-.08-3.33-.06-3.84,0,0,.16,0,.79,0,1.23a2.79,2.79,0,0,1,.58,1.73,4.21,4.21,0,0,1-2.73,3.65,7,7,0,0,0-1.38-.84c1.79-.6,2.14-1.33,2.28-1.63a1.81,1.81,0,0,1-1.1.33,1.61,1.61,0,0,1-1.64-1.8,1.85,1.85,0,0,1,2-1.94,1.62,1.62,0,0,1,.47.06c0-.4,0-.54,0-.74a42.29,42.29,0,0,0-4.68.45l-.11-1.36c.37,0,.81,0,4.74-.21a8.55,8.55,0,0,0-.16-1.25Zm-2.65,4.77c0,.79.51.89.7.89.46,0,.76-.46.76-1a.68.68,0,0,0-.71-.74A.76.76,0,0,0,214.86,107.69Z"/><path class="cls-1" d="M225.46,110a1.57,1.57,0,1,1-1.55-1.3A1.44,1.44,0,0,1,225.46,110ZM223,110a.85.85,0,0,0,.91.76.77.77,0,1,0,0-1.52A.85.85,0,0,0,223,110Z"/></g></g></svg>