<?xml version="1.0" encoding="UTF-8"?><svg xmlns="http://www.w3.org/2000/svg" viewBox="0 0 244.04 23.65"><defs><style>.d{fill:aqua;}</style></defs><g id="a"/><g id="b"><g id="c"><g><g><path class="d" d="M47.4,23.34h-4.34V11.42c-5.21,2.59-7.92,3.44-9.22,3.84-.75-1.1-1.84-2.16-3.07-3.01,9.61-2.31,16.9-7.43,20.9-11.72l3.61,2.31c.18,.12,.27,.23,.27,.35,0,.23-.3,.33-.54,.33-.15,0-.39-.03-.54-.08-2.08,2.06-4.55,3.79-7.08,5.47v14.43Z"/><path class="d" d="M60.68,1.78c4.43,1.86,6.48,3.26,7.89,4.32-.63,.6-1.08,1.1-2.5,2.91-3.55-2.59-6.48-3.74-7.92-4.27l2.53-2.96Zm-2.14,17.65c7.23-1.28,16.45-5.27,22.62-13.63,1.08,1.43,1.45,1.91,2.62,2.94-1.96,2.51-7.62,9.61-21.84,13.88-.06,.25-.09,.55-.51,.55-.21,0-.39-.2-.54-.43l-2.35-3.31Z"/><path class="d" d="M94.6,9.81c1.54,.73,3.19,1.53,5.27,2.76,1.6-2.16,2.26-3.74,2.59-4.59h-7.86c-.51,.63-3.22,3.74-6.66,5.92-1.17-1-1.78-1.43-3.19-2.28,4.58-2.51,7.86-6.43,9.94-10.74l4.04,1.08c.36,.1,.54,.15,.54,.3,0,.33-.54,.33-.72,.35-.48,.75-.93,1.43-1.63,2.41h7.17c1.08,0,1.6-.13,2.02-.25l1.87,1.36c-.21,.3-.42,.65-.63,1.05-2.2,4.42-2.62,5.3-4.31,7.43,1.9,1.36,2.53,2.08,3.01,2.61-.87,.85-2.14,2.33-2.53,2.84-.75-.83-1.57-1.71-2.92-2.79-4.25,3.87-8.95,5.5-11.57,6.38-.54-.73-1.14-1.51-2.77-2.89,2.95-.68,7.95-2.59,11.33-5.65-2.14-1.36-4.07-2.31-5.42-2.99l2.44-2.31Z"/><path class="d" d="M136.31,10.62v3.56h-25.99v-3.56h25.99Z"/><path class="d" d="M141.37,1.78c4.43,1.86,6.48,3.26,7.89,4.32-.63,.6-1.08,1.1-2.5,2.91-3.55-2.59-6.48-3.74-7.92-4.27l2.53-2.96Zm-2.14,17.65c7.23-1.28,16.45-5.27,22.62-13.63,1.08,1.43,1.45,1.91,2.62,2.94-1.96,2.51-7.62,9.61-21.84,13.88-.06,.25-.09,.55-.51,.55-.21,0-.39-.2-.54-.43l-2.35-3.31Z"/><path class="d" d="M168.02,6.48c2.35,.75,6.15,2.61,7.32,3.41-1.08,.95-2.17,2.36-2.53,2.86-2.83-1.98-6.14-3.11-7.11-3.44l2.32-2.84Zm-.57,13.65c9.7-2.76,17.38-8.31,21.54-13.6,.33,.5,.96,1.48,2.65,2.86-4.55,5.67-13.55,11.32-21.05,13.63-.06,.25-.15,.6-.51,.6-.21,0-.3-.13-.45-.35l-2.17-3.14Zm3.61-19.25c3.22,1,5.33,1.83,7.77,3.06-.6,.55-1.96,2.18-2.44,2.79-2.32-1.38-4.94-2.44-7.56-3.24l2.23-2.61Z"/><path class="d" d="M196.06,7.2c1.08,1.48,2.14,3.34,2.83,4.77-.78,.23-2.11,.68-3.25,1.3-.9-1.93-1.72-3.19-2.89-4.92l3.31-1.15Zm17.47,.15c.3,.08,.54,.13,.54,.33,0,.25-.39,.33-.57,.35-2.32,7.86-6.27,12-14.61,14.88-1.05-1.41-1.78-1.96-2.41-2.41,6.27-1.98,11.84-5,13.37-14.11l3.67,.95Zm-11.17-1.36c.87,1.21,1.81,2.66,2.59,4.87-.63,.2-2.17,.63-3.25,1.1-.66-1.53-1.66-3.39-2.68-4.84l3.34-1.13Z"/><path class="d" d="M235.91,4.07c.6,0,1.51-.05,2.08-.18l3.01,2.08c-.48,.55-.6,.78-1.75,2.94-3.37,6.43-6.27,10.19-15.93,14.41-.78-.9-1.75-1.68-3.13-2.61,4.16-1.58,11.57-4.39,15.3-13.5h-18.95v-3.14h19.37Zm8.13-1.73c0,1.28-1.27,2.31-2.8,2.31s-2.8-1.03-2.8-2.31,1.26-2.33,2.8-2.33,2.8,1.05,2.8,2.33Zm-4.19,0c0,.63,.6,1.15,1.39,1.15s1.39-.53,1.39-1.15-.63-1.18-1.39-1.18-1.39,.53-1.39,1.18Z"/></g><path class="d" d="M1.23,20.72l-1.23-2.06,12.16-5.04L0,8.57l1.23-2.06,17.12,7.1L1.23,20.72Z"/></g></g></g></svg>