<svg xmlns="http://www.w3.org/2000/svg" viewBox="0 0 481.27 61.39"><defs><style>.cls-1{fill:none;stroke:aqua;stroke-linecap:round;stroke-linejoin:round;stroke-width:2.47px;}</style></defs><g id="Layer_2" data-name="Layer 2"><g id="pc_menu-open"><rect class="cls-1" x="1.24" y="2.79" width="12.66" height="55.8"/><path class="cls-1" d="M381.38,25.31H344.76V2.79H332V8.47c-4.5-5.22-12-7.23-22.51-7.23-11.24,0-17.76,2.89-21.41,6.5V2.79H275.43V43.51L238.81,2.79H226.06V7.44c-3.38-2.68-8.85-4.65-17.53-4.65h-140V43.51L31.91,2.79H19.17V58.6H31.91V17.88L68.53,58.6H81.19V11H96.47V58.6h12.66V11h15.6V58.6h60V36.43h20.73c2.89,0,12,.21,12,8.92v5.39c0,4.46.68,5.73,1.79,7.86h19.57V17.88L275.43,58.6h12.66V53.84c5.94,4.8,15.14,6.31,23.27,6.31,10.14,0,16.62-2.47,20.65-5.72V58.6h12.75V33.53h36.62V58.6H394V2.79H381.38ZM137.47,11h34.61V26H137.47Zm0,39.37V34.17h34.61V50.38Zm69.7-22.16H184.74V11h22.43c5.78,0,11,2.55,11,8.43C218.13,25,213.12,28.22,207.17,28.22Zm10.71,4a24.37,24.37,0,0,0,8.18-3.83v7C223.65,33.3,221.17,32.8,217.88,32.25ZM321.65,49.11c-3.06,1.7-7.74,2-10.62,2-10.63,0-15.55-3.33-15.89-9.56h-7.05V27.06c4.39,3.75,12,5.87,21.58,8.31,10.87,2.76,15.38,4.11,15.38,8.5A6.58,6.58,0,0,1,321.65,49.11Zm-3.4-21.81c-17.34-4.82-21.33-5.95-21.33-10.84,0-6.23,10.54-6.23,13.51-6.23,6,0,9.09,1.2,10.71,3.19a9.31,9.31,0,0,1,2.29,5.24H332V32.41C328.32,30.11,323.34,28.72,318.25,27.3Z"/><rect class="cls-1" x="401.18" y="2.79" width="12.66" height="55.8"/><path class="cls-1" d="M456.07,2.79H421V58.6h12.66V38.77h22.43c18.35,0,24-9.77,24-17.92C480,10.58,471.2,2.79,456.07,2.79Zm-1.36,27.76H433.64V11h21.07c3.4,0,12.32,1.06,12.32,9.84S457.94,30.55,454.71,30.55Z"/></g></g></svg>