<svg xmlns="http://www.w3.org/2000/svg" viewBox="0 0 256.06 23.53"><defs><style>.cls-1{fill:lime;}</style></defs><g id="Layer_2" data-name="Layer 2"><g id="フッター"><path class="cls-1" d="M58.34,14.83v2.59H46.86v3.41c0,2.64-2.23,2.74-7.11,2.69a10,10,0,0,0-1.17-3c.51,0,2.83.1,3.28.1,1.3,0,1.3-.15,1.3-1.45V17.42H31.35V14.83H43.16V13l1.56.18c1-.63,2.17-1.41,2.68-1.76H36.77V8.89h15l1.09,1.78a47,47,0,0,1-6,4.16ZM43.58,4.92a15.68,15.68,0,0,0-3-3.69L43.82,0a18.8,18.8,0,0,1,3,3.67c-.33.15-2.71,1.17-2.83,1.25h4.46A26,26,0,0,0,52,.53l3.59,1c.18.05.48.15.48.37s-.48.35-1,.4C54,3.67,53.25,4.47,52.86,4.92H58V11.3H54.45v-4H35.17v4H31.65V4.92h4.58a22.09,22.09,0,0,0-2.56-3.06l3-1.31A15.56,15.56,0,0,1,39.66,4a16.54,16.54,0,0,0-2,.88Z"/><path class="cls-1" d="M72.13,5.17V.38l3.76.1c.55,0,.73.12.73.35a.3.3,0,0,1-.15.27c-.15.08-.24.15-.43.26V5.17H86.2V8H76V12.3h7.38v2.79H76v5H87.43v2.76H59.87V20.06H72.13v-5H64.51V12.3h7.62V8H65.41a25.5,25.5,0,0,1-3.22,4,11,11,0,0,0-3.34-1.53c5-5.17,6-9.47,6.05-9.74l3.55.88c.49.12.64.27.64.47,0,.36-.42.36-.7.36-.6,1.3-.93,2-1.32,2.68Z"/><path class="cls-1" d="M102.67,19.5c7.11-1.13,9-5.54,9-8.18,0-2.91-2.26-6.32-7.69-6.55-1,9.36-5.36,16.09-8.46,16.09-2.32,0-6.39-3.16-6.39-7.66,0-5.34,5.82-11.49,14.4-11.49,6.42,0,12.17,3.61,12.17,9.61a10.24,10.24,0,0,1-3.55,7.61,17.24,17.24,0,0,1-6.78,3.56A17,17,0,0,0,102.67,19.5ZM92.91,13c0,2.13,1.36,3.81,2.29,3.81s1.72-1.7,2.2-2.71a20.34,20.34,0,0,0,2.26-8.71C95.56,6.43,92.91,10.32,92.91,13Z"/><path class="cls-1" d="M142.22,7.56c.21.07.42.12.42.35s-.42.32-.67.32a19.92,19.92,0,0,1-1.35,4.92,24.38,24.38,0,0,1,4.64,2.69,31.59,31.59,0,0,0-2.47,3.06,20.49,20.49,0,0,0-3.74-2.43,19.19,19.19,0,0,1-6.8,6.7,11.82,11.82,0,0,0-3.32-2.29,15.29,15.29,0,0,0,6.72-6,32.73,32.73,0,0,0-6.15-1.76c-3.22,5.52-4.51,7.76-7.41,7.76a4.24,4.24,0,0,1-4.45-4c0-3.09,3.25-6.93,9.54-6.8.4-.81,2.08-4.37,2.44-5.07a62.8,62.8,0,0,1-6.92,1.07l-.88-3.56c4.73,0,9-.7,11-1.53l2.62,1.83A33.37,33.37,0,0,0,131,10.22a35.51,35.51,0,0,1,6,1.55,16.72,16.72,0,0,0,.88-5.49Zm-21.09,9.31c0,.88.69.9.75.9,1,0,3.14-3.54,3.62-4.57C123.66,13.18,121.13,14.43,121.13,16.87Z"/><path class="cls-1" d="M147,4.59a25,25,0,0,0,3.25.2c.79,0,1.6,0,3.32-.15A42.76,42.76,0,0,0,154.74.28l4,1.05c.39.1.54.2.54.38s-.42.3-.6.3c-.12.32-.64,1.78-.72,2.08a34.8,34.8,0,0,0,3.76-.9,19.28,19.28,0,0,0,.09,3.21,46,46,0,0,1-5.06.9c-.81,2-3.71,8.41-6.84,12.08a24.91,24.91,0,0,0-3.79-1.31,36.93,36.93,0,0,0,6.29-10.31c-1,.07-3.4.1-4.94.15Zm19.25,6.55A3.22,3.22,0,0,0,165,13.68a13.05,13.05,0,0,0,.33,2.66,34.75,34.75,0,0,1,6.51,3.21,27.1,27.1,0,0,0-2.35,2.56,27.72,27.72,0,0,0-4-2.38C165,23,161.16,23,159.65,23c-4.22,0-6.75-1.58-6.75-4,0-1.6,1.36-3.79,5.79-3.79a19.66,19.66,0,0,1,2.56.2,14.42,14.42,0,0,1-.21-2.18,4.72,4.72,0,0,1,2.11-3.69Zm-7.35,6.66c-1,0-2.32.37-2.32,1.28,0,1.13,1.87,1.28,2.65,1.28,2.29,0,2.47-1.06,2.53-2A7.51,7.51,0,0,0,158.93,17.8Zm5.78-13c4.67,1.28,6.39,2.26,7.86,3.24-.6.68-1.53,1.73-2.29,2.76a23.26,23.26,0,0,0-7.65-3.23Z"/><path class="cls-1" d="M186.73.53a14.46,14.46,0,0,0,1.53,4.14,27.1,27.1,0,0,0,6.93-3c1.12,1.18,2,2,2.59,2.56a45.9,45.9,0,0,1-7.89,3.28,29.78,29.78,0,0,0,7,7.16l-2.62,1.93a18.88,18.88,0,0,0-8.47-2c-.78,0-5.54,0-5.54,2.64,0,2.11,3.29,2.69,7,2.69a20.38,20.38,0,0,0,7.2-1.23,10.56,10.56,0,0,0,.84,3.38,32.9,32.9,0,0,1-7.86.88C180,23,176,20.48,176,17.34c0-2.78,3.31-5.42,8.94-5.42a17.81,17.81,0,0,1,4,.43,28.49,28.49,0,0,1-2.77-3.77,64.9,64.9,0,0,1-10.88,1.64L174,6.9a51.61,51.61,0,0,0,10.54-1.2c-.75-1.36-1.63-3.16-2.23-4.39Z"/><path class="cls-1" d="M214.89,1.71c.21.07.45.17.45.4s-.39.27-.9.25c-1,1.58-3.95,6.5-4.79,8.08a7.38,7.38,0,0,1,3.16-.58c1.93,0,4.1.71,4.1,3.22a9.75,9.75,0,0,1-.27,2.08,9.6,9.6,0,0,0-.43,2.71c0,.6,0,1.53,1.48,1.53,1.66,0,5-2.18,6.87-4.36a21.66,21.66,0,0,0,2.71,2.71c-1.21,1.15-5.39,5.17-10.57,5.17-2.38,0-4.52-1.18-4.52-3.79,0-.78.51-4.25.51-4.95s-.3-1.33-1.45-1.33a5.15,5.15,0,0,0-3.82,2.26,32.54,32.54,0,0,0-4.25,7.33L199,21A159.8,159.8,0,0,0,209.29,3.51C209.56,3,210.64.58,210.88.1Z"/><path class="cls-1" d="M226.93,13.68a28.5,28.5,0,0,0,6.69-5.8c2.53-2.88,3.25-3.69,5-3.69,2,0,2.62.68,6.54,4.67a55.88,55.88,0,0,0,10.87,8.64,24,24,0,0,0-2.89,3.21,73.88,73.88,0,0,1-10.42-9,41.39,41.39,0,0,0-3.53-3.37,1,1,0,0,0-.66-.22c-.39,0-.66.1-1.57,1.15-3.76,4.42-4.3,5-6.65,7.13Z"/><path class="cls-1" d="M1.23,20.29,0,18.23l12.16-5L0,8.15,1.23,6.09l17.13,7.1Z"/></g></g></svg>