<svg xmlns="http://www.w3.org/2000/svg" viewBox="0 0 246.76 92.47"><defs><style>.cls-1{fill:#FFFF00;}</style></defs><g id="Layer_2" data-name="Layer 2"><g id="フッター"><path class="cls-1" d="M22.38,11c0,5.81-4.59,9.87-11.19,9.87S0,16.8,0,11c0-5.6,4.36-9.87,11.19-9.87S22.38,5.39,22.38,11Zm-18,0c0,5.17,3.68,6.85,6.81,6.85C14,17.84,18,16.42,18,11c0-5.22-3.73-6.86-6.83-6.86S4.38,5.69,4.38,11Z"/><path class="cls-1" d="M36.47,1.64c4.61,0,6.83,2.23,6.83,4.79,0,2.75-2.42,3.61-3.35,3.94,1,.28,4.24,1.11,4.24,4.63,0,2.72-2.28,5.33-7.21,5.33H24.4V1.64ZM28.64,4.39V9.47h6.89c3,0,3.42-1.78,3.42-2.61,0-2.33-2.68-2.47-3.42-2.47Zm0,7.62v5.57h7c1.83,0,4.16-.64,4.16-2.85S37.53,12,35.65,12Z"/><path class="cls-1" d="M57.85,1.64,47.77,20.33h-3L54.89,1.64Z"/><path class="cls-1" d="M80.74,11c0,5.81-4.58,9.87-11.19,9.87S58.36,16.8,58.36,11c0-5.6,4.36-9.87,11.19-9.87S80.74,5.39,80.74,11Zm-18,0c0,5.17,3.67,6.85,6.8,6.85,2.85,0,6.84-1.42,6.84-6.85,0-5.22-3.73-6.86-6.84-6.86S62.75,5.69,62.75,11Z"/><path class="cls-1" d="M103.8,10.58v9.75h-3l-.2-2.39a9.52,9.52,0,0,1-7.43,2.92c-7.29,0-11.31-4.2-11.31-9.85,0-6.12,4.53-9.89,11.25-9.89,8.28,0,10.08,5.07,10.62,6.59h-4.5C98,4.48,94.72,4.13,93,4.13c-4.55,0-6.77,2.92-6.77,6.62s1.48,5.05,2.19,5.65a7,7,0,0,0,4.47,1.44c2.93,0,5.64-1.11,6.63-4.62H93.87V10.58Z"/><path class="cls-1" d="M116.05,4.34V6.45H105.43V4.34Zm.79,2.52V4.22h4.9V.4l3.87.19c.17,0,.43.05.43.26s-.43.41-.71.45V4.22h6V6.86h-7.6V9.21h6.29a43.24,43.24,0,0,1-.74,9.82c-.28,1.21-.85,3.11-5.06,3.11a6.93,6.93,0,0,1-1.37-.12,4.91,4.91,0,0,0-1.31-2.87,16.08,16.08,0,0,0,2.39.19c1.91,0,2-.43,2.31-2a28,28,0,0,0,.48-5.53h-3.24a17.7,17.7,0,0,1-5.24,10.37A11.41,11.41,0,0,0,116,20.93v.9h-3.08V21h-3.53v1.12h-3.13V13.83H116V20A13.09,13.09,0,0,0,119.18,15c1-2.56,1-4,1.11-8.18Zm-1.56.66V9.59H107V7.52Zm0,3.16v2.06H107V10.68Zm0-9.47V3.3H107V1.21Zm-2.4,17.49V16.21h-3.53V18.7Z"/><path class="cls-1" d="M144.4.88V9.44h-7.48V22.09h-3.48V.88Zm-3.13,3.34V2.92h-4.35v1.3ZM136.92,6.1V7.4h4.35V6.1ZM143.26,20h-3.33V11H151v7.12h-7.78Zm4.45-4.11V13.26h-4.45v2.66Zm9.9-15V19.46c0,2.61-2.81,2.63-4.12,2.63A7.4,7.4,0,0,1,152.4,22,7,7,0,0,0,151,18.84a12.7,12.7,0,0,0,2.25.26c.54,0,.94,0,.94-.81V9.44h-7.52V.88Zm-3.47,3.34V2.92h-4.38v1.3ZM149.76,6.1V7.4h4.38V6.1Z"/><path class="cls-1" d="M167.61,13.64h-3V11.2h15.35l1.28,1.28c-1.14,2-4.25,4.32-5.41,5.13a38.43,38.43,0,0,0,9.91,2,7.21,7.21,0,0,0-1.57,2.59,40.6,40.6,0,0,1-11.25-2.92,32.71,32.71,0,0,1-11.5,2.85,10.06,10.06,0,0,0-1.82-2.71,28.65,28.65,0,0,0,10.11-1.78,18.47,18.47,0,0,1-3.85-2.92Zm8.17-6.26a19.16,19.16,0,0,0,2.45-4.08l3.22,1a.37.37,0,0,1,.28.31c0,.26-.2.28-.8.36a18.13,18.13,0,0,1-1.65,2.37h6.09v5.34H182v-3H163.48v3h-3.39V7.38h4.3c-.28-.36-1-1.16-1.88-2.11L165,4H163a9.64,9.64,0,0,0-1.63-2.87c2.77.21,4.59.28,6.44.28,3.67,0,9-.28,12.36-1.28l2.61,2.16a.35.35,0,0,1,.12.26.34.34,0,0,1-.34.33,8.55,8.55,0,0,1-1-.28,59.58,59.58,0,0,1-9.65,1.26,30.16,30.16,0,0,1,2.48,2.82l-1.31.69ZM171,3.92c-2.57.07-2.85.07-5.78.09a14.2,14.2,0,0,1,2.56,2.8c-.63.31-.88.45-1.14.57h4.21a26.72,26.72,0,0,0-2-2.42Zm-2.11,9.72a17.21,17.21,0,0,0,3.76,2.57,12.18,12.18,0,0,0,3.24-2.57Z"/><path class="cls-1" d="M193.91,22.14h-3.7V10.44a15.6,15.6,0,0,1-1.68,1.73A10,10,0,0,0,185.88,10a27.09,27.09,0,0,0,7-10l3.3,1c.29.1.55.17.55.33s-.52.33-.77.33a45.66,45.66,0,0,1-2.28,4.16c.71.14.94.26.94.49s-.17.34-.66.43Zm19-16.35V8.64h-3V19.31c0,2-.6,2.83-6.27,2.87A6.84,6.84,0,0,0,202,18.93a14.58,14.58,0,0,0,2.62.29c1.48,0,1.54-.33,1.54-1.14V8.64H195.34V5.79h10.85V.24l3.73.12c.48,0,.65.09.65.26s-.2.35-.71.54V5.79Zm-13.22,4.46a22,22,0,0,1,4.08,5.46,28,28,0,0,0-3.34,1.49,23.66,23.66,0,0,0-4-5.6Z"/><path class="cls-1" d="M229,22.14h-3.64V15h-6.64v1.12H215V5h10.31V.36l3.9.21c.22,0,.48.09.48.31s-.34.33-.74.38V5h10.28V16.06h-3.65V15H229ZM225.35,7.69h-6.64v4.46h6.64ZM229,12.15h6.63V7.69H229Z"/><path class="cls-1" d="M246.76,16.61v3.72h-4.33V16.61Zm-.15-15V7.43l-.85,7h-2.31l-.88-7V1.64Z"/><path class="cls-1" d="M2.23,50.13c0,.88.17.92,2.12.92.37,0,2.62,0,4.48-.18a4.61,4.61,0,0,0-.22,1.29c-.3,0-.59,0-2.34,0-4.16,0-4.61,0-5.22-.54-.27-.23-.41-.53-.41-1.25V44.22l1.65.07c.1,0,.21,0,.21.12s-.11.13-.27.19v2.8A13.61,13.61,0,0,0,7.3,45.65l1.31.89c.06,0,.1.07.1.11s-.1.11-.27.11H8.25a19,19,0,0,1-6,1.83Zm5.55-5.74A10.57,10.57,0,0,1,9,45.33a7.93,7.93,0,0,0-.73.53A11,11,0,0,0,7,44.92Zm1-.71a8.77,8.77,0,0,1,1.18.93c-.25.18-.62.44-.75.56a6.83,6.83,0,0,0-1.19-1Z"/><path class="cls-1" d="M10.93,45.94V44.73h5.79a3.53,3.53,0,0,0,.79-.08l.77.7a2.91,2.91,0,0,0-.43.61,13.29,13.29,0,0,1-1.42,2.34,23.86,23.86,0,0,1,3.68,2.83l-1.18,1.08a14.11,14.11,0,0,0-3.34-2.9,13.11,13.11,0,0,1-4.63,3,3.68,3.68,0,0,0-1.08-1.11,10.13,10.13,0,0,0,4-2.22,7.85,7.85,0,0,0,2.15-3.07Zm8-1.59a7.11,7.11,0,0,1,1,1c-.05,0-.46.33-.67.5-.11-.11-.59-.68-1-1Zm.9-.63a10.69,10.69,0,0,1,1,.94,3.06,3.06,0,0,0-.7.53,6.76,6.76,0,0,0-1-1Z"/><path class="cls-1" d="M22.85,44.4c.13,0,.23,0,.23.09s-.14.15-.23.18v4.6h-1.6V44.34Zm5.29-.17c.17,0,.23,0,.23.08s-.15.16-.23.19v3.08c0,3.18-2.23,4.33-4.43,5.1a2.48,2.48,0,0,0-1-1c3.73-1,3.81-3,3.81-4V44.16Z"/><path class="cls-1" d="M39.51,47.72v1.35H29.67V47.72Z"/><path class="cls-1" d="M46.68,47.4h3.61v1.15h-3.7c-.4,2.76-3,3.72-3.89,4.06a4.36,4.36,0,0,0-1.17-1c1.42-.41,3.18-1.09,3.5-3H40.58V47.4h4.5V46.12a22.6,22.6,0,0,1-2.91.3,3.33,3.33,0,0,0-.73-1.12A15.1,15.1,0,0,0,48,44.06l1.23.88a.14.14,0,0,1,.05.09.14.14,0,0,1-.16.13.49.49,0,0,1-.18,0,11.78,11.78,0,0,1-2.22.69Z"/><path class="cls-1" d="M54.56,44.29l1.55-.17c.06,0,.23,0,.23.09s-.07.13-.17.2l.23,1.29,2.72-.28.16,1.17-2.68.3.23,1.25,3.91-.42.16,1.2L57,49.34l.54,3.06L56,52.63l-.55-3.12L51.37,50l-.18-1.22,4.08-.43-.22-1.25-2.92.32L52,46.17l2.87-.3Z"/><path class="cls-1" d="M63.5,45.81l1.35-.13c.1,0,.23,0,.23.1s-.07.11-.15.17l.33,1.42,2.95-.48a1.26,1.26,0,0,0,.55-.25l.95.6c-.38.39-1.78,2.32-2.07,2.7a9.74,9.74,0,0,0-1.27-.51c.12-.13.37-.42.64-.75s.4-.49.49-.62l-2,.36.9,3.83-1.31.26-.93-3.84-2.4.43L61.4,48l2.52-.42Z"/><path class="cls-1" d="M71.35,44.37a13.14,13.14,0,0,1,3,1.63,8.58,8.58,0,0,0-.94,1.11,12,12,0,0,0-3-1.62Zm-.81,6.68a13.68,13.68,0,0,0,8.56-5.16,6,6,0,0,0,1,1.11c-.74,1-2.88,3.64-8.26,5.26,0,.09,0,.21-.2.21s-.15-.08-.2-.16Z"/><path class="cls-1" d="M84.75,45.48c.17,0,.21.07.21.13s0,.13-.24.17a11.66,11.66,0,0,1-3.18,6.1,6.62,6.62,0,0,0-1.46-.58,9.85,9.85,0,0,0,3.09-6.12Zm2.85-.54a15.39,15.39,0,0,1,3.45,5.94c-.46.19-1.4.66-1.54.73a12.22,12.22,0,0,0-3.17-5.9Zm3.45.16a1.07,1.07,0,1,1-1-.88A1,1,0,0,1,91.05,45.1Zm-1.59,0a.54.54,0,0,0,1.06,0,.48.48,0,0,0-.52-.44A.49.49,0,0,0,89.46,45.1Z"/><path class="cls-1" d="M92.39,45.94V44.73h5.79a3.44,3.44,0,0,0,.78-.08l.78.7a2.79,2.79,0,0,0-.43.61,14.64,14.64,0,0,1-1.47,2.42,25.08,25.08,0,0,1,3.55,2.75c-.4.36-1,.95-1.17,1.08A14.33,14.33,0,0,0,97,49.38a13.15,13.15,0,0,1-4.56,3,3.68,3.68,0,0,0-1.08-1.11,10.11,10.11,0,0,0,4-2.22,7.89,7.89,0,0,0,2.16-3.07Z"/><path class="cls-1" d="M107.38,44.29c.14,0,.23,0,.23.14s-.11.13-.24.16c0,.24-.08.64-.11,1.37a14.35,14.35,0,0,0,3.69-.48,7.17,7.17,0,0,0-.09,1.39,21.28,21.28,0,0,1-3.63.37,9.93,9.93,0,0,0,.17,2,14.16,14.16,0,0,1,4.13,1.64,8.72,8.72,0,0,0-1,1.13,10.53,10.53,0,0,0-3-1.47c.08,1.29-1,1.86-2.52,1.86-1.82,0-3-.75-3-1.7,0-1.23,1.92-1.7,3.31-1.7a4,4,0,0,1,.49,0c-.09-1.34-.09-1.47-.1-3.5a7,7,0,0,0-.18-1.52Zm-2.24,5.84c-.46,0-1.54.11-1.54.64s1.14.57,1.23.57a1.27,1.27,0,0,0,1-.38c.11-.16.1-.32.08-.74A3.35,3.35,0,0,0,105.14,50.13Z"/><path class="cls-1" d="M114.36,44.43c.18,0,.31,0,.31.16s-.15.14-.26.16a6.69,6.69,0,0,0-.49,2.46,3.94,3.94,0,0,0,.12,1,11.59,11.59,0,0,1,.74-1.25,5.83,5.83,0,0,0,1,.69,5.75,5.75,0,0,0-1.19,2.49l-1.37.13a8.09,8.09,0,0,1-.78-3.4,8.94,8.94,0,0,1,.37-2.39,1.65,1.65,0,0,0,.08-.37Zm5.27-.33c.17,0,.27,0,.27.14s-.11.12-.19.14c0,.31.12,1.68.14,2a11.39,11.39,0,0,1,.05,1.17c0,1.19-.08,3.68-3.5,5.25a4,4,0,0,0-1.24-1,4.23,4.23,0,0,0,3.13-4.35,15,15,0,0,0-.41-3.41Z"/><path class="cls-1" d="M122.15,50a14.1,14.1,0,0,1,2.48,1.63l-1.1.93a9,9,0,0,0-2.32-1.72Z"/><path class="cls-1" d="M130.45,52.69H129V50c-.47.35-.85.59-1.13.77a2.81,2.81,0,0,0-.9-1A8.33,8.33,0,0,0,130.26,47h-2.8V45.88H129V44.05l1.4,0c.16,0,.22.09.22.14s-.06.09-.21.16v1.5h1.17l.63.5A8.77,8.77,0,0,1,131,48.17a8.69,8.69,0,0,0,1.74,1.2,4.13,4.13,0,0,0-.89.88,8.22,8.22,0,0,1-1.4-1ZM132.06,48V46.82h2V44l1.54,0c.09,0,.17,0,.17.11s-.08.11-.23.15v2.48h2V48h-2v3.31h2.26v1.09h-6.46V51.28h2.72V48Z"/><path class="cls-1" d="M144.76,50.88H142l.73.5c.06,0,.14.1.14.16s-.08.11-.19.11a.63.63,0,0,1-.23,0,13.15,13.15,0,0,1-3.19,1.18,3.71,3.71,0,0,0-1.1-.83,9.84,9.84,0,0,0,3.2-1.07h-1.93V46.65h8.19v4.23H145.5a9.28,9.28,0,0,0,3.17,1,3.93,3.93,0,0,0-.95.89,12.67,12.67,0,0,1-3.54-1.35Zm2.44-6.63v2h-7.39v-2Zm-1,3.59v-.45h-5.27v.45Zm-5.27.67V49h5.27v-.45Zm0,1.13v.45h5.27v-.45Zm.34-4.6v.51h4.54V45Z"/><path class="cls-1" d="M158,47.14a13.91,13.91,0,0,0-4.08,1c-.56.2-2.73,1-2.73,2.12,0,.7.9,1,3,1a13.76,13.76,0,0,0,3.83-.5,3.78,3.78,0,0,0-.15,1.44,27.72,27.72,0,0,1-3.79.28,7.83,7.83,0,0,1-3.32-.49,1.82,1.82,0,0,1-1.21-1.6c0-1.14,1-2,2.47-2.65-.6-.53-.69-1.15-.87-2.38a3.09,3.09,0,0,0-.27-.93l1.93-.34c0,.45-.07.67-.07,1a3.7,3.7,0,0,0,.55,2.14c1.57-.61,2.12-.78,4.15-1.42Z"/><path class="cls-1" d="M163.92,51.24c2.69-.43,3.38-2.1,3.38-3.1s-.85-2.39-2.9-2.48c-.39,3.55-2,6.1-3.21,6.1a3,3,0,0,1-2.41-2.9c0-2,2.2-4.36,5.45-4.36,2.42,0,4.6,1.37,4.6,3.64A3.86,3.86,0,0,1,167.49,51a6.4,6.4,0,0,1-2.57,1.35A6.64,6.64,0,0,0,163.92,51.24Zm-3.69-2.47c0,.81.51,1.45.86,1.45s.65-.65.83-1a7.71,7.71,0,0,0,.86-3.3A3.41,3.41,0,0,0,160.23,48.77Z"/><path class="cls-1" d="M178.43,48.25c0,2.33-1.83,4-4.48,4s-4.48-1.62-4.48-4,1.75-4,4.48-4S178.43,46,178.43,48.25Zm-7.2,0A2.73,2.73,0,1,0,174,45.5,2.55,2.55,0,0,0,171.23,48.25Z"/><path class="cls-1" d="M184.08,44.5c1.85,0,2.74.9,2.74,1.92A1.69,1.69,0,0,1,185.47,48a2,2,0,0,1,1.7,1.85c0,1.1-.91,2.14-2.88,2.14h-5V44.5ZM181,45.61v2h2.75c1.2,0,1.37-.71,1.37-1,0-.93-1.07-1-1.37-1Zm0,3v2.23h2.81c.73,0,1.67-.26,1.67-1.14s-.93-1.09-1.68-1.09Z"/><path class="cls-1" d="M192.64,44.5l-4,7.49h-1.19l4-7.49Z"/><path class="cls-1" d="M201.81,48.25c0,2.33-1.84,4-4.48,4s-4.48-1.62-4.48-4,1.74-4,4.48-4S201.81,46,201.81,48.25Zm-7.2,0a2.73,2.73,0,1,0,2.72-2.75A2.55,2.55,0,0,0,194.61,48.25Z"/><path class="cls-1" d="M211.05,48.09V52h-1.21l-.08-1a3.79,3.79,0,0,1-3,1.17c-2.91,0-4.52-1.68-4.52-3.94,0-2.46,1.81-4,4.5-4,3.32,0,4,2,4.25,2.65h-1.8a2.44,2.44,0,0,0-2.48-1.44A2.49,2.49,0,0,0,204,48.15a2.57,2.57,0,0,0,.88,2.27,2.82,2.82,0,0,0,1.79.58,2.5,2.5,0,0,0,2.66-1.86h-2.27v-1Z"/><path class="cls-1" d="M216,45.59v.84H211.7v-.84Zm.32,1V45.54h2V44l1.55.07c.07,0,.17,0,.17.11s-.17.16-.28.18v1.17h2.41v1.05h-3v.95h2.52a17.06,17.06,0,0,1-.3,3.93c-.11.49-.34,1.25-2,1.25a2.61,2.61,0,0,1-.54,0,2,2,0,0,0-.53-1.15,7,7,0,0,0,1,.07c.76,0,.79-.17.92-.79a10.53,10.53,0,0,0,.2-2.21h-1.3a7.11,7.11,0,0,1-2.1,4.15,4.51,4.51,0,0,0-.91-.51v.36H214.7v-.34h-1.41v.45H212V49.39h3.9v2.45a5.36,5.36,0,0,0,1.28-2,8.14,8.14,0,0,0,.44-3.28Zm-.63.27v.83h-3.31v-.83Zm0,1.26V49h-3.31v-.83Zm0-3.79v.84h-3.32v-.84Zm-1,7v-1h-1.41v1Z"/><path class="cls-1" d="M227.31,44.2v3.43h-3V52.7h-1.39V44.2Zm-1.26,1.34V45h-1.74v.52Zm-1.74.75v.52h1.74v-.52Zm2.54,5.58h-1.33v-3.6H230v2.85h-3.11Zm1.78-1.65V49.16h-1.78v1.06Zm4-6v7.44c0,1-1.13,1.06-1.65,1.06a2.94,2.94,0,0,1-.44,0,2.68,2.68,0,0,0-.58-1.28,4.68,4.68,0,0,0,.9.11c.22,0,.38,0,.38-.32V47.63h-3V44.2Zm-1.39,1.34V45h-1.76v.52Zm-1.76.75v.52h1.76v-.52Z"/><path class="cls-1" d="M238.84,44.16c.08,0,.23,0,.23.15s-.13.15-.28.15c-.12.23-.2.37-.34.59a14,14,0,0,0,2.58-.47v1.21c-1.08.17-2.22.33-3.33.41-.14.21-.4.56-.59.85a2.7,2.7,0,0,1,1.08-.22,2,2,0,0,1,1.72.88c.81-.31,1.94-.74,2.42-1l.57,1.3c-1,.25-1.87.49-2.69.78,0,.37,0,.7,0,.95,0,.42,0,.7,0,.94-.08,0-1,0-1.53,0a7.88,7.88,0,0,0,.06-1.31c-1.24.56-1.71,1-1.71,1.38s.58.58,1.92.58a15.68,15.68,0,0,0,3.58-.42,4.74,4.74,0,0,0-.18,1.3,18.39,18.39,0,0,1-3.17.26c-.64,0-3.62,0-3.62-1.63,0-1.32,2.35-2.35,3-2.65a.9.9,0,0,0-.93-.52c-.89,0-1.74.57-2.82,2.05l-1.36-.67A19,19,0,0,0,236,46.31c-.56,0-.9,0-1.82,0V45.14c.26,0,.94.07,1.83.07h.7a9.31,9.31,0,0,0,.65-1.3Z"/><path class="cls-1" d="M3.73,69.08H2.52v-1H8.67l.51.52a8.19,8.19,0,0,1-2.17,2,15.48,15.48,0,0,0,4,.81,3.06,3.06,0,0,0-.63,1,16.47,16.47,0,0,1-4.5-1.17,13.38,13.38,0,0,1-4.6,1.14A4.27,4.27,0,0,0,.52,71.4a11.31,11.31,0,0,0,4-.71A7.42,7.42,0,0,1,3,69.52ZM7,66.57a7.31,7.31,0,0,0,1-1.63l1.29.42a.14.14,0,0,1,.11.12c0,.11-.08.11-.31.14a6.57,6.57,0,0,1-.67.95h2.44v2.14H9.51V67.5H2.08v1.21H.72V66.57H2.44c-.11-.14-.38-.46-.75-.84l1-.51H1.87a3.87,3.87,0,0,0-.65-1.15c1.11.09,1.84.12,2.58.12a20.15,20.15,0,0,0,5-.52l1,.87a.14.14,0,0,1,.05.1.14.14,0,0,1-.14.14,4.1,4.1,0,0,1-.4-.12,24.16,24.16,0,0,1-3.86.51,10.37,10.37,0,0,1,1,1.13l-.52.27ZM5.09,65.19l-2.32,0a5.74,5.74,0,0,1,1,1.13c-.25.12-.35.18-.46.22H5c-.47-.59-.54-.68-.81-1Zm-.85,3.89a7,7,0,0,0,1.51,1,4.89,4.89,0,0,0,1.3-1Z"/><path class="cls-1" d="M14.27,72.49H12.79V67.8a5.29,5.29,0,0,1-.68.69,4.08,4.08,0,0,0-1.06-.85,10.77,10.77,0,0,0,2.78-4l1.33.41c.11,0,.21.06.21.13s-.2.13-.3.13A17.41,17.41,0,0,1,14.15,66c.29.05.38.1.38.2s-.07.13-.26.17Zm7.6-6.55v1.14H20.65v4.28c0,.78-.24,1.13-2.51,1.15a2.7,2.7,0,0,0-.62-1.31,5.64,5.64,0,0,0,1.05.12c.59,0,.61-.14.61-.46V67.08H14.84V65.94h4.34V63.71l1.49,0c.2,0,.27,0,.27.11s-.08.14-.29.21v1.86Zm-5.29,1.78a8.73,8.73,0,0,1,1.63,2.19,10.18,10.18,0,0,0-1.33.6,9.18,9.18,0,0,0-1.6-2.24Z"/><path class="cls-1" d="M28.32,72.49H26.86V69.62H24.2v.44H22.73V65.61h4.13V63.76l1.56.09c.09,0,.19,0,.19.12s-.14.13-.29.15v1.49h4.11v4.44H31v-.43H28.32ZM26.86,66.7H24.2v1.79h2.66Zm1.46,1.79H31V66.7H28.32Z"/><path class="cls-1" d="M43.32,65.36c-2.85,0-5.38,1.94-5.38,3.68,0,1.11.94,1.83,3.35,2a7,7,0,0,0-.72,1.44c-1.73-.32-4.16-1.15-4.16-3.31,0-1.27.87-2.37,2.4-3.35-.73,0-4.1.37-5.2.6l-.22-1.53c.22,0,.44,0,.74,0A53.22,53.22,0,0,0,43,64Zm-1.9,1.53a12.79,12.79,0,0,1,1,1,7.5,7.5,0,0,0-.77.55,8.46,8.46,0,0,0-1-1.06Zm1.09-.71a7.68,7.68,0,0,1,1,1,5,5,0,0,0-.74.54,8.44,8.44,0,0,0-1-1.07Z"/><path class="cls-1" d="M50.24,63.93c.19,0,.27,0,.27.11s-.07.11-.19.16a4.89,4.89,0,0,0,0,.76l3.85-.14a2.34,2.34,0,0,0,0,.46,4.79,4.79,0,0,0,.05.84c-2.17-.08-3.33-.06-3.84,0,0,.16,0,.79,0,1.24a2.76,2.76,0,0,1,.58,1.73,4.24,4.24,0,0,1-2.73,3.65,6.51,6.51,0,0,0-1.38-.85c1.79-.6,2.14-1.33,2.28-1.63a1.82,1.82,0,0,1-1.1.34,1.62,1.62,0,0,1-1.64-1.81,1.85,1.85,0,0,1,2-1.94,1.62,1.62,0,0,1,.47.06c0-.4,0-.53,0-.74a42.29,42.29,0,0,0-4.68.45L44,65.22c.37,0,.81,0,4.74-.2a8.56,8.56,0,0,0-.16-1.26ZM47.59,68.7c0,.79.51.89.7.89.46,0,.76-.46.76-1a.68.68,0,0,0-.71-.74A.76.76,0,0,0,47.59,68.7Z"/><path class="cls-1" d="M58.19,71a1.57,1.57,0,1,1-1.55-1.31A1.44,1.44,0,0,1,58.19,71Zm-2.46,0a.85.85,0,0,0,.91.76.78.78,0,1,0,0-1.53A.85.85,0,0,0,55.73,71Z"/><path class="cls-1" d="M6.14,87.55a.11.11,0,0,1,.06,0A1.26,1.26,0,0,1,6,87V83.49l1.46.1c.07,0,.21,0,.21.1s-.08.12-.3.21V85a16.64,16.64,0,0,0,2.34-1l1,.78a.15.15,0,0,1,.07.11s0,.13-.17.13a.93.93,0,0,1-.25-.06,24.46,24.46,0,0,1-3,1.1v.42c0,.39.26.42.55.42H9.28c.39,0,.54-.31.71-.9a3.18,3.18,0,0,0,1.15.45c-.35,1.48-1,1.48-1.68,1.48H7.22a1.88,1.88,0,0,1-.88-.2c0,.07-.19.1-.26.1s-.21.39-.29.51H9.7v3.94H8.22V91.9H3.35v.35H1.9V88.31H4.29a5.8,5.8,0,0,0,.41-.86c-.57.09-3.09.47-3.6.56-.05.12-.08.21-.2.21s-.11,0-.17-.2L.41,87c.38,0,.59,0,1.34-.12V83.52l1.52.08c.13,0,.19.07.19.13s-.07.11-.26.18v.86H5.69v1H3.2v.93c.25,0,1.15-.15,2.45-.39a3.89,3.89,0,0,0-.16,1A3.82,3.82,0,0,0,5,87.4Zm2.08,2.17v-.5H3.35v.5Zm0,1.31v-.54H3.35V91Z"/><path class="cls-1" d="M16.38,83.6A5.43,5.43,0,0,0,17,85.17,10.1,10.1,0,0,0,19.58,84c.42.44.75.75,1,1a17.08,17.08,0,0,1-3,1.24A11.21,11.21,0,0,0,20.21,89l-1,.73a7.07,7.07,0,0,0-3.2-.74c-.3,0-2.1,0-2.1,1,0,.8,1.25,1,2.65,1a7.53,7.53,0,0,0,2.72-.47,3.89,3.89,0,0,0,.32,1.28,12.36,12.36,0,0,1-3,.34c-2.81,0-4.32-1-4.32-2.14s1.25-2.06,3.38-2.06a6.56,6.56,0,0,1,1.52.17,11.12,11.12,0,0,1-1.05-1.43,24.46,24.46,0,0,1-4.12.62L11.55,86a19.34,19.34,0,0,0,4-.45c-.28-.52-.61-1.2-.84-1.67Z"/><path class="cls-1" d="M27,84c.08,0,.17.07.17.16s-.15.1-.34.09c-.39.6-1.5,2.46-1.82,3.06a2.85,2.85,0,0,1,1.2-.22c.73,0,1.55.27,1.55,1.22a3.94,3.94,0,0,1-.1.79,3.83,3.83,0,0,0-.16,1c0,.23,0,.58.56.58a4.88,4.88,0,0,0,2.6-1.66,8.24,8.24,0,0,0,1,1,6.22,6.22,0,0,1-4,2c-.9,0-1.71-.45-1.71-1.44,0-.29.2-1.6.2-1.87s-.12-.5-.55-.5a2,2,0,0,0-1.45.85A12.31,12.31,0,0,0,22.6,91.9L21,91.34a60.43,60.43,0,0,0,3.91-6.61c.1-.2.51-1.11.6-1.29Z"/><path class="cls-1" d="M34.74,84.24c.17.05.26.07.26.16s-.11.11-.29.13a10.35,10.35,0,0,0-.75,4,4.8,4.8,0,0,0,.1,1c0-.08.38-.72.56-1a2.59,2.59,0,0,0,.78.68,5.08,5.08,0,0,0-.78,2.38l-1.37.33a8.48,8.48,0,0,1-.76-3.69,16.09,16.09,0,0,1,.72-4.47Zm3,4.43a2.09,2.09,0,0,0-.28.82c0,.48.52.57,1.75.57a14.69,14.69,0,0,0,2.88-.25,4.45,4.45,0,0,0-.14,1.32c-.7.08-1.93.13-2.64.13-2.28,0-3.24-.43-3.24-1.37a2.84,2.84,0,0,1,.41-1.41Zm-1.23-3.9c.32,0,.72,0,1.36,0a16.2,16.2,0,0,0,3.45-.31,9.35,9.35,0,0,0,.15,1.24,21.34,21.34,0,0,1-3.58.27c-.62,0-1,0-1.38,0Z"/><path class="cls-1" d="M47.27,83.77c.15,0,.24,0,.24.13s-.13.13-.21.14c-.07.66-.08,1-.09,1.15a8.92,8.92,0,0,0,1.95-.5,8.7,8.7,0,0,0,0,1.3,13.85,13.85,0,0,1-2,.44c0,.15,0,.81,0,.95a6.72,6.72,0,0,1,2-.34c1.55,0,3.11.78,3.11,2.44a2.34,2.34,0,0,1-2.56,2.27,1.56,1.56,0,0,1-1.78-1.64l1.23-.34c0,.25,0,.78.69.78a.94.94,0,0,0,.92-1c0-.71-.58-1.36-1.7-1.36a5.58,5.58,0,0,0-1.95.42,26.94,26.94,0,0,0,.15,3l-1.3.5a15.41,15.41,0,0,0-2.12-1.47c-.24.2-.36.32-.59.54l-.69-1.38c.53-.24,2.6-1.55,3.07-1.78,0-.47,0-.93,0-1.4-.72,0-1.61.06-2.22.06V85.36a6.09,6.09,0,0,0,.87,0c.5,0,1.19,0,1.36,0,0-.44,0-1.35,0-1.83ZM44.74,89.9a4.55,4.55,0,0,0,.83.46c.08,0,.09-.12.09-.21V89.3A8,8,0,0,0,44.74,89.9Zm6-5a10,10,0,0,1,2.49,1.53,6.29,6.29,0,0,0-1,1,6.72,6.72,0,0,0-2.42-1.5Z"/><path class="cls-1" d="M61.65,87.57H55.86v-.83a12.46,12.46,0,0,1-1.49.66,4.46,4.46,0,0,0-1.06-1,9.7,9.7,0,0,0,4.75-3l1.65.2c.1,0,.17.06.17.12s-.13.12-.26.14a11,11,0,0,0,4.63,2.45,3.2,3.2,0,0,0-1,1,14.54,14.54,0,0,1-1.65-.69ZM54.1,90.88l1.76-.09a10.36,10.36,0,0,0,.94-1.61H54.1V88.12h9.4v1.06H60.83a14.72,14.72,0,0,1,2.61,2.36,5.68,5.68,0,0,0-1.11.83,8.12,8.12,0,0,0-.83-1l-3.06.32L54.81,92c-.07.14-.13.25-.27.25s-.12-.06-.15-.22Zm7.32-4.36a12.44,12.44,0,0,1-2.7-1.83,16.07,16.07,0,0,1-2.48,1.83Zm-1,2.66H58.65a.13.13,0,0,1,0,.07c0,.1-.24.13-.33.14-.17.32-.64,1-.85,1.3,1.43-.1,1.59-.11,3-.24a9.66,9.66,0,0,0-.92-.69Z"/><path class="cls-1" d="M66.89,84.51c.19,0,.24.07.24.15s-.16.14-.24.15a7.3,7.3,0,0,0-.6,2.86c0,1.34.57,2.3,1,2.3s1-1.06,1.22-1.59a4.13,4.13,0,0,0,1,.85c-.85,1.73-1.78,2.44-2.4,2.44s-2.33-1.24-2.33-4.1a14.22,14.22,0,0,1,.53-3.44Zm5.67.12a8.6,8.6,0,0,1,2.28,4.82c-.24.07-.5.16-1.59.59a7.6,7.6,0,0,0-2-4.74Z"/><path class="cls-1" d="M85.4,85.13c-2.85,0-5.38,1.94-5.38,3.68,0,1.11.93,1.83,3.35,2a6.29,6.29,0,0,0-.72,1.44c-1.73-.32-4.16-1.15-4.16-3.31,0-1.27.87-2.37,2.39-3.34-.72,0-4.09.36-5.19.59l-.22-1.53c.22,0,.43,0,.74,0a53.22,53.22,0,0,0,8.89-.9Zm-1.9,1.53c.15.15.72.7,1,1a7.5,7.5,0,0,0-.77.55,8.49,8.49,0,0,0-1-1.06Zm1.09-.7a7.07,7.07,0,0,1,1,1,5.92,5.92,0,0,0-.74.55,7.89,7.89,0,0,0-1-1.08Z"/><path class="cls-1" d="M90.82,83.58a6,6,0,0,0,.25,1.12A9.48,9.48,0,0,0,93.18,84c.25.49.32.63.53,1a10.07,10.07,0,0,1-2.22.79c.18.36.25.49.32.61a11.35,11.35,0,0,0,2.53-1c.11.17.66.89.76,1a11.92,11.92,0,0,1-2.63,1,9.78,9.78,0,0,0,1.86,2l-.91.8a7.19,7.19,0,0,0-3.4-.87c-.51,0-1.68.14-1.68.81,0,.47.59.91,2.26.91a10.45,10.45,0,0,0,2.91-.38,3.38,3.38,0,0,0-.12.89,2.45,2.45,0,0,0,0,.34,13,13,0,0,1-2.85.29c-2.91,0-3.76-1.17-3.76-2,0-1.13,1.32-1.78,2.9-1.78a10.06,10.06,0,0,1,1.88.18,5.29,5.29,0,0,1-.6-.82,26.31,26.31,0,0,1-3.9.36c-.1,0-.41,0-.73,0L86.2,86.9c.25,0,.67,0,1.2,0a18.34,18.34,0,0,0,3-.26c-.06-.11-.29-.54-.33-.63a26.91,26.91,0,0,1-3,.26l-.32-1.14a16.2,16.2,0,0,0,2.8-.18c-.26-.56-.36-.85-.48-1.17Z"/><path class="cls-1" d="M103.34,84.6a36.38,36.38,0,0,0-3,2.31,5.22,5.22,0,0,1,1.49-.21c1.69,0,3.23.82,3.23,2.46,0,2.07-2.42,3-4.28,3S98,91.41,98,90.51s.89-1.43,2.08-1.43c.86,0,2.16.38,2.42,1.51a1.36,1.36,0,0,0,1-1.33c0-.55-.39-1.51-2.05-1.51-2,0-3.15,1-4.76,2.39l-1.16-1a37.09,37.09,0,0,0,5-4c-1,.19-2.72.32-3.45.37l-.25-1.28a22.51,22.51,0,0,0,5.74-.58ZM100,90.12c-.42,0-.63.21-.63.43,0,.38.63.59,1.18.59a3.25,3.25,0,0,0,.69-.08A1.15,1.15,0,0,0,100,90.12Z"/><path class="cls-1" d="M108.88,88.56c-.17.12-1.18.86-1.18,1.33a.46.46,0,0,0,.28.43,8.06,8.06,0,0,0,2.43.27,17.38,17.38,0,0,0,4.34-.47,7.81,7.81,0,0,0,.32,1.34,28.3,28.3,0,0,1-4.68.38c-2.57,0-4.28-.4-4.28-1.81,0-.42.17-1.09,1.71-2.18Zm5.43-3.41a14.34,14.34,0,0,0-3.65,2c-.14-.14-.75-.72-.88-.83.09,0,1-.61,1.21-.8-.6,0-1.45.08-2.46.08-.85,0-1.2,0-1.48,0L107,84.18a26.51,26.51,0,0,0,3.24.17,21.53,21.53,0,0,0,3.32-.21Z"/><path class="cls-1" d="M124.48,86.68a13.71,13.71,0,0,0-4.08,1c-.56.2-2.74,1-2.74,2.12,0,.69.9,1,3,1a13.7,13.7,0,0,0,3.83-.51,3.58,3.58,0,0,0-.15,1.44,26.41,26.41,0,0,1-3.8.28,7.64,7.64,0,0,1-3.31-.49,1.8,1.8,0,0,1-1.21-1.6c0-1.14,1-2,2.47-2.65-.6-.52-.7-1.15-.88-2.38a3.09,3.09,0,0,0-.26-.93l1.93-.34a8.24,8.24,0,0,0-.07,1,3.7,3.7,0,0,0,.55,2.14c1.57-.61,2.12-.78,4.15-1.42Z"/><path class="cls-1" d="M130.5,83.7c.08,0,.23,0,.23.16s-.13.14-.27.15c-.13.23-.21.36-.35.59a12.77,12.77,0,0,0,2.58-.48v1.22c-1.08.16-2.22.32-3.33.41-.13.21-.4.56-.59.84a2.7,2.7,0,0,1,1.08-.22,2,2,0,0,1,1.72.88c.81-.31,1.94-.73,2.42-.94l.57,1.29c-1,.26-1.87.49-2.69.78a8.89,8.89,0,0,1,.05,1c0,.42,0,.7,0,.94-.08,0-1,0-1.52,0a9.37,9.37,0,0,0,0-1.31c-1.24.56-1.71,1-1.71,1.39s.58.58,1.93.58a15.38,15.38,0,0,0,3.58-.43,4.38,4.38,0,0,0-.18,1.3,18.45,18.45,0,0,1-3.17.26c-.64,0-3.63,0-3.63-1.63,0-1.32,2.35-2.35,3-2.65a.91.91,0,0,0-.94-.51c-.89,0-1.73.56-2.81,2l-1.36-.66a19.85,19.85,0,0,0,2.51-2.8c-.56,0-.9,0-1.83,0V84.68c.26,0,1,.08,1.84.08.41,0,.58,0,.69,0a8.53,8.53,0,0,0,.65-1.29Z"/><path class="cls-1" d="M135.2,89.63v-1h4.47v-.52h-1.46V84.28h1.12a4.1,4.1,0,0,0,.36-.81l1.4.2c.1,0,.22,0,.22.12s-.1.12-.34.15a3.45,3.45,0,0,1-.19.34h1.75v3.87h-1.18s0,0,0,.07-.2.13-.31.15v.3h4.52v1H142a12.7,12.7,0,0,0,3.62,1.61,3.58,3.58,0,0,0-.89.87,11.45,11.45,0,0,1-3.66-2v2.09h-1.41v-2a11.73,11.73,0,0,1-3.66,2,3.33,3.33,0,0,0-1-.9,12.73,12.73,0,0,0,3.72-1.64Zm-.09-2.3a15.7,15.7,0,0,0,2.78-1.12,4.25,4.25,0,0,0,.12,1.11c-.19.07-1.86.82-2,.89s0,.28-.16.28-.16-.09-.2-.17Zm1.06-3.41a8.15,8.15,0,0,1,1.73,1.22,7.11,7.11,0,0,0-.84.83,7.79,7.79,0,0,0-1.78-1.21Zm3.35,1.87h1.7v-.6h-1.7Zm1.7.8h-1.7v.65h1.7Zm4.06-2.07c.08,0,.15.09.15.17s-.05.11-.18.11l-.21,0a12.13,12.13,0,0,1-1.53,1.33,7.22,7.22,0,0,0-1-.7,12.43,12.43,0,0,0,1.65-1.5Zm-1.84,1.69a11.53,11.53,0,0,1,2.1,1.3,9.31,9.31,0,0,0-.89.86,9.18,9.18,0,0,0-2-1.31Z"/><path class="cls-1" d="M148.63,83.91c.19,0,.27,0,.27.13s-.16.15-.25.17a24.43,24.43,0,0,0-.34,4.27c0,1.63.19,2.27,1.25,2.27,1.94,0,3.66-1.93,4.12-2.77a7.69,7.69,0,0,0,1.15,1.07,6.82,6.82,0,0,1-5.42,3c-2.59,0-2.67-2.06-2.67-4,0-.6.13-3.24.13-3.78a4.59,4.59,0,0,0,0-.65Z"/><path class="cls-1" d="M164.66,86.26c.08,0,.16,0,.16.13s-.16.13-.25.13a7.68,7.68,0,0,1-.51,1.86,9.32,9.32,0,0,1,1.76,1,13,13,0,0,0-.94,1.16,7.78,7.78,0,0,0-1.41-.93,7.22,7.22,0,0,1-2.58,2.54,4.32,4.32,0,0,0-1.25-.86A5.8,5.8,0,0,0,162.18,89a11.76,11.76,0,0,0-2.33-.67c-1.22,2.09-1.71,2.94-2.8,2.94a1.61,1.61,0,0,1-1.69-1.51c0-1.17,1.23-2.63,3.62-2.58.14-.3.78-1.65.92-1.92a23.67,23.67,0,0,1-2.62.41L157,84.35a13,13,0,0,0,4.17-.58l1,.69a12.82,12.82,0,0,0-1.7,2.81,12.72,12.72,0,0,1,2.28.59,6.4,6.4,0,0,0,.33-2.08Zm-8,3.53c0,.33.26.34.28.34.36,0,1.19-1.34,1.37-1.73A1.55,1.55,0,0,0,156.69,89.79Z"/><path class="cls-1" d="M168.9,84.24c.17.05.26.07.26.16s-.11.11-.28.13a10.09,10.09,0,0,0-.76,4,4.13,4.13,0,0,0,.11,1,10.74,10.74,0,0,1,.55-1,2.59,2.59,0,0,0,.78.68,5.08,5.08,0,0,0-.78,2.38l-1.36.33a8.31,8.31,0,0,1-.77-3.69,16.47,16.47,0,0,1,.72-4.47Zm3,4.43a2.09,2.09,0,0,0-.28.82c0,.48.52.57,1.76.57a14.66,14.66,0,0,0,2.87-.25,4.45,4.45,0,0,0-.14,1.32c-.69.08-1.93.13-2.64.13-2.28,0-3.24-.43-3.24-1.37a2.84,2.84,0,0,1,.41-1.41Zm-1.23-3.9c.32,0,.72,0,1.36,0a16.2,16.2,0,0,0,3.45-.31,9.35,9.35,0,0,0,.15,1.24A21.34,21.34,0,0,1,172,86c-.62,0-1,0-1.38,0Z"/><path class="cls-1" d="M179.4,83.91c.18,0,.26,0,.26.13s-.16.15-.25.17a24.2,24.2,0,0,0-.33,4.27c0,1.63.18,2.27,1.24,2.27,1.94,0,3.66-1.93,4.13-2.77a7.22,7.22,0,0,0,1.15,1.07,6.83,6.83,0,0,1-5.43,3c-2.58,0-2.66-2.06-2.66-4,0-.6.12-3.24.12-3.78,0-.39,0-.46,0-.65Z"/><path class="cls-1" d="M196.09,85.13c-2.85,0-5.38,1.94-5.38,3.68,0,1.11.94,1.83,3.35,2a7.31,7.31,0,0,0-.72,1.44c-1.73-.32-4.16-1.15-4.16-3.31,0-1.27.87-2.37,2.4-3.34-.73,0-4.09.36-5.2.59l-.22-1.53c.22,0,.44,0,.74,0a53.22,53.22,0,0,0,8.89-.9Z"/><path class="cls-1" d="M199.15,84.51c.18,0,.24.07.24.15s-.16.14-.24.15a7.12,7.12,0,0,0-.6,2.86c0,1.34.57,2.3,1,2.3s.94-1.06,1.22-1.59a4.23,4.23,0,0,0,1,.85c-.84,1.73-1.77,2.44-2.39,2.44S197,90.43,197,87.57a13.76,13.76,0,0,1,.54-3.44Zm5.67.12a8.6,8.6,0,0,1,2.28,4.82c-.24.07-.51.16-1.59.59a7.6,7.6,0,0,0-2-4.74Z"/><path class="cls-1" d="M213,83.81c.11,0,.22,0,.22.13s-.12.14-.2.16c0,.22,0,.38-.06.65l1.56,0c.65,0,1,0,1.71.06V86c-.54,0-1.47-.1-3.31-.06v1.23a18.73,18.73,0,0,0,3-.43V88a29.09,29.09,0,0,1-3,.31c0,.16,0,.87,0,1a11.8,11.8,0,0,1,3.79,1.3,12.64,12.64,0,0,0-1.06,1,8.51,8.51,0,0,0-2.65-1.25c0,.59.06,1.7-2.34,1.7-2,0-2.84-.81-2.84-1.5,0-1.19,2-1.47,2.92-1.47l.64,0s0-.67,0-.76c-1.34,0-3.28.06-3.28-.82,0-.33.21-.61.81-1.12l1.1.24c-.13.12-.32.3-.32.36,0,.25.42.26,1,.26h.66c0-.2,0-1.08,0-1.27-1.61,0-2.76.18-3.69.27V85c.58,0,3.15-.14,3.68-.16a8.33,8.33,0,0,0-.06-1.22ZM210.84,90c-.37,0-1.36,0-1.36.51s.87.43,1,.43c.69,0,1-.23,1-.89A3.19,3.19,0,0,0,210.84,90Z"/><path class="cls-1" d="M223.31,83.7c.19,0,.27,0,.27.11s-.07.11-.19.16a4.89,4.89,0,0,0,0,.76c3.34-.11,3.71-.13,3.85-.14a2.54,2.54,0,0,0,0,.46,6,6,0,0,0,0,.84c-2.16-.08-3.33-.06-3.84,0,0,.16,0,.79,0,1.24a2.76,2.76,0,0,1,.58,1.73,4.21,4.21,0,0,1-2.73,3.65,6.51,6.51,0,0,0-1.38-.85c1.79-.6,2.14-1.33,2.28-1.62a1.88,1.88,0,0,1-1.1.33,1.62,1.62,0,0,1-1.64-1.81,1.85,1.85,0,0,1,2-1.94,1.56,1.56,0,0,1,.47.06c0-.4,0-.53,0-.74a39,39,0,0,0-4.68.46L217.08,85c.38,0,.81,0,4.74-.21a8.78,8.78,0,0,0-.16-1.26Zm-2.65,4.78c0,.78.51.88.7.88.46,0,.76-.46.76-1a.68.68,0,0,0-.71-.74A.77.77,0,0,0,220.66,88.48Z"/><path class="cls-1" d="M231.26,90.76a1.57,1.57,0,1,1-1.55-1.31A1.44,1.44,0,0,1,231.26,90.76Zm-2.46,0a.85.85,0,0,0,.91.76.77.77,0,1,0-.91-.76Z"/></g></g></svg>