<svg xmlns="http://www.w3.org/2000/svg" viewBox="0 0 186.58 23.37"><defs><style>.cls-1{fill:#FFFF00;}</style></defs><g id="Layer_2" data-name="Layer 2"><g id="フッター"><path class="cls-1" d="M43.39,22.82H39.05V10.89a57.57,57.57,0,0,1-9.21,3.84,12.27,12.27,0,0,0-3.08-3A43.11,43.11,0,0,0,47.67,0l3.61,2.31c.18.12.27.23.27.35S51.25,3,51,3a2,2,0,0,1-.54-.08,46.44,46.44,0,0,1-7.08,5.47Z"/><path class="cls-1" d="M53.3,12.78a33.72,33.72,0,0,0,5.57-4.7c3.5-3.51,4.7-4.29,6.51-4.29s2.77.73,6.2,4.27a63.16,63.16,0,0,0,10.33,8.78,26.77,26.77,0,0,0-2.71,3.09A111.56,111.56,0,0,1,68.51,10C66.22,7.66,66,7.48,65.23,7.48S64,7.93,62.49,9.41c-1.3,1.28-4.25,4.3-5.37,5.68,0,.27,0,.57-.39.57-.15,0-.24-.1-.42-.25Zm22-10.27A14.6,14.6,0,0,1,78.57,5.2c-.36.3-1.2,1.1-1.81,1.65a22,22,0,0,0-3.19-2.73Zm3-2.33a25,25,0,0,1,3.13,2.56,14.76,14.76,0,0,0-1.77,1.63,24.71,24.71,0,0,0-3.14-2.69Z"/><path class="cls-1" d="M85.44,1.25a34.75,34.75,0,0,1,7.89,4.32,22.94,22.94,0,0,0-2.5,2.91,31.58,31.58,0,0,0-7.92-4.26ZM83.3,18.9c7.23-1.28,16.44-5.27,22.62-13.63a15.2,15.2,0,0,0,2.62,2.94c-2,2.51-7.62,9.61-21.84,13.88-.06.25-.09.55-.51.55-.21,0-.39-.2-.54-.43Z"/><path class="cls-1" d="M118.12,7.33A47,47,0,0,1,129,13.4c-1.18,1-1.6,1.46-2.89,2.74a42.73,42.73,0,0,0-9.52-5.62V22.77H112.3V.75l4.28.2c.3,0,.57.05.57.28s-.39.35-.57.38V9.14Z"/><path class="cls-1" d="M133.17,5c.33.06.76.11.76.36s-.43.37-.61.4a23.84,23.84,0,0,1-1.5,6.15,10.91,10.91,0,0,0-3-1.11,19.86,19.86,0,0,0,1.57-6.12Zm5.3-1.3a26,26,0,0,1,3.11,2.81,6.52,6.52,0,0,0-2,1.51h6.9V6.93H141.7V5.12h4.79V4h-6.3V2h6.3V.18l3.7.22c.21,0,.6,0,.6.3a.32.32,0,0,1-.24.33l-.36.15V2H157V4h-6.78v1.1h5.3V6.93h-5.3V8.06h7.47v2.06H139.29V8.21c-.45-.55-1.33-1.43-1.63-1.76V23.24H134V.3l3.85.2c.3,0,.63.13.63.33s-.33.38-.78.53V4.27Zm6.27,15.49v4h-3.68v-12h15v9.16c0,2.08-.57,2.76-5.3,2.91a6.12,6.12,0,0,0-1.41-2.66c.45,0,1.2.1,1.9.1,1.14,0,1.17-.23,1.17-.86v-.62Zm7.71-4.85V13.15h-7.71v1.23Zm0,3V16.19h-7.71v1.23Z"/><path class="cls-1" d="M168.26,9.09l2.26.45c.21.05.48.1.48.3s-.45.3-.72.33a13.34,13.34,0,0,1-.93,1.78H172v2.51h-4.73v1.68h4.49v2.51h-4.49v4.59h-3.38V18.65h-4.57V16.14h4.57V14.46H159V12h2.66a14.27,14.27,0,0,0-1.12-2.29l2.32-.57h-4.49V6.6h5.54V5h-4V2.58h4V.3l3.41.15c.24,0,.6,0,.6.3s-.33.4-.63.53v1.3h4.22V5h-4.22V6.6h5.06V9.09Zm-4.58,0a15.11,15.11,0,0,1,1.24,2.56l-1.27.3h2.5a14.32,14.32,0,0,0,1.27-2.86Zm20.09,14.28A25.24,25.24,0,0,1,180.91,21a13.46,13.46,0,0,1-2.29,2.21,7.52,7.52,0,0,0-2-1.36v1.38h-3.53V.88h12c0,.9,0,6.07-.12,6.58-.45,1.83-3.77,2-5.42,2a6.45,6.45,0,0,0-1.36-3,8.18,8.18,0,0,0,1.69.18c1.53,0,1.62-.3,1.66-.81,0-.35,0-1.5,0-2.26h-4.91v6.58h7.5l1.68,1.46a23.27,23.27,0,0,1-3,6.9,17.36,17.36,0,0,0,3.8,2.94A15.09,15.09,0,0,0,183.77,23.37Zm-7.19-10.59v1.65l2.56-1.25a12.15,12.15,0,0,0,1.44,3,13.91,13.91,0,0,0,1.3-3.36Zm0,1.73V21a15.29,15.29,0,0,0,2.25-2.29A14.41,14.41,0,0,1,176.58,14.51Z"/><path class="cls-1" d="M1.23,20.19,0,18.13l12.16-5L0,8.05,1.23,6l17.13,7.1Z"/></g></g></svg>