<svg xmlns="http://www.w3.org/2000/svg" width="618.5" height="156.201" viewBox="0 0 618.5 156.201">
  <g id="Group_86909" data-name="Group 86909" transform="translate(-15193 6413.5)">
    <g id="Group_86910" data-name="Group 86910" transform="translate(-6.199 60)">
      <path id="Path_115370" data-name="Path 115370" d="M14-14.184H11.431c-.756,2.376-2.484,2.556-4.3,2.628v1.98h3.629V0H14Zm10.9,0L17.25,0H19.5l7.647-14.184Zm10.356,0H32.682c-.756,2.376-2.484,2.556-4.3,2.628v1.98h3.629V0h3.24Zm15.423,0H48.105c-.756,2.376-2.484,2.556-4.3,2.628v1.98h3.629V0h3.24Z" transform="translate(15293.566 -6458.816)"/>
      <path id="Path_115399" data-name="Path 115399" d="M3.773,1.287A7.744,7.744,0,0,1,2.651-.924,8.263,8.263,0,0,1,2.288-3.4a8.19,8.19,0,0,1,.363-2.464A7.744,7.744,0,0,1,3.773-8.074l-.825-.55A8.992,8.992,0,0,0,1.782-6.38,8.8,8.8,0,0,0,1.276-3.4,8.75,8.75,0,0,0,1.782-.418,8.809,8.809,0,0,0,2.948,1.826Zm9.7-8.679a8.574,8.574,0,0,1-2.244,2.486,7.2,7.2,0,0,1-.858-2.2v-.8a7.193,7.193,0,0,1,.077-1.122h-1a7.1,7.1,0,0,1,.077,1.122V-.473c0,.242-.066.3-.352.3A9.2,9.2,0,0,1,7.667-.308a2.585,2.585,0,0,1,.22.9c.506.044,1,.066,1.4.066.858,0,1.1-.209,1.1-.946v-3.08c0-.528-.011-.858-.066-2.024a9.229,9.229,0,0,0,1.76,3.1A10.886,10.886,0,0,0,14.344-.363a3.263,3.263,0,0,1,.671-.825A8.723,8.723,0,0,1,11.66-4.213a17.761,17.761,0,0,0,2.288-2.178,2.849,2.849,0,0,1,.341-.363Zm-4.928.924a6.7,6.7,0,0,1-1.023.044H6.358a6.95,6.95,0,0,1-1.1-.055v.957a6.706,6.706,0,0,1,1.056-.066H8.008a7.724,7.724,0,0,1-1.4,2.86A7.759,7.759,0,0,1,4.84-1.045a3.065,3.065,0,0,1,.737.671A9.6,9.6,0,0,0,8.8-5.28a4.68,4.68,0,0,1,.231-.7Zm8.305,8.294A8.809,8.809,0,0,0,18.018-.418,8.7,8.7,0,0,0,18.524-3.4a8.8,8.8,0,0,0-.506-2.981,8.992,8.992,0,0,0-1.166-2.244l-.825.55a7.744,7.744,0,0,1,1.122,2.211A8.138,8.138,0,0,1,17.512-3.4a8.211,8.211,0,0,1-.363,2.475,7.744,7.744,0,0,1-1.122,2.211Z" transform="translate(15346 -6460)"/>
    </g>
    <g id="Group_86911" data-name="Group 86911" transform="translate(-9.699 60)">
      <path id="Path_115371" data-name="Path 115371" d="M14-14.184H11.43c-.756,2.376-2.484,2.556-4.3,2.628v1.98h3.629V0H14Zm10.895,0L17.249,0H19.5l7.646-14.184Zm10.355,0h-2.57c-.756,2.376-2.484,2.556-4.3,2.628v1.98H32.01V0h3.24Zm5.767,9.468C41.341-.936,44.386.4,48.123.4c4.471,0,7.149-1.818,7.149-4.626,0-2.556-2.462-3.2-3.3-3.438.907-.27,2.916-.864,2.916-3.078,0-2.538-2.851-3.834-6.437-3.834-1.555,0-4.255.27-5.789,1.98a4.52,4.52,0,0,0-1.123,2.61H44.9c.13-1.746,1.231-2.3,3.456-2.3.648,0,3.218,0,3.218,1.854,0,1.368-1.728,2.016-3.326,2.016H46.978v1.872h1.49c1.4,0,3.5.45,3.5,2.322,0,2.34-3.391,2.34-3.909,2.34-3.369,0-3.607-1.944-3.693-2.826Z" transform="translate(15381.566 -6458.42)"/>
      <path id="Path_115398" data-name="Path 115398" d="M3.773,1.287A7.744,7.744,0,0,1,2.651-.924,8.263,8.263,0,0,1,2.288-3.4a8.19,8.19,0,0,1,.363-2.464A7.744,7.744,0,0,1,3.773-8.074l-.825-.55A8.992,8.992,0,0,0,1.782-6.38,8.8,8.8,0,0,0,1.276-3.4,8.75,8.75,0,0,0,1.782-.418,8.809,8.809,0,0,0,2.948,1.826ZM9.361-5.291v1.375H6.578a7.3,7.3,0,0,1-1.111-.066v.891a8.1,8.1,0,0,1,1.1-.066H9.361V-.385H6.413A10.736,10.736,0,0,1,5.126-.451V.484a10.155,10.155,0,0,1,1.3-.077h6.93A8.558,8.558,0,0,1,14.6.484V-.451a9.415,9.415,0,0,1-1.232.066H10.208V-3.157h2.981a7.879,7.879,0,0,1,1.122.066v-.891a7.008,7.008,0,0,1-1.111.066H10.208V-5.291h1.2a6.526,6.526,0,0,1,1.034.055v-.7a11.9,11.9,0,0,0,2.167,1.133,3.827,3.827,0,0,1,.484-.847A9.971,9.971,0,0,1,12.2-7.128a7.188,7.188,0,0,1-1.892-1.9h-.99a8.854,8.854,0,0,1-4.6,3.41,2.618,2.618,0,0,1,.506.781,10.851,10.851,0,0,0,2-1.056v.66a7.032,7.032,0,0,1,1.045-.055ZM8.25-6.017c-.352,0-.528-.011-.792-.022A9.156,9.156,0,0,0,9.823-8.294,9.6,9.6,0,0,0,12.265-6.05a8.408,8.408,0,0,1-.847.033ZM6.512-2.552A7.824,7.824,0,0,1,7.447-.627l.77-.308a12.816,12.816,0,0,0-.935-1.947Zm5.819-.308A7.423,7.423,0,0,1,11.3-.836l.737.286a14.54,14.54,0,0,0,1.122-1.98Zm4.521,4.686A8.809,8.809,0,0,0,18.018-.418,8.7,8.7,0,0,0,18.524-3.4a8.8,8.8,0,0,0-.506-2.981,8.992,8.992,0,0,0-1.166-2.244l-.825.55a7.744,7.744,0,0,1,1.122,2.211A8.138,8.138,0,0,1,17.512-3.4a8.211,8.211,0,0,1-.363,2.475,7.744,7.744,0,0,1-1.122,2.211Z" transform="translate(15439 -6460)"/>
    </g>
    <g id="Group_86912" data-name="Group 86912" transform="translate(-15.131 61)">
      <path id="Path_115372" data-name="Path 115372" d="M14-14.184H11.43c-.756,2.376-2.484,2.556-4.3,2.628v1.98h3.629V0H14Zm10.9,0L17.25,0H19.5l7.646-14.184Zm10.355,0h-2.57c-.756,2.376-2.484,2.556-4.3,2.628v1.98h3.629V0h3.24ZM55.21-10.62c-.842-3.834-5.962-3.96-6.588-3.96-2.182,0-7.538.828-7.538,7.614C41.083-1.548,44.626.4,48.535.4,52.553.4,55.4-1.494,55.4-4.572c0-2.592-2.03-4.68-6.242-4.68-3.11,0-4.342,1.008-4.9,1.458.238-2.538,1.037-4.5,4.385-4.5,1.361,0,2.722.414,3.132,1.674ZM48.47-7.2c2.138,0,3.629,1.026,3.629,2.574,0,1.242-.886,2.772-3.672,2.772-2.657,0-3.888-1.368-3.888-2.736C44.539-5.292,44.993-7.2,48.47-7.2Z" transform="translate(15475 -6459.42)"/>
      <path id="Path_115397" data-name="Path 115397" d="M3.773,1.287A7.744,7.744,0,0,1,2.651-.924,8.263,8.263,0,0,1,2.288-3.4a8.19,8.19,0,0,1,.363-2.464A7.744,7.744,0,0,1,3.773-8.074l-.825-.55A8.992,8.992,0,0,0,1.782-6.38,8.8,8.8,0,0,0,1.276-3.4,8.75,8.75,0,0,0,1.782-.418,8.809,8.809,0,0,0,2.948,1.826Zm8.756-4.059V-.5c0,.264-.077.319-.451.319A9.834,9.834,0,0,1,10.538-.3a3.642,3.642,0,0,1,.22.891c.55.033.891.044,1.21.044A2.1,2.1,0,0,0,13.057.473c.231-.154.33-.407.33-.88V-7.579a10.033,10.033,0,0,1,.044-1.166,9.077,9.077,0,0,1-1.177.055H7.986A9.909,9.909,0,0,1,6.8-8.745a17.457,17.457,0,0,1,.055,1.826A17.707,17.707,0,0,1,6.424-2,4.413,4.413,0,0,1,5.148.088a2.9,2.9,0,0,1,.715.7A5.8,5.8,0,0,0,7.1-1.188a7.916,7.916,0,0,0,.418-1.584Zm-4.917-.8c.066-.858.1-1.364.1-1.815h4.818v1.815Zm.11-2.618V-7.887h4.807v1.694Zm9.13,8.019A8.809,8.809,0,0,0,18.018-.418,8.7,8.7,0,0,0,18.524-3.4a8.8,8.8,0,0,0-.506-2.981,8.992,8.992,0,0,0-1.166-2.244l-.825.55a7.744,7.744,0,0,1,1.122,2.211A8.138,8.138,0,0,1,17.512-3.4a8.211,8.211,0,0,1-.363,2.475,7.744,7.744,0,0,1-1.122,2.211Z" transform="translate(15532.404 -6461)"/>
    </g>
    <g id="Group_86913" data-name="Group 86913" transform="translate(-20.565 61)">
      <path id="Path_115373" data-name="Path 115373" d="M14-14.184H11.43c-.756,2.376-2.484,2.556-4.3,2.628v1.98h3.629V0H14Zm10.9,0L17.25,0H19.5l7.646-14.184Zm10.355,0h-2.57c-.756,2.376-2.484,2.556-4.3,2.628v1.98h3.629V0h3.24Zm6.026,10.62C42.142.27,47.239.4,47.866.4,50.047.4,55.4-.432,55.4-7.218c0-5.418-3.542-7.362-7.43-7.362-4.039,0-6.89,1.89-6.89,4.968,0,2.592,2.03,4.68,6.264,4.68,3.11,0,4.32-1.008,4.882-1.458-.238,2.538-1.037,4.5-4.385,4.5-1.361,0-2.7-.414-3.132-1.674Zm6.8-8.766c2.765,0,3.866,1.476,3.866,2.736,0,1.08-.864,2.61-3.888,2.61-2.268,0-3.672-1.08-3.672-2.574C44.388-10.548,45.014-12.33,48.082-12.33Z" transform="translate(15568.434 -6459.42)"/>
      <path id="Path_115396" data-name="Path 115396" d="M3.773,1.287A7.744,7.744,0,0,1,2.651-.924,8.263,8.263,0,0,1,2.288-3.4a8.19,8.19,0,0,1,.363-2.464A7.744,7.744,0,0,1,3.773-8.074l-.825-.55A8.992,8.992,0,0,0,1.782-6.38,8.8,8.8,0,0,0,1.276-3.4,8.75,8.75,0,0,0,1.782-.418,8.809,8.809,0,0,0,2.948,1.826Zm9.658-7.414a11.719,11.719,0,0,1,1.265.066V-7a7.728,7.728,0,0,1-1.265.077H10.263V-8.1a5.907,5.907,0,0,1,.077-1.012H9.317A6,6,0,0,1,9.394-8.1v1.177H6.38A8.4,8.4,0,0,1,5.148-7v.935a11.309,11.309,0,0,1,1.243-.066H9.163A11.748,11.748,0,0,1,7.513-3.7a12.577,12.577,0,0,1-2.75,2.277,2.811,2.811,0,0,1,.627.77A12.666,12.666,0,0,0,7.447-2.376a10.378,10.378,0,0,0,2-2.926c-.033.352-.055.935-.055,1.364V-.484a8.948,8.948,0,0,1-.077,1.3H10.34a8.688,8.688,0,0,1-.077-1.287V-3.949c0-.385-.022-.847-.066-1.364A11.609,11.609,0,0,0,14.41-.682a3.141,3.141,0,0,1,.627-.814A10.581,10.581,0,0,1,12.276-3.63a11.7,11.7,0,0,1-1.793-2.5Zm3.421,7.953A8.809,8.809,0,0,0,18.018-.418,8.7,8.7,0,0,0,18.524-3.4a8.8,8.8,0,0,0-.506-2.981,8.992,8.992,0,0,0-1.166-2.244l-.825.55a7.744,7.744,0,0,1,1.122,2.211A8.138,8.138,0,0,1,17.512-3.4a8.211,8.211,0,0,1-.363,2.475,7.744,7.744,0,0,1-1.122,2.211Z" transform="translate(15625.838 -6461)"/>
    </g>
    <g id="Group_86914" data-name="Group 86914" transform="translate(-24.999 61)">
      <path id="Path_115374" data-name="Path 115374" d="M12-14.184H9.43c-.756,2.376-2.484,2.556-4.3,2.628v1.98H8.761V0H12Zm10.895,0L15.249,0H17.5l7.646-14.184Zm7.149,12.1c1.1-1.1,1.987-1.674,5.27-3.4,3.153-1.656,4.493-2.808,4.493-4.824,0-2.34-2.246-4.266-6.652-4.266-6.868,0-7.192,4.3-7.279,5.544H29.2c.108-1.638.713-3.258,3.953-3.258,1.577,0,3.348.486,3.348,2,0,1.08-.454,1.566-3.629,3.33C27.539-4.014,25.833-3.06,25.595,0H39.958V-2.088ZM41.017-4.716C41.341-.936,44.386.4,48.123.4c4.471,0,7.149-1.818,7.149-4.626,0-2.556-2.462-3.2-3.3-3.438.907-.27,2.916-.864,2.916-3.078,0-2.538-2.851-3.834-6.437-3.834-1.555,0-4.255.27-5.789,1.98a4.52,4.52,0,0,0-1.123,2.61H44.9c.13-1.746,1.231-2.3,3.456-2.3.648,0,3.218,0,3.218,1.854,0,1.368-1.728,2.016-3.326,2.016H46.978v1.872h1.49c1.4,0,3.5.45,3.5,2.322,0,2.34-3.391,2.34-3.909,2.34-3.369,0-3.607-1.944-3.693-2.826Z" transform="translate(15661.867 -6459.42)"/>
      <path id="Path_115395" data-name="Path 115395" d="M3.773,1.287A7.744,7.744,0,0,1,2.651-.924,8.263,8.263,0,0,1,2.288-3.4a8.19,8.19,0,0,1,.363-2.464A7.744,7.744,0,0,1,3.773-8.074l-.825-.55A8.992,8.992,0,0,0,1.782-6.38,8.8,8.8,0,0,0,1.276-3.4,8.75,8.75,0,0,0,1.782-.418,8.809,8.809,0,0,0,2.948,1.826Zm8.756-4.059V-.5c0,.264-.077.319-.451.319A9.834,9.834,0,0,1,10.538-.3a3.642,3.642,0,0,1,.22.891c.55.033.891.044,1.21.044A2.1,2.1,0,0,0,13.057.473c.231-.154.33-.407.33-.88V-7.579a10.033,10.033,0,0,1,.044-1.166,9.077,9.077,0,0,1-1.177.055H7.986A9.909,9.909,0,0,1,6.8-8.745a17.457,17.457,0,0,1,.055,1.826A17.707,17.707,0,0,1,6.424-2,4.413,4.413,0,0,1,5.148.088a2.9,2.9,0,0,1,.715.7A5.8,5.8,0,0,0,7.1-1.188a7.916,7.916,0,0,0,.418-1.584Zm-4.917-.8c.066-.858.1-1.364.1-1.815h4.818v1.815Zm.11-2.618V-7.887h4.807v1.694Zm9.13,8.019A8.809,8.809,0,0,0,18.018-.418,8.7,8.7,0,0,0,18.524-3.4a8.8,8.8,0,0,0-.506-2.981,8.992,8.992,0,0,0-1.166-2.244l-.825.55a7.744,7.744,0,0,1,1.122,2.211A8.138,8.138,0,0,1,17.512-3.4a8.211,8.211,0,0,1-.363,2.475,7.744,7.744,0,0,1-1.122,2.211Z" transform="translate(15719.14 -6461)"/>
    </g>
    <g id="Group_86915" data-name="Group 86915" transform="translate(-27 61.08)">
      <path id="Path_115375" data-name="Path 115375" d="M12-14.184H9.43c-.756,2.376-2.484,2.556-4.3,2.628v1.98H8.761V0H12Zm10.895,0L15.249,0H17.5l7.646-14.184Zm7.149,12.1c1.1-1.1,1.987-1.674,5.27-3.4,3.153-1.656,4.493-2.808,4.493-4.824,0-2.34-2.246-4.266-6.652-4.266-6.868,0-7.192,4.3-7.279,5.544H29.2c.108-1.638.713-3.258,3.953-3.258,1.577,0,3.348.486,3.348,2,0,1.08-.454,1.566-3.629,3.33C27.539-4.014,25.833-3.06,25.595,0H39.958V-2.088ZM52.7-14.184h-3.24l-8.488,8.91v2.088h8.488V0H52.7V-3.186h2.786V-5.274H52.7Zm-8.877,8.91,5.637-5.9v5.9Z" transform="translate(15751.867 -6459.5)"/>
      <path id="Path_115394" data-name="Path 115394" d="M3.773,1.287A7.744,7.744,0,0,1,2.651-.924,8.263,8.263,0,0,1,2.288-3.4a8.19,8.19,0,0,1,.363-2.464A7.744,7.744,0,0,1,3.773-8.074l-.825-.55A8.992,8.992,0,0,0,1.782-6.38,8.8,8.8,0,0,0,1.276-3.4,8.75,8.75,0,0,0,1.782-.418,8.809,8.809,0,0,0,2.948,1.826ZM6.215-3.63a7.206,7.206,0,0,0,.858-1.54A12.736,12.736,0,0,0,7.667-7l-.858-.286a7.436,7.436,0,0,1-.517,1.738,6.181,6.181,0,0,1-.869,1.452Zm6.171-.308a14.593,14.593,0,0,0,1.562-2.431c.2-.4.2-.4.3-.583l-.88-.418a9.6,9.6,0,0,1-1.727,2.959ZM9.372-9.053a8.036,8.036,0,0,1,.055,1.232A15.547,15.547,0,0,1,9.24-5.06,6.606,6.606,0,0,1,8.151-2.365,6.341,6.341,0,0,1,4.939-.077a2.615,2.615,0,0,1,.616.825A7.132,7.132,0,0,0,9.185-2.4a6.241,6.241,0,0,0,.737-2.123,6.776,6.776,0,0,0,1.705,3.41A7.8,7.8,0,0,0,14.278.759a2.94,2.94,0,0,1,.616-.847,6.551,6.551,0,0,1-4.026-3.861,8.853,8.853,0,0,1-.528-3.476,9.179,9.179,0,0,1,.066-1.628Zm7.48,10.879A8.809,8.809,0,0,0,18.018-.418,8.7,8.7,0,0,0,18.524-3.4a8.8,8.8,0,0,0-.506-2.981,8.992,8.992,0,0,0-1.166-2.244l-.825.55a7.744,7.744,0,0,1,1.122,2.211A8.138,8.138,0,0,1,17.512-3.4a8.211,8.211,0,0,1-.363,2.475,7.744,7.744,0,0,1-1.122,2.211Z" transform="translate(15809.355 -6461.5)"/>
    </g>
    <g id="Group_86909-2" data-name="Group 86909" transform="translate(30.8 41)">
      <path id="Path_115400" data-name="Path 115400" d="M3.773,1.287A7.744,7.744,0,0,1,2.651-.924,8.263,8.263,0,0,1,2.288-3.4a8.19,8.19,0,0,1,.363-2.464A7.744,7.744,0,0,1,3.773-8.074l-.825-.55A8.992,8.992,0,0,0,1.782-6.38,8.8,8.8,0,0,0,1.276-3.4,8.75,8.75,0,0,0,1.782-.418,8.809,8.809,0,0,0,2.948,1.826ZM12.2-2.772V-.5c0,.264-.077.319-.451.319A9.834,9.834,0,0,1,10.208-.3a3.642,3.642,0,0,1,.22.891c.55.033.891.044,1.21.044A2.1,2.1,0,0,0,12.727.473c.231-.154.33-.407.33-.88V-7.579A10.033,10.033,0,0,1,13.1-8.745a9.077,9.077,0,0,1-1.177.055H7.656a9.909,9.909,0,0,1-1.188-.055,17.457,17.457,0,0,1,.055,1.826A17.707,17.707,0,0,1,6.094-2,4.413,4.413,0,0,1,4.818.088a2.9,2.9,0,0,1,.715.7,5.8,5.8,0,0,0,1.232-1.98,7.916,7.916,0,0,0,.418-1.584Zm-4.917-.8c.066-.858.1-1.364.1-1.815H12.2v1.815Zm.11-2.618V-7.887H12.2v1.694Zm8.8,8.019A8.809,8.809,0,0,0,17.358-.418,8.7,8.7,0,0,0,17.864-3.4a8.8,8.8,0,0,0-.506-2.981,8.992,8.992,0,0,0-1.166-2.244l-.825.55a7.744,7.744,0,0,1,1.122,2.211A8.138,8.138,0,0,1,16.852-3.4a8.211,8.211,0,0,1-.363,2.475,7.744,7.744,0,0,1-1.122,2.211Z" transform="translate(15229.6 -6441)"/>
      <path id="Path_115377" data-name="Path 115377" d="M9.819-14.194h-2.5c-.736,2.313-2.418,2.488-4.185,2.559v1.928H6.665V-.386H9.819ZM16.765-2.418C17.838-3.487,18.7-4.048,21.9-5.73c3.07-1.612,4.374-2.734,4.374-4.7,0-2.278-2.187-4.153-6.477-4.153-6.687,0-7,4.188-7.086,5.4h3.238c.105-1.595.694-3.172,3.848-3.172,1.535,0,3.259.473,3.259,1.945,0,1.051-.442,1.525-3.533,3.242-5.194,2.874-6.855,3.8-7.086,6.782H26.417V-2.418ZM34.387-14.194,26.943-.386H29.13l7.444-13.809Zm5.96,11.776c1.072-1.069,1.935-1.63,5.131-3.312,3.07-1.612,4.374-2.734,4.374-4.7,0-2.278-2.187-4.153-6.477-4.153-6.687,0-7,4.188-7.086,5.4h3.238c.105-1.595.694-3.172,3.848-3.172,1.535,0,3.259.473,3.259,1.945,0,1.051-.442,1.525-3.533,3.242-5.194,2.874-6.855,3.8-7.086,6.782H50V-2.418Zm24.5-8.306c-.82-3.733-5.8-3.855-6.414-3.855-2.124,0-7.339.806-7.339,7.413C51.092-1.893,54.541,0,58.347,0c3.911,0,6.687-1.84,6.687-4.837,0-2.523-1.977-4.556-6.077-4.556-3.028,0-4.227.981-4.773,1.419.231-2.471,1.009-4.381,4.269-4.381,1.325,0,2.65.4,3.049,1.63ZM58.284-7.4c2.082,0,3.533,1,3.533,2.506,0,1.209-.862,2.7-3.575,2.7-2.586,0-3.785-1.332-3.785-2.664C54.457-5.538,54.9-7.4,58.284-7.4Z" transform="translate(15163.566 -6439.42)"/>
    </g>
    <path id="Path_115387" data-name="Path 115387" d="M-17.682-2.016H-20.2v-.658h2.52ZM-20.2-4.55h2.52v.6H-20.2Zm-3.892-2.786v-.672h2.2v.672Zm6.16-.672v.672H-20.2v-.672Zm3.4,4.06h-1.456V-5.67H-20.2v-.616h3.976V-9.058H-20.2v-.574h5.348v-1.316H-20.2v-.91H-21.9v.91h-5.222v1.316H-21.9v.574H-25.69v2.772H-21.9v.616H-26.04v1.12H-21.9v.6H-27.44v1.274H-21.9v.658h-4.256v1.2H-21.9v.434c0,.252-.084.336-.35.35-.224,0-1.05,0-1.722-.028a5.132,5.132,0,0,1,.546,1.316,7.373,7.373,0,0,0,2.478-.238c.546-.238.742-.574.742-1.4V-.812h2.52v.574h1.694V-2.674h1.456Zm3.542,1.036v-.91h2.338v.91Zm2.338-3.01v.868H-10.99v-.868Zm1.61-1.4h-5.53V1.134h1.582V-1.694h2.338V-.448c0,.168-.056.224-.224.224s-.742.014-1.26-.014A5.757,5.757,0,0,1-9.6,1.176,4.39,4.39,0,0,0-7.658.91c.476-.238.616-.63.616-1.344Zm3.99,6.678c0,.2-.07.252-.294.252s-.966.014-1.68-.014a5.838,5.838,0,0,1,.6,1.568,5.494,5.494,0,0,0,2.3-.28c.56-.266.714-.672.714-1.5V-7.574H-3.052Zm-1.26-6.538H-5.838V-1.47h1.526Zm.8-2.6c.35-.49.728-1.036,1.064-1.582L-4.256-11.9A15.7,15.7,0,0,1-5.4-9.786H-9.3l.77-.266a7.736,7.736,0,0,0-1.3-1.82l-1.582.546a9.389,9.389,0,0,1,1.05,1.54h-2.982v1.5H-.672v-1.5Zm8.638-1.638H1.134v1.26h3.99ZM5.53-9.548H.462v1.316H5.53ZM5.166-7.6H1.092v1.274H5.166ZM1.092-4.438H5.166V-5.684H1.092Zm2.7,3.612H2.422v-1.61H3.794ZM7.588-7.84H8.764v.9H7.588Zm0-2.184H8.764v.91H7.588Zm3.85.91H10.206v-.91h1.232Zm0,2.17H10.206v-.9h1.232Zm1.848,3.6v-1.47H10.3v-.812h2.674v-5.7H6.1v5.7H8.68v.812H5.7v1.47h2.3A8.106,8.106,0,0,1,5.18-.644V-3.752H1.05V1.022H2.422V.476H5.18V-.532A7.122,7.122,0,0,1,6.23.686,8.843,8.843,0,0,0,8.68-1.848V1.2H10.3V-1.988A10.918,10.918,0,0,0,12.6.63,6.021,6.021,0,0,1,13.72-.63a9.551,9.551,0,0,1-2.744-2.716Zm12.04-4.242H22.778v-.644h2.548Zm0,1.722H22.778V-6.51h2.548Zm0,1.736H22.778V-4.8h2.548ZM21.294-9.352V-3h5.572V-9.352h-2.38l.336-.756h2.45V-11.27H20.86v1.162h2.464c-.084.252-.154.518-.238.756ZM24.388-2.38a11.237,11.237,0,0,1,2,1.862l1.19-.7a10.437,10.437,0,0,0-2.044-1.764ZM22.428-2.9a6.392,6.392,0,0,1-2.156,1.512,10.027,10.027,0,0,1,1.064.966,8.2,8.2,0,0,0,2.45-2.044ZM18.76-9.548h-2v-.658h2Zm0,1.736h-2V-8.5h2Zm1.54-3.5H15.274v4.62H20.3ZM18.634-2.338H20.65v-1.2H18.634V-4.69h2.282v-1.2H14.644v1.2h2.59V-1.5A3.769,3.769,0,0,1,16.52-2.6c.042-.5.07-1.008.084-1.526h-1.33c-.042,1.68-.182,3.332-.966,4.3A4.668,4.668,0,0,1,15.274,1.3a5.183,5.183,0,0,0,.98-2.156C17.374.672,19.11.938,21.742.938h5.39a4.515,4.515,0,0,1,.532-1.372c-1.148.056-4.97.056-5.922.056a11.144,11.144,0,0,1-3.108-.308ZM-.658,16.918v-1.5H-4.452V14.076H-1.12v-1.47H-2.87c.406-.532.882-1.232,1.33-1.946l-1.708-.518A13.9,13.9,0,0,1-4.41,12.354l.714.252H-6.818l.742-.322a7.244,7.244,0,0,0-1.218-2.128l-1.414.588a9.22,9.22,0,0,1,1.036,1.862h-1.4v1.47h2.954V15.42h-3.43v1.5H-6.3c-.308,1.008-1.12,2.058-3.248,2.842a5.236,5.236,0,0,1,1.106,1.2,6.567,6.567,0,0,0,3.4-2.856,5.731,5.731,0,0,0,3.374,2.884,6.108,6.108,0,0,1,1.05-1.4,4.892,4.892,0,0,1-3.4-2.674Zm-9.1-4.34A11.211,11.211,0,0,0-12.1,10.464l-1.232,1.008a10.594,10.594,0,0,1,2.254,2.212Zm-.35,3h-3.234V17.1h1.61v2.954a18.386,18.386,0,0,1-1.918,1.288l.812,1.736c.77-.588,1.386-1.134,2-1.68a4.658,4.658,0,0,0,3.78,1.554c1.666.07,4.48.042,6.16-.042a8.719,8.719,0,0,1,.518-1.68c-1.862.14-5.012.182-6.65.112-1.456-.056-2.506-.434-3.08-1.372ZM3.738,10.212A14.655,14.655,0,0,1,.392,15.56a13.6,13.6,0,0,1,.98,1.736c.322-.336.658-.714.98-1.12V23.19H4.06V13.572a25.715,25.715,0,0,0,1.33-2.828Zm9.786,2.94h-1.54V10.3H10.248v2.856H4.914v1.68h5.334v6.356c0,.308-.126.42-.476.42-.322.014-1.554.014-2.632-.028a6.631,6.631,0,0,1,.644,1.652,9.952,9.952,0,0,0,3.276-.28c.672-.252.924-.686.924-1.764V14.832h1.54ZM8.946,19.074c-.42-.84-1.288-2.212-1.918-3.234l-1.484.686a32.849,32.849,0,0,1,1.806,3.36Z" transform="translate(15239.501 -6336)"/>
    <path id="Path_115388" data-name="Path 115388" d="M-10.556-6.818a16.128,16.128,0,0,0,3.5-3.472A16.872,16.872,0,0,0-3.444-6.818Zm4.382,4.536h3.92V-3.738h-3.92v-1.61H-2.9V-6.44A17.749,17.749,0,0,0-1.386-5.5,8.112,8.112,0,0,1-.28-7a14.8,14.8,0,0,1-5.992-4.9H-7.994a15.278,15.278,0,0,1-5.684,5.068,6.151,6.151,0,0,1,1.05,1.344,17.913,17.913,0,0,0,1.554-.966v1.106H-7.91v1.61h-3.878v1.456H-7.91V-.616h-5v1.5H-.994v-1.5h-5.18Zm9.3-9.52a14.744,14.744,0,0,1-2.9,5.236A9.979,9.979,0,0,1,1.148-4.83c.28-.336.574-.714.854-1.092V1.19H3.584V-8.624a24.518,24.518,0,0,0,1.12-2.7ZM9.548-2.618V-6.272A20.477,20.477,0,0,0,11.27-2.618Zm-3.332,0A18.192,18.192,0,0,0,7.924-6.174v3.556Zm7.2-5.166V-9.366H9.548v-2.422H7.924v2.422H4.382v1.582H7.14A14.316,14.316,0,0,1,3.654-2.1,6.786,6.786,0,0,1,4.844-.84,10.365,10.365,0,0,0,6.09-2.422v1.288H7.924V1.12H9.548V-1.134h1.876V-2.366a12.834,12.834,0,0,0,1.12,1.484A6.815,6.815,0,0,1,13.79-2.17a15.125,15.125,0,0,1-3.416-5.614ZM-1.946,12.536a.81.81,0,0,1-.812-.8.813.813,0,0,1,.812-.812.81.81,0,0,1,.8.812A.807.807,0,0,1-1.946,12.536Zm-8.932-.476a15.588,15.588,0,0,1-1.666-.112v1.974c.364-.028,1.022-.056,1.666-.056h6.524a8.99,8.99,0,0,1-1.652,3.948,9.2,9.2,0,0,1-5.488,3.29l1.526,1.666A11.08,11.08,0,0,0-4.34,18.906a14.133,14.133,0,0,0,2.1-5.1l.112-.42a.8.8,0,0,0,.182.014A1.679,1.679,0,0,0-.28,11.738a1.682,1.682,0,0,0-1.666-1.68,1.685,1.685,0,0,0-1.68,1.68A1.551,1.551,0,0,0-3.6,12a6.2,6.2,0,0,1-.8.056ZM10.43,13.88v5.81H3.668V13.88Zm1.876-.448c0-.42,0-.938.028-1.358-.5.028-1.036.028-1.386.028h-7.7c-.378,0-.91-.014-1.484-.028.028.392.028.966.028,1.358v6.846c0,.672-.028,1.89-.042,1.96H3.682l-.014-.77h6.748l-.014.77h1.932c0-.056-.028-1.4-.028-1.946ZM-8.778,34.452a20.5,20.5,0,0,0-1.106-1.918l-1.106.448a16.234,16.234,0,0,1,1.022,1.806l-.1-.056a4.41,4.41,0,0,1-1.218.168H-14.1l.042-.07c.168-.308.532-.938.868-1.428l-2.058-.672a6.121,6.121,0,0,1-.63,1.47,11.979,11.979,0,0,1-4.368,4.494l1.568,1.176a15.37,15.37,0,0,0,3.528-3.388H-11.2a9.9,9.9,0,0,1-1.988,3.808,11.2,11.2,0,0,1-5.642,3.472l1.652,1.484a13.039,13.039,0,0,0,5.642-3.962,14.129,14.129,0,0,0,2.45-4.676,5.932,5.932,0,0,1,.462-.994l-1.19-.728Zm-.56-2.1a13.324,13.324,0,0,1,1.12,1.932l1.12-.476a19.99,19.99,0,0,0-1.134-1.9Zm13.958,4.2a2.953,2.953,0,0,1-1.022.14h-6.93c-.434,0-1.036-.028-1.624-.084v1.82c.588-.056,1.288-.07,1.624-.07H3.43A6.074,6.074,0,0,1,1.988,40.78,9.435,9.435,0,0,1-2.87,43.23l1.4,1.582a10.483,10.483,0,0,0,5-3.024A10.061,10.061,0,0,0,5.6,37.91a5.187,5.187,0,0,1,.266-.588Zm-8.288-1.484c.406-.028,1.008-.042,1.456-.042H3.15c.5,0,1.162.014,1.54.042V33.262a13.2,13.2,0,0,1-1.512.07h-5.39a11.8,11.8,0,0,1-1.456-.07Zm23.8,8.722a43.058,43.058,0,0,0-3.066-5.824l-1.75.714a16.922,16.922,0,0,1,1.47,2.562c-1.414.168-3.4.392-5.11.56.7-1.876,1.834-5.432,2.282-6.8a15.928,15.928,0,0,1,.6-1.554L12.334,33A10.388,10.388,0,0,1,12,34.606c-.406,1.456-1.61,5.292-2.422,7.364l-.378.014C8.736,42,8.134,42,7.658,42l.322,2.044c.448-.056.966-.126,1.316-.168,1.764-.182,6.006-.63,8.288-.9.252.6.476,1.176.658,1.652Z" transform="translate(15326.5 -6347)"/>
    <path id="Path_115389" data-name="Path 115389" d="M-24.962-11.83a14.808,14.808,0,0,1-2.856,5.292,11.76,11.76,0,0,1,.784,1.806,14.364,14.364,0,0,0,.938-1.2V1.232h1.582V-8.694a26.616,26.616,0,0,0,1.092-2.66Zm6.594,8.876H-19.8v-1.47h1.428Zm1.6-3.822v-1.2h-1.694V-9.408h-1.288V-7.98h-1.61v1.2h1.61v1.2H-21V-1.82h3.878V-5.572h-1.344v-1.2ZM-21.714-1.05V-9.7h5.264V-1.05Zm-1.512-10.094V1.2h1.512V.392h5.264v.686h1.582V-11.144Zm15.064-.392c-.1,1.848.1,8.2-5.488,11.3a5.834,5.834,0,0,1,1.4,1.33A11.955,11.955,0,0,0-7.07-5.936,11.1,11.1,0,0,0-1.554,1.092,5.472,5.472,0,0,1-.266-.322C-5.488-2.772-6.188-8.806-6.3-10.738c.014-.294.028-.574.042-.8Zm13.286.112H1.134v1.26h3.99ZM5.53-9.548H.462v1.316H5.53ZM5.166-7.6H1.092v1.274H5.166ZM1.092-4.438H5.166V-5.684H1.092Zm2.7,3.612H2.422v-1.61H3.794ZM7.588-7.84H8.764v.9H7.588Zm0-2.184H8.764v.91H7.588Zm3.85.91H10.206v-.91h1.232Zm0,2.17H10.206v-.9h1.232Zm1.848,3.6v-1.47H10.3v-.812h2.674v-5.7H6.1v5.7H8.68v.812H5.7v1.47h2.3A8.106,8.106,0,0,1,5.18-.644V-3.752H1.05V1.022H2.422V.476H5.18V-.532A7.122,7.122,0,0,1,6.23.686,8.843,8.843,0,0,0,8.68-1.848V1.2H10.3V-1.988A10.918,10.918,0,0,0,12.6.63,6.021,6.021,0,0,1,13.72-.63a9.551,9.551,0,0,1-2.744-2.716Zm12.04-4.242H22.778v-.644h2.548Zm0,1.722H22.778V-6.51h2.548Zm0,1.736H22.778V-4.8h2.548ZM21.294-9.352V-3h5.572V-9.352h-2.38l.336-.756h2.45V-11.27H20.86v1.162h2.464c-.084.252-.154.518-.238.756ZM24.388-2.38a11.237,11.237,0,0,1,2,1.862l1.19-.7a10.437,10.437,0,0,0-2.044-1.764ZM22.428-2.9a6.392,6.392,0,0,1-2.156,1.512,10.027,10.027,0,0,1,1.064.966,8.2,8.2,0,0,0,2.45-2.044ZM18.76-9.548h-2v-.658h2Zm0,1.736h-2V-8.5h2Zm1.54-3.5H15.274v4.62H20.3ZM18.634-2.338H20.65v-1.2H18.634V-4.69h2.282v-1.2H14.644v1.2h2.59V-1.5A3.769,3.769,0,0,1,16.52-2.6c.042-.5.07-1.008.084-1.526h-1.33c-.042,1.68-.182,3.332-.966,4.3A4.668,4.668,0,0,1,15.274,1.3a5.183,5.183,0,0,0,.98-2.156C17.374.672,19.11.938,21.742.938h5.39a4.515,4.515,0,0,1,.532-1.372c-1.148.056-4.97.056-5.922.056a11.144,11.144,0,0,1-3.108-.308ZM-13.2,18.024h-1.722V16.442H-13.2Zm3.01-1.582v-.448a9.756,9.756,0,0,0,1.722,1.05A6.35,6.35,0,0,1-7.322,15.6a8.591,8.591,0,0,1-2.17-1.274,22.981,22.981,0,0,0,1.848-1.512l-1.218-.868A13.561,13.561,0,0,1-10.43,13.46c-.224-.238-.434-.476-.63-.728.574-.42,1.218-.966,1.792-1.484l-1.26-.9a13.22,13.22,0,0,1-1.246,1.3,9.725,9.725,0,0,1-.7-1.5l-1.5.42a12.808,12.808,0,0,0,2.548,4.284h-5.068a9.6,9.6,0,0,0,2.282-3.724l-1.12-.518-.294.056h-3.654V12.1h2.856a7.831,7.831,0,0,1-.882,1.26c-.392-.336-.924-.742-1.344-1.036l-1.05.868a14.942,14.942,0,0,1,1.386,1.19,8.662,8.662,0,0,1-2.324,1.442,7.239,7.239,0,0,1,1.008,1.26,11.443,11.443,0,0,0,1.862-1.106v.462h1.176v1.582h-3V19.55h2.772c-.35.938-1.19,1.806-3.122,2.394a6.346,6.346,0,0,1,1.064,1.33c2.59-.868,3.514-2.254,3.822-3.724H-13.2v1.526c0,1.554.378,2.044,1.89,2.044h1.526c1.232,0,1.666-.56,1.834-2.408a4.146,4.146,0,0,1-1.5-.658c-.056,1.316-.126,1.6-.49,1.6h-1.078c-.392,0-.448-.084-.448-.588V19.55h2.982V18.024h-2.982V16.442Zm14.952.476a18.392,18.392,0,0,1-2.2,1.68,8.787,8.787,0,0,1-.84-1.876H6.174V15.308H.8v-.784H5.18v-1.33H.8V12.48H5.726V11.066H.8v-.924H-.868v.924H-5.684V12.48H-.868v.714H-5.026v1.33H-.868v.784H-6.2v1.414h4.256A15.9,15.9,0,0,1-6.72,18.864a8.62,8.62,0,0,1,1.064,1.344,16.047,16.047,0,0,0,2.324-.924v2c-.7.14-1.358.266-1.9.364l.49,1.54c1.736-.378,4.088-.868,6.286-1.386l-.154-1.512c-1.008.224-2.058.448-3.052.658v-2.6A12.706,12.706,0,0,0,.168,16.932c.924,3.108,2.464,5.236,5.418,6.244a6.716,6.716,0,0,1,1.078-1.484A6.846,6.846,0,0,1,3.374,19.7a29.193,29.193,0,0,0,2.772-1.75Zm7.448-.238A1.792,1.792,0,1,0,14,14.888,1.8,1.8,0,0,0,12.208,16.68ZM-16.786,33.794a4.693,4.693,0,0,1-1.106.112H-24.36c-.462,0-1.26-.07-1.68-.112v1.974c.364-.028,1.036-.056,1.666-.056h6.524a8.862,8.862,0,0,1-1.638,3.948,9.235,9.235,0,0,1-5.488,3.276l1.526,1.68a11.2,11.2,0,0,0,5.628-3.864,14.388,14.388,0,0,0,2.1-5.1,5.7,5.7,0,0,1,.308-.98Zm12.642,1.428a13.936,13.936,0,0,1-3.6,2.912,18.7,18.7,0,0,1-4.942,1.89l.938,1.624A26.226,26.226,0,0,0-7.8,40.122v3.6a14.634,14.634,0,0,1-.07,1.512H-5.8a7.8,7.8,0,0,1-.1-1.512V39.058a17.47,17.47,0,0,0,3.15-2.534Zm5.292,4.494c.518-.042,1.456-.07,2.254-.07H10.92c.588,0,1.3.056,1.638.07v-2.2c-.364.028-.994.084-1.638.084H3.4c-.728,0-1.75-.042-2.254-.084Zm25.41-4.83a18.541,18.541,0,0,0-1.316-2.072l-1.162.546a13.108,13.108,0,0,1,1.3,2.1Zm-1.876.812c-.322-.63-.882-1.526-1.274-2.114l-1.176.5a11.407,11.407,0,0,1,1.232,2.156Zm-4.942-.882a15.225,15.225,0,0,1,.126-1.694H17.682a9.879,9.879,0,0,1,.14,1.694v8.05a15.16,15.16,0,0,1-.14,1.946h2.2c-.07-.574-.14-1.554-.14-1.946V38.9a37.506,37.506,0,0,1,5.068,2.086l.784-1.946A48.705,48.705,0,0,0,19.74,36.86ZM-10.08,54.828l-1.106.462a17.711,17.711,0,0,1,1.092,1.946l1.12-.49C-9.24,56.228-9.73,55.346-10.08,54.828Zm1.652-.63-1.106.462a14.749,14.749,0,0,1,1.12,1.932l1.12-.49A21.9,21.9,0,0,0-8.428,54.2Zm-9.884,7.448A16.868,16.868,0,0,1-20.5,65.538l1.96.826a19.249,19.249,0,0,0,2.072-4,35.007,35.007,0,0,0,1.19-4.214c.056-.308.21-.994.336-1.4l-2.044-.42A20.173,20.173,0,0,1-18.312,61.646Zm6.916-.294A43.258,43.258,0,0,1-9.94,66.294l2.072-.672C-8.26,64.236-9,62-9.506,60.736c-.518-1.358-1.484-3.514-2.058-4.592l-1.862.6A39.218,39.218,0,0,1-11.4,61.352ZM.07,57.67l-1.666.546A23.319,23.319,0,0,1-.462,61.324l1.68-.588C1.022,60.092.336,58.272.07,57.67Zm3.192.392a9.435,9.435,0,0,1-1.778,4.8A9.42,9.42,0,0,1-3.164,65.79l1.47,1.5A10.933,10.933,0,0,0,3,63.816a11.289,11.289,0,0,0,1.9-4.1c.084-.28.168-.574.336-1.022Zm-6.44.35-1.68.6a28.278,28.278,0,0,1,1.274,3.234l1.708-.644C-2.156,60.82-2.828,59.126-3.178,58.412Zm21.336-2a4.489,4.489,0,0,1-1.218.168H14.126l.042-.07c.168-.308.518-.938.854-1.428l-2.044-.672a6.735,6.735,0,0,1-.63,1.47A12.327,12.327,0,0,1,7.98,60.386l1.568,1.162a15.958,15.958,0,0,0,3.528-3.388H17.01a9.952,9.952,0,0,1-1.988,3.822A11.157,11.157,0,0,1,9.38,65.44l1.652,1.484a13.19,13.19,0,0,0,5.656-3.948A14.607,14.607,0,0,0,19.124,58.3a5.605,5.605,0,0,1,.462-1.008Z" transform="translate(15415 -6358)"/>
    <path id="Path_115390" data-name="Path 115390" d="M-16.142-11.424h-3.71v1.26h3.71Zm.448,1.932h-4.844v1.316h4.844Zm-.406,2h-3.836v1.246H-16.1Zm-3.836,3.206H-16.1v-1.26h-3.836Zm2.492,2.03v1.6h-1.162v-1.6Zm1.386-1.316h-3.92V1.2h1.372V.658h2.548Zm5.138,1.428V-2.8h1.3v.658ZM-13.608-2.8h1.316v.658h-1.316Zm1.316-1.68v.658h-1.316V-4.48Zm2.674,0v.658h-1.3V-4.48Zm-2.758-3.514h1.624v.6h-1.624Zm0-1.708h1.624v.56h-1.624Zm4.97,7.56h-.7V-5.628H-10.92v-.5h3.486v-1.26h-1.82v-.6H-7.98V-9.142H-9.254V-9.7h1.568v-1.176H-9.254v-.98h-1.5v.98h-1.624v-.98H-13.86v.98h-1.456V-9.7h1.456v.56h-1.2v1.148h1.2v.6h-1.82v1.26h3.388v.5h-2.716v3.486h-.7V-.826h.7V1.218h1.4V-.826h3.99v.56c0,.168-.056.21-.238.224s-.784,0-1.33-.028a4.688,4.688,0,0,1,.378,1.288A5.556,5.556,0,0,0-8.722.994c.476-.21.616-.546.616-1.246V-.826h.7ZM3.962-2.66a5.329,5.329,0,0,1-1.022.9,5.319,5.319,0,0,1-.434-.9ZM-1.9-3.878v-.728c.7-.1,1.358-.21,1.932-.336l-.91-.938H3.262l-.868.91A9.163,9.163,0,0,1,4.438-3.878H2.128A10.584,10.584,0,0,1,1.89-5.7H.294a14.7,14.7,0,0,0,.224,1.82ZM4.214-2.66h2.1V-3.878H4.942L5.684-4.7A9.9,9.9,0,0,0,3.472-5.88H6.244V-7.14H.826v-.518h4.06V-8.806H.826v-.5h4.8v-1.232H3.206c.224-.28.476-.63.728-.994l-1.848-.35a8.088,8.088,0,0,1-.616,1.344H-1.344a4.535,4.535,0,0,0-.854-1.3l-1.456.462a5.7,5.7,0,0,1,.532.84H-5.6V-9.31H-.882v.5H-4.858v1.148H-.882v.518H-6.23v1.26h5.138a34.671,34.671,0,0,1-4.928.574,4.685,4.685,0,0,1,.35.994c.686-.014,1.442-.056,2.184-.126v.56H-6.258V-2.66h2.772v.616c-1.064.056-2.044.1-2.814.126l.126,1.274C-5.39-.7-4.466-.756-3.486-.84v.56c0,.182-.07.238-.28.238A15.344,15.344,0,0,1-5.348-.056a5.4,5.4,0,0,1,.476,1.274,7.263,7.263,0,0,0,2.3-.21C-2.058.826-1.9.5-1.9-.238V-.952L.182-1.12.2-2.24l-2.1.112V-2.66H.826a7.84,7.84,0,0,0,.7,1.666,15.321,15.321,0,0,1-2.814.882A7.779,7.779,0,0,1-.476,1.2,15.83,15.83,0,0,0,2.366.126,3.288,3.288,0,0,0,4.76,1.2C5.866,1.2,6.328.868,6.552-.7a3.416,3.416,0,0,1-1.218-.644c-.07.784-.154,1.036-.49,1.036a1.681,1.681,0,0,1-1.05-.406A7.438,7.438,0,0,0,5.432-2.24Zm7.994-2.66A1.8,1.8,0,0,0,14-3.528,1.8,1.8,0,0,0,15.792-5.32,1.8,1.8,0,0,0,14-7.112,1.8,1.8,0,0,0,12.208-5.32ZM-15.568,12.452a20.5,20.5,0,0,0-1.106-1.918l-1.106.448a16.235,16.235,0,0,1,1.022,1.806l-.1-.056a4.41,4.41,0,0,1-1.218.168h-2.814l.042-.07c.168-.308.532-.938.868-1.428l-2.058-.672a6.121,6.121,0,0,1-.63,1.47,11.979,11.979,0,0,1-4.368,4.494l1.568,1.176a15.37,15.37,0,0,0,3.528-3.388h3.948a9.9,9.9,0,0,1-1.988,3.808,11.2,11.2,0,0,1-5.642,3.472l1.652,1.484a13.039,13.039,0,0,0,5.642-3.962,14.129,14.129,0,0,0,2.45-4.676,5.932,5.932,0,0,1,.462-.994l-1.19-.728Zm-.56-2.1a13.324,13.324,0,0,1,1.12,1.932l1.12-.476a19.989,19.989,0,0,0-1.134-1.9Zm4.816,12.264A8.109,8.109,0,0,0-8.82,18.6a30.89,30.89,0,0,0,.42-6.02,8.929,8.929,0,0,1,.1-1.26H-10.36a5.11,5.11,0,0,1,.126,1.274,24.125,24.125,0,0,1-.406,5.544,6.6,6.6,0,0,1-2.38,3.346Zm5.936.042a3.569,3.569,0,0,1,.616-.42A15.415,15.415,0,0,0-.014,18.416l-1.078-1.54A8.865,8.865,0,0,1-4.55,19.83V12.508a7.109,7.109,0,0,1,.1-1.218H-6.538a6.207,6.207,0,0,1,.112,1.2v8.162a5.327,5.327,0,0,1-.112,1.036Zm7.084-4.942c.518-.042,1.456-.07,2.254-.07H11.48c.588,0,1.3.056,1.638.07v-2.2c-.364.028-.994.084-1.638.084H3.962c-.728,0-1.75-.042-2.254-.084Zm23.926-5.18a.805.805,0,1,1,.8-.8A.81.81,0,0,1,25.634,12.536ZM16.7,12.06a15.588,15.588,0,0,1-1.666-.112v1.974c.364-.028,1.022-.056,1.666-.056h6.524a8.99,8.99,0,0,1-1.652,3.948,9.2,9.2,0,0,1-5.488,3.29l1.526,1.666a11.08,11.08,0,0,0,5.628-3.864,14.133,14.133,0,0,0,2.1-5.1l.112-.42a.8.8,0,0,0,.182.014,1.673,1.673,0,1,0-1.68-1.666,1.551,1.551,0,0,0,.028.266,6.2,6.2,0,0,1-.8.056ZM-9.73,33.766a7.584,7.584,0,0,1-1.33.1h-6.692c-.644,0-1.26-.028-1.708-.056a11.042,11.042,0,0,1,.07,1.176v2.954c0,.364-.028.714-.07,1.148H-17.4a9.7,9.7,0,0,1-.056-1.148V35.6h6.72a10.055,10.055,0,0,1-1.274,4.2,8.671,8.671,0,0,1-5.152,3.374l1.568,1.6a10.2,10.2,0,0,0,5.306-4.018,13.641,13.641,0,0,0,1.666-5.194,8.519,8.519,0,0,1,.252-.938Zm4.018,5.95c.518-.042,1.456-.07,2.254-.07H4.06c.588,0,1.3.056,1.638.07v-2.2c-.364.028-.994.084-1.638.084H-3.458c-.728,0-1.75-.042-2.254-.084Zm23.87-5.306a4.489,4.489,0,0,1-1.218.168H14.126l.042-.07c.168-.308.518-.938.854-1.428l-2.044-.672a6.735,6.735,0,0,1-.63,1.47A12.327,12.327,0,0,1,7.98,38.386l1.568,1.162a15.958,15.958,0,0,0,3.528-3.388H17.01a9.952,9.952,0,0,1-1.988,3.822A11.157,11.157,0,0,1,9.38,43.44l1.652,1.484a13.19,13.19,0,0,0,5.656-3.948A14.607,14.607,0,0,0,19.124,36.3a5.605,5.605,0,0,1,.462-1.008Z" transform="translate(15503 -6347)"/>
    <path id="Path_115391" data-name="Path 115391" d="M-15.568-9.548a20.5,20.5,0,0,0-1.106-1.918l-1.106.448a16.235,16.235,0,0,1,1.022,1.806l-.1-.056a4.41,4.41,0,0,1-1.218.168h-2.814l.042-.07c.168-.308.532-.938.868-1.428l-2.058-.672a6.121,6.121,0,0,1-.63,1.47,11.979,11.979,0,0,1-4.368,4.494l1.568,1.176a15.37,15.37,0,0,0,3.528-3.388h3.948A9.9,9.9,0,0,1-19.978-3.71,11.2,11.2,0,0,1-25.62-.238l1.652,1.484a13.039,13.039,0,0,0,5.642-3.962,14.129,14.129,0,0,0,2.45-4.676,5.932,5.932,0,0,1,.462-.994l-1.19-.728Zm-.56-2.1a13.324,13.324,0,0,1,1.12,1.932l1.12-.476a19.989,19.989,0,0,0-1.134-1.9ZM-11.312.616A8.109,8.109,0,0,0-8.82-3.4a30.89,30.89,0,0,0,.42-6.02,8.929,8.929,0,0,1,.1-1.26H-10.36a5.11,5.11,0,0,1,.126,1.274,24.125,24.125,0,0,1-.406,5.544A6.6,6.6,0,0,1-13.02-.518Zm5.936.042A3.569,3.569,0,0,1-4.76.238,15.415,15.415,0,0,0-.014-3.584l-1.078-1.54A8.865,8.865,0,0,1-4.55-2.17V-9.492a7.109,7.109,0,0,1,.1-1.218H-6.538a6.207,6.207,0,0,1,.112,1.2v8.162A5.327,5.327,0,0,1-6.538-.308ZM1.708-4.284c.518-.042,1.456-.07,2.254-.07H11.48c.588,0,1.3.056,1.638.07v-2.2c-.364.028-.994.084-1.638.084H3.962c-.728,0-1.75-.042-2.254-.084Zm23.926-5.18a.81.81,0,0,1-.812-.8.813.813,0,0,1,.812-.812.81.81,0,0,1,.8.812A.807.807,0,0,1,25.634-9.464ZM16.7-9.94a15.588,15.588,0,0,1-1.666-.112v1.974c.364-.028,1.022-.056,1.666-.056h6.524a8.99,8.99,0,0,1-1.652,3.948A9.2,9.2,0,0,1,16.086-.9L17.612.77A11.08,11.08,0,0,0,23.24-3.094a14.133,14.133,0,0,0,2.1-5.1l.112-.42a.8.8,0,0,0,.182.014A1.679,1.679,0,0,0,27.3-10.262a1.682,1.682,0,0,0-1.666-1.68,1.685,1.685,0,0,0-1.68,1.68,1.551,1.551,0,0,0,.028.266,6.2,6.2,0,0,1-.8.056ZM-16.59,11.766a7.584,7.584,0,0,1-1.33.1h-6.692c-.644,0-1.26-.028-1.708-.056a11.042,11.042,0,0,1,.07,1.176v2.954c0,.364-.028.714-.07,1.148h2.058a9.7,9.7,0,0,1-.056-1.148V13.6h6.72a10.055,10.055,0,0,1-1.274,4.2,8.671,8.671,0,0,1-5.152,3.374l1.568,1.6a10.2,10.2,0,0,0,5.306-4.018,13.641,13.641,0,0,0,1.666-5.194,8.519,8.519,0,0,1,.252-.938Zm4.018,5.95c.518-.042,1.456-.07,2.254-.07H-2.8c.588,0,1.3.056,1.638.07v-2.2c-.364.028-.994.084-1.638.084h-7.518c-.728,0-1.75-.042-2.254-.084ZM11.3,12.41a4.489,4.489,0,0,1-1.218.168H7.266l.042-.07c.168-.308.518-.938.854-1.428l-2.044-.672a6.735,6.735,0,0,1-.63,1.47A12.327,12.327,0,0,1,1.12,16.386l1.568,1.162A15.958,15.958,0,0,0,6.216,14.16H10.15a9.952,9.952,0,0,1-1.988,3.822A11.157,11.157,0,0,1,2.52,21.44l1.652,1.484a13.19,13.19,0,0,0,5.656-3.948A14.607,14.607,0,0,0,12.264,14.3a5.605,5.605,0,0,1,.462-1.008Zm7.77,4.27a1.792,1.792,0,1,0,1.792-1.792A1.8,1.8,0,0,0,19.068,16.68ZM-20.146,39.212V36.2h3.164v3.01Zm-4.914,0V36.2h3.15v3.01Zm4.914-4.648V32.142H-21.91v2.422h-4.83V41.62h1.68v-.77h3.15v4.368h1.764V40.85h3.164v.7h1.75V34.564Zm11.088-.686v.742h-2.156v-.742Zm-2.156,2.66v-.8h2.156v.8Zm3.71,1.19V32.674h-5.362V45.218h1.652v-7.49Zm2.548-1.162V35.74H-2.73v.826Zm2.226-2.688v.742H-4.956v-.742ZM-8.19,42.7V41.83h2.31V42.7Zm2.31-2.9v.84H-8.19V39.8Zm4.83-7.126H-6.538v5.082H-2.73V43.23c0,.224-.084.308-.336.308-.182.014-.7.014-1.246,0v-4.97H-9.7V44.63H-8.19v-.714h3.472a6.164,6.164,0,0,1,.364,1.3A6.049,6.049,0,0,0-1.792,44.9c.56-.266.742-.756.742-1.652ZM7.8,40.024H6.076V38.442H7.8Zm3.01-1.582v-.448a9.756,9.756,0,0,0,1.722,1.05A6.35,6.35,0,0,1,13.678,37.6a8.591,8.591,0,0,1-2.17-1.274,22.981,22.981,0,0,0,1.848-1.512l-1.218-.868A13.561,13.561,0,0,1,10.57,35.46c-.224-.238-.434-.476-.63-.728.574-.42,1.218-.966,1.792-1.484l-1.26-.9a13.22,13.22,0,0,1-1.246,1.3,9.725,9.725,0,0,1-.7-1.5l-1.5.42A12.808,12.808,0,0,0,9.576,36.86H4.508A9.6,9.6,0,0,0,6.79,33.136l-1.12-.518-.294.056H1.722V34.1H4.578a7.831,7.831,0,0,1-.882,1.26c-.392-.336-.924-.742-1.344-1.036l-1.05.868a14.942,14.942,0,0,1,1.386,1.19A8.662,8.662,0,0,1,.364,37.826a7.24,7.24,0,0,1,1.008,1.26A11.443,11.443,0,0,0,3.234,37.98v.462H4.41v1.582h-3V41.55H4.186c-.35.938-1.19,1.806-3.122,2.394a6.346,6.346,0,0,1,1.064,1.33c2.59-.868,3.514-2.254,3.822-3.724H7.8v1.526c0,1.554.378,2.044,1.89,2.044h1.526c1.232,0,1.666-.56,1.834-2.408a4.146,4.146,0,0,1-1.5-.658c-.056,1.316-.126,1.6-.49,1.6H9.982c-.392,0-.448-.084-.448-.588V41.55h2.982V40.024H9.534V38.442Zm14.952.476a18.392,18.392,0,0,1-2.2,1.68,8.787,8.787,0,0,1-.84-1.876h4.452V37.308H21.8v-.784H26.18v-1.33H21.8V34.48h4.928V33.066H21.8v-.924H20.132v.924H15.316V34.48h4.816v.714H15.974v1.33h4.158v.784H14.8v1.414h4.256a15.9,15.9,0,0,1-4.774,2.142,8.62,8.62,0,0,1,1.064,1.344,16.047,16.047,0,0,0,2.324-.924v2c-.7.14-1.358.266-1.9.364l.49,1.54c1.736-.378,4.088-.868,6.286-1.386l-.154-1.512c-1.008.224-2.058.448-3.052.658v-2.6a12.706,12.706,0,0,0,1.834-1.414c.924,3.108,2.464,5.236,5.418,6.244a6.716,6.716,0,0,1,1.078-1.484,6.846,6.846,0,0,1-3.29-1.988,29.192,29.192,0,0,0,2.772-1.75Z" transform="translate(15591 -6347)"/>
    <path id="Path_115392" data-name="Path 115392" d="M-15.568-9.548a20.5,20.5,0,0,0-1.106-1.918l-1.106.448a16.235,16.235,0,0,1,1.022,1.806l-.1-.056a4.41,4.41,0,0,1-1.218.168h-2.814l.042-.07c.168-.308.532-.938.868-1.428l-2.058-.672a6.121,6.121,0,0,1-.63,1.47,11.979,11.979,0,0,1-4.368,4.494l1.568,1.176a15.37,15.37,0,0,0,3.528-3.388h3.948A9.9,9.9,0,0,1-19.978-3.71,11.2,11.2,0,0,1-25.62-.238l1.652,1.484a13.039,13.039,0,0,0,5.642-3.962,14.129,14.129,0,0,0,2.45-4.676,5.932,5.932,0,0,1,.462-.994l-1.19-.728Zm-.56-2.1a13.324,13.324,0,0,1,1.12,1.932l1.12-.476a19.989,19.989,0,0,0-1.134-1.9ZM-11.312.616A8.109,8.109,0,0,0-8.82-3.4a30.89,30.89,0,0,0,.42-6.02,8.929,8.929,0,0,1,.1-1.26H-10.36a5.11,5.11,0,0,1,.126,1.274,24.125,24.125,0,0,1-.406,5.544A6.6,6.6,0,0,1-13.02-.518Zm5.936.042A3.569,3.569,0,0,1-4.76.238,15.415,15.415,0,0,0-.014-3.584l-1.078-1.54A8.865,8.865,0,0,1-4.55-2.17V-9.492a7.109,7.109,0,0,1,.1-1.218H-6.538a6.207,6.207,0,0,1,.112,1.2v8.162A5.327,5.327,0,0,1-6.538-.308ZM1.708-4.284c.518-.042,1.456-.07,2.254-.07H11.48c.588,0,1.3.056,1.638.07v-2.2c-.364.028-.994.084-1.638.084H3.962c-.728,0-1.75-.042-2.254-.084Zm23.926-5.18a.81.81,0,0,1-.812-.8.813.813,0,0,1,.812-.812.81.81,0,0,1,.8.812A.807.807,0,0,1,25.634-9.464ZM16.7-9.94a15.588,15.588,0,0,1-1.666-.112v1.974c.364-.028,1.022-.056,1.666-.056h6.524a8.99,8.99,0,0,1-1.652,3.948A9.2,9.2,0,0,1,16.086-.9L17.612.77A11.08,11.08,0,0,0,23.24-3.094a14.133,14.133,0,0,0,2.1-5.1l.112-.42a.8.8,0,0,0,.182.014A1.679,1.679,0,0,0,27.3-10.262a1.682,1.682,0,0,0-1.666-1.68,1.685,1.685,0,0,0-1.68,1.68,1.551,1.551,0,0,0,.028.266,6.2,6.2,0,0,1-.8.056ZM-9.73,11.766a7.584,7.584,0,0,1-1.33.1h-6.692c-.644,0-1.26-.028-1.708-.056a11.042,11.042,0,0,1,.07,1.176v2.954c0,.364-.028.714-.07,1.148H-17.4a9.7,9.7,0,0,1-.056-1.148V13.6h6.72a10.055,10.055,0,0,1-1.274,4.2,8.671,8.671,0,0,1-5.152,3.374l1.568,1.6a10.2,10.2,0,0,0,5.306-4.018,13.641,13.641,0,0,0,1.666-5.194,8.519,8.519,0,0,1,.252-.938Zm4.018,5.95c.518-.042,1.456-.07,2.254-.07H4.06c.588,0,1.3.056,1.638.07v-2.2c-.364.028-.994.084-1.638.084H-3.458c-.728,0-1.75-.042-2.254-.084Zm23.87-5.306a4.489,4.489,0,0,1-1.218.168H14.126l.042-.07c.168-.308.518-.938.854-1.428l-2.044-.672a6.735,6.735,0,0,1-.63,1.47A12.327,12.327,0,0,1,7.98,16.386l1.568,1.162a15.958,15.958,0,0,0,3.528-3.388H17.01a9.952,9.952,0,0,1-1.988,3.822A11.157,11.157,0,0,1,9.38,21.44l1.652,1.484a13.19,13.19,0,0,0,5.656-3.948A14.607,14.607,0,0,0,19.124,14.3a5.605,5.605,0,0,1,.462-1.008Z" transform="translate(15679 -6336)"/>
    <path id="Path_115393" data-name="Path 115393" d="M-18.06-9.772H-24v-.574h5.936Zm0,1.6H-24v-.588h5.936Zm1.666-3.234h-9.2v4.3h9.2Zm-.8,7.924a5.862,5.862,0,0,1-.952,1.372,5.42,5.42,0,0,1-.938-1.372Zm-7.42,1.666h1.82v.546c-.616.056-1.232.1-1.82.14Zm0-1.736h1.82v.588h-1.82Zm1.82-1.722v.56h-1.82v-.56Zm6.58.462-.28.056h-4.354v1.274h1.288l-.924.252a8.574,8.574,0,0,0,1.274,2.072A7.188,7.188,0,0,1-21.2-.154V-5.278h6.412V-6.594H-27.23v1.316h1.092v4.256c-.434.042-.854.056-1.218.084L-27.23.49C-26,.378-24.4.238-22.792.084V1.218h1.6V.084a6.189,6.189,0,0,1,.742,1.12,9.122,9.122,0,0,0,2.38-1.3,7.843,7.843,0,0,0,2.6,1.3,6.9,6.9,0,0,1,.98-1.3,7.827,7.827,0,0,1-2.464-1.036,8.346,8.346,0,0,0,1.764-3.29Zm3.206,1.148A10.179,10.179,0,0,1-13.748-.42a8.229,8.229,0,0,1,1.274.6,12.944,12.944,0,0,0,.84-3.612Zm3.038.252a16.565,16.565,0,0,1,.812,2.6l1.232-.448a15.435,15.435,0,0,0-.868-2.52ZM-7.686-.882A23.341,23.341,0,0,1-2.422,1.344l.966-1.3a27.66,27.66,0,0,0-5.264-2.1Zm1.512-2.492A12.655,12.655,0,0,1-3.3-1.736L-2.338-2.9a14.359,14.359,0,0,0-2.9-1.526ZM-3.248-9.1A8.677,8.677,0,0,1-4.466-7.518,9.753,9.753,0,0,1-5.684-9.1Zm1.134-1.484-.252.056H-4.858c.2-.35.364-.714.518-1.064l-1.624-.266A9.551,9.551,0,0,1-9-7.84,4.659,4.659,0,0,1-7.854-6.762a11.313,11.313,0,0,0,1.246-1.2,11.518,11.518,0,0,0,1.064,1.4,11.3,11.3,0,0,1-2.59,1.484A14,14,0,0,0-9.156-7.336l-1.106.462c.168.308.336.658.49,1.008l-1.344.056c.882-1.134,1.848-2.548,2.618-3.766l-1.358-.63A25.389,25.389,0,0,1-11.1-7.938c-.14-.182-.308-.364-.476-.56.5-.77,1.064-1.862,1.568-2.814l-1.442-.532a17.747,17.747,0,0,1-1.022,2.436c-.112-.1-.224-.2-.322-.28l-.8,1.134a13.738,13.738,0,0,1,1.652,1.9c-.224.322-.448.63-.658.9l-1.008.042.14,1.442,2.03-.126V1.232H-10V-4.494l.714-.056c.07.252.126.476.168.686l1.022-.462a4.236,4.236,0,0,1,.49.756,12.7,12.7,0,0,0,3.15-1.9A10.883,10.883,0,0,0-1.274-3.5,6.919,6.919,0,0,1-.224-4.858,10.372,10.372,0,0,1-3.332-6.51a10.98,10.98,0,0,0,2.254-3.5ZM7.8-3.976H6.076V-5.558H7.8Zm3.01-1.582v-.448a9.756,9.756,0,0,0,1.722,1.05A6.35,6.35,0,0,1,13.678-6.4a8.591,8.591,0,0,1-2.17-1.274,22.981,22.981,0,0,0,1.848-1.512l-1.218-.868A13.561,13.561,0,0,1,10.57-8.54c-.224-.238-.434-.476-.63-.728.574-.42,1.218-.966,1.792-1.484l-1.26-.9a13.22,13.22,0,0,1-1.246,1.3,9.725,9.725,0,0,1-.7-1.5l-1.5.42A12.808,12.808,0,0,0,9.576-7.14H4.508A9.6,9.6,0,0,0,6.79-10.864l-1.12-.518-.294.056H1.722V-9.9H4.578A7.831,7.831,0,0,1,3.7-8.638C3.3-8.974,2.772-9.38,2.352-9.674L1.3-8.806a14.942,14.942,0,0,1,1.386,1.19A8.662,8.662,0,0,1,.364-6.174a7.24,7.24,0,0,1,1.008,1.26A11.443,11.443,0,0,0,3.234-6.02v.462H4.41v1.582h-3V-2.45H4.186C3.836-1.512,3-.644,1.064-.056a6.346,6.346,0,0,1,1.064,1.33C4.718.406,5.642-.98,5.95-2.45H7.8V-.924C7.8.63,8.176,1.12,9.688,1.12h1.526c1.232,0,1.666-.56,1.834-2.408a4.146,4.146,0,0,1-1.5-.658c-.056,1.316-.126,1.6-.49,1.6H9.982c-.392,0-.448-.084-.448-.588V-2.45h2.982V-3.976H9.534V-5.558Zm14.952.476a18.392,18.392,0,0,1-2.2,1.68,8.787,8.787,0,0,1-.84-1.876h4.452V-6.692H21.8v-.784H26.18v-1.33H21.8V-9.52h4.928v-1.414H21.8v-.924H20.132v.924H15.316V-9.52h4.816v.714H15.974v1.33h4.158v.784H14.8v1.414h4.256A15.9,15.9,0,0,1,14.28-3.136a8.62,8.62,0,0,1,1.064,1.344,16.047,16.047,0,0,0,2.324-.924v2c-.7.14-1.358.266-1.9.364l.49,1.54C17.99.812,20.342.322,22.54-.2l-.154-1.512c-1.008.224-2.058.448-3.052.658v-2.6a12.706,12.706,0,0,0,1.834-1.414c.924,3.108,2.464,5.236,5.418,6.244A6.716,6.716,0,0,1,27.664-.308,6.846,6.846,0,0,1,24.374-2.3a29.193,29.193,0,0,0,2.772-1.75Z" transform="translate(15767 -6325)"/>
    <line id="Line_14" data-name="Line 14" y2="156.201" transform="translate(15194 -6413.5)" fill="none" stroke="#000" stroke-width="2"/>
    <line id="Line_15" data-name="Line 15" y2="155.564" transform="translate(15282 -6413.5)" fill="none" stroke="#000" stroke-width="2"/>
    <line id="Line_44" data-name="Line 44" y2="155.564" transform="translate(15370.5 -6413.5)" fill="none" stroke="#000" stroke-width="2"/>
    <line id="Line_34" data-name="Line 34" y2="155.564" transform="translate(15458.5 -6413.5)" fill="none" stroke="#000" stroke-width="2"/>
    <line id="Line_35" data-name="Line 35" y2="155.564" transform="translate(15810.5 -6413.5)" fill="none" stroke="#000" stroke-width="2"/>
    <line id="Line_36" data-name="Line 36" y2="155.564" transform="translate(15546.5 -6413.5)" fill="none" stroke="#000" stroke-width="2"/>
    <line id="Line_45" data-name="Line 45" y2="155.564" transform="translate(15634.5 -6413.5)" fill="none" stroke="#000" stroke-width="2"/>
    <line id="Line_43" data-name="Line 43" y2="155.564" transform="translate(15722.5 -6413.5)" fill="none" stroke="#000" stroke-width="2"/>
    <g id="Group_86300" data-name="Group 86300" transform="translate(13534 -7558)">
      <circle id="Ellipse_13" data-name="Ellipse 13" cx="9" cy="9" r="9" transform="translate(1739 1218)"/>
      <path id="Path_9" data-name="Path 9" d="M220.138,7.09l-.508-.845,4.988-2.07L219.63,2.1l.508-.845,7.026,2.915Z" transform="translate(1524.924 1222.825)" fill="#fff"/>
    </g>
    <g id="Group_86607" data-name="Group 86607" transform="translate(13622 -7558)">
      <circle id="Ellipse_13-2" data-name="Ellipse 13" cx="9" cy="9" r="9" transform="translate(1739 1218)"/>
      <path id="Path_9-2" data-name="Path 9" d="M220.138,7.09l-.508-.845,4.988-2.07L219.63,2.1l.508-.845,7.026,2.915Z" transform="translate(1524.924 1222.825)" fill="#fff"/>
    </g>
    <g id="Group_86608" data-name="Group 86608" transform="translate(13710 -7558)">
      <circle id="Ellipse_13-3" data-name="Ellipse 13" cx="9" cy="9" r="9" transform="translate(1739 1218)"/>
      <path id="Path_9-3" data-name="Path 9" d="M220.138,7.09l-.508-.845,4.988-2.07L219.63,2.1l.508-.845,7.026,2.915Z" transform="translate(1524.924 1222.825)" fill="#fff"/>
    </g>
    <g id="Group_86609" data-name="Group 86609" transform="translate(13798 -7558)">
      <circle id="Ellipse_13-4" data-name="Ellipse 13" cx="9" cy="9" r="9" transform="translate(1739 1218)"/>
      <path id="Path_9-4" data-name="Path 9" d="M220.138,7.09l-.508-.845,4.988-2.07L219.63,2.1l.508-.845,7.026,2.915Z" transform="translate(1524.924 1222.825)" fill="#fff"/>
    </g>
    <g id="Group_86610" data-name="Group 86610" transform="translate(13886 -7558)">
      <circle id="Ellipse_13-5" data-name="Ellipse 13" cx="9" cy="9" r="9" transform="translate(1739 1218)"/>
      <path id="Path_9-5" data-name="Path 9" d="M220.138,7.09l-.508-.845,4.988-2.07L219.63,2.1l.508-.845,7.026,2.915Z" transform="translate(1524.924 1222.825)" fill="#fff"/>
    </g>
    <g id="Group_86611" data-name="Group 86611" transform="translate(13974 -7558)">
      <circle id="Ellipse_13-6" data-name="Ellipse 13" cx="9" cy="9" r="9" transform="translate(1739 1218)"/>
      <path id="Path_9-6" data-name="Path 9" d="M220.138,7.09l-.508-.845,4.988-2.07L219.63,2.1l.508-.845,7.026,2.915Z" transform="translate(1524.924 1222.825)" fill="#fff"/>
    </g>
  </g>
</svg>
