<svg xmlns="http://www.w3.org/2000/svg" width="87.247" height="28.197" viewBox="0 0 87.247 28.197">
  <g id="Group_86395" data-name="Group 86395" transform="translate(0 -11.646)">
    <path id="Path_114269" data-name="Path 114269" d="M11.737,28.12a2.635,2.635,0,0,0-.648-1.48c-.456-.56-1.32-.9-3.024-.9-.84,0-3.817,0-3.817,1.76,0,1.38,1.128,1.7,6.025,3.061,2.856.8,5.592,1.56,5.592,4.361,0,1.7-1.392,4.921-7.536,4.921C4.68,39.843.264,38.762,0,34.6H3.744c.1,1.761,1.488,2.7,4.489,2.7a6.813,6.813,0,0,0,3-.58,1.853,1.853,0,0,0,.96-1.48c0-1.241-1.272-1.621-4.344-2.4-4.417-1.12-7.3-2-7.3-5,0-1.7,1.224-4.641,7.249-4.641,4.44,0,6.96,1.26,7.632,4.921Z"/>
    <path id="Path_114270" data-name="Path 114270" d="M33.553,23.639V25.96h-6.7V39.4H23.28V25.96H16.607V23.639Z"/>
    <path id="Path_114271" data-name="Path 114271" d="M49.993,23.639V25.96H38.544v4.221H48.7V32.5H38.544v4.581H50.257V39.4H34.944V23.639Z"/>
    <path id="Path_114272" data-name="Path 114272" d="M61.92,23.638c4.273,0,6.769,2.2,6.769,5.1,0,2.3-1.584,5.061-6.769,5.061H55.584v5.6H52.008V23.638Zm-6.336,2.321V31.48h5.952c.913,0,3.481-.24,3.481-2.74,0-2.481-2.52-2.781-3.481-2.781Z" transform="translate(0 0.009)"/>
    <path id="Path_114273" data-name="Path 114273" d="M92.708,28h-6.4V9.1H79.15V5.188c3.581-.142,6.992-.5,8.484-5.188h5.074Z" transform="translate(-5.461 11.646)"/>
  </g>
</svg>
