<svg id="Group_86411" data-name="Group 86411" xmlns="http://www.w3.org/2000/svg" width="128.464" height="44.269" viewBox="0 0 128.464 44.269">
  <path id="Path_114310" data-name="Path 114310" d="M14.08,30.2a3.16,3.16,0,0,0-.777-1.776c-.547-.672-1.584-1.08-3.628-1.08-1.008,0-4.578,0-4.578,2.112,0,1.656,1.353,2.04,7.227,3.672,3.426.96,6.709,1.872,6.709,5.233,0,2.04-1.671,5.9-9.042,5.9-4.376,0-9.674-1.3-9.991-6.288H4.492c.115,2.112,1.785,3.24,5.384,3.24a8.177,8.177,0,0,0,3.6-.7,2.224,2.224,0,0,0,1.151-1.776c0-1.488-1.526-1.944-5.211-2.88-5.3-1.345-8.754-2.4-8.754-6,0-2.04,1.469-5.569,8.7-5.569,5.327,0,8.35,1.513,9.156,5.905Z"/>
  <path id="Path_114311" data-name="Path 114311" d="M40.258,24.827v2.784H32.225v16.13h-4.29V27.611h-8V24.827Z"/>
  <path id="Path_114312" data-name="Path 114312" d="M59.985,24.827v2.784H46.251v5.065H58.43V35.46H46.251v5.5H60.3v2.785H41.932V24.827Z"/>
  <path id="Path_114313" data-name="Path 114313" d="M74.3,24.827c5.125,0,8.119,2.64,8.119,6.12,0,2.76-1.9,6.073-8.119,6.073H66.7v6.72h-4.29V24.827Zm-7.6,2.784v6.625H73.84c1.094,0,4.175-.289,4.175-3.289,0-2.976-3.024-3.336-4.175-3.336Z"/>
  <path id="Path_114314" data-name="Path 114314" d="M128.464,37.477v6.264h-43.1c.713-9.18,5.833-12.042,21.839-20.9,9.526-5.292,10.887-6.75,10.887-9.99,0-4.536-5.314-5.994-10.044-5.994-9.721,0-11.535,4.86-11.859,9.774h-9.98C86.471,12.907,87.443,0,108.051,0c13.22,0,19.959,5.779,19.959,12.8,0,6.048-4.018,9.5-13.479,14.472-9.85,5.184-12.507,6.912-15.812,10.206Z"/>
</svg>
