<svg xmlns="http://www.w3.org/2000/svg" width="101.271" height="28.197" viewBox="0 0 101.271 28.197">
  <g id="Group_86398" data-name="Group 86398" transform="translate(0 -12.747)">
    <path id="Path_114278" data-name="Path 114278" d="M11.737,29.22a2.635,2.635,0,0,0-.648-1.48c-.456-.56-1.32-.9-3.024-.9-.84,0-3.817,0-3.817,1.76,0,1.38,1.128,1.7,6.025,3.061,2.856.8,5.592,1.56,5.592,4.361,0,1.7-1.392,4.921-7.536,4.921C4.68,40.943.264,39.862,0,35.7H3.744c.1,1.761,1.488,2.7,4.489,2.7a6.813,6.813,0,0,0,3-.58,1.853,1.853,0,0,0,.96-1.48c0-1.241-1.272-1.621-4.344-2.4-4.417-1.12-7.3-2-7.3-5,0-1.7,1.224-4.641,7.249-4.641,4.44,0,6.96,1.26,7.632,4.921Z"/>
    <path id="Path_114279" data-name="Path 114279" d="M33.553,24.739V27.06h-6.7V40.5H23.28V27.06H16.607V24.739Z"/>
    <path id="Path_114280" data-name="Path 114280" d="M49.993,24.739V27.06H38.544v4.221H48.7V33.6H38.544v4.581H50.257V40.5H34.944V24.739Z"/>
    <path id="Path_114281" data-name="Path 114281" d="M61.92,24.738c4.273,0,6.769,2.2,6.769,5.1,0,2.3-1.584,5.061-6.769,5.061H55.584v5.6H52.008V24.738Zm-6.336,2.321V32.58h5.952c.913,0,3.481-.24,3.481-2.74,0-2.481-2.52-2.781-3.481-2.781Z" transform="translate(0 0.009)"/>
    <path id="Path_114282" data-name="Path 114282" d="M98.993,23.99V28H71.411c.456-5.876,3.732-7.708,13.978-13.378,6.1-3.387,6.968-4.321,6.968-6.4,0-2.9-3.4-3.837-6.429-3.837-6.222,0-7.383,3.111-7.591,6.257H71.95C72.116,8.262,72.738,0,85.928,0,94.389,0,98.7,3.7,98.7,8.192c0,3.872-2.572,6.084-8.628,9.264-6.3,3.319-8,4.425-10.12,6.534Z" transform="translate(2.278 12.747)"/>
  </g>
</svg>
