<svg id="Group_86409" data-name="Group 86409" xmlns="http://www.w3.org/2000/svg" width="114.337" height="43.081" viewBox="0 0 114.337 43.081">
  <path id="Path_114305" data-name="Path 114305" d="M14.08,29.016A3.16,3.16,0,0,0,13.3,27.24c-.547-.672-1.584-1.08-3.628-1.08-1.008,0-4.578,0-4.578,2.112,0,1.656,1.353,2.04,7.227,3.672,3.426.96,6.709,1.872,6.709,5.233,0,2.04-1.671,5.9-9.042,5.9-4.376,0-9.674-1.3-9.991-6.288H4.492c.115,2.112,1.785,3.24,5.384,3.24a8.177,8.177,0,0,0,3.6-.7,2.224,2.224,0,0,0,1.151-1.776c0-1.488-1.526-1.944-5.211-2.88-5.3-1.345-8.754-2.4-8.754-6,0-2.04,1.469-5.569,8.7-5.569,5.327,0,8.35,1.513,9.156,5.905Z"/>
  <path id="Path_114306" data-name="Path 114306" d="M40.258,23.639v2.784H32.225v16.13h-4.29V26.423h-8V23.639Z"/>
  <path id="Path_114307" data-name="Path 114307" d="M59.985,23.639v2.784H46.251v5.065H58.43v2.784H46.251v5.5H60.3v2.785H41.932V23.639Z"/>
  <path id="Path_114308" data-name="Path 114308" d="M74.3,23.639c5.125,0,8.119,2.64,8.119,6.12,0,2.76-1.9,6.073-8.119,6.073H66.7v6.72h-4.29V23.639Zm-7.6,2.784v6.625H73.84c1.094,0,4.175-.289,4.175-3.289,0-2.976-3.024-3.336-4.175-3.336Z"/>
  <path id="Path_114309" data-name="Path 114309" d="M114.337,42.553h-9.72V13.824H93.729V7.885c5.444-.217,10.628-.757,12.9-7.885h7.712Z"/>
</svg>
