<svg id="ttl" xmlns="http://www.w3.org/2000/svg" width="277.138" height="46.353" viewBox="0 0 277.138 46.353">
  <path id="Path_551" data-name="Path 551" d="M32.339,21.5h6.72V19.151a3.208,3.208,0,0,1-2.1-1.2,4.337,4.337,0,0,1-.72-2.5v-8h10.62v-2.2h-10.8v-4.1h17.22v11.2h-2.34a15.084,15.084,0,0,0,5.1,2.05c-.96,2.95-2.339,4.9-6.719,4.9h-2.88c0,.551-.72.65-1.2.7v1.5h9.12v4.15h-9.12V28.6h10.5v4.05H44.578a63.377,63.377,0,0,0,9.36,4.5c-2.459,1.451-3.239,2.2-4.02,3.351,3.481-.1,5.34-.25,7.74-.4-1.68,2.75-1.98,3.7-2.16,5.3H25.86c-9.661,0-12.48-2.5-15.06-4.7-2.28,1.75-5.1,3.45-5.819,3.9.059.65.059,1.4-.781,1.4-.48,0-.96-.55-1.139-.9L0,39.853A40.362,40.362,0,0,0,7.5,36.2V24.9H1.08V19.5H14.46V35.2a6.181,6.181,0,0,0,4.38,4.5c2.22.7,2.88.95,22.679.95,4.26,0,6.479-.1,7.739-.1a62.076,62.076,0,0,1-11.1-6l2.521-1.9H30.6L33.78,34.6c.179.1.6.35.6.651,0,.35-.54.549-.9.549a4.857,4.857,0,0,1-1.26-.25,52.186,52.186,0,0,1-10.079,4.7A12.248,12.248,0,0,0,17.459,36.3a35.287,35.287,0,0,0,9.9-3.65H16.86V28.6h8.88v-2.95H18.119V21.5H25.74V19.3h-4.2c-1.439,0-4.5,0-4.5-3.65v-8.2h10.5v-2.2H16.92v-4.1H33.359v11.2H30.9c1.2.85,2.22,1.25,4.92,2-.9,2.15-1.44,3.4-3,4.45.3.1.54.25.54.5,0,.4-.72.6-1.02.65ZM6.06.8a53.989,53.989,0,0,1,9,7.951c-3.3,2.35-3.66,2.6-5.4,4.05A61.826,61.826,0,0,0,1.021,4.45ZM28.379,15.151c1.08,0,1.8-.4,2.28-2.8h-3.12V11.4H23.1v2.5c0,1.25.72,1.25,1.739,1.25Zm10.68,10.5h-6.72V28.6h6.72Zm9.119-10.5c1.86,0,2.28-1.75,2.58-2.8h-3.9V11.4H42.538v2.55c0,1,0,1.2,1.62,1.2Z" fill="#FF00FF"/>
  <path id="Path_552" data-name="Path 552" d="M107.4,4.1c.6.25.959.45.959.9,0,.6-1.079.65-1.739.6a69.183,69.183,0,0,1-6.6,7.4h13.86v5.1h-19.8a65.553,65.553,0,0,1-6.239,4.151c3-.35,11.819-1.9,15.419-3.551l4.2,4.251a1.2,1.2,0,0,1,.42.8c0,.3-.48.45-.78.45a4.344,4.344,0,0,1-1.8-.5,127.315,127.315,0,0,1-25.259,4.05c-.06.2-.481,1.3-.6,1.55h28.2c-2.04,9.2-5.22,13.451-6.6,14.551-1.859,1.4-4.14,2.5-10.8,2.5-1.08,0-1.8-.05-2.579-.1a17.662,17.662,0,0,0-2.7-5.8,32.792,32.792,0,0,0,6.42.55c3.719,0,5.7,0,7.8-6.551H77.339c-1.08,2.4-1.8,3.8-2.46,5.051a41.061,41.061,0,0,0-7.02-1.35c1.021-1.9,2.1-3.951,4.02-8.351-4.8,1.8-7.14,2.5-8.7,3a36.306,36.306,0,0,0-5.28-4.6,76.99,76.99,0,0,0,16.559-4.95c.36-1.1.48-1.5.721-2.45l2.519,1a61.578,61.578,0,0,0,6.66-3.7H58.8V13H79.439V9.451H65.4v-4.7h14.28V0L87.3.451c.36,0,1.2.049,1.2.549s-.78.8-1.38,1v2.75h8.4v4a43.28,43.28,0,0,0,5.64-7.4ZM87.119,9.451V13H91.2c1.62-1.45,1.92-1.75,3.72-3.55Z" fill="#FF00FF"/>
  <path id="Path_553" data-name="Path 553" d="M156.178,3.6a22.685,22.685,0,0,0,4.14-.35l5.939,4.1A9.713,9.713,0,0,0,164.4,10.1c-5.821,12.1-7.02,14.4-11.58,19.451C145.8,37.4,136.739,41.7,129.9,44.7a29,29,0,0,0-6.3-5.2c15.6-5.9,24.479-12.1,31.739-29.6H117.659V3.6Z" fill="#FF00FF"/>
  <path id="Path_554" data-name="Path 554" d="M181.62,39.252v2.1H173.1V6.7h44.7V41.353h-8.34v-2.1Zm27.839-26.2H181.62V33h27.839Z" fill="#FF00FF"/>
  <rect id="Rectangle_140" data-name="Rectangle 140" width="51.778" height="7.101" transform="translate(225.36 19.801)" fill="#FF00FF"/>
</svg>
