<svg id="Group_86456" data-name="Group 86456" xmlns="http://www.w3.org/2000/svg" width="365.524" height="46.254" viewBox="0 0 365.524 46.254">
  <path id="Path_114410" data-name="Path 114410" d="M0,14.08v6.405H35.025V38.723H0v6.405H35.025v2.4h8.507V14.08Z" transform="translate(0 -5.475)" fill="#FF00FF"/>
  <rect id="Rectangle_6813" data-name="Rectangle 6813" width="50.631" height="6.943" transform="translate(50.987 20.731)" fill="#FF00FF"/>
  <path id="Path_114411" data-name="Path 114411" d="M178.1,14.761V8.551h29.8a18.935,18.935,0,0,0,4.048-.391l3.989,3.569a15.476,15.476,0,0,0-2.229,3.129,74.643,74.643,0,0,1-7.568,12.468c4.458,2.787,13.669,9.436,18.3,14.131-2.053,1.858-5.339,4.889-6.043,5.574A73.67,73.67,0,0,0,201.747,32.46c-4.048,4.254-13.552,11.735-23.467,15.255a18.7,18.7,0,0,0-5.574-5.721,52.217,52.217,0,0,0,20.769-11.442c6.337-5.623,8.566-10.219,11.088-15.793Z" transform="translate(-67.154 -3.173)" fill="#FF00FF"/>
  <path id="Path_114412" data-name="Path 114412" d="M274.617,5.222c.7.049,1.173.049,1.173.489,0,.489-.7.733-1.173.929V30.305H266.4V4.929Zm27.222-.88c.879.049,1.173.2,1.173.44,0,.636-.763.831-1.173.978V21.6c0,16.331-11.44,22.247-22.763,26.208a12.786,12.786,0,0,0-5.163-5.33c19.184-5.232,19.595-15.45,19.595-20.829V4Z" transform="translate(-103.587 -1.556)" fill="#FF00FF"/>
  <rect id="Rectangle_6814" data-name="Rectangle 6814" width="50.631" height="6.943" transform="translate(206.116 20.731)" fill="#FF00FF"/>
  <path id="Path_114413" data-name="Path 114413" d="M445.813,19.166c2.992,1.419,6.218,2.983,10.266,5.379a36.929,36.929,0,0,0,5.045-8.947H445.813a61.625,61.625,0,0,1-12.966,11.539,38.141,38.141,0,0,0-6.219-4.449A46.523,46.523,0,0,0,445.99,1.76l7.861,2.1c.7.2,1.056.293,1.056.587,0,.636-1.056.636-1.408.685-.939,1.467-1.819,2.787-3.168,4.694h13.963a12.362,12.362,0,0,0,3.93-.489l3.638,2.64a18.763,18.763,0,0,0-1.233,2.054c-4.282,8.606-5.1,10.317-8.389,14.473a31.226,31.226,0,0,1,5.867,5.085,73.508,73.508,0,0,0-4.928,5.525,44.8,44.8,0,0,0-5.691-5.427c-8.272,7.53-17.424,10.708-22.528,12.419a30.031,30.031,0,0,0-5.4-5.623c5.749-1.32,15.488-5.036,22.058-11a113.694,113.694,0,0,0-10.56-5.818ZM463.179.244A51.768,51.768,0,0,1,468.4,5.476,24.078,24.078,0,0,0,464,8.019a49.706,49.706,0,0,0-5.1-5.134ZM472.565,0a62,62,0,0,1,5.4,5.378c-.645.44-3.7,2.2-4.282,2.591-3.52-3.863-3.93-4.3-5.339-5.623Z" transform="translate(-165.888)" fill="#FF00FF"/>
  <rect id="Rectangle_6815" data-name="Rectangle 6815" width="50.631" height="6.943" transform="translate(314.893 20.731)" fill="#FF00FF"/>
</svg>
