<svg id="Group_86451" data-name="Group 86451" xmlns="http://www.w3.org/2000/svg" width="226.749" height="46.803" viewBox="0 0 226.749 46.803">
  <path id="Path_114392" data-name="Path 114392" d="M46.117,21.195v4.71H30.3c-.18,1.2-.3,1.9-.421,2.556H54.655v4.861h-20.8c6.073,4.961,13.829,7.065,20.5,7.868A17.493,17.493,0,0,0,50.385,46.7c-4.208-.7-15.512-3.407-23.569-11.525C22.487,41.239,13.648,45.148,4.269,46.8A20.929,20.929,0,0,0,.3,41.39c5.893-.651,15.333-2.406,19.662-8.068H0V28.461H22.367a15.068,15.068,0,0,0,.481-2.556H8.117v-4.71H23.148c.06-1,.06-1.253.06-2.656H6.975V16.886H.36V5.21H22.968V.8l8,.251c.3,0,1.323,0,1.323.6,0,.45-.3.551-1.383,1V5.21H53.632V16.634H47.56v1.9h-16.9c0,.8,0,1-.06,2.656ZM23.209,10.07H7.516v3.759H23.209Zm7.456,3.759H46.537V10.07H31.807c.241.15.421.3.421.5,0,.35-1.142.7-1.563.8Z" transform="translate(0 -0.299)" fill="#FF00FF"/>
  <path id="Path_114393" data-name="Path 114393" d="M126.823,19.342V11.926l6.433.4c.422.05.9.2.9.6s-.48.7-.9.9v3.809l7.095-1.854,3.548,1.253V28.863c0,5.863-5.471,6.314-8.718,6.214-.059-2.255-1.5-4.41-1.924-5.312v6.715h-6.433V25.256l-3.548.9V37.132c0,2.354,1.564,3.107,4.149,3.107h8.538c2.946,0,4.089-.752,4.329-5.362a10.581,10.581,0,0,0,6.554,2.857c-.481,3.457-1.623,7.967-9.019,7.967H125.8c-2.466,0-9.2-.05-9.2-6.364V27.911l-2.645.7-.9-3.007c.12,4.861-.541,12.427-1.864,16.035-1.624,4.46-6.794,4.81-10.041,5.061-.361-4.21-1.5-5.462-2.405-6.414A21.286,21.286,0,0,1,94.957,46,17.682,17.682,0,0,0,88.7,42.844c7.156-8.669,7.095-16.086,7.035-29.766H89.845V7.717h9.02V.3l7.455.3c.3,0,1.142.05,1.142.651,0,.5-.721.8-1.2,1V7.717h7.756v3.658C115.1,10.123,118.947,5.562,120.33,0l6.854,1.7c.6.15.9.4.9.7,0,.5-.6.7-1.443.852-.24.6-.42.951-1.142,2.505h20.082v5.061H122.494a40.648,40.648,0,0,1-3.307,4.46l4.088.15c.542,0,1.082.3,1.082.7,0,.351-.421.6-1.082.9v3.207Zm-23.93,3.909A42.065,42.065,0,0,1,98.8,40.189a21.393,21.393,0,0,0,3.608.45c2.225,0,2.766-.752,3.487-4.008.782-3.307,1.022-10.524.962-13.38Zm.18-10.173v4.711h9.56a17.5,17.5,0,0,0-3.187-1.8,19.917,19.917,0,0,0,3.067-2.907ZM116.6,22V18.139c-.48.5-1.2,1.3-1.443,1.554a14.185,14.185,0,0,0-2.165-1.7c0,.7,0,4.159.061,4.911Zm16.655,1.553v5.964c1.924.15,4.029.25,4.029-2.256v-4.81Z" transform="translate(-33.143)" fill="#FF00FF"/>
  <path id="Path_114394" data-name="Path 114394" d="M217.628,24.783V19.471h2.1V7.144h-1.924V2.033h18.579V7.144h-2.705a78.351,78.351,0,0,1-.963,12.327h3.969v5.312h-5.171c-.24.9-.661,1.9-.962,2.756,1.2.1,1.8.15,1.8.7s-.721.752-1.383.9V39.414c0,.6,0,.9.842.9.6,0,.842-.2,1.082-1.253a20.289,20.289,0,0,0,.481-3.508,19.7,19.7,0,0,0,4.81,2.756c-1.082,4.56-1.744,7.417-6.193,7.417h-2.284c-4.209,0-4.329-2-4.329-4.16V36.408a42.542,42.542,0,0,1-11.123,10.724,23.624,23.624,0,0,0-5.773-3.858,35.805,35.805,0,0,0,9.861-7.367,23.843,23.843,0,0,0-4.509,2.756c-.421-1.553-.6-2.1-.782-2.706-.962.551-6.855,4.21-11.484,6.464-.3.953-.361,1.253-1.022,1.253-.3,0-.6-.35-.842-.9l-2.165-5.562c1.022-.4,1.924-.7,3.969-1.5V27.438a48.874,48.874,0,0,0-3.908,3.659,28.406,28.406,0,0,1-2.706-4.66V46.581h-6.254V31.4a40.045,40.045,0,0,1-3.126,6.514,27.958,27.958,0,0,0-5.712-3.658,49.4,49.4,0,0,0,5.652-9.17,41.153,41.153,0,0,0,3.186-9.02h-6.313V10.451h6.313V.88l6.313.451c.541.05,1.263.1,1.263.551,0,.4-.3.5-1.323.9v7.667h4.69v5.612H194.9v.4a48.62,48.62,0,0,0,6.614,9.421V2.033h14.611V23.279h-9.019V33.3c2.225-1.1,3.187-1.654,4.149-2.1-.421-1-.9-1.855-1.563-3.207l5.411-2.305a74.161,74.161,0,0,1,4.51,8.819,31.852,31.852,0,0,0,5.832-9.721Zm-6.975-17.89h-3.788v3.858h3.788Zm-3.788,11.826h3.788V14.86h-3.788ZM225.084,7.144V19.471h1.8a78.273,78.273,0,0,0,.842-12.327Z" transform="translate(-67.184 -0.329)" fill="#FF00FF"/>
  <path id="Path_114395" data-name="Path 114395" d="M288.8,39c-4.57-2-6.012-2.306-7.155-2.505a52.291,52.291,0,0,0,6.433-4.611H274.848V26.972h18.458a39.79,39.79,0,0,0,2.706-3.157H279.778V10.436h12.746V7.88H274.908V3.12h54.535V7.88H312.186v2.556h12.507V23.815h-19a.412.412,0,0,1,.18.3c0,.7-1.5.8-1.924.852-.361.4-.6.752-1.684,2h27.057v4.911H318.5c.06.151.18.3.18.4,0,.651-1.8.752-2.164.8a27.983,27.983,0,0,1-4.931,4.561,109.326,109.326,0,0,1,15.633,5.111,30.228,30.228,0,0,0-4.87,5.161,92.327,92.327,0,0,0-16.9-6.615c-5.471,2.505-12.446,5.011-26.4,6.264a10.4,10.4,0,0,0-3.788-5.612c12.566.151,18.4-1.7,21.585-2.806-3.427-.8-4.149-.952-6.493-1.453Zm3.727-24h-5.712v4.359h5.712Zm4.81,16.887a20.36,20.36,0,0,1-2.766,2.405c4.209.551,8.178,1.4,9.2,1.6a25.2,25.2,0,0,0,5.05-4.009Zm7.7-24h-5.712v2.556h5.712Zm-5.712,11.475h5.712V15h-5.712Zm12.867,0h5.471V15h-5.471Z" transform="translate(-102.694 -1.166)" fill="#FF00FF"/>
</svg>
