<svg xmlns="http://www.w3.org/2000/svg" width="249.96" height="44.803" viewBox="0 0 249.96 44.803">
  <g id="Group_86250" data-name="Group 86250" transform="translate(0)">
    <path id="Path_113990" data-name="Path 113990" d="M5.7,5v6.651H21.539v21.8H0V39.9H51.958v-6.45H30.179v-21.8h16.08V5Z" fill="#FF00FF"/>
    <path id="Path_113991" data-name="Path 113991" d="M61.981,1.1C70.8,4.8,74.88,7.6,77.7,9.7a47.256,47.256,0,0,0-4.98,5.8A62.819,62.819,0,0,0,56.941,7Zm-4.26,35.152c14.4-2.55,32.758-10.5,45.058-27.152A30.854,30.854,0,0,0,108,14.951c-3.9,5-15.179,19.151-43.5,27.651-.12.5-.179,1.1-1.019,1.1-.421,0-.781-.4-1.08-.85Z" fill="#FF00FF"/>
    <path id="Path_113992" data-name="Path 113992" d="M127.08,13.2c8.4,3.5,16.619,7.951,21.659,12.1-2.34,2.05-3.18,2.9-5.76,5.45a85.13,85.13,0,0,0-18.959-11.2v24.4H115.5V.1l8.519.4c.6.051,1.14.1,1.14.551,0,.549-.78.7-1.14.75v15Z" fill="#FF00FF"/>
    <path id="Path_113993" data-name="Path 113993" d="M162.3,1.25c.72.05,1.2.05,1.2.5,0,.5-.719.75-1.2.95V26.9h-8.4V.95ZM190.14.35c.9.05,1.2.2,1.2.45,0,.65-.78.85-1.2,1V18c0,16.7-11.7,22.751-23.279,26.8a13.077,13.077,0,0,0-5.28-5.451c19.62-5.35,20.039-15.8,20.039-21.3V0Z" fill="#FF00FF"/>
    <rect id="Rectangle_6709" data-name="Rectangle 6709" width="51.778" height="7.101" transform="translate(198.181 18.701)" fill="#FF00FF"/>
  </g>
</svg>
