<svg xmlns="http://www.w3.org/2000/svg" width="666.934" height="279.157" viewBox="0 0 666.934 279.157">
  <g id="Group_86466" data-name="Group 86466" transform="translate(-2 -0.001)">
    <g id="Group_86572" data-name="Group 86572" transform="translate(-1.067)">
      <path id="Path_114450" data-name="Path 114450" d="M23.426,1.76,43.36,53.984,63.293,1.76H83.942V68.893H68.608V16.072L48.676,68.893H38.045L18.111,16.072V68.893H2.88V1.76Z" transform="translate(0.187 0.113)" fill="#fff"/>
      <path id="Path_114451" data-name="Path 114451" d="M132.043,1.76l30.565,67.132H146.661l-5.623-13.46H105.567l-5.724,13.46H84L114.46,1.76Zm-8.791,12.012-13.8,32.459h27.6Z" transform="translate(5.451 0.113)" fill="#fff"/>
      <path id="Path_114452" data-name="Path 114452" d="M206.762,1.76c22.693,0,27.191,11.161,27.191,18.062,0,12.779-11.755,16.1-15.946,17.378,4.6.769,7.871,1.448,11.244,5.114a14.2,14.2,0,0,1,3.476,9.116v6.389c0,7.838,1.839,8.859,3.577,9.882v1.192H219.643c-1.329-2.555-2.147-4.088-2.147-9.455V52.962c0-10.48-10.938-10.734-14.413-10.734H178.14V68.892H162.909V1.76ZM178.14,11.642v20.7h26.988c7.155,0,13.187-3.833,13.187-10.563,0-7.071-6.236-10.139-13.187-10.139Z" transform="translate(10.572 0.113)" fill="#fff"/>
      <path id="Path_114453" data-name="Path 114453" d="M251.776,1.76V31.408L293.483,1.76H313.11l-37,26.069,39.56,41.064H296.653l-32-32.374-12.881,9.541V68.893H236.444V1.76Z" transform="translate(15.344 0.113)" fill="#fff"/>
      <path id="Path_114454" data-name="Path 114454" d="M380.408,1.76v9.882h-48.76V29.619h43.24V39.5h-43.24V59.01h49.885v9.883H316.314V1.76Z" transform="translate(20.527 0.113)" fill="#fff"/>
      <path id="Path_114455" data-name="Path 114455" d="M452.228,1.76v9.882h-28.52V68.893H408.477V11.642H380.059V1.76Z" transform="translate(24.664 0.113)" fill="#fff"/>
      <rect id="Rectangle_6822" data-name="Rectangle 6822" width="15.231" height="67.133" transform="translate(483.438 1.873)" fill="#fff"/>
      <path id="Path_114456" data-name="Path 114456" d="M493.98,1.76l44.058,48.986V1.76H553.27V68.893H538.038L493.98,19.907V68.893H478.648V1.76Z" transform="translate(31.062 0.113)" fill="#fff"/>
      <path id="Path_114457" data-name="Path 114457" d="M633.973,33.992V69.007H623.138l-.716-8.6c-7.973,8.178-16.559,10.479-26.68,10.479-26.17,0-40.583-15.08-40.583-35.356C555.159,13.546,571.414,0,595.538,0c29.747,0,36.187,18.231,38.129,23.683h-16.15C613.222,12.1,601.365,10.82,595.231,10.82c-16.356,0-24.33,10.479-24.33,23.768,0,13.716,5.317,18.147,7.872,20.277,5.112,4.26,11.449,5.2,16.049,5.2,10.529,0,20.239-4,23.818-16.612H598.3V33.992Z" transform="translate(36.027)" fill="#fff"/>
    </g>
    <g id="Group_86573" data-name="Group 86573" transform="translate(91.693)">
      <path id="Path_114458" data-name="Path 114458" d="M50.275,130.958a11.235,11.235,0,0,0-2.761-6.3c-1.941-2.385-5.623-3.834-12.88-3.834-3.578,0-16.253,0-16.253,7.5,0,5.878,4.806,7.241,25.659,13.034C56.2,144.759,67.857,148,67.857,159.924c0,7.241-5.929,20.957-32.1,20.957-15.538,0-34.346-4.6-35.47-22.32H16.235c.408,7.5,6.337,11.5,19.114,11.5,3.476,0,9.1-.426,12.778-2.471,2.25-1.278,4.089-3.834,4.089-6.305,0-5.281-5.416-6.9-18.5-10.223-18.809-4.771-31.076-8.519-31.076-21.3C2.638,122.524,7.852,110,33.511,110c18.91,0,29.643,5.367,32.5,20.957Z" transform="translate(1.019 -5.861)" fill="#fff"/>
      <path id="Path_114459" data-name="Path 114459" d="M126.81,135.047c-.511-5.963-4.4-14.227-19.116-14.227-6.746,0-13.289,1.619-17.582,6.645-4.8,5.793-5.928,12.864-5.928,18.231,0,7.838,2.555,16.442,9.3,20.958,5.009,3.322,11.346,3.407,13.8,3.407,13.391,0,18.5-6.048,19.728-15.42H142.45c-1.33,6.134-5.623,26.24-34.449,26.24-30.87,0-39.458-19.766-39.458-35.185,0-18.487,11.449-35.7,39.151-35.7,12.165,0,30.156,3.663,34.245,25.047Z" transform="translate(5.448 -5.861)" fill="#fff"/>
      <rect id="Rectangle_6823" data-name="Rectangle 6823" width="15.231" height="67.133" transform="translate(156.488 106.012)" fill="#fff"/>
      <path id="Path_114460" data-name="Path 114460" d="M235.449,111.76v9.882h-48.76v17.976h43.24V149.5h-43.24V169.01h49.885v9.883H171.355V111.76Z" transform="translate(12.12 -5.748)" fill="#fff"/>
      <path id="Path_114461" data-name="Path 114461" d="M254.559,111.76l44.058,48.986V111.76h15.231v67.133H298.617l-44.058-48.986v48.986H239.227V111.76Z" transform="translate(16.525 -5.748)" fill="#fff"/>
      <path id="Path_114462" data-name="Path 114462" d="M374.39,135.047c-.511-5.963-4.4-14.227-19.116-14.227-6.746,0-13.289,1.619-17.582,6.645-4.8,5.793-5.928,12.864-5.928,18.231,0,7.838,2.555,16.442,9.3,20.958,5.009,3.322,11.346,3.407,13.8,3.407,13.391,0,18.5-6.048,19.728-15.42H390.03c-1.33,6.134-5.623,26.24-34.449,26.24-30.87,0-39.458-19.766-39.458-35.185,0-18.487,11.449-35.7,39.151-35.7,12.165,0,30.156,3.663,34.245,25.047Z" transform="translate(21.515 -5.861)" fill="#fff"/>
      <path id="Path_114463" data-name="Path 114463" d="M457.11,111.76v9.882h-48.76v17.976h43.24V149.5h-43.24V169.01h49.885v9.883H393.016V111.76Z" transform="translate(26.505 -5.748)" fill="#fff"/>
    </g>
    <g id="Group_86574" data-name="Group 86574" transform="translate(101)">
      <path id="Path_114464" data-name="Path 114464" d="M58.267,245.047c-.511-5.963-4.4-14.227-19.116-14.227-6.746,0-13.289,1.619-17.582,6.645-4.8,5.793-5.928,12.864-5.928,18.231,0,7.838,2.555,16.442,9.3,20.958,5.009,3.322,11.346,3.407,13.8,3.407,13.391,0,18.5-6.048,19.728-15.42H73.907c-1.33,6.134-5.623,26.24-34.449,26.24C8.587,290.882,0,271.116,0,255.7,0,237.21,11.449,220,39.151,220c12.165,0,30.156,3.663,34.245,25.047Z" transform="translate(0 -11.725)" fill="#fff"/>
      <path id="Path_114465" data-name="Path 114465" d="M153.88,255.441c0,20.872-16.458,35.441-40.174,35.441-23.612,0-40.173-14.569-40.173-35.441,0-20.106,15.64-35.441,40.173-35.441,24.636,0,40.174,15.334,40.174,35.441m-64.605,0c0,18.572,13.187,24.62,24.431,24.62,10.223,0,24.533-5.111,24.533-24.62,0-18.743-13.39-24.621-24.533-24.621-10.834,0-24.431,5.623-24.431,24.621" transform="translate(4.772 -11.725)" fill="#fff"/>
      <path id="Path_114466" data-name="Path 114466" d="M170.754,221.76v42.512c0,9.8,8.28,15.675,21.672,15.675,12.573,0,22.386-4.771,22.386-15.76V221.76h15.231v41.4c0,19.34-15.64,27.6-36.9,27.6-22.59,0-37.719-8.264-37.719-28.2V221.76Z" transform="translate(10.086 -11.609)" fill="#fff"/>
      <path id="Path_114467" data-name="Path 114467" d="M278.858,221.761c22.693,0,27.191,11.16,27.191,18.061,0,12.78-11.755,16.1-15.946,17.379,4.6.768,7.871,1.448,11.244,5.113a14.2,14.2,0,0,1,3.476,9.115v6.389c0,7.838,1.839,8.86,3.577,9.882v1.193H291.739c-1.329-2.556-2.147-4.089-2.147-9.456v-6.475c0-10.48-10.938-10.734-14.413-10.734H250.236v26.665H235.005V221.761Zm-28.622,9.882v20.7h26.988c7.155,0,13.187-3.834,13.187-10.564,0-7.071-6.236-10.138-13.187-10.138Z" transform="translate(15.25 -11.609)" fill="#fff"/>
      <path id="Path_114468" data-name="Path 114468" d="M356.51,240.958a11.226,11.226,0,0,0-2.76-6.3c-1.942-2.385-5.623-3.834-12.881-3.834-3.577,0-16.252,0-16.252,7.5,0,5.878,4.8,7.241,25.659,13.034,12.163,3.408,23.817,6.645,23.817,18.573,0,7.241-5.929,20.957-32.1,20.957-15.539,0-34.347-4.6-35.471-22.32H322.47c.409,7.5,6.337,11.5,19.115,11.5,3.476,0,9.1-.426,12.778-2.471,2.25-1.278,4.089-3.834,4.089-6.305,0-5.281-5.417-6.9-18.5-10.223-18.809-4.771-31.076-8.519-31.076-21.3,0-7.241,5.214-19.764,30.871-19.764,18.911,0,29.645,5.367,32.506,20.957Z" transform="translate(19.892 -11.725)" fill="#fff"/>
      <path id="Path_114469" data-name="Path 114469" d="M441.848,221.76v9.882H393.088v17.977h43.24V259.5h-43.24V279.01h49.885v9.883H377.754V221.76Z" transform="translate(24.515 -11.609)" fill="#fff"/>
    </g>
  </g>
</svg>
