<svg xmlns="http://www.w3.org/2000/svg" width="910.354" height="305.153" viewBox="0 0 910.354 305.153">
  <g id="Group_86858" data-name="Group 86858" transform="translate(-470 -170)">
    <g id="ttl" transform="translate(469.766 170)">
      <g id="Group_97" data-name="Group 97" transform="translate(183.546 0)">
        <path id="Path_262" data-name="Path 262" d="M282.3,8.361V82.691h16.979V49.3h48.787V82.691h16.866V8.361H348.066v30H299.279v-30Z" transform="translate(-282.3 -6.286)"/>
        <path id="Path_263" data-name="Path 263" d="M415.639,57.6H385.076l15.281-35.939ZM390.623,8.361,356.892,82.692h17.544l6.339-14.9h39.278l6.226,14.9h17.658L410.093,8.361Z" transform="translate(-268.94 -6.286)"/>
        <path id="Path_264" data-name="Path 264" d="M435.419,8.361V82.691H452.4V57.411L466.66,46.847l35.43,35.845h21.054L479.338,37.225,520.315,8.361H498.581L452.4,41.187V8.361Z" transform="translate(-254.875 -6.286)"/>
        <path id="Path_265" data-name="Path 265" d="M514.618,8.361V53.544c0,22.073,16.753,31.223,41.769,31.223,23.546,0,40.863-9.15,40.863-30.562V8.361H580.384V55.337c0,12.168-10.865,17.451-24.789,17.451-14.827,0-24-6.509-24-17.356V8.361Z" transform="translate(-240.69 -6.286)"/>
        <path id="Path_266" data-name="Path 266" d="M593.817,8.361V82.691H610.8V49.3h48.787V82.691h16.866V8.361H659.583v30H610.8v-30Z" transform="translate(-226.505 -6.286)"/>
        <path id="Path_267" data-name="Path 267" d="M714.815,18.581c12.338,0,27.167,6.509,27.167,27.261,0,21.6-15.846,27.261-27.167,27.261-12.451,0-27.052-6.7-27.052-27.261C687.763,24.806,702.817,18.581,714.815,18.581Zm0-11.98c-27.167,0-44.485,16.979-44.485,39.241,0,23.11,18.337,39.241,44.485,39.241,26.261,0,44.487-16.13,44.487-39.241C759.3,23.58,742.1,6.6,714.815,6.6Z" transform="translate(-212.801 -6.601)"/>
        <path id="Path_268" data-name="Path 268" d="M788.71,19.3c14.149,0,25.242,8.112,25.242,26.223,0,20.281-13.81,26.223-25.242,26.223H769.468V19.3ZM752.6,8.361V82.692h35.091c3.056,0,16.186-.566,25.468-4.811C824.819,72.6,831.272,60.713,831.272,45.9c0-35.279-32.6-37.543-43.58-37.543Z" transform="translate(-198.066 -6.286)"/>
        <path id="Path_269" data-name="Path 269" d="M867.932,18.581c12.338,0,27.167,6.509,27.167,27.261,0,21.6-15.846,27.261-27.167,27.261-12.451,0-27.052-6.7-27.052-27.261C840.88,24.806,855.934,18.581,867.932,18.581Zm0-11.98c-27.167,0-44.485,16.979-44.485,39.241,0,23.11,18.337,39.241,44.485,39.241,26.261,0,44.487-16.13,44.487-39.241C912.419,23.58,895.213,6.6,867.932,6.6Z" transform="translate(-185.377 -6.601)"/>
      </g>
      <g id="Group_104" data-name="Group 104" transform="translate(1.712 113.285)">
        <path id="Path_287" data-name="Path 287" d="M165.345,129.317c14.168,0,25.275,8.123,25.275,26.257,0,20.307-13.829,26.257-25.275,26.257H146.077V129.317Zm-36.156-10.956v74.427h35.136c3.061,0,16.207-.567,25.5-4.817,11.674-5.289,18.136-17.19,18.136-32.019,0-35.324-32.644-37.591-43.637-37.591Z" transform="translate(-129.189 -116.282)"/>
        <path id="Path_288" data-name="Path 288" d="M256.94,167.664h-30.6l15.3-35.986Zm-25.048-49.3-33.774,74.427h17.567l6.347-14.923H261.36l6.234,14.923h17.681l-33.888-74.427Z" transform="translate(-116.739 -116.282)"/>
        <path id="Path_289" data-name="Path 289" d="M272.515,118.36v10.956h31.509v63.471h16.888V129.317h31.622V118.36Z" transform="translate(-103.3 -116.282)"/>
        <path id="Path_290" data-name="Path 290" d="M399.4,167.664H368.8l15.3-35.986Zm-25.048-49.3-33.774,74.427h17.567l6.347-14.923h39.329l6.234,14.923h17.681l-33.888-74.427Z" transform="translate(-91.006 -116.282)"/>
        <path id="Path_291" data-name="Path 291" d="M517.613,139.835c-3.174-17.284-15.074-23.235-36.041-23.235-28.45,0-34.23,13.884-34.23,21.912,0,14.168,13.6,18.323,34.456,23.613,14.508,3.684,20.515,5.478,20.515,11.334,0,2.739-2.04,5.573-4.534,6.989-4.08,2.267-10.313,2.739-14.168,2.739-14.168,0-20.74-4.439-21.195-12.751H444.735c1.247,19.646,22.1,24.746,39.329,24.746,29.015,0,35.59-15.207,35.59-23.235,0-13.223-12.922-16.812-26.41-20.59-23.121-6.423-28.447-7.934-28.447-14.451,0-8.312,14.053-8.312,18.02-8.312,8.048,0,12.129,1.606,14.281,4.25a12.447,12.447,0,0,1,3.061,6.989Z" transform="translate(-72.192 -116.6)"/>
        <path id="Path_292" data-name="Path 292" d="M594.369,144.369c-4.534-23.707-24.48-27.768-37.969-27.768-30.715,0-43.409,19.079-43.409,39.575,0,17.1,9.522,39.008,43.75,39.008,31.962,0,36.722-22.29,38.2-29.091H577.821c-1.36,10.39-7.027,17.1-21.875,17.1-2.72,0-9.747-.094-15.3-3.778-7.48-5.006-10.314-14.545-10.314-23.235,0-5.95,1.247-13.79,6.574-20.212,4.76-5.573,12.014-7.367,19.495-7.367,16.321,0,20.628,9.162,21.195,15.773Z" transform="translate(-59.863 -116.6)"/>
        <rect id="Rectangle_91" data-name="Rectangle 91" width="16.889" height="74.427" transform="translate(544.59 2.079)"/>
        <path id="Path_293" data-name="Path 293" d="M615.8,118.36v74.427h72.311V181.831H632.8V160.2h47.944V149.246H632.8V129.317h54.063V118.36Z" transform="translate(-41.292 -116.282)"/>
        <path id="Path_294" data-name="Path 294" d="M683.674,118.36v74.427h17V138.478l48.85,54.309h16.888V118.36H749.525V172.67l-48.85-54.309Z" transform="translate(-29.032 -116.282)"/>
        <path id="Path_295" data-name="Path 295" d="M841.947,144.369c-4.534-23.707-24.48-27.768-37.969-27.768-30.715,0-43.409,19.079-43.409,39.575,0,17.1,9.522,39.008,43.749,39.008,31.962,0,36.722-22.29,38.2-29.091H825.4c-1.36,10.39-7.027,17.1-21.875,17.1-2.72,0-9.747-.094-15.3-3.778-7.48-5.006-10.314-14.545-10.314-23.235,0-5.95,1.247-13.79,6.574-20.212,4.76-5.573,12.014-7.367,19.495-7.367,16.321,0,20.628,9.162,21.195,15.773Z" transform="translate(-15.143 -116.6)"/>
        <path id="Path_296" data-name="Path 296" d="M837.464,118.36v74.427h72.311V181.831h-55.31V160.2h47.944V149.246H854.465V129.317h54.063V118.36Z" transform="translate(-1.253 -116.282)"/>
      </g>
      <g id="Group_103" data-name="Group 103" transform="translate(551.628 226.571)">
        <path id="Path_297" data-name="Path 297" d="M676.351,254.369c-4.534-23.707-24.48-27.768-37.969-27.768-30.715,0-43.409,19.079-43.409,39.575,0,17.1,9.522,39.008,43.749,39.008,31.962,0,36.722-22.29,38.2-29.091H659.8c-1.36,10.39-7.027,17.1-21.875,17.1-2.72,0-9.747-.094-15.3-3.778-7.48-5.006-10.314-14.545-10.314-23.235,0-5.95,1.247-13.79,6.574-20.212,4.76-5.573,12.014-7.367,19.495-7.367,16.321,0,20.628,9.162,21.195,15.773Z" transform="translate(-594.972 -226.601)"/>
        <path id="Path_298" data-name="Path 298" d="M725.409,277.664h-30.6l15.3-35.986Zm-25.048-49.3-33.774,74.427h17.567l6.347-14.923H729.83l6.234,14.923h17.681l-33.888-74.427Z" transform="translate(-582.036 -226.283)"/>
        <path id="Path_299" data-name="Path 299" d="M745.689,228.36v74.427h16.888V244.228l22.1,58.559h11.787l22.1-58.559v58.559h17V228.36H812.674l-22.1,57.9-22.1-57.9Z" transform="translate(-567.748 -226.283)"/>
        <path id="Path_300" data-name="Path 300" d="M876.8,239.317c4.534,0,16.434,1.417,16.434,13.129,0,11.806-12.126,12.94-16.434,12.94H848.689V239.317Zm-45-10.956v74.427h16.889V276.342h29.921c24.483,0,31.963-13.034,31.963-23.9,0-13.7-11.789-24.085-31.963-24.085Z" transform="translate(-552.193 -226.283)"/>
      </g>
    </g>
    <g id="Group_106" data-name="Group 106" transform="translate(469.768 181)">
      <path id="Path_115330" data-name="Path 115330" d="M14.256,0h4.9L23.5-18.912H19.2L16.512-4.872,14.16-18.912H9.84L7.488-4.872,4.8-18.912H.5L4.848,0h4.9L12-13.248ZM30.672-18.912H26.208V0h4.464ZM52.2,0V-18.912H47.952L48.1-6.048,38.544-18.912h-4.1V0h4.248l-.144-12.864L48.1,0ZM65.04-15.384h6.384v-3.528H54.312v3.528H60.7V0H65.04Zm12.984,12V-8.04h9.6v-3.24h-9.6v-4.248H88.9v-3.384H73.7V0h15.5V-3.384Zm30.5-1.536a3.924,3.924,0,0,0-1.608-3.36A3.925,3.925,0,0,0,104.9-8.9,5.465,5.465,0,0,0,107.5-10.44a5.253,5.253,0,0,0,1.224-3.336c0-2.664-1.872-5.136-6.7-5.136h-10.2V0h4.32V-7.2h4.992a2.69,2.69,0,0,1,3.1,2.832v1.944A5.913,5.913,0,0,0,104.712,0h4.56V-.384c-.36-.192-.744-.408-.744-2.472ZM96.144-15.528h5.52a2.537,2.537,0,0,1,2.76,2.52,2.682,2.682,0,0,1-2.88,2.592h-5.4Z" transform="translate(0.232 38)"/>
      <g id="Path_115326" data-name="Path 115326" transform="translate(0.232 45)" fill="none">
        <path d="M0,0H110V3.475H0Z" stroke="none"/>
        <path d="M 0 -6.67572021484375e-06 L 110 -6.67572021484375e-06 L 110 3.475160121917725 L 0 3.475160121917725 L 0 -6.67572021484375e-06 Z" stroke="none" fill="#000"/>
      </g>
    </g>
  </g>
</svg>
