<svg xmlns="http://www.w3.org/2000/svg" width="664.983" height="282.844" viewBox="0 0 664.983 282.844">
  <g id="txt" transform="translate(-42.509 -357.612)">
    <g id="ttl" transform="translate(40 416.667)">
      <g id="Group_97" data-name="Group 97" transform="translate(68 0.333)">
        <path id="Path_262" data-name="Path 262" d="M282.3,8.361V63.052h12.493V38.483h35.9v24.57H343.1V8.361H330.69V30.432h-35.9V8.361Z" transform="translate(-282.3 -6.834)"/>
        <path id="Path_263" data-name="Path 263" d="M400.117,44.591H377.63l11.244-26.444ZM381.711,8.361,356.892,63.053H369.8l4.664-10.966h28.9l4.581,10.966h12.993l-24.9-54.692Z" transform="translate(-292.178 -6.834)"/>
        <path id="Path_264" data-name="Path 264" d="M435.419,8.361V63.052h12.493v-18.6l10.494-7.773,26.069,26.374h15.491L467.734,29.6l30.15-21.238H481.893L447.912,32.514V8.361Z" transform="translate(-302.577 -6.834)"/>
        <path id="Path_265" data-name="Path 265" d="M514.618,8.361V41.606c0,16.241,12.326,22.973,30.733,22.973,17.325,0,30.067-6.732,30.067-22.488V8.361h-12.41V42.925c0,8.953-7.995,12.84-18.24,12.84-10.91,0-17.657-4.789-17.657-12.771V8.361Z" transform="translate(-313.065 -6.834)"/>
        <path id="Path_266" data-name="Path 266" d="M593.817,8.361V63.052H606.31V38.483h35.9v24.57h12.41V8.361h-12.41V30.432h-35.9V8.361Z" transform="translate(-323.553 -6.834)"/>
        <path id="Path_267" data-name="Path 267" d="M703.062,15.416c9.078,0,19.989,4.789,19.989,20.058,0,15.894-11.659,20.058-19.989,20.058-9.162,0-19.9-4.928-19.9-20.058C683.157,20,694.233,15.416,703.062,15.416Zm0-8.815c-19.989,0-32.732,12.493-32.732,28.873,0,17,13.492,28.873,32.732,28.873,19.323,0,32.733-11.868,32.733-28.873C735.794,19.094,723.135,6.6,703.062,6.6Z" transform="translate(-333.685 -6.601)"/>
        <path id="Path_268" data-name="Path 268" d="M779.17,16.412c10.411,0,18.573,5.969,18.573,19.295C797.742,50.629,787.582,55,779.17,55H765.012V16.412ZM752.6,8.361V63.053h25.82c2.249,0,11.909-.416,18.739-3.54,8.579-3.887,13.327-12.632,13.327-23.529,0-25.958-23.987-27.624-32.065-27.624Z" transform="translate(-344.58 -6.834)"/>
        <path id="Path_269" data-name="Path 269" d="M856.179,15.416c9.078,0,19.989,4.789,19.989,20.058,0,15.894-11.659,20.058-19.989,20.058-9.161,0-19.9-4.928-19.9-20.058C836.274,20,847.35,15.416,856.179,15.416Zm0-8.815c-19.989,0-32.732,12.493-32.732,28.873,0,17,13.493,28.873,32.732,28.873,19.323,0,32.733-11.868,32.733-28.873C888.911,19.094,876.252,6.6,856.179,6.6Z" transform="translate(-353.962 -6.601)"/>
      </g>
      <g id="Group_86439" data-name="Group 86439" transform="translate(-430.478 108.575)">
        <g id="Group_104" data-name="Group 104" transform="translate(432.986 -25.221)">
          <path id="Path_287" data-name="Path 287" d="M155.653,126.38c10.37,0,18.5,5.945,18.5,19.219,0,14.863-10.122,19.219-18.5,19.219h-14.1V126.38Zm-26.464-8.019v54.476h25.717c2.241,0,11.862-.415,18.666-3.526,8.545-3.871,13.274-12.582,13.274-23.436,0-25.855-23.894-27.515-31.94-27.515Z" transform="translate(-129.189 -116.839)"/>
          <path id="Path_288" data-name="Path 288" d="M241.172,154.448h-22.4l11.2-26.339Zm-18.334-36.087-24.721,54.476h12.858l4.646-10.923h28.787l4.563,10.923h12.942l-24.8-54.476Z" transform="translate(-138.553 -116.839)"/>
          <path id="Path_289" data-name="Path 289" d="M272.515,118.36v8.019h23.062v46.457h12.361V126.38h23.145V118.36Z" transform="translate(-148.66 -116.839)"/>
          <path id="Path_290" data-name="Path 290" d="M383.632,154.448h-22.4l11.2-26.339ZM365.3,118.361l-24.721,54.476h12.858l4.646-10.923h28.787l4.563,10.923h12.942l-24.8-54.476Z" transform="translate(-157.907 -116.839)"/>
          <path id="Path_291" data-name="Path 291" d="M498.077,133.606c-2.323-12.651-11.034-17.006-26.38-17.006-20.823,0-25.054,10.162-25.054,16.039,0,10.37,9.955,13.412,25.219,17.283,10.619,2.7,15.015,4.01,15.015,8.3a6.406,6.406,0,0,1-3.318,5.116c-2.986,1.659-7.548,2-10.37,2-10.37,0-15.18-3.249-15.513-9.333H444.735c.913,14.379,16.177,18.113,28.787,18.113,21.237,0,26.05-11.13,26.05-17.006,0-9.678-9.458-12.305-19.33-15.071-16.923-4.7-20.822-5.807-20.822-10.577,0-6.084,10.286-6.084,13.189-6.084,5.891,0,8.877,1.175,10.453,3.111a9.111,9.111,0,0,1,2.241,5.116Z" transform="translate(-172.056 -116.6)"/>
          <path id="Path_292" data-name="Path 292" d="M572.554,136.926c-3.318-17.352-17.918-20.325-27.791-20.325-22.482,0-31.773,13.965-31.773,28.966,0,12.513,6.969,28.552,32.022,28.552,23.394,0,26.878-16.315,27.957-21.293H560.442c-1,7.6-5.143,12.513-16.011,12.513-1.991,0-7.134-.069-11.2-2.765-5.475-3.664-7.549-10.646-7.549-17.006,0-4.355.913-10.093,4.812-14.794,3.484-4.079,8.794-5.392,14.269-5.392,11.946,0,15.1,6.706,15.513,11.545Z" transform="translate(-181.329 -116.6)"/>
          <rect id="Rectangle_91" data-name="Rectangle 91" width="12.362" height="54.476" transform="translate(398.606 1.521)"/>
          <path id="Path_293" data-name="Path 293" d="M615.8,118.36v54.476H668.73v-8.019H628.246V148.986h35.092v-8.019H628.246V126.38h39.571V118.36Z" transform="translate(-195.296 -116.839)"/>
          <path id="Path_294" data-name="Path 294" d="M683.674,118.36v54.476h12.444V133.086l35.755,39.751h12.361V118.36H731.873v39.751L696.117,118.36Z" transform="translate(-204.516 -116.839)"/>
          <path id="Path_295" data-name="Path 295" d="M820.133,136.926c-3.318-17.352-17.918-20.325-27.791-20.325-22.482,0-31.773,13.965-31.773,28.966,0,12.513,6.969,28.552,32.022,28.552,23.394,0,26.879-16.315,27.957-21.293H808.021c-1,7.6-5.143,12.513-16.011,12.513-1.991,0-7.134-.069-11.2-2.765-5.475-3.664-7.549-10.646-7.549-17.006,0-4.355.912-10.093,4.812-14.794,3.484-4.079,8.794-5.392,14.269-5.392,11.946,0,15.1,6.706,15.513,11.545Z" transform="translate(-214.963 -116.6)"/>
          <path id="Path_296" data-name="Path 296" d="M837.464,118.36v54.476h52.927v-8.019H849.908V148.986H885v-8.019H849.908V126.38h39.571V118.36Z" transform="translate(-225.409 -116.839)"/>
        </g>
        <g id="Group_103" data-name="Group 103" transform="translate(633.986 57.697)">
          <path id="Path_297" data-name="Path 297" d="M654.536,246.926c-3.318-17.352-17.918-20.325-27.791-20.325-22.482,0-31.773,13.965-31.773,28.966,0,12.513,6.969,28.551,32.022,28.551,23.394,0,26.878-16.315,27.957-21.293H642.424c-1,7.6-5.143,12.513-16.011,12.513-1.991,0-7.134-.069-11.2-2.765-5.475-3.664-7.549-10.646-7.549-17.006,0-4.355.913-10.093,4.812-14.794,3.484-4.079,8.794-5.392,14.269-5.392,11.946,0,15.1,6.706,15.513,11.545Z" transform="translate(-594.972 -226.601)"/>
          <path id="Path_298" data-name="Path 298" d="M709.641,264.448h-22.4l11.2-26.339Zm-18.334-36.087-24.721,54.476h12.858l4.646-10.923h28.786l4.563,10.923h12.941l-24.8-54.476Z" transform="translate(-604.701 -226.84)"/>
          <path id="Path_299" data-name="Path 299" d="M745.689,228.36v54.476H758.05V239.975l16.177,42.862h8.628l16.178-42.862v42.862h12.443V228.36H794.718l-16.177,42.378L762.364,228.36Z" transform="translate(-615.447 -226.84)"/>
          <path id="Path_300" data-name="Path 300" d="M864.734,236.38c3.318,0,12.029,1.037,12.029,9.609,0,8.641-8.876,9.471-12.029,9.471H844.162V236.38ZM831.8,228.361v54.476h12.362V263.48h21.9c17.92,0,23.4-9.54,23.4-17.49,0-10.024-8.629-17.629-23.4-17.629Z" transform="translate(-627.145 -226.84)"/>
        </g>
      </g>
      <g id="Group_86331" data-name="Group 86331" transform="translate(284.768 -78.143)">
        <path id="Path_115332" data-name="Path 115332" d="M14.256,0h4.9L23.5-18.912H19.2L16.512-4.872,14.16-18.912H9.84L7.488-4.872,4.8-18.912H.5L4.848,0h4.9L12-13.248ZM30.672-18.912H26.208V0h4.464ZM52.2,0V-18.912H47.952L48.1-6.048,38.544-18.912h-4.1V0h4.248l-.144-12.864L48.1,0ZM65.04-15.384h6.384v-3.528H54.312v3.528H60.7V0H65.04Zm12.984,12V-8.04h9.6v-3.24h-9.6v-4.248H88.9v-3.384H73.7V0h15.5V-3.384Zm30.5-1.536a3.924,3.924,0,0,0-1.608-3.36A3.925,3.925,0,0,0,104.9-8.9,5.465,5.465,0,0,0,107.5-10.44a5.253,5.253,0,0,0,1.224-3.336c0-2.664-1.872-5.136-6.7-5.136h-10.2V0h4.32V-7.2h4.992a2.69,2.69,0,0,1,3.1,2.832v1.944A5.913,5.913,0,0,0,104.712,0h4.56V-.384c-.36-.192-.744-.408-.744-2.472ZM96.144-15.528h5.52a2.537,2.537,0,0,1,2.76,2.52,2.682,2.682,0,0,1-2.88,2.592h-5.4Z" transform="translate(0.232 38)"/>
        <g id="Path_115325" data-name="Path 115325" transform="translate(0.232 45)" fill="none">
          <path d="M0,0H110V3.475H0Z" stroke="none"/>
          <path d="M 0 -6.67572021484375e-06 L 110 -6.67572021484375e-06 L 110 3.475160121917725 L 0 3.475160121917725 L 0 -6.67572021484375e-06 Z" stroke="none" fill="#000"/>
        </g>
      </g>
    </g>
  </g>
</svg>
