<svg xmlns="http://www.w3.org/2000/svg" width="370.979" height="152.966" viewBox="0 0 370.979 152.966">
  <g id="ttl" transform="translate(0 0.998)">
    <g id="Group_86463" data-name="Group 86463" transform="translate(0 -0.998)">
      <path id="Path_114430" data-name="Path 114430" d="M14.256,1.76,25.293,30.676,36.331,1.76H47.764V38.932h-8.49V9.685L28.237,38.932H22.351L11.313,9.685V38.932H2.88V1.76Z" transform="translate(-1.182 -0.723)" fill="#fff"/>
      <path id="Path_114431" data-name="Path 114431" d="M110.6,1.76l16.924,37.171h-8.83l-3.113-7.453H95.941l-3.169,7.453H84L100.865,1.76Zm-4.867,6.651L98.092,26.384h15.283Z" transform="translate(-34.471 -0.723)" fill="#fff"/>
      <g id="Group_86462" data-name="Group 86462">
        <path id="Path_114432" data-name="Path 114432" d="M187.191,1.76c12.565,0,15.056,6.18,15.056,10,0,7.076-6.509,8.915-8.829,9.622,2.547.426,4.358.8,6.226,2.831a7.86,7.86,0,0,1,1.925,5.047V32.8c0,4.34,1.018,4.905,1.981,5.472v.66h-9.225a8.932,8.932,0,0,1-1.189-5.235V30.111c0-5.8-6.056-5.943-7.981-5.943H171.343V38.931h-8.434V1.76ZM171.343,7.232V18.694h14.943c3.962,0,7.3-2.122,7.3-5.849,0-3.915-3.453-5.614-7.3-5.614Z" transform="translate(-66.853 -0.724)" fill="#fff"/>
        <path id="Path_114433" data-name="Path 114433" d="M244.933,1.76V18.176L268.026,1.76h10.867L258.4,16.194l21.9,22.737H269.782L252.065,21.006l-7.132,5.283V38.932h-8.49V1.76Z" transform="translate(-97.029 -0.724)" fill="#fff"/>
        <path id="Path_114434" data-name="Path 114434" d="M351.8,1.76V7.232h-27v9.954h23.942v5.472H324.8v10.8h27.621v5.472H316.314V1.76Z" transform="translate(-129.805 -0.724)" fill="#fff"/>
        <path id="Path_114435" data-name="Path 114435" d="M420.019,1.76V7.232H404.228v31.7h-8.434V7.232H380.059V1.76Z" transform="translate(-155.964 -0.724)" fill="#fff"/>
        <rect id="Rectangle_6820" data-name="Rectangle 6820" width="8.434" height="37.172" transform="translate(267.679 1.037)" fill="#fff"/>
        <path id="Path_114436" data-name="Path 114436" d="M487.137,1.76l24.395,27.124V1.76h8.434V38.932h-8.434L487.137,11.808V38.932h-8.49V1.76Z" transform="translate(-196.422 -0.724)" fill="#fff"/>
        <path id="Path_114437" data-name="Path 114437" d="M598.8,18.822V38.21h-6l-.4-4.764c-4.415,4.528-9.169,5.8-14.773,5.8-14.49,0-22.471-8.35-22.471-19.576,0-12.17,9-19.67,22.358-19.67,16.471,0,20.037,10.094,21.112,13.113h-8.942c-2.377-6.416-8.943-7.123-12.339-7.123-9.056,0-13.471,5.8-13.471,13.161,0,7.594,2.944,10.048,4.358,11.227a13.808,13.808,0,0,0,8.886,2.877c5.83,0,11.207-2.216,13.188-9.2H579.045V18.822Z" transform="translate(-227.819 -0.001)" fill="#fff"/>
        <path id="Path_114438" data-name="Path 114438" d="M27.966,121.6a6.221,6.221,0,0,0-1.529-3.491c-1.075-1.321-3.113-2.123-7.132-2.123-1.981,0-9,0-9,4.151,0,3.255,2.661,4.01,14.207,7.217,6.735,1.887,13.188,3.679,13.188,10.284,0,4.01-3.283,11.6-17.773,11.6-8.6,0-19.017-2.547-19.639-12.359H9.118c.226,4.151,3.509,6.368,10.583,6.368,1.925,0,5.038-.236,7.075-1.368a4.37,4.37,0,0,0,2.264-3.491c0-2.924-3-3.821-10.244-5.66C8.382,130.1,1.59,128.02,1.59,120.945,1.59,116.935,4.477,110,18.684,110c10.471,0,16.414,2.972,18,11.6Z" transform="translate(-0.119 -53.142)" fill="#fff"/>
        <path id="Path_114439" data-name="Path 114439" d="M100.805,123.869c-.283-3.3-2.434-7.877-10.584-7.877-3.735,0-7.358.9-9.735,3.679A15.667,15.667,0,0,0,77.2,129.765c0,4.34,1.415,9.1,5.15,11.6,2.774,1.84,6.283,1.886,7.641,1.886,7.415,0,10.245-3.349,10.924-8.538h8.547c-.736,3.4-3.113,14.529-19.075,14.529-17.093,0-21.848-10.944-21.848-19.482,0-10.236,6.339-19.765,21.678-19.765,6.736,0,16.7,2.028,18.961,13.869Z" transform="translate(-28.128 -53.142)" fill="#fff"/>
        <rect id="Rectangle_6821" data-name="Rectangle 6821" width="8.434" height="37.172" transform="translate(86.094 57.896)" fill="#fff"/>
        <path id="Path_114440" data-name="Path 114440" d="M206.844,111.76v5.472h-27v9.954h23.942v5.472H179.845v10.8h27.621v5.472H171.355V111.76Z" transform="translate(-70.319 -53.864)" fill="#fff"/>
        <path id="Path_114441" data-name="Path 114441" d="M247.717,111.76l24.395,27.124V111.76h8.434v37.172h-8.434l-24.395-27.124v27.124h-8.49V111.76Z" transform="translate(-98.171 -53.864)" fill="#fff"/>
        <path id="Path_114442" data-name="Path 114442" d="M348.385,123.869c-.283-3.3-2.434-7.877-10.585-7.877-3.735,0-7.358.9-9.735,3.679a15.667,15.667,0,0,0-3.282,10.094c0,4.34,1.415,9.1,5.15,11.6,2.774,1.84,6.283,1.886,7.641,1.886,7.415,0,10.245-3.349,10.924-8.538h8.547c-.736,3.4-3.113,14.529-19.075,14.529-17.093,0-21.848-10.944-21.848-19.482,0-10.236,6.339-19.765,21.678-19.765,6.736,0,16.7,2.028,18.961,13.869Z" transform="translate(-129.727 -53.142)" fill="#fff"/>
        <path id="Path_114443" data-name="Path 114443" d="M428.5,111.76v5.472h-27v9.954h23.942v5.472H401.506v10.8h27.621v5.472H393.016V111.76Z" transform="translate(-161.281 -53.864)" fill="#fff"/>
        <path id="Path_114444" data-name="Path 114444" d="M32.262,233.869c-.283-3.3-2.434-7.877-10.584-7.877-3.735,0-7.358.9-9.735,3.679A15.667,15.667,0,0,0,8.66,239.765c0,4.34,1.415,9.1,5.15,11.6,2.774,1.84,6.283,1.886,7.641,1.886,7.415,0,10.245-3.349,10.924-8.538h8.547c-.736,3.4-3.113,14.529-19.075,14.529C4.755,259.247,0,248.3,0,239.765,0,229.529,6.339,220,21.678,220c6.736,0,16.7,2.028,18.961,13.869Z" transform="translate(0 -106.281)" fill="#fff"/>
        <path id="Path_114445" data-name="Path 114445" d="M118.021,239.624c0,11.557-9.113,19.624-22.244,19.624-13.074,0-22.244-8.067-22.244-19.624,0-11.133,8.66-19.624,22.244-19.624,13.641,0,22.244,8.491,22.244,19.624m-35.772,0c0,10.283,7.3,13.632,13.527,13.632,5.66,0,13.584-2.83,13.584-13.632,0-10.378-7.414-13.633-13.584-13.633-6,0-13.527,3.113-13.527,13.633" transform="translate(-30.176 -106.281)" fill="#fff"/>
        <path id="Path_114446" data-name="Path 114446" d="M163.912,221.76V245.3c0,5.425,4.584,8.679,12,8.679,6.962,0,12.4-2.642,12.4-8.727V221.76h8.434v22.926c0,10.708-8.66,15.284-20.433,15.284-12.508,0-20.885-4.576-20.885-15.614v-22.6Z" transform="translate(-63.78 -107.003)" fill="#fff"/>
        <path id="Path_114447" data-name="Path 114447" d="M259.287,221.761c12.565,0,15.056,6.179,15.056,10,0,7.076-6.509,8.915-8.829,9.623,2.547.425,4.358.8,6.226,2.831a7.861,7.861,0,0,1,1.925,5.047V252.8c0,4.34,1.018,4.906,1.981,5.472v.66h-9.225a8.936,8.936,0,0,1-1.189-5.236v-3.585c0-5.8-6.056-5.943-7.981-5.943H243.439v14.764h-8.434V221.761Zm-15.848,5.472V238.7h14.943c3.962,0,7.3-2.123,7.3-5.849,0-3.915-3.453-5.613-7.3-5.613Z" transform="translate(-96.438 -107.004)" fill="#fff"/>
        <path id="Path_114448" data-name="Path 114448" d="M334.2,231.6a6.216,6.216,0,0,0-1.528-3.491c-1.076-1.321-3.113-2.123-7.132-2.123-1.981,0-9,0-9,4.151,0,3.255,2.66,4.01,14.207,7.217,6.735,1.887,13.188,3.679,13.188,10.284,0,4.009-3.283,11.6-17.773,11.6-8.6,0-19.018-2.547-19.64-12.359h8.829c.226,4.151,3.509,6.368,10.584,6.368,1.925,0,5.038-.236,7.075-1.368a4.37,4.37,0,0,0,2.264-3.491c0-2.924-3-3.821-10.244-5.66-10.415-2.642-17.207-4.717-17.207-11.793,0-4.01,2.887-10.944,17.093-10.944,10.471,0,16.414,2.972,18,11.6Z" transform="translate(-125.788 -106.281)" fill="#fff"/>
        <path id="Path_114449" data-name="Path 114449" d="M413.243,221.76v5.472h-27v9.954h23.942v5.472H386.245v10.8h27.621v5.472H377.754V221.76Z" transform="translate(-155.018 -107.003)" fill="#fff"/>
      </g>
    </g>
  </g>
</svg>
