<svg id="Group_86297" data-name="Group 86297" xmlns="http://www.w3.org/2000/svg" width="489.466" height="32.047" viewBox="0 0 489.466 32.047">
  <rect id="Rectangle_6751" data-name="Rectangle 6751" width="6.887" height="30.353" transform="translate(0 0.846)"/>
  <path id="Path_114125" data-name="Path 114125" d="M33.019.439V22.588L13.1.439H6.166V30.792H13.1V8.645L33.019,30.792h6.887V.439Z" transform="translate(5.707 0.406)"/>
  <path id="Path_114126" data-name="Path 114126" d="M24.935.439V4.91H37.782V30.792h6.886V4.91H57.563V.439Z" transform="translate(23.077 0.406)"/>
  <path id="Path_114127" data-name="Path 114127" d="M43.271.439V30.792H72.756V26.325H50.2V17.5H69.752V13.036H50.2V4.91H72.248V.439Z" transform="translate(40.046 0.406)"/>
  <path id="Path_114128" data-name="Path 114128" d="M80.162.44c10.259,0,12.292,5.047,12.292,8.166,0,5.778-5.314,7.28-7.211,7.858,2.08.347,3.56.655,5.085,2.311A6.416,6.416,0,0,1,91.9,22.9v2.888c0,3.545.832,4,1.617,4.467v.539H85.984a7.3,7.3,0,0,1-.97-4.275V23.588c0-4.737-4.945-4.852-6.518-4.852H67.22V30.791H60.335V.44ZM67.22,4.909v9.358h12.2c3.235,0,5.961-1.733,5.961-4.775,0-3.2-2.819-4.583-5.961-4.583Z" transform="translate(55.839 0.407)"/>
  <path id="Path_114129" data-name="Path 114129" d="M85.651.44,105.57,22.588V.44h6.887V30.793H105.57L85.651,8.644V30.793H78.717V.44Z" transform="translate(72.851 0.407)"/>
  <path id="Path_114130" data-name="Path 114130" d="M120.613,9.475a5.074,5.074,0,0,0-1.248-2.85c-.878-1.08-2.542-1.735-5.823-1.735-1.619,0-7.348,0-7.348,3.391,0,2.657,2.172,3.273,11.6,5.892,5.5,1.54,10.767,3.006,10.767,8.4,0,3.275-2.68,9.477-14.51,9.477-7.026,0-15.529-2.08-16.037-10.093h7.211c.185,3.389,2.863,5.2,8.642,5.2a13.118,13.118,0,0,0,5.776-1.117,3.572,3.572,0,0,0,1.848-2.852c0-2.388-2.449-3.119-8.366-4.621-8.5-2.157-14.048-3.851-14.048-9.629C99.077,5.663,101.434,0,113.033,0c8.551,0,13.4,2.426,14.7,9.475Z" transform="translate(90.71)"/>
  <path id="Path_114131" data-name="Path 114131" d="M122.587.44V12.687h19.919V.44h6.887V30.793h-6.887V17.158H122.587V30.793h-6.934V.44Z" transform="translate(107.034 0.407)"/>
  <rect id="Rectangle_6752" data-name="Rectangle 6752" width="6.886" height="30.353" transform="translate(261.415 0.847)"/>
  <path id="Path_114132" data-name="Path 114132" d="M161.117.44c8.224,0,13.032,4.238,13.032,9.822,0,4.431-3.05,9.745-13.032,9.745h-12.2V30.791H142.03V.44Zm-12.2,4.469V15.54h11.46c1.756,0,6.7-.464,6.7-5.278,0-4.775-4.854-5.353-6.7-5.353Z" transform="translate(131.445 0.407)"/>
  <path id="Path_114133" data-name="Path 114133" d="M198.922.44V4.909H186.027V30.793h-6.885V4.909H166.294V.44Z" transform="translate(153.901 0.407)"/>
  <path id="Path_114134" data-name="Path 114134" d="M220.115,16.022c0,9.437-7.44,16.024-18.165,16.024-10.675,0-18.161-6.587-18.161-16.024C183.789,6.932,190.861,0,201.95,0c11.139,0,18.165,6.932,18.165,16.022m-29.209,0c0,8.4,5.963,11.131,11.044,11.131,4.623,0,11.093-2.311,11.093-11.131,0-8.472-6.054-11.131-11.093-11.131-4.9,0-11.044,2.542-11.044,11.131" transform="translate(170.092)"/>
  <path id="Path_114135" data-name="Path 114135" d="M223.445.44c8.224,0,13.032,4.238,13.032,9.822,0,4.431-3.05,9.745-13.032,9.745h-12.2V30.791h-6.885V.44Zm-12.2,4.469V15.54H222.7c1.756,0,6.7-.464,6.7-5.278,0-4.775-4.854-5.353-6.7-5.353Z" transform="translate(189.128 0.407)"/>
  <path id="Path_114136" data-name="Path 114136" d="M238.37,28.4l-2.359-3.93,23.2-9.629-23.2-9.629L238.37,1.28l32.673,13.557Z" transform="translate(218.423 1.185)"/>
</svg>
