<svg xmlns="http://www.w3.org/2000/svg" viewBox="0 0 334.39 10.46"><defs><style>.cls-1{fill:#231815;}</style></defs><g id="Layer_2" data-name="Layer 2"><g id="フッター"><path class="cls-1" d="M0,4.35A3.54,3.54,0,0,1,3.61.66,3.54,3.54,0,0,1,7.22,4.35,3.57,3.57,0,0,1,3.61,8.08,3.57,3.57,0,0,1,0,4.35Zm6.7,0a3.09,3.09,0,1,0-6.18,0,3.09,3.09,0,1,0,6.18,0Zm-5,0A2,2,0,0,1,3.73,2.24a1.83,1.83,0,0,1,1.39.63l-.38.44a1.34,1.34,0,0,0-2.34,1c0,1,.52,1.6,1.33,1.6a1.69,1.69,0,0,0,1.14-.5l.33.48a2.12,2.12,0,0,1-1.51.63A2,2,0,0,1,1.67,4.35Z"/><path class="cls-1" d="M11,.62h.93V3.7h3.42V.62h.92V8h-.92V4.5H11.94V8H11Z"/><path class="cls-1" d="M17.82,6.55c0-1.18,1-1.77,3.33-2,0-.7-.23-1.37-1.11-1.37a3,3,0,0,0-1.63.58l-.36-.63a4.08,4.08,0,0,1,2.13-.71c1.32,0,1.88.89,1.88,2.23V8h-.75l-.08-.65h0a2.88,2.88,0,0,1-1.79.78A1.47,1.47,0,0,1,17.82,6.55Zm3.33.09V5.12c-1.82.22-2.44.67-2.44,1.37s.41.87,1,.87A2.22,2.22,0,0,0,21.15,6.64Z"/><path class="cls-1" d="M23.79,0h.9V5.4h0L27,2.53h1L26.24,4.72,28.29,8h-1L25.71,5.34l-1,1.19V8h-.9Z"/><path class="cls-1" d="M29.25,6V2.53h.91V5.86c0,1,.3,1.44,1,1.44.56,0,.95-.27,1.47-.92V2.53h.91V8h-.76l-.07-.85h0a2.33,2.33,0,0,1-1.79,1C29.76,8.09,29.25,7.35,29.25,6Z"/><path class="cls-1" d="M35.34,0h.91V2.18l0,1.12A2.55,2.55,0,0,1,38,2.39c1.14,0,1.66.74,1.66,2.13V8h-.91V4.64c0-1-.31-1.45-1-1.45A2.07,2.07,0,0,0,36.25,4V8h-.91Z"/><path class="cls-1" d="M41.06,5.25a2.54,2.54,0,1,1,5,0,2.54,2.54,0,1,1-5,0Zm4.1,0c0-1.25-.64-2.1-1.58-2.1S42,4,42,5.25s.63,2.08,1.57,2.08S45.16,6.5,45.16,5.25Z"/><path class="cls-1" d="M47.24,5.25c0-1.76,1.11-2.86,2.35-2.86A2.21,2.21,0,0,1,51.12,3l0-.94V0H52V8h-.74l-.08-.64h0a2.42,2.42,0,0,1-1.65.77C48.12,8.09,47.24,7.06,47.24,5.25Zm3.84,1.33V3.73a2,2,0,0,0-1.33-.57c-.88,0-1.57.84-1.57,2.08s.54,2.09,1.5,2.09A1.9,1.9,0,0,0,51.08,6.58Z"/><path class="cls-1" d="M53.44,5.25a2.54,2.54,0,1,1,5,0,2.54,2.54,0,1,1-5,0Zm4.1,0c0-1.25-.64-2.1-1.58-2.1s-1.57.85-1.57,2.1S55,7.33,56,7.33,57.54,6.5,57.54,5.25Z"/><path class="cls-1" d="M62.23.62h.93V8h-.93Z"/><path class="cls-1" d="M65,2.53h.75l.08.78h0a2.6,2.6,0,0,1,1.82-.92c1.13,0,1.65.74,1.65,2.13V8h-.9V4.64c0-1-.31-1.45-1-1.45A2.07,2.07,0,0,0,65.94,4V8H65Z"/><path class="cls-1" d="M70.77,5.25a2.64,2.64,0,0,1,2.62-2.86A2.32,2.32,0,0,1,75,3l-.47.6a1.61,1.61,0,0,0-1.08-.48c-1,0-1.71.85-1.71,2.1s.68,2.08,1.68,2.08a1.91,1.91,0,0,0,1.28-.54l.4.61a2.63,2.63,0,0,1-1.76.69A2.55,2.55,0,0,1,70.77,5.25Z"/><path class="cls-1" d="M76.29,7.4a.66.66,0,1,1,.66.69A.67.67,0,0,1,76.29,7.4Z"/><path class="cls-1" d="M81.13,4.35a3.61,3.61,0,1,1,7.22,0,3.61,3.61,0,1,1-7.22,0Zm6.7,0a3.09,3.09,0,1,0-6.18,0,3.09,3.09,0,1,0,6.18,0Zm-5,0a2,2,0,0,1,2.06-2.11,1.83,1.83,0,0,1,1.39.63l-.38.44a1.34,1.34,0,0,0-2.34,1c0,1,.52,1.6,1.33,1.6A1.69,1.69,0,0,0,86,5.45l.33.48a2.12,2.12,0,0,1-1.51.63A2,2,0,0,1,82.8,4.35Z"/><path class="cls-1" d="M92.14.62h.93V3.7h3.42V.62h.92V8h-.92V4.5H93.07V8h-.93Z"/><path class="cls-1" d="M99,6.55c0-1.18,1-1.77,3.34-2,0-.7-.23-1.37-1.12-1.37a3,3,0,0,0-1.63.58l-.36-.63a4.08,4.08,0,0,1,2.14-.71c1.32,0,1.88.89,1.88,2.23V8h-.75l-.08-.65h0a2.91,2.91,0,0,1-1.8.78A1.47,1.47,0,0,1,99,6.55Zm3.34.09V5.12c-1.83.22-2.45.67-2.45,1.37s.42.87,1,.87A2.22,2.22,0,0,0,102.29,6.64Z"/><path class="cls-1" d="M104.92,0h.9V5.4h0l2.31-2.87h1l-1.81,2.19,2,3.24h-1l-1.59-2.62-1,1.19V8h-.9Z"/><path class="cls-1" d="M110.38,6V2.53h.91V5.86c0,1,.3,1.44,1,1.44.56,0,1-.27,1.47-.92V2.53h.91V8h-.76l-.07-.85h0a2.33,2.33,0,0,1-1.8,1C110.89,8.09,110.38,7.35,110.38,6Z"/><path class="cls-1" d="M116.47,0h.91V2.18l0,1.12a2.55,2.55,0,0,1,1.8-.91c1.14,0,1.66.74,1.66,2.13V8h-.91V4.64c0-1-.31-1.45-1-1.45a2.07,2.07,0,0,0-1.49.83V8h-.91Z"/><path class="cls-1" d="M122.19,5.25a2.54,2.54,0,1,1,5,0,2.54,2.54,0,1,1-5,0Zm4.1,0c0-1.25-.64-2.1-1.58-2.1s-1.57.85-1.57,2.1.63,2.08,1.57,2.08S126.29,6.5,126.29,5.25Z"/><path class="cls-1" d="M128.38,5.25c0-1.76,1.1-2.86,2.34-2.86a2.21,2.21,0,0,1,1.53.64l0-.94V0h.9V8h-.74l-.08-.64h0a2.42,2.42,0,0,1-1.65.77C129.25,8.09,128.38,7.06,128.38,5.25Zm3.83,1.33V3.73a2,2,0,0,0-1.33-.57c-.88,0-1.57.84-1.57,2.08s.54,2.09,1.5,2.09A1.9,1.9,0,0,0,132.21,6.58Z"/><path class="cls-1" d="M134.58,5.25a2.54,2.54,0,1,1,5,0,2.53,2.53,0,1,1-5,0Zm4.09,0c0-1.25-.64-2.1-1.58-2.1s-1.57.85-1.57,2.1.63,2.08,1.57,2.08S138.67,6.5,138.67,5.25Z"/><path class="cls-1" d="M143.36.62h1.84c2.25,0,3.46,1.32,3.46,3.65S147.45,8,145.24,8h-1.88Zm1.76,6.58c1.73,0,2.58-1.08,2.58-2.93s-.85-2.89-2.58-2.89h-.83V7.2Z"/><path class="cls-1" d="M151.27,5.11,149.07.62h1L151,2.7c.24.54.46,1,.72,1.6h0c.26-.55.51-1.06.73-1.6l.95-2.08h1l-2.2,4.49V8h-.93Z"/><path class="cls-1" d="M157.63.62h1.12l1.41,3.93c.17.51.34,1,.52,1.53h0c.17-.51.33-1,.5-1.53l1.4-3.93h1.12V8h-.87V3.9c0-.63.07-1.52.12-2.16h0l-.58,1.67L161,7.22h-.62L159,3.41l-.58-1.67h0c0,.64.11,1.53.11,2.16V8h-.84Z"/><path class="cls-1" d="M165.3,5.25a2.63,2.63,0,0,1,2.45-2.86c1.38,0,2.16,1,2.16,2.55a3.55,3.55,0,0,1,0,.52h-3.66a1.8,1.8,0,0,0,1.8,1.9,2.34,2.34,0,0,0,1.36-.43l.33.6a3.23,3.23,0,0,1-1.8.56A2.6,2.6,0,0,1,165.3,5.25Zm3.81-.45c0-1.09-.5-1.68-1.35-1.68A1.67,1.67,0,0,0,166.2,4.8Z"/><path class="cls-1" d="M171,5.25c0-1.76,1.11-2.86,2.35-2.86a2.21,2.21,0,0,1,1.53.64l0-.94V0h.9V8H175l-.08-.64h0a2.42,2.42,0,0,1-1.65.77C171.86,8.09,171,7.06,171,5.25Zm3.84,1.33V3.73a2,2,0,0,0-1.33-.57c-.88,0-1.57.84-1.57,2.08s.54,2.09,1.5,2.09A1.9,1.9,0,0,0,174.82,6.58Z"/><path class="cls-1" d="M177.37.8a.61.61,0,0,1,1.22,0,.61.61,0,1,1-1.22,0Zm.15,1.73h.91V8h-.91Z"/><path class="cls-1" d="M179.83,6.55c0-1.18,1-1.77,3.34-2,0-.7-.23-1.37-1.12-1.37a3,3,0,0,0-1.63.58l-.36-.63a4.08,4.08,0,0,1,2.14-.71c1.32,0,1.88.89,1.88,2.23V8h-.75l-.08-.65h0a2.91,2.91,0,0,1-1.8.78A1.47,1.47,0,0,1,179.83,6.55Zm3.34.09V5.12c-1.83.22-2.45.67-2.45,1.37s.42.87,1,.87A2.22,2.22,0,0,0,183.17,6.64Z"/><path class="cls-1" d="M188.13.62h2.1c1.64,0,2.74.56,2.74,2.16s-1.09,2.27-2.7,2.27h-1.21V8h-.93Zm2,3.68c1.29,0,1.9-.47,1.9-1.52s-.65-1.4-1.94-1.4h-1.05V4.3Z"/><path class="cls-1" d="M194,6.55c0-1.18,1-1.77,3.34-2,0-.7-.23-1.37-1.12-1.37a3,3,0,0,0-1.63.58l-.36-.63a4.08,4.08,0,0,1,2.14-.71c1.32,0,1.88.89,1.88,2.23V8h-.75l-.08-.65h0a2.91,2.91,0,0,1-1.8.78A1.47,1.47,0,0,1,194,6.55Zm3.34.09V5.12c-1.83.22-2.45.67-2.45,1.37s.42.87,1,.87A2.22,2.22,0,0,0,197.36,6.64Z"/><path class="cls-1" d="M200,2.53h.75l.08,1h0a1.87,1.87,0,0,1,1.53-1.13,1.16,1.16,0,0,1,.58.12l-.17.8a1.28,1.28,0,0,0-.53-.09c-.45,0-1,.32-1.36,1.25V8H200Z"/><path class="cls-1" d="M204.49,6.28v-3h-.81V2.58l.85-.05L204.64,1h.76V2.53h1.47v.74H205.4v3c0,.67.21,1,.84,1a1.92,1.92,0,0,0,.62-.14l.18.67a3.13,3.13,0,0,1-1,.21C204.88,8.09,204.49,7.36,204.49,6.28Z"/><path class="cls-1" d="M208.17,2.53h.75l.08.78h0a2.6,2.6,0,0,1,1.81-.92c1.14,0,1.66.74,1.66,2.13V8h-.91V4.64c0-1-.3-1.45-1-1.45a2.07,2.07,0,0,0-1.49.83V8h-.91Z"/><path class="cls-1" d="M213.91,5.25a2.63,2.63,0,0,1,2.45-2.86c1.38,0,2.16,1,2.16,2.55a3.55,3.55,0,0,1,0,.52h-3.66a1.8,1.8,0,0,0,1.8,1.9A2.34,2.34,0,0,0,218,6.93l.33.6a3.23,3.23,0,0,1-1.8.56A2.6,2.6,0,0,1,213.91,5.25Zm3.81-.45c0-1.09-.5-1.68-1.35-1.68a1.67,1.67,0,0,0-1.56,1.68Z"/><path class="cls-1" d="M219.93,2.53h.74l.08,1h0a1.86,1.86,0,0,1,1.53-1.13,1.16,1.16,0,0,1,.58.12l-.17.8a1.28,1.28,0,0,0-.53-.09c-.45,0-1,.32-1.37,1.25V8h-.9Z"/><path class="cls-1" d="M223.38,7.34l.45-.6a2.46,2.46,0,0,0,1.61.64c.72,0,1.07-.38,1.07-.85s-.64-.8-1.24-1c-.76-.28-1.59-.65-1.59-1.57s.7-1.54,1.88-1.54a2.76,2.76,0,0,1,1.68.61l-.44.59a2,2,0,0,0-1.23-.48c-.69,0-1,.36-1,.78s.56.71,1.17.94c.79.3,1.66.62,1.66,1.65,0,.88-.7,1.61-2,1.61A3.28,3.28,0,0,1,223.38,7.34Z"/><path class="cls-1" d="M231,.62h.93V8H231Z"/><path class="cls-1" d="M233.79,2.53h.75l.08.78h0a2.6,2.6,0,0,1,1.81-.92c1.14,0,1.66.74,1.66,2.13V8h-.91V4.64c0-1-.3-1.45-1-1.45A2.07,2.07,0,0,0,234.7,4V8h-.91Z"/><path class="cls-1" d="M239.53,5.25a2.64,2.64,0,0,1,2.62-2.86,2.32,2.32,0,0,1,1.59.64l-.47.6a1.61,1.61,0,0,0-1.08-.48c-1,0-1.71.85-1.71,2.1s.68,2.08,1.68,2.08a1.91,1.91,0,0,0,1.28-.54l.4.61a2.63,2.63,0,0,1-1.76.69A2.55,2.55,0,0,1,239.53,5.25Z"/><path class="cls-1" d="M245.05,7.4a.66.66,0,1,1,.66.69A.67.67,0,0,1,245.05,7.4Z"/><path class="cls-1" d="M250,.62h1L253.52,8h-1l-.7-2.24h-2.68L248.45,8h-.94ZM249.39,5h2.22l-.35-1.12c-.27-.83-.5-1.63-.74-2.48h0c-.23.86-.47,1.65-.73,2.48Z"/><path class="cls-1" d="M254.55,6.88V0h.91V6.94c0,.28.12.39.25.39l.19,0L256,8a1.64,1.64,0,0,1-.53.08C254.83,8.09,254.55,7.65,254.55,6.88Z"/><path class="cls-1" d="M257.33,6.88V0h.91V6.94c0,.28.12.39.26.39l.19,0,.13.7a1.64,1.64,0,0,1-.53.08C257.61,8.09,257.33,7.65,257.33,6.88Z"/><path class="cls-1" d="M262.42,2.53h.75l.08,1h0a1.87,1.87,0,0,1,1.54-1.13,1.16,1.16,0,0,1,.58.12l-.17.8a1.28,1.28,0,0,0-.53-.09c-.45,0-1,.32-1.37,1.25V8h-.91Z"/><path class="cls-1" d="M266.29.8a.61.61,0,0,1,1.22,0,.61.61,0,0,1-1.22,0Zm.16,1.73h.9V8h-.9Z"/><path class="cls-1" d="M268.72,9a1.52,1.52,0,0,1,.8-1.22v0a1,1,0,0,1-.5-.89,1.32,1.32,0,0,1,.61-1v0a1.91,1.91,0,0,1-.71-1.46,1.93,1.93,0,0,1,2-1.94,2.24,2.24,0,0,1,.76.14h1.89v.7H272.5a1.55,1.55,0,0,1,.44,1.12,1.86,1.86,0,0,1-2,1.89,1.89,1.89,0,0,1-.81-.19.81.81,0,0,0-.35.65c0,.35.22.59.95.59h1.06c1.26,0,1.9.4,1.9,1.29s-1.07,1.88-2.75,1.88C269.63,10.46,268.72,9.93,268.72,9Zm4.1-.28c0-.5-.39-.67-1.11-.67h-.94a3,3,0,0,1-.7-.08,1.12,1.12,0,0,0-.55.92c0,.58.59.95,1.57.95S272.82,9.29,272.82,8.71Zm-.7-4.38a1.16,1.16,0,1,0-2.32,0,1.17,1.17,0,1,0,2.32,0Z"/><path class="cls-1" d="M274.81,0h.91V2.18l0,1.12a2.55,2.55,0,0,1,1.8-.91c1.14,0,1.66.74,1.66,2.13V8h-.91V4.64c0-1-.31-1.45-1-1.45a2.07,2.07,0,0,0-1.49.83V8h-.91Z"/><path class="cls-1" d="M281,6.28v-3h-.81V2.58l.85-.05L281.18,1h.76V2.53h1.46v.74h-1.46v3c0,.67.21,1,.83,1a1.92,1.92,0,0,0,.62-.14l.18.67a3.13,3.13,0,0,1-1,.21C281.42,8.09,281,7.36,281,6.28Z"/><path class="cls-1" d="M284.33,7.34l.45-.6a2.46,2.46,0,0,0,1.61.64c.72,0,1.07-.38,1.07-.85s-.64-.8-1.24-1c-.76-.28-1.59-.65-1.59-1.57s.7-1.54,1.88-1.54a2.76,2.76,0,0,1,1.68.61l-.44.59a2,2,0,0,0-1.23-.48c-.69,0-1,.36-1,.78s.56.71,1.17.94c.79.3,1.66.62,1.66,1.65,0,.88-.7,1.61-2,1.61A3.28,3.28,0,0,1,284.33,7.34Z"/><path class="cls-1" d="M291.86,2.53h.75l.08,1h0a1.87,1.87,0,0,1,1.54-1.13,1.16,1.16,0,0,1,.58.12l-.17.8a1.28,1.28,0,0,0-.53-.09c-.45,0-1,.32-1.37,1.25V8h-.91Z"/><path class="cls-1" d="M295.35,5.25a2.63,2.63,0,0,1,2.45-2.86c1.38,0,2.16,1,2.16,2.55a3.55,3.55,0,0,1,0,.52h-3.66a1.8,1.8,0,0,0,1.8,1.9,2.34,2.34,0,0,0,1.36-.43l.33.6a3.23,3.23,0,0,1-1.8.56A2.6,2.6,0,0,1,295.35,5.25Zm3.81-.45c0-1.09-.5-1.68-1.35-1.68a1.67,1.67,0,0,0-1.56,1.68Z"/><path class="cls-1" d="M300.81,7.34l.45-.6a2.46,2.46,0,0,0,1.61.64c.72,0,1.07-.38,1.07-.85s-.64-.8-1.24-1c-.76-.28-1.59-.65-1.59-1.57s.7-1.54,1.88-1.54a2.76,2.76,0,0,1,1.68.61l-.44.59A2,2,0,0,0,303,3.11c-.69,0-1,.36-1,.78s.56.71,1.17.94c.79.3,1.66.62,1.66,1.65,0,.88-.7,1.61-2,1.61A3.28,3.28,0,0,1,300.81,7.34Z"/><path class="cls-1" d="M305.8,5.25a2.63,2.63,0,0,1,2.45-2.86c1.38,0,2.16,1,2.16,2.55a3.55,3.55,0,0,1,0,.52h-3.66a1.8,1.8,0,0,0,1.8,1.9,2.34,2.34,0,0,0,1.36-.43l.33.6a3.23,3.23,0,0,1-1.8.56A2.6,2.6,0,0,1,305.8,5.25Zm3.81-.45c0-1.09-.5-1.68-1.35-1.68A1.67,1.67,0,0,0,306.7,4.8Z"/><path class="cls-1" d="M311.82,2.53h.75l.08,1h0a1.87,1.87,0,0,1,1.54-1.13,1.16,1.16,0,0,1,.58.12l-.17.8a1.28,1.28,0,0,0-.53-.09c-.45,0-1,.32-1.37,1.25V8h-.91Z"/><path class="cls-1" d="M315.43,2.53h.95l1,3.09c.17.53.34,1.09.51,1.6h0c.17-.51.34-1.07.5-1.6l1-3.09h.9L318.45,8h-1.06Z"/><path class="cls-1" d="M321,5.25a2.63,2.63,0,0,1,2.45-2.86c1.38,0,2.16,1,2.16,2.55a3.55,3.55,0,0,1,0,.52h-3.66a1.8,1.8,0,0,0,1.8,1.9A2.34,2.34,0,0,0,325,6.93l.33.6a3.23,3.23,0,0,1-1.8.56A2.6,2.6,0,0,1,321,5.25Zm3.81-.45c0-1.09-.5-1.68-1.35-1.68a1.67,1.67,0,0,0-1.56,1.68Z"/><path class="cls-1" d="M326.65,5.25c0-1.76,1.11-2.86,2.35-2.86a2.21,2.21,0,0,1,1.53.64l0-.94V0h.9V8h-.74l-.08-.64h0a2.42,2.42,0,0,1-1.65.77C327.53,8.09,326.65,7.06,326.65,5.25Zm3.84,1.33V3.73a2,2,0,0,0-1.33-.57c-.88,0-1.57.84-1.57,2.08s.54,2.09,1.5,2.09A1.9,1.9,0,0,0,330.49,6.58Z"/><path class="cls-1" d="M333.07,7.4a.66.66,0,1,1,.66.69A.67.67,0,0,1,333.07,7.4Z"/></g></g></svg>