<svg xmlns="http://www.w3.org/2000/svg" viewBox="0 0 240 50"><defs><style>.cls-1{fill:#00afd7;}.cls-2{fill:#425563;}</style></defs><g id="レイヤー_2" data-name="レイヤー 2"><g id="レイヤー_1-2" data-name="レイヤー 1"><polygon class="cls-1" points="235.81 15 240 15 211.66 50 207.47 50 235.81 15"/><polygon class="cls-1" points="28.34 0 32.53 0 4.19 35 0 35 28.34 0"/><polygon class="cls-2" points="45.14 30.88 45.14 30.91 32.26 15 30.16 15 30.16 35 32.53 35 32.53 19.09 45.41 35 45.41 35 47.54 35 47.54 15 45.14 15 45.14 30.88"/><rect class="cls-2" x="75.62" y="15" width="2.42" height="20"/><path class="cls-2" d="M69.53,20.83c0-3.56-2.34-5.83-7.66-5.83H54.46V35h2.4V17.09h5c3.41,0,5.19,1.35,5.19,3.88s-2,4.24-5.22,4.24H59.72L67.65,35h3l-6.52-8.06A6.25,6.25,0,0,0,69.53,20.83Z"/><path class="cls-2" d="M167.34,15V26.69c0,4.43-2.21,6.86-6.11,6.86s-6.13-2.43-6.13-6.86V15h-2.38V26.94c0,5.78,3.51,8.72,8.52,8.72s8.52-2.94,8.52-8.72h0V15Z"/><path class="cls-1" d="M99.77,23.81c-4.14-.43-5.4-2.13-5.4-4,0-2.14,2.23-3.39,4.56-3.39a6.92,6.92,0,0,1,5.37,2.35L105.74,17a9.78,9.78,0,0,0-6.82-2.62c-3.89,0-7,2.19-7,5.71,0,3.12,2.66,5.49,6.17,5.86,3.82.4,6,1.27,6,4,0,2.25-2.42,3.67-5.11,3.67A7.6,7.6,0,0,1,92.6,30.3L91,32.12a9.56,9.56,0,0,0,7.9,3.54c4.32,0,7.6-2.31,7.6-6S104,24.26,99.77,23.81Z"/><polygon class="cls-2" points="210.83 15 197.25 15 197.25 35 210.83 35 210.83 32.94 199.64 32.94 199.64 17.06 210.83 17.06 210.83 15"/><polygon class="cls-2" points="210.71 25.91 210.71 23.87 202.03 23.87 203.68 25.91 210.71 25.91"/><path class="cls-2" d="M191.17,20.83c0-3.56-2.34-5.83-7.66-5.83H176.1V35h2.4V17.09h5c3.41,0,5.19,1.35,5.19,3.88s-2,4.24-5.22,4.24h-2.13l7.94,9.8h3L185.76,27A6.26,6.26,0,0,0,191.17,20.83Z"/><polygon class="cls-2" points="111.84 15 111.84 35 125.41 35 125.41 32.94 114.22 32.94 114.22 17.06 125.41 17.06 125.41 15 111.84 15"/><polygon class="cls-2" points="125.29 25.91 125.29 23.87 116.62 23.87 118.27 25.91 125.29 25.91"/><path class="cls-2" d="M140,16.68a7.77,7.77,0,0,1,6.07,2.8l1.5-1.86a10.57,10.57,0,1,0-.21,15l.21-.21-1.5-1.86A7.77,7.77,0,0,1,140,33.3a8.32,8.32,0,0,1,0-16.63Z"/></g></g></svg>